G75*
%MOIN*%
%OFA0B0*%
%FSLAX25Y25*%
%IPPOS*%
%LPD*%
%AMOC8*
5,1,8,0,0,1.08239X$1,22.5*
%
%ADD10R,0.07400X0.07400*%
%ADD11C,0.07400*%
%ADD12C,0.03200*%
%ADD13C,0.01000*%
%ADD14C,0.01200*%
%ADD15C,0.00600*%
D10*
X0014867Y0012167D03*
X0074867Y0012167D03*
D11*
X0074867Y0022167D03*
X0074867Y0032167D03*
X0074867Y0042167D03*
X0014867Y0042167D03*
X0014867Y0032167D03*
X0014867Y0022167D03*
D12*
X0024867Y0021167D03*
X0028867Y0021167D03*
X0032867Y0021167D03*
X0033367Y0012167D03*
X0036367Y0008667D03*
X0027367Y0007167D03*
X0022867Y0007167D03*
X0048867Y0024167D03*
X0051867Y0021167D03*
X0055867Y0021167D03*
X0059867Y0021167D03*
X0062867Y0024167D03*
X0059367Y0012167D03*
X0059367Y0008167D03*
X0063767Y0008167D03*
X0068167Y0008167D03*
X0057367Y0037667D03*
X0051367Y0037667D03*
X0051367Y0041667D03*
X0051367Y0045667D03*
D13*
X0025367Y0011667D02*
X0014867Y0022167D01*
X0025367Y0011667D02*
X0027867Y0011667D01*
X0030867Y0008667D01*
X0036367Y0008667D01*
D14*
X0033367Y0012167D02*
X0030867Y0012167D01*
X0028367Y0014667D01*
X0025867Y0014667D01*
X0021367Y0019167D01*
X0021367Y0035667D01*
X0014867Y0042167D01*
D15*
X0011167Y0007367D02*
X0011167Y0005467D01*
X0078488Y0005467D01*
X0078488Y0007367D01*
X0070711Y0007367D01*
X0070067Y0008011D01*
X0070067Y0016322D01*
X0070711Y0016967D01*
X0078488Y0016967D01*
X0078488Y0019000D01*
X0077586Y0018097D01*
X0075821Y0017367D01*
X0073912Y0017367D01*
X0072148Y0018097D01*
X0070797Y0019448D01*
X0070067Y0021212D01*
X0070067Y0023121D01*
X0070797Y0024886D01*
X0072148Y0026236D01*
X0073912Y0026967D01*
X0075821Y0026967D01*
X0077586Y0026236D01*
X0078488Y0025334D01*
X0078488Y0039000D01*
X0077586Y0038097D01*
X0075821Y0037367D01*
X0073912Y0037367D01*
X0072148Y0038097D01*
X0070797Y0039448D01*
X0070067Y0041212D01*
X0070067Y0043121D01*
X0070797Y0044886D01*
X0072148Y0046236D01*
X0073912Y0046967D01*
X0075821Y0046967D01*
X0077586Y0046236D01*
X0078488Y0045334D01*
X0078488Y0048567D01*
X0011167Y0048567D01*
X0011167Y0045255D01*
X0012148Y0046236D01*
X0013912Y0046967D01*
X0015821Y0046967D01*
X0017586Y0046236D01*
X0018936Y0044886D01*
X0019667Y0043121D01*
X0019667Y0041212D01*
X0019245Y0040193D01*
X0023067Y0036371D01*
X0023067Y0019871D01*
X0026571Y0016367D01*
X0029071Y0016367D01*
X0030067Y0015371D01*
X0031410Y0014028D01*
X0031837Y0014456D01*
X0032830Y0014867D01*
X0033904Y0014867D01*
X0034896Y0014456D01*
X0035656Y0013696D01*
X0036067Y0012704D01*
X0036067Y0011630D01*
X0035958Y0011367D01*
X0036904Y0011367D01*
X0037896Y0010956D01*
X0038656Y0010196D01*
X0039067Y0009204D01*
X0039067Y0008130D01*
X0038656Y0007137D01*
X0037896Y0006378D01*
X0036904Y0005967D01*
X0035830Y0005967D01*
X0034837Y0006378D01*
X0034148Y0007067D01*
X0030204Y0007067D01*
X0027204Y0010067D01*
X0024704Y0010067D01*
X0019667Y0015104D01*
X0019667Y0008011D01*
X0019022Y0007367D01*
X0011167Y0007367D01*
X0011167Y0007159D02*
X0030111Y0007159D01*
X0029513Y0007758D02*
X0019413Y0007758D01*
X0019667Y0008356D02*
X0028914Y0008356D01*
X0028316Y0008955D02*
X0019667Y0008955D01*
X0019667Y0009553D02*
X0027717Y0009553D01*
X0024619Y0010152D02*
X0019667Y0010152D01*
X0019667Y0010750D02*
X0024020Y0010750D01*
X0023422Y0011349D02*
X0019667Y0011349D01*
X0019667Y0011947D02*
X0022823Y0011947D01*
X0022225Y0012546D02*
X0019667Y0012546D01*
X0019667Y0013144D02*
X0021626Y0013144D01*
X0021028Y0013743D02*
X0019667Y0013743D01*
X0019667Y0014341D02*
X0020429Y0014341D01*
X0019831Y0014940D02*
X0019667Y0014940D01*
X0025005Y0017932D02*
X0072546Y0017932D01*
X0071714Y0018531D02*
X0024407Y0018531D01*
X0023808Y0019129D02*
X0071116Y0019129D01*
X0070681Y0019728D02*
X0023210Y0019728D01*
X0023067Y0020326D02*
X0070433Y0020326D01*
X0070185Y0020925D02*
X0023067Y0020925D01*
X0023067Y0021523D02*
X0070067Y0021523D01*
X0070067Y0022122D02*
X0023067Y0022122D01*
X0023067Y0022721D02*
X0070067Y0022721D01*
X0070149Y0023319D02*
X0023067Y0023319D01*
X0023067Y0023918D02*
X0070396Y0023918D01*
X0070644Y0024516D02*
X0023067Y0024516D01*
X0023067Y0025115D02*
X0071026Y0025115D01*
X0071625Y0025713D02*
X0023067Y0025713D01*
X0023067Y0026312D02*
X0072330Y0026312D01*
X0073775Y0026910D02*
X0023067Y0026910D01*
X0023067Y0027509D02*
X0078488Y0027509D01*
X0078488Y0028107D02*
X0023067Y0028107D01*
X0023067Y0028706D02*
X0078488Y0028706D01*
X0078488Y0029304D02*
X0023067Y0029304D01*
X0023067Y0029903D02*
X0078488Y0029903D01*
X0078488Y0030501D02*
X0023067Y0030501D01*
X0023067Y0031100D02*
X0078488Y0031100D01*
X0078488Y0031698D02*
X0023067Y0031698D01*
X0023067Y0032297D02*
X0078488Y0032297D01*
X0078488Y0032895D02*
X0023067Y0032895D01*
X0023067Y0033494D02*
X0078488Y0033494D01*
X0078488Y0034092D02*
X0023067Y0034092D01*
X0023067Y0034691D02*
X0078488Y0034691D01*
X0078488Y0035289D02*
X0023067Y0035289D01*
X0023067Y0035888D02*
X0078488Y0035888D01*
X0078488Y0036486D02*
X0022951Y0036486D01*
X0022353Y0037085D02*
X0078488Y0037085D01*
X0078488Y0037683D02*
X0076586Y0037683D01*
X0077770Y0038282D02*
X0078488Y0038282D01*
X0078488Y0038880D02*
X0078369Y0038880D01*
X0073147Y0037683D02*
X0021754Y0037683D01*
X0021156Y0038282D02*
X0071963Y0038282D01*
X0071365Y0038880D02*
X0020557Y0038880D01*
X0019959Y0039479D02*
X0070785Y0039479D01*
X0070537Y0040077D02*
X0019360Y0040077D01*
X0019445Y0040676D02*
X0070289Y0040676D01*
X0070067Y0041274D02*
X0019667Y0041274D01*
X0019667Y0041873D02*
X0070067Y0041873D01*
X0070067Y0042471D02*
X0019667Y0042471D01*
X0019667Y0043070D02*
X0070067Y0043070D01*
X0070293Y0043668D02*
X0019440Y0043668D01*
X0019192Y0044267D02*
X0070541Y0044267D01*
X0070789Y0044865D02*
X0018944Y0044865D01*
X0018358Y0045464D02*
X0071376Y0045464D01*
X0071974Y0046062D02*
X0017759Y0046062D01*
X0016559Y0046661D02*
X0073174Y0046661D01*
X0076559Y0046661D02*
X0078488Y0046661D01*
X0078488Y0047259D02*
X0011167Y0047259D01*
X0011167Y0046661D02*
X0013174Y0046661D01*
X0011974Y0046062D02*
X0011167Y0046062D01*
X0011167Y0045464D02*
X0011376Y0045464D01*
X0011167Y0047858D02*
X0078488Y0047858D01*
X0078488Y0048456D02*
X0011167Y0048456D01*
X0011167Y0039078D02*
X0012148Y0038097D01*
X0013912Y0037367D01*
X0015821Y0037367D01*
X0016840Y0037789D01*
X0019667Y0034962D01*
X0019667Y0019629D01*
X0019203Y0020093D01*
X0019667Y0021212D01*
X0019667Y0023121D01*
X0018936Y0024886D01*
X0017586Y0026236D01*
X0015821Y0026967D01*
X0013912Y0026967D01*
X0012148Y0026236D01*
X0011167Y0025255D01*
X0011167Y0039078D01*
X0011167Y0038880D02*
X0011365Y0038880D01*
X0011167Y0038282D02*
X0011963Y0038282D01*
X0011167Y0037683D02*
X0013147Y0037683D01*
X0011167Y0037085D02*
X0017544Y0037085D01*
X0016946Y0037683D02*
X0016586Y0037683D01*
X0018143Y0036486D02*
X0011167Y0036486D01*
X0011167Y0035888D02*
X0018741Y0035888D01*
X0019340Y0035289D02*
X0011167Y0035289D01*
X0011167Y0034691D02*
X0019667Y0034691D01*
X0019667Y0034092D02*
X0011167Y0034092D01*
X0011167Y0033494D02*
X0019667Y0033494D01*
X0019667Y0032895D02*
X0011167Y0032895D01*
X0011167Y0032297D02*
X0019667Y0032297D01*
X0019667Y0031698D02*
X0011167Y0031698D01*
X0011167Y0031100D02*
X0019667Y0031100D01*
X0019667Y0030501D02*
X0011167Y0030501D01*
X0011167Y0029903D02*
X0019667Y0029903D01*
X0019667Y0029304D02*
X0011167Y0029304D01*
X0011167Y0028706D02*
X0019667Y0028706D01*
X0019667Y0028107D02*
X0011167Y0028107D01*
X0011167Y0027509D02*
X0019667Y0027509D01*
X0019667Y0026910D02*
X0015958Y0026910D01*
X0017403Y0026312D02*
X0019667Y0026312D01*
X0019667Y0025713D02*
X0018108Y0025713D01*
X0018707Y0025115D02*
X0019667Y0025115D01*
X0019667Y0024516D02*
X0019089Y0024516D01*
X0019337Y0023918D02*
X0019667Y0023918D01*
X0019667Y0023319D02*
X0019585Y0023319D01*
X0019667Y0022721D02*
X0019667Y0022721D01*
X0019667Y0022122D02*
X0019667Y0022122D01*
X0019667Y0021523D02*
X0019667Y0021523D01*
X0019667Y0020925D02*
X0019548Y0020925D01*
X0019667Y0020326D02*
X0019300Y0020326D01*
X0019568Y0019728D02*
X0019667Y0019728D01*
X0025604Y0017334D02*
X0078488Y0017334D01*
X0078488Y0017932D02*
X0077187Y0017932D01*
X0078019Y0018531D02*
X0078488Y0018531D01*
X0070480Y0016735D02*
X0026202Y0016735D01*
X0029301Y0016137D02*
X0070067Y0016137D01*
X0070067Y0015538D02*
X0029899Y0015538D01*
X0030498Y0014940D02*
X0070067Y0014940D01*
X0070067Y0014341D02*
X0035010Y0014341D01*
X0035609Y0013743D02*
X0070067Y0013743D01*
X0070067Y0013144D02*
X0035884Y0013144D01*
X0036067Y0012546D02*
X0070067Y0012546D01*
X0070067Y0011947D02*
X0036067Y0011947D01*
X0036947Y0011349D02*
X0070067Y0011349D01*
X0070067Y0010750D02*
X0038101Y0010750D01*
X0038674Y0010152D02*
X0070067Y0010152D01*
X0070067Y0009553D02*
X0038922Y0009553D01*
X0039067Y0008955D02*
X0070067Y0008955D01*
X0070067Y0008356D02*
X0039067Y0008356D01*
X0038913Y0007758D02*
X0070320Y0007758D01*
X0078488Y0007159D02*
X0038665Y0007159D01*
X0038079Y0006561D02*
X0078488Y0006561D01*
X0078488Y0005962D02*
X0011167Y0005962D01*
X0011167Y0006561D02*
X0034654Y0006561D01*
X0031723Y0014341D02*
X0031096Y0014341D01*
X0012330Y0026312D02*
X0011167Y0026312D01*
X0011167Y0026910D02*
X0013775Y0026910D01*
X0011625Y0025713D02*
X0011167Y0025713D01*
X0075958Y0026910D02*
X0078488Y0026910D01*
X0078488Y0026312D02*
X0077403Y0026312D01*
X0078108Y0025713D02*
X0078488Y0025713D01*
X0078358Y0045464D02*
X0078488Y0045464D01*
X0078488Y0046062D02*
X0077759Y0046062D01*
M02*
