%
M48
M72
T01C0.01600
T02C0.04000
%
T01
X22867Y7167
X27367Y7167
X33367Y12167
X36367Y8667
X32867Y21167
X28867Y21167
X24867Y21167
X48867Y24167
X51867Y21167
X55867Y21167
X59867Y21167
X62867Y24167
X59367Y12167
X59367Y8167
X63767Y8167
X68167Y8167
X57367Y37667
X51367Y37667
X51367Y41667
X51367Y45667
T02
X14867Y12167
X14867Y22167
X14867Y32167
X14867Y42167
X74867Y42167
X74867Y32167
X74867Y22167
X74867Y12167
M30
