G75*
%MOIN*%
%OFA0B0*%
%FSLAX25Y25*%
%IPPOS*%
%LPD*%
%AMOC8*
5,1,8,0,0,1.08239X$1,22.5*
%
%ADD10C,0.00400*%
%ADD11R,0.00591X0.01181*%
%ADD12R,0.01181X0.01181*%
%ADD13R,0.01575X0.01575*%
%ADD14C,0.00500*%
D10*
X0012647Y0004967D02*
X0012647Y0006968D01*
X0013648Y0006968D01*
X0013981Y0006635D01*
X0013981Y0005968D01*
X0013648Y0005634D01*
X0012647Y0005634D01*
X0014857Y0005300D02*
X0015190Y0004967D01*
X0015858Y0004967D01*
X0016191Y0005300D01*
X0016191Y0005634D01*
X0015858Y0005968D01*
X0015190Y0005968D01*
X0014857Y0006301D01*
X0014857Y0006635D01*
X0015190Y0006968D01*
X0015858Y0006968D01*
X0016191Y0006635D01*
X0020665Y0020367D02*
X0022667Y0020367D01*
X0022667Y0021701D01*
X0022667Y0022577D02*
X0020665Y0022577D01*
X0022667Y0023911D01*
X0020665Y0023911D01*
X0020665Y0021701D02*
X0020665Y0020367D01*
X0021666Y0020367D02*
X0021666Y0021034D01*
X0020999Y0029367D02*
X0022333Y0029367D01*
X0022667Y0029700D01*
X0022667Y0030368D01*
X0022333Y0030701D01*
X0021666Y0030701D01*
X0021666Y0030034D01*
X0020999Y0030701D02*
X0020665Y0030368D01*
X0020665Y0029700D01*
X0020999Y0029367D01*
X0020665Y0031577D02*
X0022667Y0032911D01*
X0020665Y0032911D01*
X0020665Y0033786D02*
X0020665Y0034787D01*
X0020999Y0035121D01*
X0022333Y0035121D01*
X0022667Y0034787D01*
X0022667Y0033786D01*
X0020665Y0033786D01*
X0020665Y0031577D02*
X0022667Y0031577D01*
X0021999Y0039367D02*
X0020665Y0039367D01*
X0021999Y0039367D02*
X0022667Y0040034D01*
X0021999Y0040701D01*
X0020665Y0040701D01*
X0020665Y0041577D02*
X0020665Y0042244D01*
X0020665Y0041910D02*
X0022667Y0041910D01*
X0022667Y0041577D02*
X0022667Y0042244D01*
X0022667Y0043050D02*
X0020665Y0043050D01*
X0022667Y0044384D01*
X0020665Y0044384D01*
X0067067Y0044633D02*
X0067067Y0043966D01*
X0067400Y0043632D01*
X0067734Y0043632D01*
X0068068Y0043966D01*
X0068068Y0044299D01*
X0068068Y0043966D02*
X0068401Y0043632D01*
X0068735Y0043632D01*
X0069068Y0043966D01*
X0069068Y0044633D01*
X0068735Y0044967D01*
X0067400Y0044967D02*
X0067067Y0044633D01*
X0067734Y0042757D02*
X0067067Y0042090D01*
X0067734Y0041422D01*
X0069068Y0041422D01*
X0068735Y0040547D02*
X0069068Y0040213D01*
X0069068Y0039546D01*
X0068735Y0039212D01*
X0068401Y0039212D01*
X0068068Y0039546D01*
X0067734Y0039212D01*
X0067400Y0039212D01*
X0067067Y0039546D01*
X0067067Y0040213D01*
X0067400Y0040547D01*
X0068068Y0039880D02*
X0068068Y0039546D01*
X0067734Y0042757D02*
X0069068Y0042757D01*
X0068735Y0034967D02*
X0067400Y0034967D01*
X0067067Y0034633D01*
X0067067Y0033966D01*
X0067400Y0033632D01*
X0068068Y0033632D01*
X0068068Y0034299D01*
X0068735Y0033632D02*
X0069068Y0033966D01*
X0069068Y0034633D01*
X0068735Y0034967D01*
X0069068Y0032757D02*
X0067067Y0032757D01*
X0067067Y0031422D02*
X0069068Y0031422D01*
X0069068Y0030547D02*
X0069068Y0029546D01*
X0068735Y0029212D01*
X0067400Y0029212D01*
X0067067Y0029546D01*
X0067067Y0030547D01*
X0069068Y0030547D01*
X0067067Y0031422D02*
X0069068Y0032757D01*
D11*
X0058843Y0043076D03*
X0055890Y0043076D03*
D12*
X0057367Y0043076D03*
D13*
X0049347Y0030678D03*
D14*
X0043772Y0036261D02*
X0039961Y0036261D01*
X0039961Y0048072D02*
X0043772Y0048072D01*
M02*
