G75*
%MOIN*%
%OFA0B0*%
%FSLAX25Y25*%
%IPPOS*%
%LPD*%
%AMOC8*
5,1,8,0,0,1.08239X$1,22.5*
%
%ADD10R,0.04737X0.05131*%
%ADD11R,0.08200X0.08200*%
%ADD12C,0.08200*%
%ADD13R,0.03950X0.03950*%
%ADD14R,0.03556X0.04343*%
%ADD15R,0.04343X0.03556*%
%ADD16R,0.01981X0.04146*%
%ADD17R,0.10643X0.06706*%
%ADD18R,0.03950X0.11430*%
%ADD19C,0.00100*%
D10*
X0025867Y0024320D03*
X0031867Y0024320D03*
X0031867Y0031013D03*
X0025867Y0031013D03*
X0052867Y0031513D03*
X0058867Y0031513D03*
X0058867Y0024820D03*
X0052867Y0024820D03*
D11*
X0014867Y0012167D03*
X0074867Y0012167D03*
D12*
X0074867Y0022167D03*
X0074867Y0032167D03*
X0074867Y0042167D03*
X0014867Y0042167D03*
X0014867Y0032167D03*
X0014867Y0022167D03*
D13*
X0057367Y0040714D03*
X0057367Y0046619D03*
D14*
X0055426Y0015667D03*
X0050308Y0015667D03*
X0050308Y0010167D03*
X0055426Y0010167D03*
X0026926Y0012167D03*
X0021808Y0012167D03*
D15*
X0043167Y0013726D03*
X0043167Y0008608D03*
X0063867Y0041608D03*
X0063867Y0046726D03*
D16*
X0045804Y0030974D03*
X0043835Y0030974D03*
X0041867Y0030974D03*
X0039898Y0030974D03*
X0037930Y0030974D03*
X0037930Y0019360D03*
X0039898Y0019360D03*
X0041867Y0019360D03*
X0043835Y0019360D03*
X0045804Y0019360D03*
D17*
X0041867Y0025167D03*
D18*
X0046197Y0042167D03*
X0037536Y0042167D03*
D19*
X0033767Y0041767D02*
X0031467Y0041267D01*
X0031167Y0041767D01*
X0031467Y0042267D01*
X0033767Y0041767D01*
X0033623Y0041798D02*
X0031185Y0041798D01*
X0031207Y0041699D02*
X0033458Y0041699D01*
X0033169Y0041896D02*
X0031245Y0041896D01*
X0031304Y0041995D02*
X0032716Y0041995D01*
X0032263Y0042094D02*
X0031363Y0042094D01*
X0031422Y0042192D02*
X0031810Y0042192D01*
X0031266Y0041601D02*
X0033004Y0041601D01*
X0032551Y0041502D02*
X0031325Y0041502D01*
X0031384Y0041404D02*
X0032098Y0041404D01*
X0031645Y0041305D02*
X0031443Y0041305D01*
X0030955Y0041010D02*
X0027794Y0041010D01*
X0027855Y0041108D02*
X0030891Y0041108D01*
X0030828Y0041207D02*
X0027917Y0041207D01*
X0027978Y0041305D02*
X0030764Y0041305D01*
X0030701Y0041404D02*
X0028040Y0041404D01*
X0028102Y0041502D02*
X0030637Y0041502D01*
X0030574Y0041601D02*
X0028163Y0041601D01*
X0028225Y0041699D02*
X0030510Y0041699D01*
X0030467Y0041767D02*
X0032467Y0044767D01*
X0029367Y0042867D01*
X0026367Y0044767D01*
X0028267Y0041767D01*
X0026267Y0038567D01*
X0029367Y0040567D01*
X0032467Y0038667D01*
X0030467Y0041767D01*
X0030488Y0041798D02*
X0028247Y0041798D01*
X0028184Y0041896D02*
X0030553Y0041896D01*
X0030619Y0041995D02*
X0028122Y0041995D01*
X0028060Y0042094D02*
X0030685Y0042094D01*
X0030750Y0042192D02*
X0027997Y0042192D01*
X0027935Y0042291D02*
X0030816Y0042291D01*
X0030882Y0042389D02*
X0027872Y0042389D01*
X0027810Y0042488D02*
X0030947Y0042488D01*
X0031013Y0042586D02*
X0027748Y0042586D01*
X0027685Y0042685D02*
X0031079Y0042685D01*
X0031144Y0042783D02*
X0027623Y0042783D01*
X0027561Y0042882D02*
X0029343Y0042882D01*
X0029391Y0042882D02*
X0031210Y0042882D01*
X0031276Y0042980D02*
X0029552Y0042980D01*
X0029713Y0043079D02*
X0031341Y0043079D01*
X0031407Y0043177D02*
X0029873Y0043177D01*
X0030034Y0043276D02*
X0031473Y0043276D01*
X0031538Y0043374D02*
X0030195Y0043374D01*
X0030355Y0043473D02*
X0031604Y0043473D01*
X0031670Y0043571D02*
X0030516Y0043571D01*
X0030677Y0043670D02*
X0031735Y0043670D01*
X0031801Y0043768D02*
X0030838Y0043768D01*
X0030998Y0043867D02*
X0031867Y0043867D01*
X0031932Y0043965D02*
X0031159Y0043965D01*
X0031320Y0044064D02*
X0031998Y0044064D01*
X0032064Y0044162D02*
X0031481Y0044162D01*
X0031641Y0044261D02*
X0032129Y0044261D01*
X0032195Y0044359D02*
X0031802Y0044359D01*
X0031963Y0044458D02*
X0032261Y0044458D01*
X0032326Y0044556D02*
X0032123Y0044556D01*
X0032284Y0044655D02*
X0032392Y0044655D01*
X0032445Y0044753D02*
X0032458Y0044753D01*
X0029784Y0044162D02*
X0028949Y0044162D01*
X0028929Y0044064D02*
X0029805Y0044064D01*
X0029825Y0043965D02*
X0028908Y0043965D01*
X0028888Y0043867D02*
X0029846Y0043867D01*
X0029866Y0043768D02*
X0028867Y0043768D01*
X0028867Y0043767D02*
X0029367Y0043467D01*
X0029867Y0043767D01*
X0029367Y0046167D01*
X0028867Y0043767D01*
X0029028Y0043670D02*
X0029705Y0043670D01*
X0029541Y0043571D02*
X0029192Y0043571D01*
X0029357Y0043473D02*
X0029377Y0043473D01*
X0029032Y0043079D02*
X0027436Y0043079D01*
X0027373Y0043177D02*
X0028876Y0043177D01*
X0028721Y0043276D02*
X0027311Y0043276D01*
X0027249Y0043374D02*
X0028565Y0043374D01*
X0028410Y0043473D02*
X0027186Y0043473D01*
X0027124Y0043571D02*
X0028254Y0043571D01*
X0028099Y0043670D02*
X0027061Y0043670D01*
X0026999Y0043768D02*
X0027943Y0043768D01*
X0027788Y0043867D02*
X0026937Y0043867D01*
X0026874Y0043965D02*
X0027632Y0043965D01*
X0027477Y0044064D02*
X0026812Y0044064D01*
X0026749Y0044162D02*
X0027321Y0044162D01*
X0027165Y0044261D02*
X0026687Y0044261D01*
X0026625Y0044359D02*
X0027010Y0044359D01*
X0026854Y0044458D02*
X0026562Y0044458D01*
X0026500Y0044556D02*
X0026699Y0044556D01*
X0026543Y0044655D02*
X0026437Y0044655D01*
X0026388Y0044753D02*
X0026375Y0044753D01*
X0027498Y0042980D02*
X0029188Y0042980D01*
X0028970Y0044261D02*
X0029764Y0044261D01*
X0029743Y0044359D02*
X0028990Y0044359D01*
X0029011Y0044458D02*
X0029723Y0044458D01*
X0029702Y0044556D02*
X0029031Y0044556D01*
X0029052Y0044655D02*
X0029682Y0044655D01*
X0029661Y0044753D02*
X0029072Y0044753D01*
X0029093Y0044852D02*
X0029641Y0044852D01*
X0029620Y0044950D02*
X0029113Y0044950D01*
X0029134Y0045049D02*
X0029600Y0045049D01*
X0029579Y0045147D02*
X0029154Y0045147D01*
X0029175Y0045246D02*
X0029558Y0045246D01*
X0029538Y0045344D02*
X0029195Y0045344D01*
X0029216Y0045443D02*
X0029517Y0045443D01*
X0029497Y0045541D02*
X0029236Y0045541D01*
X0029257Y0045640D02*
X0029476Y0045640D01*
X0029456Y0045738D02*
X0029277Y0045738D01*
X0029298Y0045837D02*
X0029435Y0045837D01*
X0029415Y0045935D02*
X0029318Y0045935D01*
X0029339Y0046034D02*
X0029394Y0046034D01*
X0029374Y0046132D02*
X0029360Y0046132D01*
X0027267Y0042267D02*
X0027667Y0041767D01*
X0027267Y0041267D01*
X0024967Y0041767D01*
X0027267Y0042267D01*
X0027326Y0042192D02*
X0026923Y0042192D01*
X0026470Y0042094D02*
X0027405Y0042094D01*
X0027484Y0041995D02*
X0026017Y0041995D01*
X0025564Y0041896D02*
X0027563Y0041896D01*
X0027642Y0041798D02*
X0025111Y0041798D01*
X0025276Y0041699D02*
X0027613Y0041699D01*
X0027534Y0041601D02*
X0025729Y0041601D01*
X0026182Y0041502D02*
X0027455Y0041502D01*
X0027376Y0041404D02*
X0026635Y0041404D01*
X0027088Y0041305D02*
X0027298Y0041305D01*
X0027732Y0040911D02*
X0031018Y0040911D01*
X0031082Y0040813D02*
X0027671Y0040813D01*
X0027609Y0040714D02*
X0031146Y0040714D01*
X0031209Y0040616D02*
X0027547Y0040616D01*
X0027486Y0040517D02*
X0029290Y0040517D01*
X0029447Y0040517D02*
X0031273Y0040517D01*
X0031336Y0040419D02*
X0029608Y0040419D01*
X0029769Y0040320D02*
X0031400Y0040320D01*
X0031463Y0040222D02*
X0029929Y0040222D01*
X0030090Y0040123D02*
X0031527Y0040123D01*
X0031590Y0040025D02*
X0030251Y0040025D01*
X0030412Y0039926D02*
X0031654Y0039926D01*
X0031718Y0039828D02*
X0030572Y0039828D01*
X0030733Y0039729D02*
X0031781Y0039729D01*
X0031845Y0039631D02*
X0030894Y0039631D01*
X0031054Y0039532D02*
X0031908Y0039532D01*
X0031972Y0039434D02*
X0031215Y0039434D01*
X0031376Y0039335D02*
X0032035Y0039335D01*
X0032099Y0039237D02*
X0031537Y0039237D01*
X0031697Y0039138D02*
X0032162Y0039138D01*
X0032226Y0039040D02*
X0031858Y0039040D01*
X0032019Y0038941D02*
X0032290Y0038941D01*
X0032353Y0038843D02*
X0032180Y0038843D01*
X0032340Y0038744D02*
X0032417Y0038744D01*
X0029798Y0039335D02*
X0028936Y0039335D01*
X0028956Y0039237D02*
X0029777Y0039237D01*
X0029757Y0039138D02*
X0028977Y0039138D01*
X0028997Y0039040D02*
X0029736Y0039040D01*
X0029716Y0038941D02*
X0029018Y0038941D01*
X0029038Y0038843D02*
X0029695Y0038843D01*
X0029674Y0038744D02*
X0029059Y0038744D01*
X0029079Y0038646D02*
X0029654Y0038646D01*
X0029633Y0038547D02*
X0029100Y0038547D01*
X0029120Y0038449D02*
X0029613Y0038449D01*
X0029592Y0038350D02*
X0029141Y0038350D01*
X0029161Y0038252D02*
X0029572Y0038252D01*
X0029551Y0038153D02*
X0029182Y0038153D01*
X0029203Y0038055D02*
X0029531Y0038055D01*
X0029510Y0037956D02*
X0029223Y0037956D01*
X0029244Y0037858D02*
X0029490Y0037858D01*
X0029469Y0037759D02*
X0029264Y0037759D01*
X0029285Y0037661D02*
X0029449Y0037661D01*
X0029428Y0037562D02*
X0029305Y0037562D01*
X0029326Y0037463D02*
X0029408Y0037463D01*
X0029387Y0037365D02*
X0029346Y0037365D01*
X0029367Y0037267D02*
X0029867Y0039667D01*
X0029367Y0039967D01*
X0028867Y0039667D01*
X0029367Y0037267D01*
X0027000Y0039040D02*
X0026562Y0039040D01*
X0026624Y0039138D02*
X0027153Y0039138D01*
X0027305Y0039237D02*
X0026685Y0039237D01*
X0026747Y0039335D02*
X0027458Y0039335D01*
X0027611Y0039434D02*
X0026809Y0039434D01*
X0026870Y0039532D02*
X0027763Y0039532D01*
X0027916Y0039631D02*
X0026932Y0039631D01*
X0026993Y0039729D02*
X0028069Y0039729D01*
X0028221Y0039828D02*
X0027055Y0039828D01*
X0027116Y0039926D02*
X0028374Y0039926D01*
X0028527Y0040025D02*
X0027178Y0040025D01*
X0027240Y0040123D02*
X0028679Y0040123D01*
X0028832Y0040222D02*
X0027301Y0040222D01*
X0027363Y0040320D02*
X0028985Y0040320D01*
X0029138Y0040419D02*
X0027424Y0040419D01*
X0028874Y0039631D02*
X0029859Y0039631D01*
X0029839Y0039532D02*
X0028895Y0039532D01*
X0028915Y0039434D02*
X0029818Y0039434D01*
X0029762Y0039729D02*
X0028971Y0039729D01*
X0029135Y0039828D02*
X0029598Y0039828D01*
X0029434Y0039926D02*
X0029299Y0039926D01*
X0026847Y0038941D02*
X0026501Y0038941D01*
X0026439Y0038843D02*
X0026694Y0038843D01*
X0026542Y0038744D02*
X0026378Y0038744D01*
X0026389Y0038646D02*
X0026316Y0038646D01*
M02*
