G75*
%MOIN*%
%OFA0B0*%
%FSLAX25Y25*%
%IPPOS*%
%LPD*%
%AMOC8*
5,1,8,0,0,1.08239X$1,22.5*
%
%ADD10C,0.00600*%
%ADD11C,0.00500*%
%ADD12C,0.00800*%
%ADD13C,0.00250*%
%ADD14C,0.00984*%
%ADD15C,0.00787*%
%ADD16R,0.01673X0.01772*%
%ADD17R,0.01000X0.10000*%
D10*
X0027642Y0038475D02*
X0028209Y0037908D01*
X0029343Y0037908D01*
X0029911Y0038475D01*
X0029911Y0039609D01*
X0028776Y0039609D01*
X0027642Y0040743D02*
X0027642Y0038475D01*
X0027642Y0040743D02*
X0028209Y0041311D01*
X0029343Y0041311D01*
X0029911Y0040743D01*
X0031325Y0041311D02*
X0031325Y0037908D01*
X0033594Y0037908D02*
X0031325Y0041311D01*
X0033594Y0041311D02*
X0033594Y0037908D01*
X0035008Y0037908D02*
X0036710Y0037908D01*
X0037277Y0038475D01*
X0037277Y0040743D01*
X0036710Y0041311D01*
X0035008Y0041311D01*
X0035008Y0037908D01*
X0051776Y0060908D02*
X0052911Y0062042D01*
X0052911Y0064311D01*
X0054325Y0064311D02*
X0056027Y0064311D01*
X0056594Y0063743D01*
X0056594Y0063176D01*
X0056027Y0062609D01*
X0054325Y0062609D01*
X0054325Y0060908D02*
X0056027Y0060908D01*
X0056594Y0061475D01*
X0056594Y0062042D01*
X0056027Y0062609D01*
X0058008Y0061475D02*
X0058575Y0060908D01*
X0059710Y0060908D01*
X0060277Y0061475D01*
X0060277Y0064311D01*
X0061691Y0063743D02*
X0061691Y0063176D01*
X0062259Y0062609D01*
X0063393Y0062609D01*
X0063960Y0062042D01*
X0063960Y0061475D01*
X0063393Y0060908D01*
X0062259Y0060908D01*
X0061691Y0061475D01*
X0061691Y0063743D02*
X0062259Y0064311D01*
X0063393Y0064311D01*
X0063960Y0063743D01*
X0058008Y0064311D02*
X0058008Y0061475D01*
X0054325Y0060908D02*
X0054325Y0064311D01*
X0050642Y0064311D02*
X0050642Y0062042D01*
X0051776Y0060908D01*
X0049227Y0062609D02*
X0046959Y0062609D01*
X0048093Y0063743D02*
X0048093Y0061475D01*
X0052164Y0077225D02*
X0052164Y0078926D01*
X0052731Y0079493D01*
X0053865Y0079493D01*
X0054432Y0078926D01*
X0054432Y0077225D01*
X0055567Y0077225D02*
X0052164Y0077225D01*
X0052731Y0080908D02*
X0055000Y0080908D01*
X0055567Y0081475D01*
X0055567Y0082609D01*
X0055000Y0083176D01*
X0053865Y0083176D01*
X0053865Y0082042D01*
X0052731Y0083176D02*
X0052164Y0082609D01*
X0052164Y0081475D01*
X0052731Y0080908D01*
X0072164Y0080493D02*
X0072164Y0078225D01*
X0072164Y0079359D02*
X0075567Y0079359D01*
X0075567Y0081908D02*
X0073298Y0081908D01*
X0072164Y0083042D01*
X0073298Y0084176D01*
X0075567Y0084176D01*
X0073865Y0084176D02*
X0073865Y0081908D01*
X0072164Y0085591D02*
X0072164Y0087859D01*
X0072164Y0086725D02*
X0075567Y0086725D01*
X0075000Y0076810D02*
X0075567Y0076243D01*
X0075567Y0075109D01*
X0075000Y0074541D01*
X0073865Y0075109D02*
X0073865Y0076243D01*
X0074432Y0076810D01*
X0075000Y0076810D01*
X0073865Y0075109D02*
X0073298Y0074541D01*
X0072731Y0074541D01*
X0072164Y0075109D01*
X0072164Y0076243D01*
X0072731Y0076810D01*
X0031937Y0124908D02*
X0030236Y0124908D01*
X0030236Y0128311D01*
X0031937Y0128311D01*
X0032505Y0127743D01*
X0032505Y0125475D01*
X0031937Y0124908D01*
X0028915Y0124908D02*
X0027781Y0124908D01*
X0028348Y0124908D02*
X0028348Y0128311D01*
X0027781Y0128311D02*
X0028915Y0128311D01*
X0026366Y0128311D02*
X0026366Y0124908D01*
X0024097Y0124908D02*
X0024097Y0128311D01*
X0025232Y0127176D01*
X0026366Y0128311D01*
X0022683Y0127743D02*
X0022683Y0126609D01*
X0022116Y0126042D01*
X0020414Y0126042D01*
X0020414Y0124908D02*
X0020414Y0128311D01*
X0022116Y0128311D01*
X0022683Y0127743D01*
X0022343Y0134908D02*
X0021209Y0134908D01*
X0020642Y0135475D01*
X0020642Y0137743D01*
X0021209Y0138311D01*
X0022343Y0138311D01*
X0022911Y0137743D01*
X0022911Y0136609D02*
X0021776Y0136609D01*
X0022911Y0136609D02*
X0022911Y0135475D01*
X0022343Y0134908D01*
X0024325Y0134908D02*
X0024325Y0138311D01*
X0026594Y0134908D01*
X0026594Y0138311D01*
X0028008Y0138311D02*
X0029710Y0138311D01*
X0030277Y0137743D01*
X0030277Y0135475D01*
X0029710Y0134908D01*
X0028008Y0134908D01*
X0028008Y0138311D01*
X0035167Y0138609D02*
X0036868Y0138609D01*
X0037435Y0138042D01*
X0037435Y0137475D01*
X0036868Y0136908D01*
X0035167Y0136908D01*
X0035167Y0140311D01*
X0036868Y0140311D01*
X0037435Y0139743D01*
X0037435Y0139176D01*
X0036868Y0138609D01*
X0038850Y0137475D02*
X0039417Y0136908D01*
X0040551Y0136908D01*
X0041118Y0137475D01*
X0041118Y0139743D01*
X0040551Y0140311D01*
X0039417Y0140311D01*
X0038850Y0139743D01*
X0038850Y0137475D01*
X0039984Y0138042D02*
X0041118Y0136908D01*
X0042533Y0136908D02*
X0044802Y0139176D01*
X0044802Y0139743D01*
X0044234Y0140311D01*
X0043100Y0140311D01*
X0042533Y0139743D01*
X0042533Y0136908D02*
X0044802Y0136908D01*
X0046216Y0138609D02*
X0048485Y0138609D01*
X0047918Y0136908D02*
X0047918Y0140311D01*
X0046216Y0138609D01*
X0049899Y0139743D02*
X0050466Y0140311D01*
X0051601Y0140311D01*
X0052168Y0139743D01*
X0052168Y0139176D01*
X0049899Y0136908D01*
X0052168Y0136908D01*
X0053582Y0137475D02*
X0054150Y0136908D01*
X0055284Y0136908D01*
X0055851Y0137475D01*
X0055851Y0139743D01*
X0055284Y0140311D01*
X0054150Y0140311D01*
X0053582Y0139743D01*
X0053582Y0139176D01*
X0054150Y0138609D01*
X0055851Y0138609D01*
X0057266Y0138042D02*
X0057833Y0138609D01*
X0058967Y0138609D01*
X0059534Y0138042D01*
X0059534Y0137475D01*
X0058967Y0136908D01*
X0057833Y0136908D01*
X0057266Y0137475D01*
X0057266Y0138042D01*
X0057833Y0138609D02*
X0057266Y0139176D01*
X0057266Y0139743D01*
X0057833Y0140311D01*
X0058967Y0140311D01*
X0059534Y0139743D01*
X0059534Y0139176D01*
X0058967Y0138609D01*
X0060949Y0136908D02*
X0062650Y0136908D01*
X0063217Y0137475D01*
X0063217Y0139743D01*
X0062650Y0140311D01*
X0060949Y0140311D01*
X0060949Y0136908D01*
X0064632Y0136908D02*
X0064632Y0140311D01*
X0066900Y0140311D01*
X0068315Y0140311D02*
X0068315Y0138042D01*
X0069449Y0136908D01*
X0070584Y0138042D01*
X0070584Y0140311D01*
X0066900Y0136908D02*
X0064632Y0136908D01*
X0064632Y0138609D02*
X0065766Y0138609D01*
X0052168Y0130908D02*
X0049899Y0130908D01*
X0051034Y0130908D02*
X0051034Y0134311D01*
X0049899Y0133176D01*
X0048625Y0131475D02*
X0048625Y0130908D01*
X0048058Y0130908D01*
X0048058Y0131475D01*
X0048625Y0131475D01*
X0046643Y0131475D02*
X0046076Y0130908D01*
X0044942Y0130908D01*
X0044375Y0131475D01*
X0046643Y0133743D01*
X0046643Y0131475D01*
X0046643Y0133743D02*
X0046076Y0134311D01*
X0044942Y0134311D01*
X0044375Y0133743D01*
X0044375Y0131475D01*
X0043100Y0131475D02*
X0043100Y0130908D01*
X0042533Y0130908D01*
X0042533Y0131475D01*
X0043100Y0131475D01*
X0041118Y0131475D02*
X0040551Y0130908D01*
X0039417Y0130908D01*
X0038850Y0131475D01*
X0041118Y0133743D01*
X0041118Y0131475D01*
X0038850Y0131475D02*
X0038850Y0133743D01*
X0039417Y0134311D01*
X0040551Y0134311D01*
X0041118Y0133743D01*
X0037435Y0133176D02*
X0036301Y0130908D01*
X0035167Y0133176D01*
X0007867Y0143608D02*
X0007867Y0193608D01*
X0007968Y0195031D01*
X0008272Y0196425D01*
X0008770Y0197762D01*
X0009454Y0199014D01*
X0010309Y0200156D01*
X0011318Y0201165D01*
X0012460Y0202020D01*
X0013713Y0202704D01*
X0015049Y0203203D01*
X0016444Y0203506D01*
X0017867Y0203608D01*
X0177867Y0203608D01*
X0179290Y0203506D01*
X0180684Y0203203D01*
X0182021Y0202704D01*
X0183273Y0202020D01*
X0184415Y0201165D01*
X0185424Y0200156D01*
X0186279Y0199014D01*
X0186963Y0197762D01*
X0187462Y0196425D01*
X0187765Y0195031D01*
X0187867Y0193608D01*
X0187867Y0143608D01*
X0007867Y0143608D01*
X0007867Y0143908D02*
X0187867Y0143908D01*
X0187867Y0144507D02*
X0007867Y0144507D01*
X0007867Y0145105D02*
X0187867Y0145105D01*
X0187867Y0145704D02*
X0007867Y0145704D01*
X0007867Y0146302D02*
X0187867Y0146302D01*
X0187867Y0146901D02*
X0007867Y0146901D01*
X0007867Y0147500D02*
X0187867Y0147500D01*
X0187867Y0148098D02*
X0007867Y0148098D01*
X0007867Y0148697D02*
X0187867Y0148697D01*
X0187867Y0149295D02*
X0007867Y0149295D01*
X0007867Y0149894D02*
X0187867Y0149894D01*
X0187867Y0150492D02*
X0007867Y0150492D01*
X0007867Y0151091D02*
X0187867Y0151091D01*
X0187867Y0151689D02*
X0007867Y0151689D01*
X0007867Y0152288D02*
X0187867Y0152288D01*
X0187867Y0152886D02*
X0007867Y0152886D01*
X0007867Y0153485D02*
X0187867Y0153485D01*
X0187867Y0154083D02*
X0007867Y0154083D01*
X0007867Y0154682D02*
X0187867Y0154682D01*
X0187867Y0155280D02*
X0007867Y0155280D01*
X0007867Y0155879D02*
X0187867Y0155879D01*
X0187867Y0156477D02*
X0007867Y0156477D01*
X0007867Y0157076D02*
X0187867Y0157076D01*
X0187867Y0157674D02*
X0007867Y0157674D01*
X0007867Y0158273D02*
X0187867Y0158273D01*
X0187867Y0158871D02*
X0007867Y0158871D01*
X0007867Y0159470D02*
X0187867Y0159470D01*
X0187867Y0160068D02*
X0007867Y0160068D01*
X0007867Y0160667D02*
X0187867Y0160667D01*
X0187867Y0161265D02*
X0007867Y0161265D01*
X0007867Y0161864D02*
X0187867Y0161864D01*
X0187867Y0162462D02*
X0007867Y0162462D01*
X0007867Y0163061D02*
X0187867Y0163061D01*
X0187867Y0163659D02*
X0007867Y0163659D01*
X0007867Y0164258D02*
X0187867Y0164258D01*
X0187867Y0164856D02*
X0007867Y0164856D01*
X0007867Y0165455D02*
X0187867Y0165455D01*
X0187867Y0166053D02*
X0007867Y0166053D01*
X0007867Y0166652D02*
X0187867Y0166652D01*
X0187867Y0167250D02*
X0007867Y0167250D01*
X0007867Y0167849D02*
X0187867Y0167849D01*
X0187867Y0168447D02*
X0007867Y0168447D01*
X0007867Y0169046D02*
X0187867Y0169046D01*
X0187867Y0169644D02*
X0007867Y0169644D01*
X0007867Y0170243D02*
X0187867Y0170243D01*
X0187867Y0170841D02*
X0007867Y0170841D01*
X0007867Y0171440D02*
X0187867Y0171440D01*
X0187867Y0172038D02*
X0007867Y0172038D01*
X0007867Y0172637D02*
X0187867Y0172637D01*
X0187867Y0173235D02*
X0007867Y0173235D01*
X0007867Y0173834D02*
X0187867Y0173834D01*
X0187867Y0174433D02*
X0007867Y0174433D01*
X0007867Y0175031D02*
X0187867Y0175031D01*
X0187867Y0175630D02*
X0007867Y0175630D01*
X0007867Y0176228D02*
X0187867Y0176228D01*
X0187867Y0176827D02*
X0007867Y0176827D01*
X0007867Y0177425D02*
X0187867Y0177425D01*
X0187867Y0178024D02*
X0007867Y0178024D01*
X0007867Y0178622D02*
X0187867Y0178622D01*
X0187867Y0179221D02*
X0007867Y0179221D01*
X0007867Y0179819D02*
X0187867Y0179819D01*
X0187867Y0180418D02*
X0007867Y0180418D01*
X0007867Y0181016D02*
X0187867Y0181016D01*
X0187867Y0181615D02*
X0007867Y0181615D01*
X0007867Y0182213D02*
X0187867Y0182213D01*
X0187867Y0182812D02*
X0007867Y0182812D01*
X0007867Y0183410D02*
X0187867Y0183410D01*
X0187867Y0184009D02*
X0007867Y0184009D01*
X0007867Y0184607D02*
X0187867Y0184607D01*
X0187867Y0185206D02*
X0007867Y0185206D01*
X0007867Y0185804D02*
X0187867Y0185804D01*
X0187867Y0186403D02*
X0007867Y0186403D01*
X0007867Y0187001D02*
X0187867Y0187001D01*
X0187867Y0187600D02*
X0007867Y0187600D01*
X0007867Y0188198D02*
X0187867Y0188198D01*
X0187867Y0188797D02*
X0007867Y0188797D01*
X0007867Y0189395D02*
X0187867Y0189395D01*
X0187867Y0189994D02*
X0007867Y0189994D01*
X0007867Y0190592D02*
X0187867Y0190592D01*
X0187867Y0191191D02*
X0007867Y0191191D01*
X0007867Y0191789D02*
X0187867Y0191789D01*
X0187867Y0192388D02*
X0007867Y0192388D01*
X0007867Y0192986D02*
X0187867Y0192986D01*
X0187867Y0193585D02*
X0007867Y0193585D01*
X0007908Y0194183D02*
X0187825Y0194183D01*
X0187783Y0194782D02*
X0007951Y0194782D01*
X0008045Y0195380D02*
X0187689Y0195380D01*
X0187559Y0195979D02*
X0008175Y0195979D01*
X0008329Y0196577D02*
X0187405Y0196577D01*
X0187181Y0197176D02*
X0008552Y0197176D01*
X0008777Y0197774D02*
X0186956Y0197774D01*
X0186629Y0198373D02*
X0009104Y0198373D01*
X0009431Y0198971D02*
X0186302Y0198971D01*
X0185863Y0199570D02*
X0009870Y0199570D01*
X0010321Y0200169D02*
X0185412Y0200169D01*
X0184813Y0200767D02*
X0010920Y0200767D01*
X0011586Y0201366D02*
X0184148Y0201366D01*
X0183348Y0201964D02*
X0012385Y0201964D01*
X0013453Y0202563D02*
X0182280Y0202563D01*
X0180795Y0203161D02*
X0014938Y0203161D01*
X0121959Y0093609D02*
X0124227Y0093609D01*
X0125642Y0093042D02*
X0125642Y0095311D01*
X0127911Y0095311D02*
X0127911Y0093042D01*
X0126776Y0091908D01*
X0125642Y0093042D01*
X0123093Y0092475D02*
X0123093Y0094743D01*
X0129325Y0095311D02*
X0129325Y0091908D01*
X0131027Y0091908D01*
X0131594Y0092475D01*
X0131594Y0093042D01*
X0131027Y0093609D01*
X0129325Y0093609D01*
X0131027Y0093609D02*
X0131594Y0094176D01*
X0131594Y0094743D01*
X0131027Y0095311D01*
X0129325Y0095311D01*
X0133008Y0094176D02*
X0133008Y0091908D01*
X0133008Y0093609D02*
X0135277Y0093609D01*
X0135277Y0094176D02*
X0135277Y0091908D01*
X0135277Y0094176D02*
X0134143Y0095311D01*
X0133008Y0094176D01*
X0136691Y0095311D02*
X0138960Y0095311D01*
X0137826Y0095311D02*
X0137826Y0091908D01*
X0137710Y0101908D02*
X0136008Y0101908D01*
X0136008Y0105311D01*
X0137710Y0105311D01*
X0138277Y0104743D01*
X0138277Y0102475D01*
X0137710Y0101908D01*
X0134594Y0101908D02*
X0134594Y0105311D01*
X0132325Y0105311D02*
X0134594Y0101908D01*
X0132325Y0101908D02*
X0132325Y0105311D01*
X0130911Y0104743D02*
X0130343Y0105311D01*
X0129209Y0105311D01*
X0128642Y0104743D01*
X0128642Y0102475D01*
X0129209Y0101908D01*
X0130343Y0101908D01*
X0130911Y0102475D01*
X0130911Y0103609D01*
X0129776Y0103609D01*
X0148093Y0122475D02*
X0148093Y0124743D01*
X0146959Y0123609D02*
X0149227Y0123609D01*
X0150642Y0123042D02*
X0151776Y0121908D01*
X0152911Y0123042D01*
X0152911Y0125311D01*
X0154325Y0124743D02*
X0154325Y0122475D01*
X0154892Y0121908D01*
X0156027Y0121908D01*
X0156594Y0122475D01*
X0156594Y0124743D01*
X0156027Y0125311D01*
X0154892Y0125311D01*
X0154325Y0124743D01*
X0150642Y0125311D02*
X0150642Y0123042D01*
X0158008Y0122475D02*
X0158575Y0121908D01*
X0159710Y0121908D01*
X0160277Y0122475D01*
X0160277Y0125311D01*
X0161691Y0125311D02*
X0163960Y0125311D01*
X0162826Y0125311D02*
X0162826Y0121908D01*
X0158008Y0122475D02*
X0158008Y0125311D01*
X0157850Y0131908D02*
X0157850Y0135311D01*
X0160118Y0131908D01*
X0160118Y0135311D01*
X0161533Y0135311D02*
X0163234Y0135311D01*
X0163802Y0134743D01*
X0163802Y0132475D01*
X0163234Y0131908D01*
X0161533Y0131908D01*
X0161533Y0135311D01*
X0156435Y0134743D02*
X0155868Y0135311D01*
X0154734Y0135311D01*
X0154167Y0134743D01*
X0154167Y0132475D01*
X0154734Y0131908D01*
X0155868Y0131908D01*
X0156435Y0132475D01*
X0156435Y0133609D01*
X0155301Y0133609D01*
X0153164Y0074701D02*
X0153164Y0072432D01*
X0153164Y0073567D02*
X0156567Y0073567D01*
X0156567Y0071018D02*
X0154298Y0071018D01*
X0153164Y0069884D01*
X0154298Y0068749D01*
X0156567Y0068749D01*
X0156000Y0067335D02*
X0156567Y0066768D01*
X0156567Y0065066D01*
X0153164Y0065066D01*
X0153164Y0066768D01*
X0153731Y0067335D01*
X0154298Y0067335D01*
X0154865Y0066768D01*
X0154865Y0065066D01*
X0155432Y0063652D02*
X0153164Y0063652D01*
X0155432Y0063652D02*
X0156567Y0062517D01*
X0155432Y0061383D01*
X0153164Y0061383D01*
X0154865Y0059968D02*
X0154865Y0057700D01*
X0153731Y0058834D02*
X0156000Y0058834D01*
X0156000Y0053018D02*
X0153731Y0053018D01*
X0153164Y0052451D01*
X0153164Y0050749D01*
X0156567Y0050749D01*
X0156567Y0052451D01*
X0156000Y0053018D01*
X0156567Y0049335D02*
X0153164Y0049335D01*
X0153164Y0047066D02*
X0156567Y0049335D01*
X0156567Y0047066D02*
X0153164Y0047066D01*
X0153731Y0045652D02*
X0153164Y0045084D01*
X0153164Y0043950D01*
X0153731Y0043383D01*
X0156000Y0043383D01*
X0156567Y0043950D01*
X0156567Y0045084D01*
X0156000Y0045652D01*
X0154865Y0045652D01*
X0154865Y0044517D01*
X0153116Y0028311D02*
X0151414Y0028311D01*
X0151414Y0024908D01*
X0151414Y0026042D02*
X0153116Y0026042D01*
X0153683Y0026609D01*
X0153683Y0027743D01*
X0153116Y0028311D01*
X0152549Y0026042D02*
X0153683Y0024908D01*
X0155097Y0026609D02*
X0157366Y0026609D01*
X0158781Y0027176D02*
X0159915Y0027176D01*
X0159348Y0027743D02*
X0159348Y0025475D01*
X0159915Y0024908D01*
X0161236Y0024908D02*
X0162937Y0024908D01*
X0163505Y0025475D01*
X0162937Y0026042D01*
X0161803Y0026042D01*
X0161236Y0026609D01*
X0161803Y0027176D01*
X0163505Y0027176D01*
X0143732Y0026609D02*
X0143732Y0024908D01*
X0142598Y0024908D02*
X0142598Y0026609D01*
X0143165Y0027176D01*
X0143732Y0026609D01*
X0142598Y0026609D02*
X0142031Y0027176D01*
X0141464Y0027176D01*
X0141464Y0024908D01*
X0140143Y0024908D02*
X0139008Y0024908D01*
X0139575Y0024908D02*
X0139575Y0028311D01*
X0139008Y0028311D01*
X0137120Y0028311D02*
X0137120Y0028878D01*
X0137120Y0027176D02*
X0137120Y0024908D01*
X0136553Y0024908D02*
X0137687Y0024908D01*
X0137120Y0027176D02*
X0136553Y0027176D01*
X0135138Y0026609D02*
X0132870Y0026609D01*
X0131455Y0026609D02*
X0131455Y0027743D01*
X0130888Y0028311D01*
X0129187Y0028311D01*
X0129187Y0024908D01*
X0129187Y0026042D02*
X0130888Y0026042D01*
X0131455Y0026609D01*
X0130321Y0026042D02*
X0131455Y0024908D01*
X0135209Y0066908D02*
X0134642Y0067475D01*
X0134642Y0069743D01*
X0135209Y0070311D01*
X0136343Y0070311D01*
X0136911Y0069743D01*
X0136911Y0067475D01*
X0136343Y0066908D01*
X0135209Y0066908D01*
X0135776Y0068042D02*
X0136911Y0066908D01*
X0138325Y0067475D02*
X0138892Y0066908D01*
X0140027Y0066908D01*
X0140594Y0067475D01*
X0140594Y0069743D01*
X0140027Y0070311D01*
X0138892Y0070311D01*
X0138325Y0069743D01*
X0138325Y0067475D01*
X0142008Y0066908D02*
X0142008Y0070311D01*
X0144277Y0066908D01*
X0144277Y0070311D01*
X0145391Y0071508D02*
X0134342Y0071508D01*
X0154865Y0071018D02*
X0154865Y0068749D01*
X0155432Y0067335D02*
X0156000Y0067335D01*
X0155432Y0067335D02*
X0154865Y0066768D01*
D11*
X0123063Y0027960D02*
X0123063Y0025258D01*
X0124865Y0025258D01*
X0121918Y0025258D02*
X0120117Y0025258D01*
X0120117Y0027960D01*
X0121918Y0027960D01*
X0121017Y0026609D02*
X0120117Y0026609D01*
X0118972Y0026158D02*
X0118972Y0025708D01*
X0118521Y0025258D01*
X0117621Y0025258D01*
X0117170Y0025708D01*
X0117621Y0026609D02*
X0118521Y0026609D01*
X0118972Y0026158D01*
X0118972Y0027510D02*
X0118521Y0027960D01*
X0117621Y0027960D01*
X0117170Y0027510D01*
X0117170Y0027059D01*
X0117621Y0026609D01*
X0116025Y0026609D02*
X0116025Y0027510D01*
X0115575Y0027960D01*
X0114224Y0027960D01*
X0114224Y0025258D01*
X0114224Y0026158D02*
X0115575Y0026158D01*
X0116025Y0026609D01*
X0111391Y0026609D02*
X0109590Y0026609D01*
X0109590Y0027059D02*
X0109590Y0025258D01*
X0108445Y0025708D02*
X0108445Y0027510D01*
X0107995Y0027960D01*
X0106643Y0027960D01*
X0106643Y0025258D01*
X0107995Y0025258D01*
X0108445Y0025708D01*
X0109590Y0027059D02*
X0110491Y0027960D01*
X0111391Y0027059D01*
X0111391Y0025258D01*
X0105498Y0025708D02*
X0105048Y0025258D01*
X0104147Y0025258D01*
X0103697Y0025708D01*
X0104147Y0026609D02*
X0105048Y0026609D01*
X0105498Y0026158D01*
X0105498Y0025708D01*
X0104147Y0026609D02*
X0103697Y0027059D01*
X0103697Y0027510D01*
X0104147Y0027960D01*
X0105048Y0027960D01*
X0105498Y0027510D01*
X0101391Y0025258D02*
X0099590Y0025258D01*
X0099590Y0027960D01*
X0098445Y0027510D02*
X0097995Y0027960D01*
X0097094Y0027960D01*
X0096643Y0027510D01*
X0096643Y0025708D01*
X0097094Y0025258D01*
X0097995Y0025258D01*
X0098445Y0025708D01*
X0095498Y0025708D02*
X0095048Y0025258D01*
X0094147Y0025258D01*
X0093697Y0025708D01*
X0094147Y0026609D02*
X0095048Y0026609D01*
X0095498Y0026158D01*
X0095498Y0025708D01*
X0094147Y0026609D02*
X0093697Y0027059D01*
X0093697Y0027510D01*
X0094147Y0027960D01*
X0095048Y0027960D01*
X0095498Y0027510D01*
X0090813Y0028958D02*
X0084920Y0028958D01*
X0085621Y0027960D02*
X0085170Y0027510D01*
X0085170Y0025708D01*
X0085621Y0025258D01*
X0086521Y0025258D01*
X0086972Y0025708D01*
X0088117Y0025258D02*
X0089918Y0025258D01*
X0089017Y0026609D02*
X0088117Y0026609D01*
X0088117Y0027960D02*
X0088117Y0025258D01*
X0086972Y0027510D02*
X0086521Y0027960D01*
X0085621Y0027960D01*
X0088117Y0027960D02*
X0089918Y0027960D01*
X0081391Y0027510D02*
X0080941Y0027960D01*
X0080040Y0027960D01*
X0079590Y0027510D01*
X0079590Y0025708D01*
X0080040Y0025258D01*
X0080941Y0025258D01*
X0081391Y0025708D01*
X0081391Y0026609D01*
X0080491Y0026609D01*
X0078445Y0027960D02*
X0076643Y0027960D01*
X0077544Y0027960D02*
X0077544Y0025258D01*
X0075498Y0025708D02*
X0075498Y0027510D01*
X0075048Y0027960D01*
X0074147Y0027960D01*
X0073697Y0027510D01*
X0073697Y0025708D01*
X0074147Y0025258D01*
X0075048Y0025258D01*
X0075498Y0025708D01*
X0070900Y0027960D02*
X0069099Y0027960D01*
X0070000Y0027960D02*
X0070000Y0025258D01*
X0067954Y0025258D02*
X0067954Y0027960D01*
X0066152Y0027960D02*
X0066152Y0025258D01*
X0065089Y0025258D02*
X0064188Y0025258D01*
X0064638Y0025258D02*
X0064638Y0027960D01*
X0064188Y0027960D02*
X0065089Y0027960D01*
X0066152Y0027960D02*
X0067954Y0025258D01*
X0061391Y0025708D02*
X0061391Y0027510D01*
X0060941Y0027960D01*
X0059590Y0027960D01*
X0059590Y0025258D01*
X0060941Y0025258D01*
X0061391Y0025708D01*
X0058445Y0025258D02*
X0058445Y0027960D01*
X0056643Y0027960D02*
X0056643Y0025258D01*
X0055498Y0025708D02*
X0055498Y0026609D01*
X0054598Y0026609D01*
X0055498Y0027510D02*
X0055048Y0027960D01*
X0054147Y0027960D01*
X0053697Y0027510D01*
X0053697Y0025708D01*
X0054147Y0025258D01*
X0055048Y0025258D01*
X0055498Y0025708D01*
X0056643Y0027960D02*
X0058445Y0025258D01*
X0051391Y0025708D02*
X0050941Y0025258D01*
X0050040Y0025258D01*
X0049590Y0025708D01*
X0048445Y0026158D02*
X0048445Y0027960D01*
X0049590Y0027510D02*
X0050040Y0027960D01*
X0050941Y0027960D01*
X0051391Y0027510D01*
X0051391Y0027059D01*
X0050941Y0026609D01*
X0051391Y0026158D01*
X0051391Y0025708D01*
X0050941Y0026609D02*
X0050491Y0026609D01*
X0048445Y0026158D02*
X0047544Y0025258D01*
X0046643Y0026158D01*
X0046643Y0027960D01*
X0045498Y0027510D02*
X0045498Y0027059D01*
X0045048Y0026609D01*
X0045498Y0026158D01*
X0045498Y0025708D01*
X0045048Y0025258D01*
X0044147Y0025258D01*
X0043697Y0025708D01*
X0044598Y0026609D02*
X0045048Y0026609D01*
X0045498Y0027510D02*
X0045048Y0027960D01*
X0044147Y0027960D01*
X0043697Y0027510D01*
X0099599Y0117340D02*
X0099599Y0120096D01*
X0099599Y0117340D02*
X0116134Y0117340D01*
X0116134Y0120096D01*
X0116134Y0131119D02*
X0116134Y0133875D01*
X0099599Y0133875D01*
X0099599Y0131119D01*
D12*
X0071867Y0129608D02*
X0071867Y0141608D01*
X0033867Y0141608D01*
X0033867Y0129608D01*
X0071867Y0129608D01*
X0027693Y0115993D02*
X0027693Y0111269D01*
X0022182Y0111269D01*
X0022182Y0093946D01*
X0027693Y0093946D01*
X0027693Y0089222D01*
X0021394Y0089222D01*
X0010764Y0089222D02*
X0010764Y0115993D01*
X0021394Y0115993D02*
X0027693Y0115993D01*
X0033890Y0072277D02*
X0009481Y0072277D01*
X0009481Y0044718D01*
X0033890Y0044718D01*
X0033890Y0072277D01*
X0037040Y0072277D01*
X0037040Y0044718D01*
X0033890Y0044718D01*
X0042867Y0043608D02*
X0042867Y0029608D01*
X0052867Y0029608D02*
X0052867Y0048608D01*
X0062867Y0048608D01*
X0062867Y0029608D01*
X0072867Y0029608D02*
X0072867Y0048608D01*
X0082867Y0048608D01*
X0082867Y0029608D01*
X0092867Y0029608D02*
X0092867Y0048608D01*
X0102867Y0048608D01*
X0102867Y0029608D01*
X0112867Y0029608D02*
X0112867Y0048608D01*
X0117867Y0048608D01*
X0118007Y0048606D01*
X0118147Y0048600D01*
X0118287Y0048590D01*
X0118427Y0048577D01*
X0118566Y0048559D01*
X0118705Y0048537D01*
X0118842Y0048512D01*
X0118980Y0048483D01*
X0119116Y0048450D01*
X0119251Y0048413D01*
X0119385Y0048372D01*
X0119518Y0048327D01*
X0119650Y0048279D01*
X0119780Y0048227D01*
X0119909Y0048172D01*
X0120036Y0048113D01*
X0120162Y0048050D01*
X0120286Y0047984D01*
X0120407Y0047915D01*
X0120527Y0047842D01*
X0120645Y0047765D01*
X0120760Y0047686D01*
X0120874Y0047603D01*
X0120984Y0047517D01*
X0121093Y0047428D01*
X0121199Y0047336D01*
X0121302Y0047241D01*
X0121403Y0047144D01*
X0121500Y0047043D01*
X0121595Y0046940D01*
X0121687Y0046834D01*
X0121776Y0046725D01*
X0121862Y0046615D01*
X0121945Y0046501D01*
X0122024Y0046386D01*
X0122101Y0046268D01*
X0122174Y0046148D01*
X0122243Y0046027D01*
X0122309Y0045903D01*
X0122372Y0045777D01*
X0122431Y0045650D01*
X0122486Y0045521D01*
X0122538Y0045391D01*
X0122586Y0045259D01*
X0122631Y0045126D01*
X0122672Y0044992D01*
X0122709Y0044857D01*
X0122742Y0044721D01*
X0122771Y0044583D01*
X0122796Y0044446D01*
X0122818Y0044307D01*
X0122836Y0044168D01*
X0122849Y0044028D01*
X0122859Y0043888D01*
X0122865Y0043748D01*
X0122867Y0043608D01*
X0122867Y0029608D01*
X0125867Y0033608D02*
X0125867Y0023608D01*
X0125867Y0033608D02*
X0125869Y0033748D01*
X0125875Y0033888D01*
X0125885Y0034028D01*
X0125898Y0034168D01*
X0125916Y0034307D01*
X0125938Y0034446D01*
X0125963Y0034583D01*
X0125992Y0034721D01*
X0126025Y0034857D01*
X0126062Y0034992D01*
X0126103Y0035126D01*
X0126148Y0035259D01*
X0126196Y0035391D01*
X0126248Y0035521D01*
X0126303Y0035650D01*
X0126362Y0035777D01*
X0126425Y0035903D01*
X0126491Y0036027D01*
X0126560Y0036148D01*
X0126633Y0036268D01*
X0126710Y0036386D01*
X0126789Y0036501D01*
X0126872Y0036615D01*
X0126958Y0036725D01*
X0127047Y0036834D01*
X0127139Y0036940D01*
X0127234Y0037043D01*
X0127331Y0037144D01*
X0127432Y0037241D01*
X0127535Y0037336D01*
X0127641Y0037428D01*
X0127750Y0037517D01*
X0127860Y0037603D01*
X0127974Y0037686D01*
X0128089Y0037765D01*
X0128207Y0037842D01*
X0128327Y0037915D01*
X0128448Y0037984D01*
X0128572Y0038050D01*
X0128698Y0038113D01*
X0128825Y0038172D01*
X0128954Y0038227D01*
X0129084Y0038279D01*
X0129216Y0038327D01*
X0129349Y0038372D01*
X0129483Y0038413D01*
X0129618Y0038450D01*
X0129754Y0038483D01*
X0129892Y0038512D01*
X0130029Y0038537D01*
X0130168Y0038559D01*
X0130307Y0038577D01*
X0130447Y0038590D01*
X0130587Y0038600D01*
X0130727Y0038606D01*
X0130867Y0038608D01*
X0140867Y0038608D01*
X0141007Y0038606D01*
X0141147Y0038600D01*
X0141287Y0038590D01*
X0141427Y0038577D01*
X0141566Y0038559D01*
X0141705Y0038537D01*
X0141842Y0038512D01*
X0141980Y0038483D01*
X0142116Y0038450D01*
X0142251Y0038413D01*
X0142385Y0038372D01*
X0142518Y0038327D01*
X0142650Y0038279D01*
X0142780Y0038227D01*
X0142909Y0038172D01*
X0143036Y0038113D01*
X0143162Y0038050D01*
X0143286Y0037984D01*
X0143407Y0037915D01*
X0143527Y0037842D01*
X0143645Y0037765D01*
X0143760Y0037686D01*
X0143874Y0037603D01*
X0143984Y0037517D01*
X0144093Y0037428D01*
X0144199Y0037336D01*
X0144302Y0037241D01*
X0144403Y0037144D01*
X0144500Y0037043D01*
X0144595Y0036940D01*
X0144687Y0036834D01*
X0144776Y0036725D01*
X0144862Y0036615D01*
X0144945Y0036501D01*
X0145024Y0036386D01*
X0145101Y0036268D01*
X0145174Y0036148D01*
X0145243Y0036027D01*
X0145309Y0035903D01*
X0145372Y0035777D01*
X0145431Y0035650D01*
X0145486Y0035521D01*
X0145538Y0035391D01*
X0145586Y0035259D01*
X0145631Y0035126D01*
X0145672Y0034992D01*
X0145709Y0034857D01*
X0145742Y0034721D01*
X0145771Y0034583D01*
X0145796Y0034446D01*
X0145818Y0034307D01*
X0145836Y0034168D01*
X0145849Y0034028D01*
X0145859Y0033888D01*
X0145865Y0033748D01*
X0145867Y0033608D01*
X0145867Y0023608D01*
X0147867Y0024608D02*
X0147867Y0033608D01*
X0147869Y0033748D01*
X0147875Y0033888D01*
X0147885Y0034028D01*
X0147898Y0034168D01*
X0147916Y0034307D01*
X0147938Y0034446D01*
X0147963Y0034583D01*
X0147992Y0034721D01*
X0148025Y0034857D01*
X0148062Y0034992D01*
X0148103Y0035126D01*
X0148148Y0035259D01*
X0148196Y0035391D01*
X0148248Y0035521D01*
X0148303Y0035650D01*
X0148362Y0035777D01*
X0148425Y0035903D01*
X0148491Y0036027D01*
X0148560Y0036148D01*
X0148633Y0036268D01*
X0148710Y0036386D01*
X0148789Y0036501D01*
X0148872Y0036615D01*
X0148958Y0036725D01*
X0149047Y0036834D01*
X0149139Y0036940D01*
X0149234Y0037043D01*
X0149331Y0037144D01*
X0149432Y0037241D01*
X0149535Y0037336D01*
X0149641Y0037428D01*
X0149750Y0037517D01*
X0149860Y0037603D01*
X0149974Y0037686D01*
X0150089Y0037765D01*
X0150207Y0037842D01*
X0150327Y0037915D01*
X0150448Y0037984D01*
X0150572Y0038050D01*
X0150698Y0038113D01*
X0150825Y0038172D01*
X0150954Y0038227D01*
X0151084Y0038279D01*
X0151216Y0038327D01*
X0151349Y0038372D01*
X0151483Y0038413D01*
X0151618Y0038450D01*
X0151754Y0038483D01*
X0151892Y0038512D01*
X0152029Y0038537D01*
X0152168Y0038559D01*
X0152307Y0038577D01*
X0152447Y0038590D01*
X0152587Y0038600D01*
X0152727Y0038606D01*
X0152867Y0038608D01*
X0162867Y0038608D01*
X0163007Y0038606D01*
X0163147Y0038600D01*
X0163287Y0038590D01*
X0163427Y0038577D01*
X0163566Y0038559D01*
X0163705Y0038537D01*
X0163842Y0038512D01*
X0163980Y0038483D01*
X0164116Y0038450D01*
X0164251Y0038413D01*
X0164385Y0038372D01*
X0164518Y0038327D01*
X0164650Y0038279D01*
X0164780Y0038227D01*
X0164909Y0038172D01*
X0165036Y0038113D01*
X0165162Y0038050D01*
X0165286Y0037984D01*
X0165407Y0037915D01*
X0165527Y0037842D01*
X0165645Y0037765D01*
X0165760Y0037686D01*
X0165874Y0037603D01*
X0165984Y0037517D01*
X0166093Y0037428D01*
X0166199Y0037336D01*
X0166302Y0037241D01*
X0166403Y0037144D01*
X0166500Y0037043D01*
X0166595Y0036940D01*
X0166687Y0036834D01*
X0166776Y0036725D01*
X0166862Y0036615D01*
X0166945Y0036501D01*
X0167024Y0036386D01*
X0167101Y0036268D01*
X0167174Y0036148D01*
X0167243Y0036027D01*
X0167309Y0035903D01*
X0167372Y0035777D01*
X0167431Y0035650D01*
X0167486Y0035521D01*
X0167538Y0035391D01*
X0167586Y0035259D01*
X0167631Y0035126D01*
X0167672Y0034992D01*
X0167709Y0034857D01*
X0167742Y0034721D01*
X0167771Y0034583D01*
X0167796Y0034446D01*
X0167818Y0034307D01*
X0167836Y0034168D01*
X0167849Y0034028D01*
X0167859Y0033888D01*
X0167865Y0033748D01*
X0167867Y0033608D01*
X0167867Y0023608D01*
X0161843Y0044938D02*
X0158693Y0044938D01*
X0158693Y0072497D01*
X0161843Y0072497D01*
X0161843Y0044938D01*
X0186252Y0044938D01*
X0186252Y0072497D01*
X0161843Y0072497D01*
X0156150Y0082860D02*
X0169930Y0082860D01*
X0165993Y0086009D02*
X0156150Y0086009D01*
X0156150Y0082860D01*
X0165993Y0086009D02*
X0165993Y0090734D01*
X0165993Y0106482D02*
X0165993Y0111206D01*
X0156150Y0111206D01*
X0156150Y0114356D01*
X0169930Y0114356D01*
X0175867Y0121108D02*
X0178367Y0118608D01*
X0183367Y0118608D01*
X0185867Y0121108D01*
X0185867Y0126108D01*
X0183367Y0128608D01*
X0185867Y0131108D01*
X0185867Y0136108D01*
X0183367Y0138608D01*
X0178367Y0138608D01*
X0175867Y0136108D01*
X0175867Y0131108D01*
X0178367Y0128608D01*
X0175867Y0126108D01*
X0175867Y0121108D01*
X0185678Y0106482D02*
X0185678Y0090734D01*
X0112867Y0048608D02*
X0102867Y0048608D01*
X0092867Y0048608D02*
X0082867Y0048608D01*
X0072867Y0048608D02*
X0062867Y0048608D01*
X0052867Y0048608D02*
X0047867Y0048608D01*
X0047727Y0048606D01*
X0047587Y0048600D01*
X0047447Y0048590D01*
X0047307Y0048577D01*
X0047168Y0048559D01*
X0047029Y0048537D01*
X0046892Y0048512D01*
X0046754Y0048483D01*
X0046618Y0048450D01*
X0046483Y0048413D01*
X0046349Y0048372D01*
X0046216Y0048327D01*
X0046084Y0048279D01*
X0045954Y0048227D01*
X0045825Y0048172D01*
X0045698Y0048113D01*
X0045572Y0048050D01*
X0045448Y0047984D01*
X0045327Y0047915D01*
X0045207Y0047842D01*
X0045089Y0047765D01*
X0044974Y0047686D01*
X0044860Y0047603D01*
X0044750Y0047517D01*
X0044641Y0047428D01*
X0044535Y0047336D01*
X0044432Y0047241D01*
X0044331Y0047144D01*
X0044234Y0047043D01*
X0044139Y0046940D01*
X0044047Y0046834D01*
X0043958Y0046725D01*
X0043872Y0046615D01*
X0043789Y0046501D01*
X0043710Y0046386D01*
X0043633Y0046268D01*
X0043560Y0046148D01*
X0043491Y0046027D01*
X0043425Y0045903D01*
X0043362Y0045777D01*
X0043303Y0045650D01*
X0043248Y0045521D01*
X0043196Y0045391D01*
X0043148Y0045259D01*
X0043103Y0045126D01*
X0043062Y0044992D01*
X0043025Y0044857D01*
X0042992Y0044721D01*
X0042963Y0044583D01*
X0042938Y0044446D01*
X0042916Y0044307D01*
X0042898Y0044168D01*
X0042885Y0044028D01*
X0042875Y0043888D01*
X0042869Y0043748D01*
X0042867Y0043608D01*
D13*
X0059867Y0080017D02*
X0059178Y0080706D01*
X0059768Y0081297D01*
X0060457Y0080608D01*
X0059867Y0080017D01*
X0067178Y0080706D02*
X0067768Y0081297D01*
X0068457Y0080608D01*
X0067867Y0080017D01*
X0067178Y0080706D01*
D14*
X0069441Y0081690D03*
X0061441Y0081690D03*
D15*
X0110780Y0078395D02*
X0110780Y0076820D01*
X0113930Y0071702D02*
X0121804Y0071702D01*
X0124953Y0076820D02*
X0124953Y0078395D01*
X0121410Y0083513D02*
X0113930Y0083513D01*
X0114422Y0077608D02*
X0114424Y0077725D01*
X0114430Y0077842D01*
X0114440Y0077958D01*
X0114454Y0078075D01*
X0114472Y0078190D01*
X0114493Y0078305D01*
X0114519Y0078419D01*
X0114548Y0078533D01*
X0114582Y0078645D01*
X0114619Y0078756D01*
X0114660Y0078865D01*
X0114704Y0078973D01*
X0114752Y0079080D01*
X0114804Y0079185D01*
X0114859Y0079288D01*
X0114918Y0079389D01*
X0114980Y0079488D01*
X0115046Y0079585D01*
X0115115Y0079680D01*
X0115187Y0079772D01*
X0115262Y0079862D01*
X0115340Y0079949D01*
X0115421Y0080034D01*
X0115504Y0080115D01*
X0115591Y0080194D01*
X0115680Y0080270D01*
X0115772Y0080343D01*
X0115866Y0080412D01*
X0115962Y0080478D01*
X0116061Y0080542D01*
X0116161Y0080601D01*
X0116264Y0080657D01*
X0116369Y0080710D01*
X0116475Y0080759D01*
X0116583Y0080805D01*
X0116692Y0080846D01*
X0116802Y0080884D01*
X0116914Y0080919D01*
X0117027Y0080949D01*
X0117141Y0080976D01*
X0117256Y0080998D01*
X0117371Y0081017D01*
X0117488Y0081032D01*
X0117604Y0081043D01*
X0117721Y0081050D01*
X0117838Y0081053D01*
X0117955Y0081052D01*
X0118072Y0081047D01*
X0118188Y0081038D01*
X0118305Y0081025D01*
X0118420Y0081008D01*
X0118535Y0080988D01*
X0118650Y0080963D01*
X0118763Y0080934D01*
X0118876Y0080902D01*
X0118987Y0080866D01*
X0119097Y0080826D01*
X0119206Y0080782D01*
X0119313Y0080735D01*
X0119418Y0080684D01*
X0119522Y0080630D01*
X0119623Y0080572D01*
X0119723Y0080510D01*
X0119820Y0080446D01*
X0119916Y0080378D01*
X0120008Y0080307D01*
X0120099Y0080232D01*
X0120187Y0080155D01*
X0120272Y0080075D01*
X0120354Y0079992D01*
X0120434Y0079906D01*
X0120510Y0079817D01*
X0120584Y0079726D01*
X0120654Y0079633D01*
X0120721Y0079537D01*
X0120785Y0079439D01*
X0120846Y0079339D01*
X0120903Y0079237D01*
X0120956Y0079133D01*
X0121006Y0079027D01*
X0121053Y0078920D01*
X0121095Y0078811D01*
X0121134Y0078700D01*
X0121169Y0078589D01*
X0121201Y0078476D01*
X0121228Y0078362D01*
X0121252Y0078248D01*
X0121272Y0078132D01*
X0121288Y0078017D01*
X0121300Y0077900D01*
X0121308Y0077783D01*
X0121312Y0077666D01*
X0121312Y0077550D01*
X0121308Y0077433D01*
X0121300Y0077316D01*
X0121288Y0077199D01*
X0121272Y0077084D01*
X0121252Y0076968D01*
X0121228Y0076854D01*
X0121201Y0076740D01*
X0121169Y0076627D01*
X0121134Y0076516D01*
X0121095Y0076405D01*
X0121053Y0076296D01*
X0121006Y0076189D01*
X0120956Y0076083D01*
X0120903Y0075979D01*
X0120846Y0075877D01*
X0120785Y0075777D01*
X0120721Y0075679D01*
X0120654Y0075583D01*
X0120584Y0075490D01*
X0120510Y0075399D01*
X0120434Y0075310D01*
X0120354Y0075224D01*
X0120272Y0075141D01*
X0120187Y0075061D01*
X0120099Y0074984D01*
X0120008Y0074909D01*
X0119916Y0074838D01*
X0119820Y0074770D01*
X0119723Y0074706D01*
X0119623Y0074644D01*
X0119522Y0074586D01*
X0119418Y0074532D01*
X0119313Y0074481D01*
X0119206Y0074434D01*
X0119097Y0074390D01*
X0118987Y0074350D01*
X0118876Y0074314D01*
X0118763Y0074282D01*
X0118650Y0074253D01*
X0118535Y0074228D01*
X0118420Y0074208D01*
X0118305Y0074191D01*
X0118188Y0074178D01*
X0118072Y0074169D01*
X0117955Y0074164D01*
X0117838Y0074163D01*
X0117721Y0074166D01*
X0117604Y0074173D01*
X0117488Y0074184D01*
X0117371Y0074199D01*
X0117256Y0074218D01*
X0117141Y0074240D01*
X0117027Y0074267D01*
X0116914Y0074297D01*
X0116802Y0074332D01*
X0116692Y0074370D01*
X0116583Y0074411D01*
X0116475Y0074457D01*
X0116369Y0074506D01*
X0116264Y0074559D01*
X0116161Y0074615D01*
X0116061Y0074674D01*
X0115962Y0074738D01*
X0115866Y0074804D01*
X0115772Y0074873D01*
X0115680Y0074946D01*
X0115591Y0075022D01*
X0115504Y0075101D01*
X0115421Y0075182D01*
X0115340Y0075267D01*
X0115262Y0075354D01*
X0115187Y0075444D01*
X0115115Y0075536D01*
X0115046Y0075631D01*
X0114980Y0075728D01*
X0114918Y0075827D01*
X0114859Y0075928D01*
X0114804Y0076031D01*
X0114752Y0076136D01*
X0114704Y0076243D01*
X0114660Y0076351D01*
X0114619Y0076460D01*
X0114582Y0076571D01*
X0114548Y0076683D01*
X0114519Y0076797D01*
X0114493Y0076911D01*
X0114472Y0077026D01*
X0114454Y0077141D01*
X0114440Y0077258D01*
X0114430Y0077374D01*
X0114424Y0077491D01*
X0114422Y0077608D01*
D16*
X0081026Y0110497D03*
D17*
X0051367Y0109608D03*
M02*
