G75*
%MOIN*%
%OFA0B0*%
%FSLAX25Y25*%
%IPPOS*%
%LPD*%
%AMOC8*
5,1,8,0,0,1.08239X$1,22.5*
%
%ADD10R,0.05906X0.05118*%
%ADD11R,0.03543X0.02756*%
%ADD12R,0.05118X0.05906*%
%ADD13R,0.18110X0.03937*%
%ADD14R,0.13386X0.06299*%
%ADD15R,0.05315X0.01575*%
%ADD16R,0.07480X0.05906*%
%ADD17R,0.04724X0.04724*%
%ADD18R,0.02756X0.03543*%
%ADD19R,0.04921X0.02559*%
%ADD20C,0.00906*%
%ADD21R,0.04331X0.04331*%
%ADD22R,0.10500X0.10000*%
%ADD23R,0.03000X0.05000*%
%ADD24R,0.06496X0.09055*%
D10*
X0102867Y0090868D03*
X0102867Y0098348D03*
X0102867Y0104868D03*
X0102867Y0112348D03*
X0110867Y0112348D03*
X0110867Y0104868D03*
X0073867Y0110868D03*
X0073867Y0118348D03*
D11*
X0067867Y0056049D03*
X0067867Y0061167D03*
X0087867Y0061167D03*
X0087867Y0056049D03*
X0097867Y0056049D03*
X0097867Y0061167D03*
X0107867Y0061167D03*
X0107867Y0056049D03*
X0117867Y0056049D03*
X0117867Y0061167D03*
X0067867Y0091049D03*
X0067867Y0096167D03*
X0059867Y0096167D03*
X0059867Y0091049D03*
X0086867Y0124049D03*
X0091867Y0124049D03*
X0091867Y0129167D03*
X0086867Y0129167D03*
D12*
X0080607Y0125608D03*
X0073127Y0125608D03*
D13*
X0159300Y0102545D03*
X0159300Y0094671D03*
D14*
X0179772Y0085222D03*
X0179772Y0111993D03*
D15*
X0027398Y0107726D03*
X0027398Y0105167D03*
X0027398Y0102608D03*
X0027398Y0100049D03*
X0027398Y0097490D03*
D16*
X0016906Y0098671D03*
X0016867Y0106545D03*
D17*
X0059867Y0084742D03*
X0067867Y0084742D03*
X0067867Y0076474D03*
X0059867Y0076474D03*
D18*
X0133308Y0043608D03*
X0138426Y0043608D03*
X0140426Y0054608D03*
X0135308Y0054608D03*
X0135308Y0062608D03*
X0140426Y0062608D03*
D19*
X0125249Y0074556D03*
X0125249Y0080659D03*
X0110485Y0080659D03*
X0110485Y0074556D03*
D20*
X0092788Y0094749D02*
X0092788Y0096915D01*
X0090819Y0096915D02*
X0090819Y0094749D01*
X0088851Y0094749D02*
X0088851Y0096915D01*
X0086882Y0096915D02*
X0086882Y0094749D01*
X0084914Y0094749D02*
X0084914Y0096915D01*
X0082945Y0096915D02*
X0082945Y0094749D01*
X0081174Y0098686D02*
X0079008Y0098686D01*
X0079008Y0100655D02*
X0081174Y0100655D01*
X0081174Y0102623D02*
X0079008Y0102623D01*
X0079008Y0104592D02*
X0081174Y0104592D01*
X0081174Y0106560D02*
X0079008Y0106560D01*
X0079008Y0108529D02*
X0081174Y0108529D01*
X0082945Y0110301D02*
X0082945Y0112466D01*
X0084914Y0112466D02*
X0084914Y0110301D01*
X0086882Y0110301D02*
X0086882Y0112466D01*
X0088851Y0112466D02*
X0088851Y0110301D01*
X0090819Y0110301D02*
X0090819Y0112466D01*
X0092788Y0112466D02*
X0092788Y0110301D01*
X0094560Y0108529D02*
X0096725Y0108529D01*
X0096725Y0106560D02*
X0094560Y0106560D01*
X0094560Y0104592D02*
X0096725Y0104592D01*
X0096725Y0102623D02*
X0094560Y0102623D01*
X0094560Y0100655D02*
X0096725Y0100655D01*
X0096725Y0098686D02*
X0094560Y0098686D01*
D21*
X0090623Y0100852D03*
X0090623Y0106364D03*
X0085111Y0106364D03*
X0085111Y0100852D03*
D22*
X0044867Y0109608D03*
D23*
X0035617Y0109608D03*
D24*
X0101371Y0125608D03*
X0114363Y0125608D03*
M02*
