%
M48
M72
T01C0.01181
T02C0.01600
T03C0.01969
T04C0.02362
T05C0.04000
T06C0.04724
T07C0.12800
%
T01
X84323Y100064
X84323Y103608
X84323Y107151
X87867Y107151
X91410Y107151
X91410Y103608
X87867Y103608
X87867Y100064
X91410Y100064
T02
X96867Y90608
X96867Y86608
X100867Y85608
X104867Y85608
X108867Y86608
X108867Y90608
X94867Y76608
X102867Y73608
X89867Y66608
X78867Y72608
X73867Y72608
X67867Y69608
X54867Y54608
X62867Y50608
X32867Y48608
X32867Y53608
X12867Y53608
X12867Y48608
X12867Y76608
X21867Y76608
X30867Y76608
X32867Y89608
X36867Y89608
X36867Y93608
X36867Y97608
X36867Y101608
X32867Y101608
X32867Y97608
X32867Y93608
X37867Y123608
X47867Y123608
X57867Y123608
X68867Y122608
X68867Y126608
X68867Y130608
X72867Y130608
X82867Y138608
X86867Y132608
X92867Y138608
X102867Y138608
X112867Y138608
X122867Y138608
X132867Y138608
X142867Y138608
X152867Y138608
X162867Y138608
X162867Y108608
X157867Y108608
X152867Y108608
X117867Y73608
X112867Y56608
X102867Y50608
X142867Y43608
X144867Y54608
X162867Y53608
X182867Y53608
X182867Y63608
X112867Y116608
X108867Y116608
X104867Y116608
X100867Y116608
X96867Y115608
X96867Y111608
X86867Y120608
X68867Y118608
X27867Y140608
X22867Y140608
T03
X16867Y113533
X16867Y91682
T04
X25134Y94930
X25134Y110285
T05
X14867Y126608
X14867Y136608
X12867Y148608
X22867Y148608
X32867Y148608
X42867Y148608
X52867Y148608
X62867Y148608
X72867Y148608
X82867Y148608
X82867Y158608
X82867Y168608
X82867Y178608
X82867Y188608
X82867Y198608
X72867Y198608
X72867Y188608
X72867Y178608
X72867Y168608
X72867Y158608
X62867Y158608
X62867Y168608
X62867Y178608
X62867Y188608
X62867Y198608
X52867Y198608
X52867Y188608
X52867Y178608
X52867Y168608
X52867Y158608
X42867Y158608
X42867Y168608
X42867Y178608
X42867Y188608
X42867Y198608
X32867Y198608
X32867Y188608
X32867Y178608
X32867Y168608
X32867Y158608
X22867Y158608
X22867Y168608
X22867Y178608
X12867Y178608
X12867Y168608
X12867Y158608
X92867Y158608
X102867Y158608
X112867Y158608
X122867Y158608
X132867Y158608
X142867Y158608
X152867Y158608
X162867Y158608
X172867Y158608
X182867Y158608
X182867Y168608
X182867Y178608
X172867Y178608
X172867Y168608
X162867Y168608
X162867Y178608
X162867Y188608
X162867Y198608
X152867Y198608
X152867Y188608
X152867Y178608
X152867Y168608
X142867Y168608
X142867Y178608
X142867Y188608
X142867Y198608
X132867Y198608
X132867Y188608
X132867Y178608
X132867Y168608
X122867Y168608
X122867Y178608
X122867Y188608
X122867Y198608
X112867Y198608
X112867Y188608
X112867Y178608
X112867Y168608
X102867Y168608
X102867Y178608
X102867Y188608
X102867Y198608
X92867Y198608
X92867Y188608
X92867Y178608
X92867Y168608
X92867Y148608
X102867Y148608
X112867Y148608
X122867Y148608
X132867Y148608
X142867Y148608
X152867Y148608
X162867Y148608
X172867Y148608
X182867Y148608
X180867Y133608
X180867Y123608
X169867Y123608
X169867Y133608
X144867Y103608
X144867Y93608
X144867Y77608
X134867Y77608
X117867Y43608
X117867Y33608
X107867Y33608
X107867Y43608
X97867Y43608
X97867Y33608
X87867Y33608
X87867Y43608
X77867Y43608
X77867Y33608
X67867Y33608
X67867Y43608
X57867Y43608
X57867Y33608
X47867Y33608
X47867Y43608
X41867Y52608
X41867Y62608
X130867Y33608
X140867Y33608
X152867Y33608
X162867Y33608
T06
X172867Y51828
X172867Y65608
X22867Y65387
X22867Y51608
T07
X17867Y33608
X17867Y193608
X177867Y193608
X177867Y33608
M30
