G75*
%MOIN*%
%OFA0B0*%
%FSLAX25Y25*%
%IPPOS*%
%LPD*%
%AMOC8*
5,1,8,0,0,1.08239X$1,22.5*
%
%ADD10C,0.00600*%
%ADD11C,0.00000*%
D10*
X0017867Y0023608D02*
X0177867Y0023608D01*
X0178109Y0023611D01*
X0178350Y0023620D01*
X0178591Y0023634D01*
X0178832Y0023655D01*
X0179072Y0023681D01*
X0179312Y0023713D01*
X0179551Y0023751D01*
X0179788Y0023794D01*
X0180025Y0023844D01*
X0180260Y0023899D01*
X0180494Y0023959D01*
X0180726Y0024026D01*
X0180957Y0024097D01*
X0181186Y0024175D01*
X0181413Y0024258D01*
X0181638Y0024346D01*
X0181861Y0024440D01*
X0182081Y0024539D01*
X0182299Y0024644D01*
X0182514Y0024753D01*
X0182727Y0024868D01*
X0182937Y0024988D01*
X0183143Y0025113D01*
X0183347Y0025243D01*
X0183548Y0025378D01*
X0183745Y0025518D01*
X0183939Y0025662D01*
X0184129Y0025811D01*
X0184315Y0025965D01*
X0184498Y0026123D01*
X0184677Y0026285D01*
X0184852Y0026452D01*
X0185023Y0026623D01*
X0185190Y0026798D01*
X0185352Y0026977D01*
X0185510Y0027160D01*
X0185664Y0027346D01*
X0185813Y0027536D01*
X0185957Y0027730D01*
X0186097Y0027927D01*
X0186232Y0028128D01*
X0186362Y0028332D01*
X0186487Y0028538D01*
X0186607Y0028748D01*
X0186722Y0028961D01*
X0186831Y0029176D01*
X0186936Y0029394D01*
X0187035Y0029614D01*
X0187129Y0029837D01*
X0187217Y0030062D01*
X0187300Y0030289D01*
X0187378Y0030518D01*
X0187449Y0030749D01*
X0187516Y0030981D01*
X0187576Y0031215D01*
X0187631Y0031450D01*
X0187681Y0031687D01*
X0187724Y0031924D01*
X0187762Y0032163D01*
X0187794Y0032403D01*
X0187820Y0032643D01*
X0187841Y0032884D01*
X0187855Y0033125D01*
X0187864Y0033366D01*
X0187867Y0033608D01*
X0187867Y0193608D01*
X0187864Y0193850D01*
X0187855Y0194091D01*
X0187841Y0194332D01*
X0187820Y0194573D01*
X0187794Y0194813D01*
X0187762Y0195053D01*
X0187724Y0195292D01*
X0187681Y0195529D01*
X0187631Y0195766D01*
X0187576Y0196001D01*
X0187516Y0196235D01*
X0187449Y0196467D01*
X0187378Y0196698D01*
X0187300Y0196927D01*
X0187217Y0197154D01*
X0187129Y0197379D01*
X0187035Y0197602D01*
X0186936Y0197822D01*
X0186831Y0198040D01*
X0186722Y0198255D01*
X0186607Y0198468D01*
X0186487Y0198678D01*
X0186362Y0198884D01*
X0186232Y0199088D01*
X0186097Y0199289D01*
X0185957Y0199486D01*
X0185813Y0199680D01*
X0185664Y0199870D01*
X0185510Y0200056D01*
X0185352Y0200239D01*
X0185190Y0200418D01*
X0185023Y0200593D01*
X0184852Y0200764D01*
X0184677Y0200931D01*
X0184498Y0201093D01*
X0184315Y0201251D01*
X0184129Y0201405D01*
X0183939Y0201554D01*
X0183745Y0201698D01*
X0183548Y0201838D01*
X0183347Y0201973D01*
X0183143Y0202103D01*
X0182937Y0202228D01*
X0182727Y0202348D01*
X0182514Y0202463D01*
X0182299Y0202572D01*
X0182081Y0202677D01*
X0181861Y0202776D01*
X0181638Y0202870D01*
X0181413Y0202958D01*
X0181186Y0203041D01*
X0180957Y0203119D01*
X0180726Y0203190D01*
X0180494Y0203257D01*
X0180260Y0203317D01*
X0180025Y0203372D01*
X0179788Y0203422D01*
X0179551Y0203465D01*
X0179312Y0203503D01*
X0179072Y0203535D01*
X0178832Y0203561D01*
X0178591Y0203582D01*
X0178350Y0203596D01*
X0178109Y0203605D01*
X0177867Y0203608D01*
X0017867Y0203608D01*
X0017625Y0203605D01*
X0017384Y0203596D01*
X0017143Y0203582D01*
X0016902Y0203561D01*
X0016662Y0203535D01*
X0016422Y0203503D01*
X0016183Y0203465D01*
X0015946Y0203422D01*
X0015709Y0203372D01*
X0015474Y0203317D01*
X0015240Y0203257D01*
X0015008Y0203190D01*
X0014777Y0203119D01*
X0014548Y0203041D01*
X0014321Y0202958D01*
X0014096Y0202870D01*
X0013873Y0202776D01*
X0013653Y0202677D01*
X0013435Y0202572D01*
X0013220Y0202463D01*
X0013007Y0202348D01*
X0012797Y0202228D01*
X0012591Y0202103D01*
X0012387Y0201973D01*
X0012186Y0201838D01*
X0011989Y0201698D01*
X0011795Y0201554D01*
X0011605Y0201405D01*
X0011419Y0201251D01*
X0011236Y0201093D01*
X0011057Y0200931D01*
X0010882Y0200764D01*
X0010711Y0200593D01*
X0010544Y0200418D01*
X0010382Y0200239D01*
X0010224Y0200056D01*
X0010070Y0199870D01*
X0009921Y0199680D01*
X0009777Y0199486D01*
X0009637Y0199289D01*
X0009502Y0199088D01*
X0009372Y0198884D01*
X0009247Y0198678D01*
X0009127Y0198468D01*
X0009012Y0198255D01*
X0008903Y0198040D01*
X0008798Y0197822D01*
X0008699Y0197602D01*
X0008605Y0197379D01*
X0008517Y0197154D01*
X0008434Y0196927D01*
X0008356Y0196698D01*
X0008285Y0196467D01*
X0008218Y0196235D01*
X0008158Y0196001D01*
X0008103Y0195766D01*
X0008053Y0195529D01*
X0008010Y0195292D01*
X0007972Y0195053D01*
X0007940Y0194813D01*
X0007914Y0194573D01*
X0007893Y0194332D01*
X0007879Y0194091D01*
X0007870Y0193850D01*
X0007867Y0193608D01*
X0007867Y0033608D01*
X0007870Y0033366D01*
X0007879Y0033125D01*
X0007893Y0032884D01*
X0007914Y0032643D01*
X0007940Y0032403D01*
X0007972Y0032163D01*
X0008010Y0031924D01*
X0008053Y0031687D01*
X0008103Y0031450D01*
X0008158Y0031215D01*
X0008218Y0030981D01*
X0008285Y0030749D01*
X0008356Y0030518D01*
X0008434Y0030289D01*
X0008517Y0030062D01*
X0008605Y0029837D01*
X0008699Y0029614D01*
X0008798Y0029394D01*
X0008903Y0029176D01*
X0009012Y0028961D01*
X0009127Y0028748D01*
X0009247Y0028538D01*
X0009372Y0028332D01*
X0009502Y0028128D01*
X0009637Y0027927D01*
X0009777Y0027730D01*
X0009921Y0027536D01*
X0010070Y0027346D01*
X0010224Y0027160D01*
X0010382Y0026977D01*
X0010544Y0026798D01*
X0010711Y0026623D01*
X0010882Y0026452D01*
X0011057Y0026285D01*
X0011236Y0026123D01*
X0011419Y0025965D01*
X0011605Y0025811D01*
X0011795Y0025662D01*
X0011989Y0025518D01*
X0012186Y0025378D01*
X0012387Y0025243D01*
X0012591Y0025113D01*
X0012797Y0024988D01*
X0013007Y0024868D01*
X0013220Y0024753D01*
X0013435Y0024644D01*
X0013653Y0024539D01*
X0013873Y0024440D01*
X0014096Y0024346D01*
X0014321Y0024258D01*
X0014548Y0024175D01*
X0014777Y0024097D01*
X0015008Y0024026D01*
X0015240Y0023959D01*
X0015474Y0023899D01*
X0015709Y0023844D01*
X0015946Y0023794D01*
X0016183Y0023751D01*
X0016422Y0023713D01*
X0016662Y0023681D01*
X0016902Y0023655D01*
X0017143Y0023634D01*
X0017384Y0023620D01*
X0017625Y0023611D01*
X0017867Y0023608D01*
D11*
X0011467Y0033608D02*
X0011469Y0033768D01*
X0011475Y0033927D01*
X0011485Y0034086D01*
X0011499Y0034245D01*
X0011517Y0034404D01*
X0011538Y0034562D01*
X0011564Y0034719D01*
X0011594Y0034876D01*
X0011627Y0035032D01*
X0011665Y0035187D01*
X0011706Y0035341D01*
X0011751Y0035494D01*
X0011800Y0035646D01*
X0011853Y0035797D01*
X0011909Y0035946D01*
X0011970Y0036094D01*
X0012033Y0036240D01*
X0012101Y0036385D01*
X0012172Y0036528D01*
X0012246Y0036669D01*
X0012324Y0036808D01*
X0012406Y0036945D01*
X0012491Y0037080D01*
X0012579Y0037213D01*
X0012671Y0037344D01*
X0012765Y0037472D01*
X0012863Y0037598D01*
X0012964Y0037722D01*
X0013068Y0037843D01*
X0013175Y0037961D01*
X0013285Y0038077D01*
X0013398Y0038190D01*
X0013514Y0038300D01*
X0013632Y0038407D01*
X0013753Y0038511D01*
X0013877Y0038612D01*
X0014003Y0038710D01*
X0014131Y0038804D01*
X0014262Y0038896D01*
X0014395Y0038984D01*
X0014530Y0039069D01*
X0014667Y0039151D01*
X0014806Y0039229D01*
X0014947Y0039303D01*
X0015090Y0039374D01*
X0015235Y0039442D01*
X0015381Y0039505D01*
X0015529Y0039566D01*
X0015678Y0039622D01*
X0015829Y0039675D01*
X0015981Y0039724D01*
X0016134Y0039769D01*
X0016288Y0039810D01*
X0016443Y0039848D01*
X0016599Y0039881D01*
X0016756Y0039911D01*
X0016913Y0039937D01*
X0017071Y0039958D01*
X0017230Y0039976D01*
X0017389Y0039990D01*
X0017548Y0040000D01*
X0017707Y0040006D01*
X0017867Y0040008D01*
X0018027Y0040006D01*
X0018186Y0040000D01*
X0018345Y0039990D01*
X0018504Y0039976D01*
X0018663Y0039958D01*
X0018821Y0039937D01*
X0018978Y0039911D01*
X0019135Y0039881D01*
X0019291Y0039848D01*
X0019446Y0039810D01*
X0019600Y0039769D01*
X0019753Y0039724D01*
X0019905Y0039675D01*
X0020056Y0039622D01*
X0020205Y0039566D01*
X0020353Y0039505D01*
X0020499Y0039442D01*
X0020644Y0039374D01*
X0020787Y0039303D01*
X0020928Y0039229D01*
X0021067Y0039151D01*
X0021204Y0039069D01*
X0021339Y0038984D01*
X0021472Y0038896D01*
X0021603Y0038804D01*
X0021731Y0038710D01*
X0021857Y0038612D01*
X0021981Y0038511D01*
X0022102Y0038407D01*
X0022220Y0038300D01*
X0022336Y0038190D01*
X0022449Y0038077D01*
X0022559Y0037961D01*
X0022666Y0037843D01*
X0022770Y0037722D01*
X0022871Y0037598D01*
X0022969Y0037472D01*
X0023063Y0037344D01*
X0023155Y0037213D01*
X0023243Y0037080D01*
X0023328Y0036945D01*
X0023410Y0036808D01*
X0023488Y0036669D01*
X0023562Y0036528D01*
X0023633Y0036385D01*
X0023701Y0036240D01*
X0023764Y0036094D01*
X0023825Y0035946D01*
X0023881Y0035797D01*
X0023934Y0035646D01*
X0023983Y0035494D01*
X0024028Y0035341D01*
X0024069Y0035187D01*
X0024107Y0035032D01*
X0024140Y0034876D01*
X0024170Y0034719D01*
X0024196Y0034562D01*
X0024217Y0034404D01*
X0024235Y0034245D01*
X0024249Y0034086D01*
X0024259Y0033927D01*
X0024265Y0033768D01*
X0024267Y0033608D01*
X0024265Y0033448D01*
X0024259Y0033289D01*
X0024249Y0033130D01*
X0024235Y0032971D01*
X0024217Y0032812D01*
X0024196Y0032654D01*
X0024170Y0032497D01*
X0024140Y0032340D01*
X0024107Y0032184D01*
X0024069Y0032029D01*
X0024028Y0031875D01*
X0023983Y0031722D01*
X0023934Y0031570D01*
X0023881Y0031419D01*
X0023825Y0031270D01*
X0023764Y0031122D01*
X0023701Y0030976D01*
X0023633Y0030831D01*
X0023562Y0030688D01*
X0023488Y0030547D01*
X0023410Y0030408D01*
X0023328Y0030271D01*
X0023243Y0030136D01*
X0023155Y0030003D01*
X0023063Y0029872D01*
X0022969Y0029744D01*
X0022871Y0029618D01*
X0022770Y0029494D01*
X0022666Y0029373D01*
X0022559Y0029255D01*
X0022449Y0029139D01*
X0022336Y0029026D01*
X0022220Y0028916D01*
X0022102Y0028809D01*
X0021981Y0028705D01*
X0021857Y0028604D01*
X0021731Y0028506D01*
X0021603Y0028412D01*
X0021472Y0028320D01*
X0021339Y0028232D01*
X0021204Y0028147D01*
X0021067Y0028065D01*
X0020928Y0027987D01*
X0020787Y0027913D01*
X0020644Y0027842D01*
X0020499Y0027774D01*
X0020353Y0027711D01*
X0020205Y0027650D01*
X0020056Y0027594D01*
X0019905Y0027541D01*
X0019753Y0027492D01*
X0019600Y0027447D01*
X0019446Y0027406D01*
X0019291Y0027368D01*
X0019135Y0027335D01*
X0018978Y0027305D01*
X0018821Y0027279D01*
X0018663Y0027258D01*
X0018504Y0027240D01*
X0018345Y0027226D01*
X0018186Y0027216D01*
X0018027Y0027210D01*
X0017867Y0027208D01*
X0017707Y0027210D01*
X0017548Y0027216D01*
X0017389Y0027226D01*
X0017230Y0027240D01*
X0017071Y0027258D01*
X0016913Y0027279D01*
X0016756Y0027305D01*
X0016599Y0027335D01*
X0016443Y0027368D01*
X0016288Y0027406D01*
X0016134Y0027447D01*
X0015981Y0027492D01*
X0015829Y0027541D01*
X0015678Y0027594D01*
X0015529Y0027650D01*
X0015381Y0027711D01*
X0015235Y0027774D01*
X0015090Y0027842D01*
X0014947Y0027913D01*
X0014806Y0027987D01*
X0014667Y0028065D01*
X0014530Y0028147D01*
X0014395Y0028232D01*
X0014262Y0028320D01*
X0014131Y0028412D01*
X0014003Y0028506D01*
X0013877Y0028604D01*
X0013753Y0028705D01*
X0013632Y0028809D01*
X0013514Y0028916D01*
X0013398Y0029026D01*
X0013285Y0029139D01*
X0013175Y0029255D01*
X0013068Y0029373D01*
X0012964Y0029494D01*
X0012863Y0029618D01*
X0012765Y0029744D01*
X0012671Y0029872D01*
X0012579Y0030003D01*
X0012491Y0030136D01*
X0012406Y0030271D01*
X0012324Y0030408D01*
X0012246Y0030547D01*
X0012172Y0030688D01*
X0012101Y0030831D01*
X0012033Y0030976D01*
X0011970Y0031122D01*
X0011909Y0031270D01*
X0011853Y0031419D01*
X0011800Y0031570D01*
X0011751Y0031722D01*
X0011706Y0031875D01*
X0011665Y0032029D01*
X0011627Y0032184D01*
X0011594Y0032340D01*
X0011564Y0032497D01*
X0011538Y0032654D01*
X0011517Y0032812D01*
X0011499Y0032971D01*
X0011485Y0033130D01*
X0011475Y0033289D01*
X0011469Y0033448D01*
X0011467Y0033608D01*
X0015528Y0090738D02*
X0018205Y0090738D01*
X0018205Y0090737D02*
X0018267Y0090739D01*
X0018328Y0090744D01*
X0018390Y0090754D01*
X0018450Y0090767D01*
X0018510Y0090783D01*
X0018568Y0090804D01*
X0018625Y0090827D01*
X0018681Y0090854D01*
X0018735Y0090885D01*
X0018787Y0090918D01*
X0018837Y0090955D01*
X0018884Y0090995D01*
X0018929Y0091037D01*
X0018971Y0091082D01*
X0019011Y0091129D01*
X0019048Y0091179D01*
X0019081Y0091231D01*
X0019112Y0091285D01*
X0019139Y0091341D01*
X0019162Y0091398D01*
X0019183Y0091456D01*
X0019199Y0091516D01*
X0019212Y0091576D01*
X0019222Y0091638D01*
X0019227Y0091699D01*
X0019229Y0091761D01*
X0019227Y0091823D01*
X0019221Y0091884D01*
X0019212Y0091945D01*
X0019198Y0092006D01*
X0019181Y0092065D01*
X0019160Y0092123D01*
X0019135Y0092180D01*
X0019107Y0092235D01*
X0019076Y0092288D01*
X0019041Y0092339D01*
X0019003Y0092388D01*
X0018962Y0092435D01*
X0018919Y0092478D01*
X0018872Y0092519D01*
X0018823Y0092557D01*
X0018772Y0092592D01*
X0018719Y0092623D01*
X0018664Y0092651D01*
X0018607Y0092676D01*
X0018549Y0092697D01*
X0018490Y0092714D01*
X0018429Y0092728D01*
X0018368Y0092737D01*
X0018307Y0092743D01*
X0018245Y0092745D01*
X0015489Y0092745D01*
X0015427Y0092743D01*
X0015366Y0092737D01*
X0015305Y0092728D01*
X0015244Y0092714D01*
X0015185Y0092697D01*
X0015127Y0092676D01*
X0015070Y0092651D01*
X0015015Y0092623D01*
X0014962Y0092592D01*
X0014911Y0092557D01*
X0014862Y0092519D01*
X0014815Y0092478D01*
X0014772Y0092435D01*
X0014731Y0092388D01*
X0014693Y0092339D01*
X0014658Y0092288D01*
X0014627Y0092235D01*
X0014599Y0092180D01*
X0014574Y0092123D01*
X0014553Y0092065D01*
X0014536Y0092006D01*
X0014522Y0091945D01*
X0014513Y0091884D01*
X0014507Y0091823D01*
X0014505Y0091761D01*
X0014504Y0091761D02*
X0014506Y0091699D01*
X0014511Y0091638D01*
X0014521Y0091576D01*
X0014534Y0091516D01*
X0014550Y0091456D01*
X0014571Y0091398D01*
X0014594Y0091341D01*
X0014621Y0091285D01*
X0014652Y0091231D01*
X0014685Y0091179D01*
X0014722Y0091129D01*
X0014762Y0091082D01*
X0014804Y0091037D01*
X0014849Y0090995D01*
X0014896Y0090955D01*
X0014946Y0090918D01*
X0014998Y0090885D01*
X0015052Y0090854D01*
X0015108Y0090827D01*
X0015165Y0090804D01*
X0015223Y0090783D01*
X0015283Y0090767D01*
X0015343Y0090754D01*
X0015405Y0090744D01*
X0015466Y0090739D01*
X0015528Y0090737D01*
X0023953Y0094930D02*
X0023955Y0094999D01*
X0023961Y0095067D01*
X0023971Y0095135D01*
X0023985Y0095202D01*
X0024003Y0095269D01*
X0024024Y0095334D01*
X0024050Y0095398D01*
X0024079Y0095460D01*
X0024111Y0095520D01*
X0024147Y0095579D01*
X0024187Y0095635D01*
X0024229Y0095689D01*
X0024275Y0095740D01*
X0024324Y0095789D01*
X0024375Y0095835D01*
X0024429Y0095877D01*
X0024485Y0095917D01*
X0024543Y0095953D01*
X0024604Y0095985D01*
X0024666Y0096014D01*
X0024730Y0096040D01*
X0024795Y0096061D01*
X0024862Y0096079D01*
X0024929Y0096093D01*
X0024997Y0096103D01*
X0025065Y0096109D01*
X0025134Y0096111D01*
X0025203Y0096109D01*
X0025271Y0096103D01*
X0025339Y0096093D01*
X0025406Y0096079D01*
X0025473Y0096061D01*
X0025538Y0096040D01*
X0025602Y0096014D01*
X0025664Y0095985D01*
X0025724Y0095953D01*
X0025783Y0095917D01*
X0025839Y0095877D01*
X0025893Y0095835D01*
X0025944Y0095789D01*
X0025993Y0095740D01*
X0026039Y0095689D01*
X0026081Y0095635D01*
X0026121Y0095579D01*
X0026157Y0095520D01*
X0026189Y0095460D01*
X0026218Y0095398D01*
X0026244Y0095334D01*
X0026265Y0095269D01*
X0026283Y0095202D01*
X0026297Y0095135D01*
X0026307Y0095067D01*
X0026313Y0094999D01*
X0026315Y0094930D01*
X0026313Y0094861D01*
X0026307Y0094793D01*
X0026297Y0094725D01*
X0026283Y0094658D01*
X0026265Y0094591D01*
X0026244Y0094526D01*
X0026218Y0094462D01*
X0026189Y0094400D01*
X0026157Y0094339D01*
X0026121Y0094281D01*
X0026081Y0094225D01*
X0026039Y0094171D01*
X0025993Y0094120D01*
X0025944Y0094071D01*
X0025893Y0094025D01*
X0025839Y0093983D01*
X0025783Y0093943D01*
X0025725Y0093907D01*
X0025664Y0093875D01*
X0025602Y0093846D01*
X0025538Y0093820D01*
X0025473Y0093799D01*
X0025406Y0093781D01*
X0025339Y0093767D01*
X0025271Y0093757D01*
X0025203Y0093751D01*
X0025134Y0093749D01*
X0025065Y0093751D01*
X0024997Y0093757D01*
X0024929Y0093767D01*
X0024862Y0093781D01*
X0024795Y0093799D01*
X0024730Y0093820D01*
X0024666Y0093846D01*
X0024604Y0093875D01*
X0024543Y0093907D01*
X0024485Y0093943D01*
X0024429Y0093983D01*
X0024375Y0094025D01*
X0024324Y0094071D01*
X0024275Y0094120D01*
X0024229Y0094171D01*
X0024187Y0094225D01*
X0024147Y0094281D01*
X0024111Y0094339D01*
X0024079Y0094400D01*
X0024050Y0094462D01*
X0024024Y0094526D01*
X0024003Y0094591D01*
X0023985Y0094658D01*
X0023971Y0094725D01*
X0023961Y0094793D01*
X0023955Y0094861D01*
X0023953Y0094930D01*
X0023953Y0110285D02*
X0023955Y0110354D01*
X0023961Y0110422D01*
X0023971Y0110490D01*
X0023985Y0110557D01*
X0024003Y0110624D01*
X0024024Y0110689D01*
X0024050Y0110753D01*
X0024079Y0110815D01*
X0024111Y0110875D01*
X0024147Y0110934D01*
X0024187Y0110990D01*
X0024229Y0111044D01*
X0024275Y0111095D01*
X0024324Y0111144D01*
X0024375Y0111190D01*
X0024429Y0111232D01*
X0024485Y0111272D01*
X0024543Y0111308D01*
X0024604Y0111340D01*
X0024666Y0111369D01*
X0024730Y0111395D01*
X0024795Y0111416D01*
X0024862Y0111434D01*
X0024929Y0111448D01*
X0024997Y0111458D01*
X0025065Y0111464D01*
X0025134Y0111466D01*
X0025203Y0111464D01*
X0025271Y0111458D01*
X0025339Y0111448D01*
X0025406Y0111434D01*
X0025473Y0111416D01*
X0025538Y0111395D01*
X0025602Y0111369D01*
X0025664Y0111340D01*
X0025724Y0111308D01*
X0025783Y0111272D01*
X0025839Y0111232D01*
X0025893Y0111190D01*
X0025944Y0111144D01*
X0025993Y0111095D01*
X0026039Y0111044D01*
X0026081Y0110990D01*
X0026121Y0110934D01*
X0026157Y0110875D01*
X0026189Y0110815D01*
X0026218Y0110753D01*
X0026244Y0110689D01*
X0026265Y0110624D01*
X0026283Y0110557D01*
X0026297Y0110490D01*
X0026307Y0110422D01*
X0026313Y0110354D01*
X0026315Y0110285D01*
X0026313Y0110216D01*
X0026307Y0110148D01*
X0026297Y0110080D01*
X0026283Y0110013D01*
X0026265Y0109946D01*
X0026244Y0109881D01*
X0026218Y0109817D01*
X0026189Y0109755D01*
X0026157Y0109694D01*
X0026121Y0109636D01*
X0026081Y0109580D01*
X0026039Y0109526D01*
X0025993Y0109475D01*
X0025944Y0109426D01*
X0025893Y0109380D01*
X0025839Y0109338D01*
X0025783Y0109298D01*
X0025725Y0109262D01*
X0025664Y0109230D01*
X0025602Y0109201D01*
X0025538Y0109175D01*
X0025473Y0109154D01*
X0025406Y0109136D01*
X0025339Y0109122D01*
X0025271Y0109112D01*
X0025203Y0109106D01*
X0025134Y0109104D01*
X0025065Y0109106D01*
X0024997Y0109112D01*
X0024929Y0109122D01*
X0024862Y0109136D01*
X0024795Y0109154D01*
X0024730Y0109175D01*
X0024666Y0109201D01*
X0024604Y0109230D01*
X0024543Y0109262D01*
X0024485Y0109298D01*
X0024429Y0109338D01*
X0024375Y0109380D01*
X0024324Y0109426D01*
X0024275Y0109475D01*
X0024229Y0109526D01*
X0024187Y0109580D01*
X0024147Y0109636D01*
X0024111Y0109694D01*
X0024079Y0109755D01*
X0024050Y0109817D01*
X0024024Y0109881D01*
X0024003Y0109946D01*
X0023985Y0110013D01*
X0023971Y0110080D01*
X0023961Y0110148D01*
X0023955Y0110216D01*
X0023953Y0110285D01*
X0018205Y0112529D02*
X0015528Y0112529D01*
X0015466Y0112531D01*
X0015405Y0112536D01*
X0015343Y0112546D01*
X0015283Y0112559D01*
X0015223Y0112575D01*
X0015165Y0112596D01*
X0015108Y0112619D01*
X0015052Y0112646D01*
X0014998Y0112677D01*
X0014946Y0112710D01*
X0014896Y0112747D01*
X0014849Y0112787D01*
X0014804Y0112829D01*
X0014762Y0112874D01*
X0014722Y0112921D01*
X0014685Y0112971D01*
X0014652Y0113023D01*
X0014621Y0113077D01*
X0014594Y0113133D01*
X0014571Y0113190D01*
X0014550Y0113248D01*
X0014534Y0113308D01*
X0014521Y0113368D01*
X0014511Y0113430D01*
X0014506Y0113491D01*
X0014504Y0113553D01*
X0014505Y0113553D02*
X0014507Y0113615D01*
X0014513Y0113676D01*
X0014522Y0113737D01*
X0014536Y0113798D01*
X0014553Y0113857D01*
X0014574Y0113915D01*
X0014599Y0113972D01*
X0014627Y0114027D01*
X0014658Y0114080D01*
X0014693Y0114131D01*
X0014731Y0114180D01*
X0014772Y0114227D01*
X0014815Y0114270D01*
X0014862Y0114311D01*
X0014911Y0114349D01*
X0014962Y0114384D01*
X0015015Y0114415D01*
X0015070Y0114443D01*
X0015127Y0114468D01*
X0015185Y0114489D01*
X0015244Y0114506D01*
X0015305Y0114520D01*
X0015366Y0114529D01*
X0015427Y0114535D01*
X0015489Y0114537D01*
X0018245Y0114537D01*
X0018307Y0114535D01*
X0018368Y0114529D01*
X0018429Y0114520D01*
X0018490Y0114506D01*
X0018549Y0114489D01*
X0018607Y0114468D01*
X0018664Y0114443D01*
X0018719Y0114415D01*
X0018772Y0114384D01*
X0018823Y0114349D01*
X0018872Y0114311D01*
X0018919Y0114270D01*
X0018962Y0114227D01*
X0019003Y0114180D01*
X0019041Y0114131D01*
X0019076Y0114080D01*
X0019107Y0114027D01*
X0019135Y0113972D01*
X0019160Y0113915D01*
X0019181Y0113857D01*
X0019198Y0113798D01*
X0019212Y0113737D01*
X0019221Y0113676D01*
X0019227Y0113615D01*
X0019229Y0113553D01*
X0019227Y0113491D01*
X0019222Y0113430D01*
X0019212Y0113368D01*
X0019199Y0113308D01*
X0019183Y0113248D01*
X0019162Y0113190D01*
X0019139Y0113133D01*
X0019112Y0113077D01*
X0019081Y0113023D01*
X0019048Y0112971D01*
X0019011Y0112921D01*
X0018971Y0112874D01*
X0018929Y0112829D01*
X0018884Y0112787D01*
X0018837Y0112747D01*
X0018787Y0112710D01*
X0018735Y0112677D01*
X0018681Y0112646D01*
X0018625Y0112619D01*
X0018568Y0112596D01*
X0018510Y0112575D01*
X0018450Y0112559D01*
X0018390Y0112546D01*
X0018328Y0112536D01*
X0018267Y0112531D01*
X0018205Y0112529D01*
X0011467Y0193608D02*
X0011469Y0193768D01*
X0011475Y0193927D01*
X0011485Y0194086D01*
X0011499Y0194245D01*
X0011517Y0194404D01*
X0011538Y0194562D01*
X0011564Y0194719D01*
X0011594Y0194876D01*
X0011627Y0195032D01*
X0011665Y0195187D01*
X0011706Y0195341D01*
X0011751Y0195494D01*
X0011800Y0195646D01*
X0011853Y0195797D01*
X0011909Y0195946D01*
X0011970Y0196094D01*
X0012033Y0196240D01*
X0012101Y0196385D01*
X0012172Y0196528D01*
X0012246Y0196669D01*
X0012324Y0196808D01*
X0012406Y0196945D01*
X0012491Y0197080D01*
X0012579Y0197213D01*
X0012671Y0197344D01*
X0012765Y0197472D01*
X0012863Y0197598D01*
X0012964Y0197722D01*
X0013068Y0197843D01*
X0013175Y0197961D01*
X0013285Y0198077D01*
X0013398Y0198190D01*
X0013514Y0198300D01*
X0013632Y0198407D01*
X0013753Y0198511D01*
X0013877Y0198612D01*
X0014003Y0198710D01*
X0014131Y0198804D01*
X0014262Y0198896D01*
X0014395Y0198984D01*
X0014530Y0199069D01*
X0014667Y0199151D01*
X0014806Y0199229D01*
X0014947Y0199303D01*
X0015090Y0199374D01*
X0015235Y0199442D01*
X0015381Y0199505D01*
X0015529Y0199566D01*
X0015678Y0199622D01*
X0015829Y0199675D01*
X0015981Y0199724D01*
X0016134Y0199769D01*
X0016288Y0199810D01*
X0016443Y0199848D01*
X0016599Y0199881D01*
X0016756Y0199911D01*
X0016913Y0199937D01*
X0017071Y0199958D01*
X0017230Y0199976D01*
X0017389Y0199990D01*
X0017548Y0200000D01*
X0017707Y0200006D01*
X0017867Y0200008D01*
X0018027Y0200006D01*
X0018186Y0200000D01*
X0018345Y0199990D01*
X0018504Y0199976D01*
X0018663Y0199958D01*
X0018821Y0199937D01*
X0018978Y0199911D01*
X0019135Y0199881D01*
X0019291Y0199848D01*
X0019446Y0199810D01*
X0019600Y0199769D01*
X0019753Y0199724D01*
X0019905Y0199675D01*
X0020056Y0199622D01*
X0020205Y0199566D01*
X0020353Y0199505D01*
X0020499Y0199442D01*
X0020644Y0199374D01*
X0020787Y0199303D01*
X0020928Y0199229D01*
X0021067Y0199151D01*
X0021204Y0199069D01*
X0021339Y0198984D01*
X0021472Y0198896D01*
X0021603Y0198804D01*
X0021731Y0198710D01*
X0021857Y0198612D01*
X0021981Y0198511D01*
X0022102Y0198407D01*
X0022220Y0198300D01*
X0022336Y0198190D01*
X0022449Y0198077D01*
X0022559Y0197961D01*
X0022666Y0197843D01*
X0022770Y0197722D01*
X0022871Y0197598D01*
X0022969Y0197472D01*
X0023063Y0197344D01*
X0023155Y0197213D01*
X0023243Y0197080D01*
X0023328Y0196945D01*
X0023410Y0196808D01*
X0023488Y0196669D01*
X0023562Y0196528D01*
X0023633Y0196385D01*
X0023701Y0196240D01*
X0023764Y0196094D01*
X0023825Y0195946D01*
X0023881Y0195797D01*
X0023934Y0195646D01*
X0023983Y0195494D01*
X0024028Y0195341D01*
X0024069Y0195187D01*
X0024107Y0195032D01*
X0024140Y0194876D01*
X0024170Y0194719D01*
X0024196Y0194562D01*
X0024217Y0194404D01*
X0024235Y0194245D01*
X0024249Y0194086D01*
X0024259Y0193927D01*
X0024265Y0193768D01*
X0024267Y0193608D01*
X0024265Y0193448D01*
X0024259Y0193289D01*
X0024249Y0193130D01*
X0024235Y0192971D01*
X0024217Y0192812D01*
X0024196Y0192654D01*
X0024170Y0192497D01*
X0024140Y0192340D01*
X0024107Y0192184D01*
X0024069Y0192029D01*
X0024028Y0191875D01*
X0023983Y0191722D01*
X0023934Y0191570D01*
X0023881Y0191419D01*
X0023825Y0191270D01*
X0023764Y0191122D01*
X0023701Y0190976D01*
X0023633Y0190831D01*
X0023562Y0190688D01*
X0023488Y0190547D01*
X0023410Y0190408D01*
X0023328Y0190271D01*
X0023243Y0190136D01*
X0023155Y0190003D01*
X0023063Y0189872D01*
X0022969Y0189744D01*
X0022871Y0189618D01*
X0022770Y0189494D01*
X0022666Y0189373D01*
X0022559Y0189255D01*
X0022449Y0189139D01*
X0022336Y0189026D01*
X0022220Y0188916D01*
X0022102Y0188809D01*
X0021981Y0188705D01*
X0021857Y0188604D01*
X0021731Y0188506D01*
X0021603Y0188412D01*
X0021472Y0188320D01*
X0021339Y0188232D01*
X0021204Y0188147D01*
X0021067Y0188065D01*
X0020928Y0187987D01*
X0020787Y0187913D01*
X0020644Y0187842D01*
X0020499Y0187774D01*
X0020353Y0187711D01*
X0020205Y0187650D01*
X0020056Y0187594D01*
X0019905Y0187541D01*
X0019753Y0187492D01*
X0019600Y0187447D01*
X0019446Y0187406D01*
X0019291Y0187368D01*
X0019135Y0187335D01*
X0018978Y0187305D01*
X0018821Y0187279D01*
X0018663Y0187258D01*
X0018504Y0187240D01*
X0018345Y0187226D01*
X0018186Y0187216D01*
X0018027Y0187210D01*
X0017867Y0187208D01*
X0017707Y0187210D01*
X0017548Y0187216D01*
X0017389Y0187226D01*
X0017230Y0187240D01*
X0017071Y0187258D01*
X0016913Y0187279D01*
X0016756Y0187305D01*
X0016599Y0187335D01*
X0016443Y0187368D01*
X0016288Y0187406D01*
X0016134Y0187447D01*
X0015981Y0187492D01*
X0015829Y0187541D01*
X0015678Y0187594D01*
X0015529Y0187650D01*
X0015381Y0187711D01*
X0015235Y0187774D01*
X0015090Y0187842D01*
X0014947Y0187913D01*
X0014806Y0187987D01*
X0014667Y0188065D01*
X0014530Y0188147D01*
X0014395Y0188232D01*
X0014262Y0188320D01*
X0014131Y0188412D01*
X0014003Y0188506D01*
X0013877Y0188604D01*
X0013753Y0188705D01*
X0013632Y0188809D01*
X0013514Y0188916D01*
X0013398Y0189026D01*
X0013285Y0189139D01*
X0013175Y0189255D01*
X0013068Y0189373D01*
X0012964Y0189494D01*
X0012863Y0189618D01*
X0012765Y0189744D01*
X0012671Y0189872D01*
X0012579Y0190003D01*
X0012491Y0190136D01*
X0012406Y0190271D01*
X0012324Y0190408D01*
X0012246Y0190547D01*
X0012172Y0190688D01*
X0012101Y0190831D01*
X0012033Y0190976D01*
X0011970Y0191122D01*
X0011909Y0191270D01*
X0011853Y0191419D01*
X0011800Y0191570D01*
X0011751Y0191722D01*
X0011706Y0191875D01*
X0011665Y0192029D01*
X0011627Y0192184D01*
X0011594Y0192340D01*
X0011564Y0192497D01*
X0011538Y0192654D01*
X0011517Y0192812D01*
X0011499Y0192971D01*
X0011485Y0193130D01*
X0011475Y0193289D01*
X0011469Y0193448D01*
X0011467Y0193608D01*
X0171467Y0193608D02*
X0171469Y0193768D01*
X0171475Y0193927D01*
X0171485Y0194086D01*
X0171499Y0194245D01*
X0171517Y0194404D01*
X0171538Y0194562D01*
X0171564Y0194719D01*
X0171594Y0194876D01*
X0171627Y0195032D01*
X0171665Y0195187D01*
X0171706Y0195341D01*
X0171751Y0195494D01*
X0171800Y0195646D01*
X0171853Y0195797D01*
X0171909Y0195946D01*
X0171970Y0196094D01*
X0172033Y0196240D01*
X0172101Y0196385D01*
X0172172Y0196528D01*
X0172246Y0196669D01*
X0172324Y0196808D01*
X0172406Y0196945D01*
X0172491Y0197080D01*
X0172579Y0197213D01*
X0172671Y0197344D01*
X0172765Y0197472D01*
X0172863Y0197598D01*
X0172964Y0197722D01*
X0173068Y0197843D01*
X0173175Y0197961D01*
X0173285Y0198077D01*
X0173398Y0198190D01*
X0173514Y0198300D01*
X0173632Y0198407D01*
X0173753Y0198511D01*
X0173877Y0198612D01*
X0174003Y0198710D01*
X0174131Y0198804D01*
X0174262Y0198896D01*
X0174395Y0198984D01*
X0174530Y0199069D01*
X0174667Y0199151D01*
X0174806Y0199229D01*
X0174947Y0199303D01*
X0175090Y0199374D01*
X0175235Y0199442D01*
X0175381Y0199505D01*
X0175529Y0199566D01*
X0175678Y0199622D01*
X0175829Y0199675D01*
X0175981Y0199724D01*
X0176134Y0199769D01*
X0176288Y0199810D01*
X0176443Y0199848D01*
X0176599Y0199881D01*
X0176756Y0199911D01*
X0176913Y0199937D01*
X0177071Y0199958D01*
X0177230Y0199976D01*
X0177389Y0199990D01*
X0177548Y0200000D01*
X0177707Y0200006D01*
X0177867Y0200008D01*
X0178027Y0200006D01*
X0178186Y0200000D01*
X0178345Y0199990D01*
X0178504Y0199976D01*
X0178663Y0199958D01*
X0178821Y0199937D01*
X0178978Y0199911D01*
X0179135Y0199881D01*
X0179291Y0199848D01*
X0179446Y0199810D01*
X0179600Y0199769D01*
X0179753Y0199724D01*
X0179905Y0199675D01*
X0180056Y0199622D01*
X0180205Y0199566D01*
X0180353Y0199505D01*
X0180499Y0199442D01*
X0180644Y0199374D01*
X0180787Y0199303D01*
X0180928Y0199229D01*
X0181067Y0199151D01*
X0181204Y0199069D01*
X0181339Y0198984D01*
X0181472Y0198896D01*
X0181603Y0198804D01*
X0181731Y0198710D01*
X0181857Y0198612D01*
X0181981Y0198511D01*
X0182102Y0198407D01*
X0182220Y0198300D01*
X0182336Y0198190D01*
X0182449Y0198077D01*
X0182559Y0197961D01*
X0182666Y0197843D01*
X0182770Y0197722D01*
X0182871Y0197598D01*
X0182969Y0197472D01*
X0183063Y0197344D01*
X0183155Y0197213D01*
X0183243Y0197080D01*
X0183328Y0196945D01*
X0183410Y0196808D01*
X0183488Y0196669D01*
X0183562Y0196528D01*
X0183633Y0196385D01*
X0183701Y0196240D01*
X0183764Y0196094D01*
X0183825Y0195946D01*
X0183881Y0195797D01*
X0183934Y0195646D01*
X0183983Y0195494D01*
X0184028Y0195341D01*
X0184069Y0195187D01*
X0184107Y0195032D01*
X0184140Y0194876D01*
X0184170Y0194719D01*
X0184196Y0194562D01*
X0184217Y0194404D01*
X0184235Y0194245D01*
X0184249Y0194086D01*
X0184259Y0193927D01*
X0184265Y0193768D01*
X0184267Y0193608D01*
X0184265Y0193448D01*
X0184259Y0193289D01*
X0184249Y0193130D01*
X0184235Y0192971D01*
X0184217Y0192812D01*
X0184196Y0192654D01*
X0184170Y0192497D01*
X0184140Y0192340D01*
X0184107Y0192184D01*
X0184069Y0192029D01*
X0184028Y0191875D01*
X0183983Y0191722D01*
X0183934Y0191570D01*
X0183881Y0191419D01*
X0183825Y0191270D01*
X0183764Y0191122D01*
X0183701Y0190976D01*
X0183633Y0190831D01*
X0183562Y0190688D01*
X0183488Y0190547D01*
X0183410Y0190408D01*
X0183328Y0190271D01*
X0183243Y0190136D01*
X0183155Y0190003D01*
X0183063Y0189872D01*
X0182969Y0189744D01*
X0182871Y0189618D01*
X0182770Y0189494D01*
X0182666Y0189373D01*
X0182559Y0189255D01*
X0182449Y0189139D01*
X0182336Y0189026D01*
X0182220Y0188916D01*
X0182102Y0188809D01*
X0181981Y0188705D01*
X0181857Y0188604D01*
X0181731Y0188506D01*
X0181603Y0188412D01*
X0181472Y0188320D01*
X0181339Y0188232D01*
X0181204Y0188147D01*
X0181067Y0188065D01*
X0180928Y0187987D01*
X0180787Y0187913D01*
X0180644Y0187842D01*
X0180499Y0187774D01*
X0180353Y0187711D01*
X0180205Y0187650D01*
X0180056Y0187594D01*
X0179905Y0187541D01*
X0179753Y0187492D01*
X0179600Y0187447D01*
X0179446Y0187406D01*
X0179291Y0187368D01*
X0179135Y0187335D01*
X0178978Y0187305D01*
X0178821Y0187279D01*
X0178663Y0187258D01*
X0178504Y0187240D01*
X0178345Y0187226D01*
X0178186Y0187216D01*
X0178027Y0187210D01*
X0177867Y0187208D01*
X0177707Y0187210D01*
X0177548Y0187216D01*
X0177389Y0187226D01*
X0177230Y0187240D01*
X0177071Y0187258D01*
X0176913Y0187279D01*
X0176756Y0187305D01*
X0176599Y0187335D01*
X0176443Y0187368D01*
X0176288Y0187406D01*
X0176134Y0187447D01*
X0175981Y0187492D01*
X0175829Y0187541D01*
X0175678Y0187594D01*
X0175529Y0187650D01*
X0175381Y0187711D01*
X0175235Y0187774D01*
X0175090Y0187842D01*
X0174947Y0187913D01*
X0174806Y0187987D01*
X0174667Y0188065D01*
X0174530Y0188147D01*
X0174395Y0188232D01*
X0174262Y0188320D01*
X0174131Y0188412D01*
X0174003Y0188506D01*
X0173877Y0188604D01*
X0173753Y0188705D01*
X0173632Y0188809D01*
X0173514Y0188916D01*
X0173398Y0189026D01*
X0173285Y0189139D01*
X0173175Y0189255D01*
X0173068Y0189373D01*
X0172964Y0189494D01*
X0172863Y0189618D01*
X0172765Y0189744D01*
X0172671Y0189872D01*
X0172579Y0190003D01*
X0172491Y0190136D01*
X0172406Y0190271D01*
X0172324Y0190408D01*
X0172246Y0190547D01*
X0172172Y0190688D01*
X0172101Y0190831D01*
X0172033Y0190976D01*
X0171970Y0191122D01*
X0171909Y0191270D01*
X0171853Y0191419D01*
X0171800Y0191570D01*
X0171751Y0191722D01*
X0171706Y0191875D01*
X0171665Y0192029D01*
X0171627Y0192184D01*
X0171594Y0192340D01*
X0171564Y0192497D01*
X0171538Y0192654D01*
X0171517Y0192812D01*
X0171499Y0192971D01*
X0171485Y0193130D01*
X0171475Y0193289D01*
X0171469Y0193448D01*
X0171467Y0193608D01*
X0171467Y0033608D02*
X0171469Y0033768D01*
X0171475Y0033927D01*
X0171485Y0034086D01*
X0171499Y0034245D01*
X0171517Y0034404D01*
X0171538Y0034562D01*
X0171564Y0034719D01*
X0171594Y0034876D01*
X0171627Y0035032D01*
X0171665Y0035187D01*
X0171706Y0035341D01*
X0171751Y0035494D01*
X0171800Y0035646D01*
X0171853Y0035797D01*
X0171909Y0035946D01*
X0171970Y0036094D01*
X0172033Y0036240D01*
X0172101Y0036385D01*
X0172172Y0036528D01*
X0172246Y0036669D01*
X0172324Y0036808D01*
X0172406Y0036945D01*
X0172491Y0037080D01*
X0172579Y0037213D01*
X0172671Y0037344D01*
X0172765Y0037472D01*
X0172863Y0037598D01*
X0172964Y0037722D01*
X0173068Y0037843D01*
X0173175Y0037961D01*
X0173285Y0038077D01*
X0173398Y0038190D01*
X0173514Y0038300D01*
X0173632Y0038407D01*
X0173753Y0038511D01*
X0173877Y0038612D01*
X0174003Y0038710D01*
X0174131Y0038804D01*
X0174262Y0038896D01*
X0174395Y0038984D01*
X0174530Y0039069D01*
X0174667Y0039151D01*
X0174806Y0039229D01*
X0174947Y0039303D01*
X0175090Y0039374D01*
X0175235Y0039442D01*
X0175381Y0039505D01*
X0175529Y0039566D01*
X0175678Y0039622D01*
X0175829Y0039675D01*
X0175981Y0039724D01*
X0176134Y0039769D01*
X0176288Y0039810D01*
X0176443Y0039848D01*
X0176599Y0039881D01*
X0176756Y0039911D01*
X0176913Y0039937D01*
X0177071Y0039958D01*
X0177230Y0039976D01*
X0177389Y0039990D01*
X0177548Y0040000D01*
X0177707Y0040006D01*
X0177867Y0040008D01*
X0178027Y0040006D01*
X0178186Y0040000D01*
X0178345Y0039990D01*
X0178504Y0039976D01*
X0178663Y0039958D01*
X0178821Y0039937D01*
X0178978Y0039911D01*
X0179135Y0039881D01*
X0179291Y0039848D01*
X0179446Y0039810D01*
X0179600Y0039769D01*
X0179753Y0039724D01*
X0179905Y0039675D01*
X0180056Y0039622D01*
X0180205Y0039566D01*
X0180353Y0039505D01*
X0180499Y0039442D01*
X0180644Y0039374D01*
X0180787Y0039303D01*
X0180928Y0039229D01*
X0181067Y0039151D01*
X0181204Y0039069D01*
X0181339Y0038984D01*
X0181472Y0038896D01*
X0181603Y0038804D01*
X0181731Y0038710D01*
X0181857Y0038612D01*
X0181981Y0038511D01*
X0182102Y0038407D01*
X0182220Y0038300D01*
X0182336Y0038190D01*
X0182449Y0038077D01*
X0182559Y0037961D01*
X0182666Y0037843D01*
X0182770Y0037722D01*
X0182871Y0037598D01*
X0182969Y0037472D01*
X0183063Y0037344D01*
X0183155Y0037213D01*
X0183243Y0037080D01*
X0183328Y0036945D01*
X0183410Y0036808D01*
X0183488Y0036669D01*
X0183562Y0036528D01*
X0183633Y0036385D01*
X0183701Y0036240D01*
X0183764Y0036094D01*
X0183825Y0035946D01*
X0183881Y0035797D01*
X0183934Y0035646D01*
X0183983Y0035494D01*
X0184028Y0035341D01*
X0184069Y0035187D01*
X0184107Y0035032D01*
X0184140Y0034876D01*
X0184170Y0034719D01*
X0184196Y0034562D01*
X0184217Y0034404D01*
X0184235Y0034245D01*
X0184249Y0034086D01*
X0184259Y0033927D01*
X0184265Y0033768D01*
X0184267Y0033608D01*
X0184265Y0033448D01*
X0184259Y0033289D01*
X0184249Y0033130D01*
X0184235Y0032971D01*
X0184217Y0032812D01*
X0184196Y0032654D01*
X0184170Y0032497D01*
X0184140Y0032340D01*
X0184107Y0032184D01*
X0184069Y0032029D01*
X0184028Y0031875D01*
X0183983Y0031722D01*
X0183934Y0031570D01*
X0183881Y0031419D01*
X0183825Y0031270D01*
X0183764Y0031122D01*
X0183701Y0030976D01*
X0183633Y0030831D01*
X0183562Y0030688D01*
X0183488Y0030547D01*
X0183410Y0030408D01*
X0183328Y0030271D01*
X0183243Y0030136D01*
X0183155Y0030003D01*
X0183063Y0029872D01*
X0182969Y0029744D01*
X0182871Y0029618D01*
X0182770Y0029494D01*
X0182666Y0029373D01*
X0182559Y0029255D01*
X0182449Y0029139D01*
X0182336Y0029026D01*
X0182220Y0028916D01*
X0182102Y0028809D01*
X0181981Y0028705D01*
X0181857Y0028604D01*
X0181731Y0028506D01*
X0181603Y0028412D01*
X0181472Y0028320D01*
X0181339Y0028232D01*
X0181204Y0028147D01*
X0181067Y0028065D01*
X0180928Y0027987D01*
X0180787Y0027913D01*
X0180644Y0027842D01*
X0180499Y0027774D01*
X0180353Y0027711D01*
X0180205Y0027650D01*
X0180056Y0027594D01*
X0179905Y0027541D01*
X0179753Y0027492D01*
X0179600Y0027447D01*
X0179446Y0027406D01*
X0179291Y0027368D01*
X0179135Y0027335D01*
X0178978Y0027305D01*
X0178821Y0027279D01*
X0178663Y0027258D01*
X0178504Y0027240D01*
X0178345Y0027226D01*
X0178186Y0027216D01*
X0178027Y0027210D01*
X0177867Y0027208D01*
X0177707Y0027210D01*
X0177548Y0027216D01*
X0177389Y0027226D01*
X0177230Y0027240D01*
X0177071Y0027258D01*
X0176913Y0027279D01*
X0176756Y0027305D01*
X0176599Y0027335D01*
X0176443Y0027368D01*
X0176288Y0027406D01*
X0176134Y0027447D01*
X0175981Y0027492D01*
X0175829Y0027541D01*
X0175678Y0027594D01*
X0175529Y0027650D01*
X0175381Y0027711D01*
X0175235Y0027774D01*
X0175090Y0027842D01*
X0174947Y0027913D01*
X0174806Y0027987D01*
X0174667Y0028065D01*
X0174530Y0028147D01*
X0174395Y0028232D01*
X0174262Y0028320D01*
X0174131Y0028412D01*
X0174003Y0028506D01*
X0173877Y0028604D01*
X0173753Y0028705D01*
X0173632Y0028809D01*
X0173514Y0028916D01*
X0173398Y0029026D01*
X0173285Y0029139D01*
X0173175Y0029255D01*
X0173068Y0029373D01*
X0172964Y0029494D01*
X0172863Y0029618D01*
X0172765Y0029744D01*
X0172671Y0029872D01*
X0172579Y0030003D01*
X0172491Y0030136D01*
X0172406Y0030271D01*
X0172324Y0030408D01*
X0172246Y0030547D01*
X0172172Y0030688D01*
X0172101Y0030831D01*
X0172033Y0030976D01*
X0171970Y0031122D01*
X0171909Y0031270D01*
X0171853Y0031419D01*
X0171800Y0031570D01*
X0171751Y0031722D01*
X0171706Y0031875D01*
X0171665Y0032029D01*
X0171627Y0032184D01*
X0171594Y0032340D01*
X0171564Y0032497D01*
X0171538Y0032654D01*
X0171517Y0032812D01*
X0171499Y0032971D01*
X0171485Y0033130D01*
X0171475Y0033289D01*
X0171469Y0033448D01*
X0171467Y0033608D01*
M02*
