G75*
%MOIN*%
%OFA0B0*%
%FSLAX25Y25*%
%IPPOS*%
%LPD*%
%AMOC8*
5,1,8,0,0,1.08239X$1,22.5*
%
%ADD10C,0.00600*%
%ADD11C,0.00000*%
%ADD12R,0.05906X0.05118*%
%ADD13R,0.03543X0.02756*%
%ADD14R,0.05118X0.05906*%
%ADD15R,0.18110X0.03937*%
%ADD16R,0.13386X0.06299*%
%ADD17C,0.07400*%
%ADD18R,0.08000X0.08000*%
%ADD19C,0.08000*%
%ADD20R,0.05315X0.01575*%
%ADD21R,0.07480X0.05906*%
%ADD22C,0.04331*%
%ADD23R,0.04724X0.04724*%
%ADD24R,0.02756X0.03543*%
%ADD25R,0.04921X0.02559*%
%ADD26C,0.01102*%
%ADD27R,0.10630X0.10630*%
%ADD28C,0.02781*%
%ADD29R,0.10500X0.10000*%
%ADD30R,0.03000X0.05000*%
%ADD31R,0.06496X0.09055*%
%ADD32C,0.01600*%
%ADD33C,0.03200*%
%ADD34C,0.07200*%
%ADD35C,0.05000*%
%ADD36C,0.00800*%
%ADD37C,0.01200*%
%ADD38C,0.05600*%
%ADD39C,0.01000*%
D10*
X0017867Y0023608D02*
X0177867Y0023608D01*
X0172998Y0026208D02*
X0022736Y0026208D01*
X0022795Y0026232D01*
X0025242Y0028680D01*
X0026567Y0031877D01*
X0026567Y0035338D01*
X0025242Y0038536D01*
X0022795Y0040983D01*
X0019597Y0042308D01*
X0016136Y0042308D01*
X0012938Y0040983D01*
X0010491Y0038536D01*
X0010467Y0038477D01*
X0010467Y0056208D01*
X0047447Y0056208D01*
X0051447Y0060208D01*
X0052267Y0061028D01*
X0052267Y0098028D01*
X0060447Y0106208D01*
X0062345Y0106208D01*
X0054245Y0098108D01*
X0053367Y0097229D01*
X0053367Y0056909D01*
X0053337Y0056897D01*
X0052578Y0056137D01*
X0052167Y0055145D01*
X0052167Y0054071D01*
X0052578Y0053078D01*
X0053337Y0052319D01*
X0054330Y0051908D01*
X0055404Y0051908D01*
X0056396Y0052319D01*
X0057156Y0053078D01*
X0057567Y0054071D01*
X0057567Y0055145D01*
X0057156Y0056137D01*
X0056396Y0056897D01*
X0056367Y0056909D01*
X0056367Y0095986D01*
X0056995Y0096615D01*
X0056995Y0094333D01*
X0057639Y0093689D01*
X0062094Y0093689D01*
X0062738Y0094333D01*
X0062738Y0096917D01*
X0068913Y0103092D01*
X0072671Y0103092D01*
X0068223Y0098645D01*
X0065639Y0098645D01*
X0064995Y0098000D01*
X0064995Y0094333D01*
X0065639Y0093689D01*
X0070094Y0093689D01*
X0070738Y0094333D01*
X0070738Y0096917D01*
X0074945Y0101123D01*
X0076261Y0101123D01*
X0075245Y0100108D01*
X0074367Y0099229D01*
X0074367Y0075308D01*
X0073330Y0075308D01*
X0072337Y0074897D01*
X0071578Y0074137D01*
X0071167Y0073145D01*
X0071167Y0072071D01*
X0071578Y0071078D01*
X0072337Y0070319D01*
X0073330Y0069908D01*
X0074404Y0069908D01*
X0075396Y0070319D01*
X0076156Y0071078D01*
X0076367Y0071588D01*
X0076578Y0071078D01*
X0077337Y0070319D01*
X0078330Y0069908D01*
X0079404Y0069908D01*
X0080396Y0070319D01*
X0081156Y0071078D01*
X0081445Y0071778D01*
X0081445Y0071308D01*
X0073245Y0063108D01*
X0072367Y0062229D01*
X0072367Y0058229D01*
X0071245Y0057108D01*
X0070738Y0057108D01*
X0070738Y0057882D01*
X0070094Y0058527D01*
X0065639Y0058527D01*
X0064995Y0057882D01*
X0064995Y0054215D01*
X0065639Y0053571D01*
X0066367Y0053571D01*
X0066367Y0048182D01*
X0065148Y0047677D01*
X0063797Y0046327D01*
X0063067Y0044562D01*
X0063067Y0042653D01*
X0063797Y0040889D01*
X0065148Y0039538D01*
X0066167Y0039116D01*
X0066167Y0037991D01*
X0065204Y0037592D01*
X0063882Y0036270D01*
X0063167Y0034543D01*
X0063167Y0032673D01*
X0063882Y0030945D01*
X0065204Y0029623D01*
X0066932Y0028908D01*
X0068802Y0028908D01*
X0070529Y0029623D01*
X0071851Y0030945D01*
X0072567Y0032673D01*
X0072567Y0034543D01*
X0071851Y0036270D01*
X0070529Y0037592D01*
X0069567Y0037991D01*
X0069567Y0039116D01*
X0070586Y0039538D01*
X0071936Y0040889D01*
X0072667Y0042653D01*
X0072667Y0044562D01*
X0071936Y0046327D01*
X0070586Y0047677D01*
X0069367Y0048182D01*
X0069367Y0053571D01*
X0070094Y0053571D01*
X0070631Y0054108D01*
X0072488Y0054108D01*
X0073367Y0054986D01*
X0075367Y0056986D01*
X0075367Y0060986D01*
X0076367Y0061986D01*
X0076367Y0048182D01*
X0075148Y0047677D01*
X0073797Y0046327D01*
X0073067Y0044562D01*
X0073067Y0042653D01*
X0073797Y0040889D01*
X0075148Y0039538D01*
X0076167Y0039116D01*
X0076167Y0037991D01*
X0075204Y0037592D01*
X0073882Y0036270D01*
X0073167Y0034543D01*
X0073167Y0032673D01*
X0073882Y0030945D01*
X0075204Y0029623D01*
X0076932Y0028908D01*
X0078802Y0028908D01*
X0080529Y0029623D01*
X0081851Y0030945D01*
X0082567Y0032673D01*
X0082567Y0034543D01*
X0081851Y0036270D01*
X0080529Y0037592D01*
X0079567Y0037991D01*
X0079567Y0039116D01*
X0080586Y0039538D01*
X0081936Y0040889D01*
X0082667Y0042653D01*
X0082667Y0044562D01*
X0081936Y0046327D01*
X0080586Y0047677D01*
X0079367Y0048182D01*
X0079367Y0061986D01*
X0081367Y0063986D01*
X0081367Y0056986D01*
X0083367Y0054986D01*
X0084245Y0054108D01*
X0085102Y0054108D01*
X0085639Y0053571D01*
X0086367Y0053571D01*
X0086367Y0048182D01*
X0085148Y0047677D01*
X0083797Y0046327D01*
X0083067Y0044562D01*
X0083067Y0042653D01*
X0083797Y0040889D01*
X0085148Y0039538D01*
X0086167Y0039116D01*
X0086167Y0037991D01*
X0085204Y0037592D01*
X0083882Y0036270D01*
X0083167Y0034543D01*
X0083167Y0032673D01*
X0083882Y0030945D01*
X0085204Y0029623D01*
X0086932Y0028908D01*
X0088802Y0028908D01*
X0090529Y0029623D01*
X0091851Y0030945D01*
X0092567Y0032673D01*
X0092567Y0034543D01*
X0091851Y0036270D01*
X0090529Y0037592D01*
X0089567Y0037991D01*
X0089567Y0039116D01*
X0090586Y0039538D01*
X0091936Y0040889D01*
X0092667Y0042653D01*
X0092667Y0044562D01*
X0091936Y0046327D01*
X0090586Y0047677D01*
X0089367Y0048182D01*
X0089367Y0053571D01*
X0090094Y0053571D01*
X0090738Y0054215D01*
X0090738Y0057882D01*
X0090094Y0058527D01*
X0085639Y0058527D01*
X0084995Y0057882D01*
X0084995Y0057601D01*
X0084367Y0058229D01*
X0084367Y0063986D01*
X0087167Y0066786D01*
X0087167Y0066071D01*
X0087578Y0065078D01*
X0088337Y0064319D01*
X0089330Y0063908D01*
X0090404Y0063908D01*
X0090433Y0063920D01*
X0091367Y0062986D01*
X0091367Y0056986D01*
X0092245Y0056108D01*
X0093804Y0054549D01*
X0094995Y0054549D01*
X0094995Y0054215D01*
X0095639Y0053571D01*
X0096367Y0053571D01*
X0096367Y0048182D01*
X0095148Y0047677D01*
X0093797Y0046327D01*
X0093067Y0044562D01*
X0093067Y0042653D01*
X0093797Y0040889D01*
X0095148Y0039538D01*
X0096167Y0039116D01*
X0096167Y0037991D01*
X0095204Y0037592D01*
X0093882Y0036270D01*
X0093167Y0034543D01*
X0093167Y0032673D01*
X0093882Y0030945D01*
X0095204Y0029623D01*
X0096932Y0028908D01*
X0098802Y0028908D01*
X0100529Y0029623D01*
X0101851Y0030945D01*
X0102567Y0032673D01*
X0102567Y0034543D01*
X0101851Y0036270D01*
X0100529Y0037592D01*
X0099567Y0037991D01*
X0099567Y0039116D01*
X0100586Y0039538D01*
X0101936Y0040889D01*
X0102667Y0042653D01*
X0102667Y0044562D01*
X0101936Y0046327D01*
X0100586Y0047677D01*
X0099367Y0048182D01*
X0099367Y0053571D01*
X0100094Y0053571D01*
X0100738Y0054215D01*
X0100738Y0057882D01*
X0100094Y0058527D01*
X0095639Y0058527D01*
X0094995Y0057882D01*
X0094995Y0057601D01*
X0094367Y0058229D01*
X0094367Y0064229D01*
X0092554Y0066041D01*
X0092567Y0066071D01*
X0092567Y0066786D01*
X0094367Y0064986D01*
X0095245Y0064108D01*
X0122245Y0064108D01*
X0124367Y0061986D01*
X0124367Y0037986D01*
X0126572Y0035781D01*
X0126067Y0034562D01*
X0126067Y0032653D01*
X0126797Y0030889D01*
X0128148Y0029538D01*
X0129912Y0028808D01*
X0131821Y0028808D01*
X0133586Y0029538D01*
X0134936Y0030889D01*
X0135667Y0032653D01*
X0135667Y0034562D01*
X0134936Y0036327D01*
X0134808Y0036455D01*
X0134808Y0040736D01*
X0135141Y0040736D01*
X0135786Y0041380D01*
X0135786Y0045835D01*
X0135141Y0046479D01*
X0131474Y0046479D01*
X0130830Y0045835D01*
X0130830Y0041380D01*
X0131474Y0040736D01*
X0131808Y0040736D01*
X0131808Y0038408D01*
X0129912Y0038408D01*
X0128693Y0037903D01*
X0127367Y0039229D01*
X0127367Y0063229D01*
X0126488Y0064108D01*
X0124488Y0066108D01*
X0129686Y0066108D01*
X0132830Y0062964D01*
X0132830Y0060380D01*
X0133474Y0059736D01*
X0133808Y0059736D01*
X0133808Y0057479D01*
X0133474Y0057479D01*
X0132830Y0056835D01*
X0132830Y0052380D01*
X0133474Y0051736D01*
X0133808Y0051736D01*
X0133808Y0050545D01*
X0135367Y0048986D01*
X0136245Y0048108D01*
X0146245Y0048108D01*
X0158572Y0035781D01*
X0158067Y0034562D01*
X0158067Y0032653D01*
X0158797Y0030889D01*
X0160148Y0029538D01*
X0161912Y0028808D01*
X0163821Y0028808D01*
X0165586Y0029538D01*
X0166936Y0030889D01*
X0167667Y0032653D01*
X0167667Y0034562D01*
X0166936Y0036327D01*
X0165586Y0037677D01*
X0163821Y0038408D01*
X0161912Y0038408D01*
X0160693Y0037903D01*
X0147488Y0051108D01*
X0137488Y0051108D01*
X0136860Y0051736D01*
X0137141Y0051736D01*
X0137786Y0052380D01*
X0137786Y0056835D01*
X0137141Y0057479D01*
X0136808Y0057479D01*
X0136808Y0059736D01*
X0137141Y0059736D01*
X0137786Y0060380D01*
X0137786Y0064835D01*
X0137141Y0065479D01*
X0134557Y0065479D01*
X0131929Y0068108D01*
X0136245Y0068108D01*
X0138874Y0065479D01*
X0138592Y0065479D01*
X0137948Y0064835D01*
X0137948Y0060380D01*
X0138592Y0059736D01*
X0142259Y0059736D01*
X0142904Y0060380D01*
X0142904Y0064835D01*
X0142259Y0065479D01*
X0141926Y0065479D01*
X0141926Y0066670D01*
X0138367Y0070229D01*
X0137488Y0071108D01*
X0102488Y0071108D01*
X0097554Y0076041D01*
X0097567Y0076071D01*
X0097567Y0077145D01*
X0097156Y0078137D01*
X0096396Y0078897D01*
X0095887Y0079108D01*
X0106924Y0079108D01*
X0106924Y0078924D01*
X0107568Y0078279D01*
X0113401Y0078279D01*
X0114045Y0078924D01*
X0114045Y0079159D01*
X0121688Y0079159D01*
X0121688Y0078924D01*
X0122332Y0078279D01*
X0128165Y0078279D01*
X0128809Y0078924D01*
X0128809Y0079159D01*
X0130314Y0079159D01*
X0130067Y0078562D01*
X0130067Y0076653D01*
X0130797Y0074889D01*
X0132148Y0073538D01*
X0133912Y0072808D01*
X0135821Y0072808D01*
X0137586Y0073538D01*
X0138936Y0074889D01*
X0139667Y0076653D01*
X0139667Y0078562D01*
X0138936Y0080327D01*
X0137586Y0081677D01*
X0135821Y0082408D01*
X0133912Y0082408D01*
X0132693Y0081903D01*
X0132437Y0082159D01*
X0128809Y0082159D01*
X0128809Y0082394D01*
X0128165Y0083038D01*
X0122332Y0083038D01*
X0121688Y0082394D01*
X0121688Y0082159D01*
X0114045Y0082159D01*
X0114045Y0082394D01*
X0113401Y0083038D01*
X0107568Y0083038D01*
X0106924Y0082394D01*
X0106924Y0082108D01*
X0095488Y0082108D01*
X0094288Y0083308D01*
X0094288Y0093875D01*
X0094439Y0094026D01*
X0094439Y0096208D01*
X0097287Y0096208D01*
X0098467Y0095028D01*
X0099287Y0094208D01*
X0107287Y0094208D01*
X0113467Y0088028D01*
X0114287Y0087208D01*
X0146145Y0087208D01*
X0146245Y0087108D01*
X0146312Y0087108D01*
X0152847Y0081506D01*
X0156367Y0077986D01*
X0156367Y0059986D01*
X0158367Y0057986D01*
X0159245Y0057108D01*
X0178488Y0057108D01*
X0179367Y0057986D01*
X0179367Y0073229D01*
X0171367Y0081229D01*
X0171367Y0093575D01*
X0171392Y0094163D01*
X0171367Y0094191D01*
X0171367Y0094229D01*
X0171267Y0094329D01*
X0171267Y0097188D01*
X0169267Y0099188D01*
X0168447Y0100008D01*
X0140447Y0100008D01*
X0139267Y0101188D01*
X0138447Y0102008D01*
X0131247Y0102008D01*
X0145447Y0116208D01*
X0172588Y0116208D01*
X0171979Y0115599D01*
X0171979Y0108388D01*
X0172624Y0107744D01*
X0185267Y0107744D01*
X0185267Y0089471D01*
X0172624Y0089471D01*
X0171979Y0088827D01*
X0171979Y0081617D01*
X0172624Y0080972D01*
X0185267Y0080972D01*
X0185267Y0038477D01*
X0185242Y0038536D01*
X0182795Y0040983D01*
X0179597Y0042308D01*
X0176136Y0042308D01*
X0172938Y0040983D01*
X0170491Y0038536D01*
X0169167Y0035338D01*
X0169167Y0031877D01*
X0170491Y0028680D01*
X0172938Y0026232D01*
X0172998Y0026208D01*
X0172570Y0026600D02*
X0023163Y0026600D01*
X0023761Y0027199D02*
X0171972Y0027199D01*
X0171373Y0027797D02*
X0024360Y0027797D01*
X0024958Y0028396D02*
X0170775Y0028396D01*
X0170361Y0028994D02*
X0164272Y0028994D01*
X0165640Y0029593D02*
X0170113Y0029593D01*
X0169865Y0030191D02*
X0166238Y0030191D01*
X0166837Y0030790D02*
X0169617Y0030790D01*
X0169369Y0031388D02*
X0167143Y0031388D01*
X0167391Y0031987D02*
X0169167Y0031987D01*
X0169167Y0032585D02*
X0167639Y0032585D01*
X0167667Y0033184D02*
X0169167Y0033184D01*
X0169167Y0033782D02*
X0167667Y0033782D01*
X0167667Y0034381D02*
X0169167Y0034381D01*
X0169167Y0034979D02*
X0167494Y0034979D01*
X0167246Y0035578D02*
X0169266Y0035578D01*
X0169514Y0036176D02*
X0166998Y0036176D01*
X0166488Y0036775D02*
X0169762Y0036775D01*
X0170010Y0037373D02*
X0165889Y0037373D01*
X0164873Y0037972D02*
X0170258Y0037972D01*
X0170526Y0038570D02*
X0160025Y0038570D01*
X0160624Y0037972D02*
X0160860Y0037972D01*
X0159427Y0039169D02*
X0171124Y0039169D01*
X0171723Y0039767D02*
X0158828Y0039767D01*
X0158230Y0040366D02*
X0172321Y0040366D01*
X0172920Y0040964D02*
X0157631Y0040964D01*
X0157033Y0041563D02*
X0174338Y0041563D01*
X0175783Y0042162D02*
X0156434Y0042162D01*
X0155836Y0042760D02*
X0185267Y0042760D01*
X0185267Y0042162D02*
X0179950Y0042162D01*
X0181395Y0041563D02*
X0185267Y0041563D01*
X0185267Y0040964D02*
X0182813Y0040964D01*
X0183412Y0040366D02*
X0185267Y0040366D01*
X0185267Y0039767D02*
X0184010Y0039767D01*
X0184609Y0039169D02*
X0185267Y0039169D01*
X0185267Y0038570D02*
X0185208Y0038570D01*
X0187867Y0033608D02*
X0187867Y0193608D01*
X0187864Y0193850D01*
X0187855Y0194091D01*
X0187841Y0194332D01*
X0187820Y0194573D01*
X0187794Y0194813D01*
X0187762Y0195053D01*
X0187724Y0195292D01*
X0187681Y0195529D01*
X0187631Y0195766D01*
X0187576Y0196001D01*
X0187516Y0196235D01*
X0187449Y0196467D01*
X0187378Y0196698D01*
X0187300Y0196927D01*
X0187217Y0197154D01*
X0187129Y0197379D01*
X0187035Y0197602D01*
X0186936Y0197822D01*
X0186831Y0198040D01*
X0186722Y0198255D01*
X0186607Y0198468D01*
X0186487Y0198678D01*
X0186362Y0198884D01*
X0186232Y0199088D01*
X0186097Y0199289D01*
X0185957Y0199486D01*
X0185813Y0199680D01*
X0185664Y0199870D01*
X0185510Y0200056D01*
X0185352Y0200239D01*
X0185190Y0200418D01*
X0185023Y0200593D01*
X0184852Y0200764D01*
X0184677Y0200931D01*
X0184498Y0201093D01*
X0184315Y0201251D01*
X0184129Y0201405D01*
X0183939Y0201554D01*
X0183745Y0201698D01*
X0183548Y0201838D01*
X0183347Y0201973D01*
X0183143Y0202103D01*
X0182937Y0202228D01*
X0182727Y0202348D01*
X0182514Y0202463D01*
X0182299Y0202572D01*
X0182081Y0202677D01*
X0181861Y0202776D01*
X0181638Y0202870D01*
X0181413Y0202958D01*
X0181186Y0203041D01*
X0180957Y0203119D01*
X0180726Y0203190D01*
X0180494Y0203257D01*
X0180260Y0203317D01*
X0180025Y0203372D01*
X0179788Y0203422D01*
X0179551Y0203465D01*
X0179312Y0203503D01*
X0179072Y0203535D01*
X0178832Y0203561D01*
X0178591Y0203582D01*
X0178350Y0203596D01*
X0178109Y0203605D01*
X0177867Y0203608D01*
X0017867Y0203608D01*
X0017625Y0203605D01*
X0017384Y0203596D01*
X0017143Y0203582D01*
X0016902Y0203561D01*
X0016662Y0203535D01*
X0016422Y0203503D01*
X0016183Y0203465D01*
X0015946Y0203422D01*
X0015709Y0203372D01*
X0015474Y0203317D01*
X0015240Y0203257D01*
X0015008Y0203190D01*
X0014777Y0203119D01*
X0014548Y0203041D01*
X0014321Y0202958D01*
X0014096Y0202870D01*
X0013873Y0202776D01*
X0013653Y0202677D01*
X0013435Y0202572D01*
X0013220Y0202463D01*
X0013007Y0202348D01*
X0012797Y0202228D01*
X0012591Y0202103D01*
X0012387Y0201973D01*
X0012186Y0201838D01*
X0011989Y0201698D01*
X0011795Y0201554D01*
X0011605Y0201405D01*
X0011419Y0201251D01*
X0011236Y0201093D01*
X0011057Y0200931D01*
X0010882Y0200764D01*
X0010711Y0200593D01*
X0010544Y0200418D01*
X0010382Y0200239D01*
X0010224Y0200056D01*
X0010070Y0199870D01*
X0009921Y0199680D01*
X0009777Y0199486D01*
X0009637Y0199289D01*
X0009502Y0199088D01*
X0009372Y0198884D01*
X0009247Y0198678D01*
X0009127Y0198468D01*
X0009012Y0198255D01*
X0008903Y0198040D01*
X0008798Y0197822D01*
X0008699Y0197602D01*
X0008605Y0197379D01*
X0008517Y0197154D01*
X0008434Y0196927D01*
X0008356Y0196698D01*
X0008285Y0196467D01*
X0008218Y0196235D01*
X0008158Y0196001D01*
X0008103Y0195766D01*
X0008053Y0195529D01*
X0008010Y0195292D01*
X0007972Y0195053D01*
X0007940Y0194813D01*
X0007914Y0194573D01*
X0007893Y0194332D01*
X0007879Y0194091D01*
X0007870Y0193850D01*
X0007867Y0193608D01*
X0007867Y0033608D01*
X0010467Y0038570D02*
X0010526Y0038570D01*
X0010467Y0039169D02*
X0011124Y0039169D01*
X0011723Y0039767D02*
X0010467Y0039767D01*
X0010467Y0040366D02*
X0012321Y0040366D01*
X0012920Y0040964D02*
X0010467Y0040964D01*
X0010467Y0041563D02*
X0014338Y0041563D01*
X0015783Y0042162D02*
X0010467Y0042162D01*
X0010467Y0042760D02*
X0043067Y0042760D01*
X0043067Y0042653D02*
X0043797Y0040889D01*
X0045148Y0039538D01*
X0046167Y0039116D01*
X0046167Y0037991D01*
X0045204Y0037592D01*
X0043882Y0036270D01*
X0043167Y0034543D01*
X0043167Y0032673D01*
X0043882Y0030945D01*
X0045204Y0029623D01*
X0046932Y0028908D01*
X0048802Y0028908D01*
X0050529Y0029623D01*
X0051851Y0030945D01*
X0052567Y0032673D01*
X0052567Y0034543D01*
X0051851Y0036270D01*
X0050529Y0037592D01*
X0049567Y0037991D01*
X0049567Y0039116D01*
X0050586Y0039538D01*
X0051936Y0040889D01*
X0052667Y0042653D01*
X0052667Y0044562D01*
X0051936Y0046327D01*
X0050586Y0047677D01*
X0048821Y0048408D01*
X0046912Y0048408D01*
X0045148Y0047677D01*
X0043797Y0046327D01*
X0043067Y0044562D01*
X0043067Y0042653D01*
X0043270Y0042162D02*
X0019950Y0042162D01*
X0021395Y0041563D02*
X0043518Y0041563D01*
X0043766Y0040964D02*
X0022813Y0040964D01*
X0023412Y0040366D02*
X0044320Y0040366D01*
X0044919Y0039767D02*
X0024010Y0039767D01*
X0024609Y0039169D02*
X0046040Y0039169D01*
X0046167Y0038570D02*
X0025208Y0038570D01*
X0025476Y0037972D02*
X0046121Y0037972D01*
X0044986Y0037373D02*
X0025724Y0037373D01*
X0025972Y0036775D02*
X0044387Y0036775D01*
X0043843Y0036176D02*
X0026219Y0036176D01*
X0026467Y0035578D02*
X0043596Y0035578D01*
X0043348Y0034979D02*
X0026567Y0034979D01*
X0026567Y0034381D02*
X0043167Y0034381D01*
X0043167Y0033782D02*
X0026567Y0033782D01*
X0026567Y0033184D02*
X0043167Y0033184D01*
X0043203Y0032585D02*
X0026567Y0032585D01*
X0026567Y0031987D02*
X0043451Y0031987D01*
X0043699Y0031388D02*
X0026364Y0031388D01*
X0026116Y0030790D02*
X0044038Y0030790D01*
X0044636Y0030191D02*
X0025868Y0030191D01*
X0025620Y0029593D02*
X0045278Y0029593D01*
X0046723Y0028994D02*
X0025373Y0028994D01*
X0017867Y0023608D02*
X0017625Y0023611D01*
X0017384Y0023620D01*
X0017143Y0023634D01*
X0016902Y0023655D01*
X0016662Y0023681D01*
X0016422Y0023713D01*
X0016183Y0023751D01*
X0015946Y0023794D01*
X0015709Y0023844D01*
X0015474Y0023899D01*
X0015240Y0023959D01*
X0015008Y0024026D01*
X0014777Y0024097D01*
X0014548Y0024175D01*
X0014321Y0024258D01*
X0014096Y0024346D01*
X0013873Y0024440D01*
X0013653Y0024539D01*
X0013435Y0024644D01*
X0013220Y0024753D01*
X0013007Y0024868D01*
X0012797Y0024988D01*
X0012591Y0025113D01*
X0012387Y0025243D01*
X0012186Y0025378D01*
X0011989Y0025518D01*
X0011795Y0025662D01*
X0011605Y0025811D01*
X0011419Y0025965D01*
X0011236Y0026123D01*
X0011057Y0026285D01*
X0010882Y0026452D01*
X0010711Y0026623D01*
X0010544Y0026798D01*
X0010382Y0026977D01*
X0010224Y0027160D01*
X0010070Y0027346D01*
X0009921Y0027536D01*
X0009777Y0027730D01*
X0009637Y0027927D01*
X0009502Y0028128D01*
X0009372Y0028332D01*
X0009247Y0028538D01*
X0009127Y0028748D01*
X0009012Y0028961D01*
X0008903Y0029176D01*
X0008798Y0029394D01*
X0008699Y0029614D01*
X0008605Y0029837D01*
X0008517Y0030062D01*
X0008434Y0030289D01*
X0008356Y0030518D01*
X0008285Y0030749D01*
X0008218Y0030981D01*
X0008158Y0031215D01*
X0008103Y0031450D01*
X0008053Y0031687D01*
X0008010Y0031924D01*
X0007972Y0032163D01*
X0007940Y0032403D01*
X0007914Y0032643D01*
X0007893Y0032884D01*
X0007879Y0033125D01*
X0007870Y0033366D01*
X0007867Y0033608D01*
X0010467Y0043359D02*
X0043067Y0043359D01*
X0043067Y0043957D02*
X0010467Y0043957D01*
X0010467Y0044556D02*
X0043067Y0044556D01*
X0043312Y0045154D02*
X0010467Y0045154D01*
X0010467Y0045753D02*
X0043560Y0045753D01*
X0043822Y0046351D02*
X0010467Y0046351D01*
X0010467Y0046950D02*
X0044420Y0046950D01*
X0045019Y0047548D02*
X0010467Y0047548D01*
X0010467Y0048147D02*
X0046282Y0048147D01*
X0049452Y0048147D02*
X0061753Y0048147D01*
X0061337Y0048319D02*
X0062330Y0047908D01*
X0063404Y0047908D01*
X0064396Y0048319D01*
X0065156Y0049078D01*
X0065567Y0050071D01*
X0065567Y0051145D01*
X0065156Y0052137D01*
X0064467Y0052826D01*
X0064467Y0058945D01*
X0064995Y0059473D01*
X0064995Y0059333D01*
X0065639Y0058689D01*
X0070094Y0058689D01*
X0070738Y0059333D01*
X0070738Y0063000D01*
X0070094Y0063645D01*
X0065639Y0063645D01*
X0064995Y0063000D01*
X0064995Y0062767D01*
X0063763Y0062767D01*
X0062204Y0061208D01*
X0061267Y0060270D01*
X0061267Y0052826D01*
X0060578Y0052137D01*
X0060167Y0051145D01*
X0060167Y0050071D01*
X0060578Y0049078D01*
X0061337Y0048319D01*
X0060911Y0048745D02*
X0010467Y0048745D01*
X0010467Y0049344D02*
X0060468Y0049344D01*
X0060220Y0049942D02*
X0010467Y0049942D01*
X0010467Y0050541D02*
X0060167Y0050541D01*
X0060167Y0051139D02*
X0010467Y0051139D01*
X0010467Y0051738D02*
X0060412Y0051738D01*
X0060777Y0052336D02*
X0056414Y0052336D01*
X0057012Y0052935D02*
X0061267Y0052935D01*
X0061267Y0053533D02*
X0057344Y0053533D01*
X0057567Y0054132D02*
X0061267Y0054132D01*
X0061267Y0054730D02*
X0057567Y0054730D01*
X0057490Y0055329D02*
X0061267Y0055329D01*
X0061267Y0055927D02*
X0057243Y0055927D01*
X0056767Y0056526D02*
X0061267Y0056526D01*
X0061267Y0057124D02*
X0056367Y0057124D01*
X0056367Y0057723D02*
X0061267Y0057723D01*
X0061267Y0058321D02*
X0056367Y0058321D01*
X0056367Y0058920D02*
X0061267Y0058920D01*
X0061267Y0059518D02*
X0056367Y0059518D01*
X0056367Y0060117D02*
X0061267Y0060117D01*
X0061712Y0060715D02*
X0056367Y0060715D01*
X0056367Y0061314D02*
X0062310Y0061314D01*
X0062909Y0061912D02*
X0056367Y0061912D01*
X0056367Y0062511D02*
X0063507Y0062511D01*
X0065104Y0063109D02*
X0056367Y0063109D01*
X0056367Y0063708D02*
X0073846Y0063708D01*
X0074444Y0064306D02*
X0056367Y0064306D01*
X0056367Y0064905D02*
X0075043Y0064905D01*
X0075641Y0065503D02*
X0056367Y0065503D01*
X0056367Y0066102D02*
X0076240Y0066102D01*
X0076838Y0066700D02*
X0056367Y0066700D01*
X0056367Y0067299D02*
X0066385Y0067299D01*
X0066337Y0067319D02*
X0067330Y0066908D01*
X0068404Y0066908D01*
X0069396Y0067319D01*
X0070156Y0068078D01*
X0070567Y0069071D01*
X0070567Y0070145D01*
X0070156Y0071137D01*
X0069767Y0071526D01*
X0069767Y0073012D01*
X0070684Y0073012D01*
X0071329Y0073656D01*
X0071329Y0079292D01*
X0070684Y0079936D01*
X0065049Y0079936D01*
X0064404Y0079292D01*
X0064404Y0078374D01*
X0063329Y0078374D01*
X0063329Y0079292D01*
X0062684Y0079936D01*
X0057049Y0079936D01*
X0056404Y0079292D01*
X0056404Y0073656D01*
X0057049Y0073012D01*
X0062684Y0073012D01*
X0063329Y0073656D01*
X0063329Y0074574D01*
X0064404Y0074574D01*
X0064404Y0073656D01*
X0065049Y0073012D01*
X0065967Y0073012D01*
X0065967Y0071526D01*
X0065578Y0071137D01*
X0065167Y0070145D01*
X0065167Y0069071D01*
X0065578Y0068078D01*
X0066337Y0067319D01*
X0065758Y0067898D02*
X0056367Y0067898D01*
X0056367Y0068496D02*
X0065405Y0068496D01*
X0065167Y0069095D02*
X0056367Y0069095D01*
X0056367Y0069693D02*
X0065167Y0069693D01*
X0065227Y0070292D02*
X0056367Y0070292D01*
X0056367Y0070890D02*
X0065475Y0070890D01*
X0065929Y0071489D02*
X0056367Y0071489D01*
X0056367Y0072087D02*
X0065967Y0072087D01*
X0065967Y0072686D02*
X0056367Y0072686D01*
X0056367Y0073284D02*
X0056776Y0073284D01*
X0056404Y0073883D02*
X0056367Y0073883D01*
X0056367Y0074481D02*
X0056404Y0074481D01*
X0056404Y0075080D02*
X0056367Y0075080D01*
X0056367Y0075678D02*
X0056404Y0075678D01*
X0056404Y0076277D02*
X0056367Y0076277D01*
X0056367Y0076875D02*
X0056404Y0076875D01*
X0056404Y0077474D02*
X0056367Y0077474D01*
X0056367Y0078072D02*
X0056404Y0078072D01*
X0056404Y0078671D02*
X0056367Y0078671D01*
X0056367Y0079269D02*
X0056404Y0079269D01*
X0056367Y0079868D02*
X0056981Y0079868D01*
X0056367Y0080466D02*
X0074367Y0080466D01*
X0074367Y0079868D02*
X0070753Y0079868D01*
X0071329Y0079269D02*
X0074367Y0079269D01*
X0074367Y0078671D02*
X0071329Y0078671D01*
X0071329Y0078072D02*
X0074367Y0078072D01*
X0074367Y0077474D02*
X0071329Y0077474D01*
X0071329Y0076875D02*
X0074367Y0076875D01*
X0074367Y0076277D02*
X0071329Y0076277D01*
X0071329Y0075678D02*
X0074367Y0075678D01*
X0072779Y0075080D02*
X0071329Y0075080D01*
X0071329Y0074481D02*
X0071922Y0074481D01*
X0071472Y0073883D02*
X0071329Y0073883D01*
X0071224Y0073284D02*
X0070957Y0073284D01*
X0071167Y0072686D02*
X0069767Y0072686D01*
X0069767Y0072087D02*
X0071167Y0072087D01*
X0071408Y0071489D02*
X0069804Y0071489D01*
X0070258Y0070890D02*
X0071766Y0070890D01*
X0072403Y0070292D02*
X0070506Y0070292D01*
X0070567Y0069693D02*
X0079831Y0069693D01*
X0080330Y0070292D02*
X0080429Y0070292D01*
X0080967Y0070890D02*
X0081028Y0070890D01*
X0081326Y0071489D02*
X0081445Y0071489D01*
X0079232Y0069095D02*
X0070567Y0069095D01*
X0070329Y0068496D02*
X0078634Y0068496D01*
X0078035Y0067898D02*
X0069975Y0067898D01*
X0069348Y0067299D02*
X0077437Y0067299D01*
X0077403Y0070292D02*
X0075330Y0070292D01*
X0075967Y0070890D02*
X0076766Y0070890D01*
X0076408Y0071489D02*
X0076326Y0071489D01*
X0081088Y0063708D02*
X0081367Y0063708D01*
X0081367Y0063109D02*
X0080490Y0063109D01*
X0079891Y0062511D02*
X0081367Y0062511D01*
X0081367Y0061912D02*
X0079367Y0061912D01*
X0079367Y0061314D02*
X0081367Y0061314D01*
X0081367Y0060715D02*
X0079367Y0060715D01*
X0079367Y0060117D02*
X0081367Y0060117D01*
X0081367Y0059518D02*
X0079367Y0059518D01*
X0079367Y0058920D02*
X0081367Y0058920D01*
X0081367Y0058321D02*
X0079367Y0058321D01*
X0079367Y0057723D02*
X0081367Y0057723D01*
X0081367Y0057124D02*
X0079367Y0057124D01*
X0079367Y0056526D02*
X0081827Y0056526D01*
X0082426Y0055927D02*
X0079367Y0055927D01*
X0079367Y0055329D02*
X0083024Y0055329D01*
X0083623Y0054730D02*
X0079367Y0054730D01*
X0079367Y0054132D02*
X0084221Y0054132D01*
X0086367Y0053533D02*
X0079367Y0053533D01*
X0079367Y0052935D02*
X0086367Y0052935D01*
X0086367Y0052336D02*
X0079367Y0052336D01*
X0079367Y0051738D02*
X0086367Y0051738D01*
X0086367Y0051139D02*
X0079367Y0051139D01*
X0079367Y0050541D02*
X0086367Y0050541D01*
X0086367Y0049942D02*
X0079367Y0049942D01*
X0079367Y0049344D02*
X0086367Y0049344D01*
X0086367Y0048745D02*
X0079367Y0048745D01*
X0079452Y0048147D02*
X0086282Y0048147D01*
X0085019Y0047548D02*
X0080714Y0047548D01*
X0081313Y0046950D02*
X0084420Y0046950D01*
X0083822Y0046351D02*
X0081911Y0046351D01*
X0082174Y0045753D02*
X0083560Y0045753D01*
X0083312Y0045154D02*
X0082422Y0045154D01*
X0082667Y0044556D02*
X0083067Y0044556D01*
X0083067Y0043957D02*
X0082667Y0043957D01*
X0082667Y0043359D02*
X0083067Y0043359D01*
X0083067Y0042760D02*
X0082667Y0042760D01*
X0082463Y0042162D02*
X0083270Y0042162D01*
X0083518Y0041563D02*
X0082215Y0041563D01*
X0081967Y0040964D02*
X0083766Y0040964D01*
X0084320Y0040366D02*
X0081413Y0040366D01*
X0080815Y0039767D02*
X0084919Y0039767D01*
X0086040Y0039169D02*
X0079694Y0039169D01*
X0079567Y0038570D02*
X0086167Y0038570D01*
X0086121Y0037972D02*
X0079612Y0037972D01*
X0080748Y0037373D02*
X0084986Y0037373D01*
X0084387Y0036775D02*
X0081346Y0036775D01*
X0081890Y0036176D02*
X0083843Y0036176D01*
X0083596Y0035578D02*
X0082138Y0035578D01*
X0082386Y0034979D02*
X0083348Y0034979D01*
X0083167Y0034381D02*
X0082567Y0034381D01*
X0082567Y0033782D02*
X0083167Y0033782D01*
X0083167Y0033184D02*
X0082567Y0033184D01*
X0082530Y0032585D02*
X0083203Y0032585D01*
X0083451Y0031987D02*
X0082283Y0031987D01*
X0082035Y0031388D02*
X0083699Y0031388D01*
X0084038Y0030790D02*
X0081696Y0030790D01*
X0081097Y0030191D02*
X0084636Y0030191D01*
X0085278Y0029593D02*
X0080456Y0029593D01*
X0079011Y0028994D02*
X0086723Y0028994D01*
X0089011Y0028994D02*
X0096723Y0028994D01*
X0095278Y0029593D02*
X0090456Y0029593D01*
X0091097Y0030191D02*
X0094636Y0030191D01*
X0094038Y0030790D02*
X0091696Y0030790D01*
X0092035Y0031388D02*
X0093699Y0031388D01*
X0093451Y0031987D02*
X0092283Y0031987D01*
X0092530Y0032585D02*
X0093203Y0032585D01*
X0093167Y0033184D02*
X0092567Y0033184D01*
X0092567Y0033782D02*
X0093167Y0033782D01*
X0093167Y0034381D02*
X0092567Y0034381D01*
X0092386Y0034979D02*
X0093348Y0034979D01*
X0093596Y0035578D02*
X0092138Y0035578D01*
X0091890Y0036176D02*
X0093843Y0036176D01*
X0094387Y0036775D02*
X0091346Y0036775D01*
X0090748Y0037373D02*
X0094986Y0037373D01*
X0096121Y0037972D02*
X0089612Y0037972D01*
X0089567Y0038570D02*
X0096167Y0038570D01*
X0096040Y0039169D02*
X0089694Y0039169D01*
X0090815Y0039767D02*
X0094919Y0039767D01*
X0094320Y0040366D02*
X0091413Y0040366D01*
X0091967Y0040964D02*
X0093766Y0040964D01*
X0093518Y0041563D02*
X0092215Y0041563D01*
X0092463Y0042162D02*
X0093270Y0042162D01*
X0093067Y0042760D02*
X0092667Y0042760D01*
X0092667Y0043359D02*
X0093067Y0043359D01*
X0093067Y0043957D02*
X0092667Y0043957D01*
X0092667Y0044556D02*
X0093067Y0044556D01*
X0093312Y0045154D02*
X0092422Y0045154D01*
X0092174Y0045753D02*
X0093560Y0045753D01*
X0093822Y0046351D02*
X0091911Y0046351D01*
X0091313Y0046950D02*
X0094420Y0046950D01*
X0095019Y0047548D02*
X0090714Y0047548D01*
X0089452Y0048147D02*
X0096282Y0048147D01*
X0096367Y0048745D02*
X0089367Y0048745D01*
X0089367Y0049344D02*
X0096367Y0049344D01*
X0096367Y0049942D02*
X0089367Y0049942D01*
X0089367Y0050541D02*
X0096367Y0050541D01*
X0096367Y0051139D02*
X0089367Y0051139D01*
X0089367Y0051738D02*
X0096367Y0051738D01*
X0096367Y0052336D02*
X0089367Y0052336D01*
X0089367Y0052935D02*
X0096367Y0052935D01*
X0096367Y0053533D02*
X0089367Y0053533D01*
X0090655Y0054132D02*
X0095078Y0054132D01*
X0093623Y0054730D02*
X0090738Y0054730D01*
X0090738Y0055329D02*
X0093024Y0055329D01*
X0092426Y0055927D02*
X0090738Y0055927D01*
X0090738Y0056526D02*
X0091827Y0056526D01*
X0091367Y0057124D02*
X0090738Y0057124D01*
X0090738Y0057723D02*
X0091367Y0057723D01*
X0091367Y0058321D02*
X0090299Y0058321D01*
X0091367Y0058920D02*
X0084367Y0058920D01*
X0084367Y0059518D02*
X0091367Y0059518D01*
X0091367Y0060117D02*
X0084367Y0060117D01*
X0084367Y0060715D02*
X0091367Y0060715D01*
X0091367Y0061314D02*
X0084367Y0061314D01*
X0084367Y0061912D02*
X0091367Y0061912D01*
X0091367Y0062511D02*
X0084367Y0062511D01*
X0084367Y0063109D02*
X0091244Y0063109D01*
X0090645Y0063708D02*
X0084367Y0063708D01*
X0084687Y0064306D02*
X0088367Y0064306D01*
X0087751Y0064905D02*
X0085285Y0064905D01*
X0085884Y0065503D02*
X0087402Y0065503D01*
X0087167Y0066102D02*
X0086482Y0066102D01*
X0087081Y0066700D02*
X0087167Y0066700D01*
X0092567Y0066700D02*
X0092653Y0066700D01*
X0092567Y0066102D02*
X0093251Y0066102D01*
X0093092Y0065503D02*
X0093850Y0065503D01*
X0093691Y0064905D02*
X0094448Y0064905D01*
X0094367Y0064986D02*
X0094367Y0064986D01*
X0094289Y0064306D02*
X0095047Y0064306D01*
X0095639Y0063645D02*
X0094995Y0063000D01*
X0094995Y0059333D01*
X0095639Y0058689D01*
X0100094Y0058689D01*
X0100308Y0058903D01*
X0101267Y0057945D01*
X0101267Y0052826D01*
X0100578Y0052137D01*
X0100167Y0051145D01*
X0100167Y0050071D01*
X0100578Y0049078D01*
X0101337Y0048319D01*
X0102330Y0047908D01*
X0103404Y0047908D01*
X0104396Y0048319D01*
X0105156Y0049078D01*
X0105567Y0050071D01*
X0105567Y0051145D01*
X0105156Y0052137D01*
X0104467Y0052826D01*
X0104467Y0057945D01*
X0105425Y0058903D01*
X0105639Y0058689D01*
X0110094Y0058689D01*
X0110738Y0059333D01*
X0110738Y0059567D01*
X0114995Y0059567D01*
X0114995Y0059333D01*
X0115639Y0058689D01*
X0120094Y0058689D01*
X0120738Y0059333D01*
X0120738Y0063000D01*
X0120094Y0063645D01*
X0115639Y0063645D01*
X0114995Y0063000D01*
X0114995Y0062767D01*
X0110738Y0062767D01*
X0110738Y0063000D01*
X0110094Y0063645D01*
X0105639Y0063645D01*
X0104995Y0063000D01*
X0104995Y0062767D01*
X0104763Y0062767D01*
X0102867Y0060870D01*
X0100970Y0062767D01*
X0100738Y0062767D01*
X0100738Y0063000D01*
X0100094Y0063645D01*
X0095639Y0063645D01*
X0095104Y0063109D02*
X0094367Y0063109D01*
X0094367Y0062511D02*
X0094995Y0062511D01*
X0094995Y0061912D02*
X0094367Y0061912D01*
X0094367Y0061314D02*
X0094995Y0061314D01*
X0094995Y0060715D02*
X0094367Y0060715D01*
X0094367Y0060117D02*
X0094995Y0060117D01*
X0094995Y0059518D02*
X0094367Y0059518D01*
X0094367Y0058920D02*
X0095408Y0058920D01*
X0095434Y0058321D02*
X0094367Y0058321D01*
X0094873Y0057723D02*
X0094995Y0057723D01*
X0100299Y0058321D02*
X0100890Y0058321D01*
X0100738Y0057723D02*
X0101267Y0057723D01*
X0101267Y0057124D02*
X0100738Y0057124D01*
X0100738Y0056526D02*
X0101267Y0056526D01*
X0101267Y0055927D02*
X0100738Y0055927D01*
X0100738Y0055329D02*
X0101267Y0055329D01*
X0101267Y0054730D02*
X0100738Y0054730D01*
X0100655Y0054132D02*
X0101267Y0054132D01*
X0101267Y0053533D02*
X0099367Y0053533D01*
X0099367Y0052935D02*
X0101267Y0052935D01*
X0100777Y0052336D02*
X0099367Y0052336D01*
X0099367Y0051738D02*
X0100412Y0051738D01*
X0100167Y0051139D02*
X0099367Y0051139D01*
X0099367Y0050541D02*
X0100167Y0050541D01*
X0100220Y0049942D02*
X0099367Y0049942D01*
X0099367Y0049344D02*
X0100468Y0049344D01*
X0100911Y0048745D02*
X0099367Y0048745D01*
X0099452Y0048147D02*
X0101753Y0048147D01*
X0100714Y0047548D02*
X0105019Y0047548D01*
X0105148Y0047677D02*
X0103797Y0046327D01*
X0103067Y0044562D01*
X0103067Y0042653D01*
X0103797Y0040889D01*
X0105148Y0039538D01*
X0106167Y0039116D01*
X0106167Y0037991D01*
X0105204Y0037592D01*
X0103882Y0036270D01*
X0103167Y0034543D01*
X0103167Y0032673D01*
X0103882Y0030945D01*
X0105204Y0029623D01*
X0106932Y0028908D01*
X0108802Y0028908D01*
X0110529Y0029623D01*
X0111851Y0030945D01*
X0112567Y0032673D01*
X0112567Y0034543D01*
X0111851Y0036270D01*
X0110529Y0037592D01*
X0109567Y0037991D01*
X0109567Y0039116D01*
X0110586Y0039538D01*
X0111936Y0040889D01*
X0112667Y0042653D01*
X0112667Y0044562D01*
X0111936Y0046327D01*
X0110586Y0047677D01*
X0109367Y0048182D01*
X0109367Y0053571D01*
X0110094Y0053571D01*
X0110738Y0054215D01*
X0110738Y0054549D01*
X0111107Y0054549D01*
X0111337Y0054319D01*
X0112330Y0053908D01*
X0113404Y0053908D01*
X0114396Y0054319D01*
X0114995Y0054918D01*
X0114995Y0054215D01*
X0115639Y0053571D01*
X0116367Y0053571D01*
X0116367Y0048182D01*
X0115148Y0047677D01*
X0113797Y0046327D01*
X0113067Y0044562D01*
X0113067Y0042653D01*
X0113797Y0040889D01*
X0115148Y0039538D01*
X0116167Y0039116D01*
X0116167Y0037991D01*
X0115204Y0037592D01*
X0113882Y0036270D01*
X0113167Y0034543D01*
X0113167Y0032673D01*
X0113882Y0030945D01*
X0115204Y0029623D01*
X0116932Y0028908D01*
X0118802Y0028908D01*
X0120529Y0029623D01*
X0121851Y0030945D01*
X0122567Y0032673D01*
X0122567Y0034543D01*
X0121851Y0036270D01*
X0120529Y0037592D01*
X0119567Y0037991D01*
X0119567Y0039116D01*
X0120586Y0039538D01*
X0121936Y0040889D01*
X0122667Y0042653D01*
X0122667Y0044562D01*
X0121936Y0046327D01*
X0120586Y0047677D01*
X0119367Y0048182D01*
X0119367Y0053571D01*
X0120094Y0053571D01*
X0120738Y0054215D01*
X0120738Y0057882D01*
X0120094Y0058527D01*
X0115639Y0058527D01*
X0115183Y0058070D01*
X0115156Y0058137D01*
X0114396Y0058897D01*
X0113404Y0059308D01*
X0112330Y0059308D01*
X0111337Y0058897D01*
X0110578Y0058137D01*
X0110550Y0058070D01*
X0110094Y0058527D01*
X0105639Y0058527D01*
X0104995Y0057882D01*
X0104995Y0054215D01*
X0105639Y0053571D01*
X0106367Y0053571D01*
X0106367Y0048182D01*
X0105148Y0047677D01*
X0104420Y0046950D02*
X0101313Y0046950D01*
X0101911Y0046351D02*
X0103822Y0046351D01*
X0103560Y0045753D02*
X0102174Y0045753D01*
X0102422Y0045154D02*
X0103312Y0045154D01*
X0103067Y0044556D02*
X0102667Y0044556D01*
X0102667Y0043957D02*
X0103067Y0043957D01*
X0103067Y0043359D02*
X0102667Y0043359D01*
X0102667Y0042760D02*
X0103067Y0042760D01*
X0103270Y0042162D02*
X0102463Y0042162D01*
X0102215Y0041563D02*
X0103518Y0041563D01*
X0103766Y0040964D02*
X0101967Y0040964D01*
X0101413Y0040366D02*
X0104320Y0040366D01*
X0104919Y0039767D02*
X0100815Y0039767D01*
X0099694Y0039169D02*
X0106040Y0039169D01*
X0106167Y0038570D02*
X0099567Y0038570D01*
X0099612Y0037972D02*
X0106121Y0037972D01*
X0104986Y0037373D02*
X0100748Y0037373D01*
X0101346Y0036775D02*
X0104387Y0036775D01*
X0103843Y0036176D02*
X0101890Y0036176D01*
X0102138Y0035578D02*
X0103596Y0035578D01*
X0103348Y0034979D02*
X0102386Y0034979D01*
X0102567Y0034381D02*
X0103167Y0034381D01*
X0103167Y0033782D02*
X0102567Y0033782D01*
X0102567Y0033184D02*
X0103167Y0033184D01*
X0103203Y0032585D02*
X0102530Y0032585D01*
X0102283Y0031987D02*
X0103451Y0031987D01*
X0103699Y0031388D02*
X0102035Y0031388D01*
X0101696Y0030790D02*
X0104038Y0030790D01*
X0104636Y0030191D02*
X0101097Y0030191D01*
X0100456Y0029593D02*
X0105278Y0029593D01*
X0106723Y0028994D02*
X0099011Y0028994D01*
X0109011Y0028994D02*
X0116723Y0028994D01*
X0115278Y0029593D02*
X0110456Y0029593D01*
X0111097Y0030191D02*
X0114636Y0030191D01*
X0114038Y0030790D02*
X0111696Y0030790D01*
X0112035Y0031388D02*
X0113699Y0031388D01*
X0113451Y0031987D02*
X0112283Y0031987D01*
X0112530Y0032585D02*
X0113203Y0032585D01*
X0113167Y0033184D02*
X0112567Y0033184D01*
X0112567Y0033782D02*
X0113167Y0033782D01*
X0113167Y0034381D02*
X0112567Y0034381D01*
X0112386Y0034979D02*
X0113348Y0034979D01*
X0113596Y0035578D02*
X0112138Y0035578D01*
X0111890Y0036176D02*
X0113843Y0036176D01*
X0114387Y0036775D02*
X0111346Y0036775D01*
X0110748Y0037373D02*
X0114986Y0037373D01*
X0116121Y0037972D02*
X0109612Y0037972D01*
X0109567Y0038570D02*
X0116167Y0038570D01*
X0116040Y0039169D02*
X0109694Y0039169D01*
X0110815Y0039767D02*
X0114919Y0039767D01*
X0114320Y0040366D02*
X0111413Y0040366D01*
X0111967Y0040964D02*
X0113766Y0040964D01*
X0113518Y0041563D02*
X0112215Y0041563D01*
X0112463Y0042162D02*
X0113270Y0042162D01*
X0113067Y0042760D02*
X0112667Y0042760D01*
X0112667Y0043359D02*
X0113067Y0043359D01*
X0113067Y0043957D02*
X0112667Y0043957D01*
X0112667Y0044556D02*
X0113067Y0044556D01*
X0113312Y0045154D02*
X0112422Y0045154D01*
X0112174Y0045753D02*
X0113560Y0045753D01*
X0113822Y0046351D02*
X0111911Y0046351D01*
X0111313Y0046950D02*
X0114420Y0046950D01*
X0115019Y0047548D02*
X0110714Y0047548D01*
X0109452Y0048147D02*
X0116282Y0048147D01*
X0116367Y0048745D02*
X0109367Y0048745D01*
X0109367Y0049344D02*
X0116367Y0049344D01*
X0116367Y0049942D02*
X0109367Y0049942D01*
X0109367Y0050541D02*
X0116367Y0050541D01*
X0116367Y0051139D02*
X0109367Y0051139D01*
X0109367Y0051738D02*
X0116367Y0051738D01*
X0116367Y0052336D02*
X0109367Y0052336D01*
X0109367Y0052935D02*
X0116367Y0052935D01*
X0116367Y0053533D02*
X0109367Y0053533D01*
X0110655Y0054132D02*
X0111789Y0054132D01*
X0113945Y0054132D02*
X0115078Y0054132D01*
X0114995Y0054730D02*
X0114808Y0054730D01*
X0114971Y0058321D02*
X0115434Y0058321D01*
X0115408Y0058920D02*
X0114340Y0058920D01*
X0114995Y0059518D02*
X0110738Y0059518D01*
X0110325Y0058920D02*
X0111393Y0058920D01*
X0110762Y0058321D02*
X0110299Y0058321D01*
X0110629Y0063109D02*
X0115104Y0063109D01*
X0120325Y0058920D02*
X0124367Y0058920D01*
X0124367Y0059518D02*
X0120738Y0059518D01*
X0120738Y0060117D02*
X0124367Y0060117D01*
X0124367Y0060715D02*
X0120738Y0060715D01*
X0120738Y0061314D02*
X0124367Y0061314D01*
X0124367Y0061912D02*
X0120738Y0061912D01*
X0120738Y0062511D02*
X0123842Y0062511D01*
X0123244Y0063109D02*
X0120629Y0063109D01*
X0122645Y0063708D02*
X0094367Y0063708D01*
X0100629Y0063109D02*
X0105104Y0063109D01*
X0104507Y0062511D02*
X0101226Y0062511D01*
X0101825Y0061912D02*
X0103909Y0061912D01*
X0103310Y0061314D02*
X0102423Y0061314D01*
X0104467Y0057723D02*
X0104995Y0057723D01*
X0104995Y0057124D02*
X0104467Y0057124D01*
X0104467Y0056526D02*
X0104995Y0056526D01*
X0104995Y0055927D02*
X0104467Y0055927D01*
X0104467Y0055329D02*
X0104995Y0055329D01*
X0104995Y0054730D02*
X0104467Y0054730D01*
X0104467Y0054132D02*
X0105078Y0054132D01*
X0104467Y0053533D02*
X0106367Y0053533D01*
X0106367Y0052935D02*
X0104467Y0052935D01*
X0104956Y0052336D02*
X0106367Y0052336D01*
X0106367Y0051738D02*
X0105321Y0051738D01*
X0105567Y0051139D02*
X0106367Y0051139D01*
X0106367Y0050541D02*
X0105567Y0050541D01*
X0105513Y0049942D02*
X0106367Y0049942D01*
X0106367Y0049344D02*
X0105266Y0049344D01*
X0104823Y0048745D02*
X0106367Y0048745D01*
X0106282Y0048147D02*
X0103981Y0048147D01*
X0104843Y0058321D02*
X0105434Y0058321D01*
X0102107Y0071489D02*
X0156367Y0071489D01*
X0156367Y0072087D02*
X0101509Y0072087D01*
X0100910Y0072686D02*
X0156367Y0072686D01*
X0156367Y0073284D02*
X0136972Y0073284D01*
X0137930Y0073883D02*
X0156367Y0073883D01*
X0156367Y0074481D02*
X0138528Y0074481D01*
X0139015Y0075080D02*
X0156367Y0075080D01*
X0156367Y0075678D02*
X0139263Y0075678D01*
X0139511Y0076277D02*
X0156367Y0076277D01*
X0156367Y0076875D02*
X0139667Y0076875D01*
X0139667Y0077474D02*
X0156367Y0077474D01*
X0156281Y0078072D02*
X0139667Y0078072D01*
X0139622Y0078671D02*
X0155682Y0078671D01*
X0155084Y0079269D02*
X0139374Y0079269D01*
X0139126Y0079868D02*
X0154485Y0079868D01*
X0153887Y0080466D02*
X0138796Y0080466D01*
X0138198Y0081065D02*
X0153288Y0081065D01*
X0152664Y0081663D02*
X0137599Y0081663D01*
X0136174Y0082262D02*
X0151965Y0082262D01*
X0151267Y0082860D02*
X0128343Y0082860D01*
X0128809Y0082262D02*
X0133560Y0082262D01*
X0130112Y0078671D02*
X0128556Y0078671D01*
X0130067Y0078072D02*
X0097182Y0078072D01*
X0097430Y0077474D02*
X0130067Y0077474D01*
X0130067Y0076875D02*
X0097567Y0076875D01*
X0097567Y0076277D02*
X0130222Y0076277D01*
X0130470Y0075678D02*
X0097917Y0075678D01*
X0098516Y0075080D02*
X0130718Y0075080D01*
X0131205Y0074481D02*
X0099115Y0074481D01*
X0099713Y0073883D02*
X0131803Y0073883D01*
X0132762Y0073284D02*
X0100312Y0073284D01*
X0096622Y0078671D02*
X0107177Y0078671D01*
X0106924Y0082262D02*
X0095334Y0082262D01*
X0094735Y0082860D02*
X0107390Y0082860D01*
X0113579Y0082860D02*
X0122154Y0082860D01*
X0121688Y0082262D02*
X0114045Y0082262D01*
X0113792Y0078671D02*
X0121941Y0078671D01*
X0113846Y0087648D02*
X0094288Y0087648D01*
X0094288Y0087050D02*
X0146379Y0087050D01*
X0147077Y0086451D02*
X0094288Y0086451D01*
X0094288Y0085853D02*
X0147776Y0085853D01*
X0148474Y0085254D02*
X0094288Y0085254D01*
X0094288Y0084656D02*
X0149172Y0084656D01*
X0149871Y0084057D02*
X0094288Y0084057D01*
X0094288Y0083459D02*
X0150569Y0083459D01*
X0156367Y0070890D02*
X0137706Y0070890D01*
X0138304Y0070292D02*
X0156367Y0070292D01*
X0156367Y0069693D02*
X0138903Y0069693D01*
X0139501Y0069095D02*
X0156367Y0069095D01*
X0156367Y0068496D02*
X0140100Y0068496D01*
X0140698Y0067898D02*
X0156367Y0067898D01*
X0156367Y0067299D02*
X0141297Y0067299D01*
X0141895Y0066700D02*
X0156367Y0066700D01*
X0156367Y0066102D02*
X0141926Y0066102D01*
X0141926Y0065503D02*
X0156367Y0065503D01*
X0156367Y0064905D02*
X0142834Y0064905D01*
X0142904Y0064306D02*
X0156367Y0064306D01*
X0156367Y0063708D02*
X0142904Y0063708D01*
X0142904Y0063109D02*
X0156367Y0063109D01*
X0156367Y0062511D02*
X0142904Y0062511D01*
X0142904Y0061912D02*
X0156367Y0061912D01*
X0156367Y0061314D02*
X0142904Y0061314D01*
X0142904Y0060715D02*
X0156367Y0060715D01*
X0156367Y0060117D02*
X0142640Y0060117D01*
X0138850Y0065503D02*
X0134533Y0065503D01*
X0133935Y0066102D02*
X0138251Y0066102D01*
X0137653Y0066700D02*
X0133336Y0066700D01*
X0132738Y0067299D02*
X0137054Y0067299D01*
X0136455Y0067898D02*
X0132139Y0067898D01*
X0129692Y0066102D02*
X0124494Y0066102D01*
X0125092Y0065503D02*
X0130290Y0065503D01*
X0130889Y0064905D02*
X0125691Y0064905D01*
X0126289Y0064306D02*
X0131488Y0064306D01*
X0132086Y0063708D02*
X0126888Y0063708D01*
X0127367Y0063109D02*
X0132685Y0063109D01*
X0132830Y0062511D02*
X0127367Y0062511D01*
X0127367Y0061912D02*
X0132830Y0061912D01*
X0132830Y0061314D02*
X0127367Y0061314D01*
X0127367Y0060715D02*
X0132830Y0060715D01*
X0133093Y0060117D02*
X0127367Y0060117D01*
X0127367Y0059518D02*
X0133808Y0059518D01*
X0133808Y0058920D02*
X0127367Y0058920D01*
X0127367Y0058321D02*
X0133808Y0058321D01*
X0133808Y0057723D02*
X0127367Y0057723D01*
X0127367Y0057124D02*
X0133119Y0057124D01*
X0132830Y0056526D02*
X0127367Y0056526D01*
X0127367Y0055927D02*
X0132830Y0055927D01*
X0132830Y0055329D02*
X0127367Y0055329D01*
X0127367Y0054730D02*
X0132830Y0054730D01*
X0132830Y0054132D02*
X0127367Y0054132D01*
X0127367Y0053533D02*
X0132830Y0053533D01*
X0132830Y0052935D02*
X0127367Y0052935D01*
X0127367Y0052336D02*
X0132874Y0052336D01*
X0133472Y0051738D02*
X0127367Y0051738D01*
X0127367Y0051139D02*
X0133808Y0051139D01*
X0133812Y0050541D02*
X0127367Y0050541D01*
X0127367Y0049942D02*
X0134411Y0049942D01*
X0135009Y0049344D02*
X0127367Y0049344D01*
X0127367Y0048745D02*
X0135608Y0048745D01*
X0136206Y0048147D02*
X0127367Y0048147D01*
X0127367Y0047548D02*
X0146805Y0047548D01*
X0147403Y0046950D02*
X0127367Y0046950D01*
X0127367Y0046351D02*
X0131346Y0046351D01*
X0130830Y0045753D02*
X0127367Y0045753D01*
X0127367Y0045154D02*
X0130830Y0045154D01*
X0130830Y0044556D02*
X0127367Y0044556D01*
X0127367Y0043957D02*
X0130830Y0043957D01*
X0130830Y0043359D02*
X0127367Y0043359D01*
X0127367Y0042760D02*
X0130830Y0042760D01*
X0130830Y0042162D02*
X0127367Y0042162D01*
X0127367Y0041563D02*
X0130830Y0041563D01*
X0131246Y0040964D02*
X0127367Y0040964D01*
X0127367Y0040366D02*
X0131808Y0040366D01*
X0131808Y0039767D02*
X0127367Y0039767D01*
X0127427Y0039169D02*
X0131808Y0039169D01*
X0131808Y0038570D02*
X0128025Y0038570D01*
X0128624Y0037972D02*
X0128860Y0037972D01*
X0126487Y0035578D02*
X0122138Y0035578D01*
X0121890Y0036176D02*
X0126177Y0036176D01*
X0125578Y0036775D02*
X0121346Y0036775D01*
X0120748Y0037373D02*
X0124980Y0037373D01*
X0124381Y0037972D02*
X0119612Y0037972D01*
X0119567Y0038570D02*
X0124367Y0038570D01*
X0124367Y0039169D02*
X0119694Y0039169D01*
X0120815Y0039767D02*
X0124367Y0039767D01*
X0124367Y0040366D02*
X0121413Y0040366D01*
X0121967Y0040964D02*
X0124367Y0040964D01*
X0124367Y0041563D02*
X0122215Y0041563D01*
X0122463Y0042162D02*
X0124367Y0042162D01*
X0124367Y0042760D02*
X0122667Y0042760D01*
X0122667Y0043359D02*
X0124367Y0043359D01*
X0124367Y0043957D02*
X0122667Y0043957D01*
X0122667Y0044556D02*
X0124367Y0044556D01*
X0124367Y0045154D02*
X0122422Y0045154D01*
X0122174Y0045753D02*
X0124367Y0045753D01*
X0124367Y0046351D02*
X0121911Y0046351D01*
X0121313Y0046950D02*
X0124367Y0046950D01*
X0124367Y0047548D02*
X0120714Y0047548D01*
X0119452Y0048147D02*
X0124367Y0048147D01*
X0124367Y0048745D02*
X0119367Y0048745D01*
X0119367Y0049344D02*
X0124367Y0049344D01*
X0124367Y0049942D02*
X0119367Y0049942D01*
X0119367Y0050541D02*
X0124367Y0050541D01*
X0124367Y0051139D02*
X0119367Y0051139D01*
X0119367Y0051738D02*
X0124367Y0051738D01*
X0124367Y0052336D02*
X0119367Y0052336D01*
X0119367Y0052935D02*
X0124367Y0052935D01*
X0124367Y0053533D02*
X0119367Y0053533D01*
X0120655Y0054132D02*
X0124367Y0054132D01*
X0124367Y0054730D02*
X0120738Y0054730D01*
X0120738Y0055329D02*
X0124367Y0055329D01*
X0124367Y0055927D02*
X0120738Y0055927D01*
X0120738Y0056526D02*
X0124367Y0056526D01*
X0124367Y0057124D02*
X0120738Y0057124D01*
X0120738Y0057723D02*
X0124367Y0057723D01*
X0124367Y0058321D02*
X0120299Y0058321D01*
X0135269Y0046351D02*
X0148002Y0046351D01*
X0148600Y0045753D02*
X0135786Y0045753D01*
X0135786Y0045154D02*
X0149199Y0045154D01*
X0149797Y0044556D02*
X0135786Y0044556D01*
X0135786Y0043957D02*
X0150396Y0043957D01*
X0150994Y0043359D02*
X0135786Y0043359D01*
X0135786Y0042760D02*
X0151593Y0042760D01*
X0152191Y0042162D02*
X0135786Y0042162D01*
X0135786Y0041563D02*
X0152790Y0041563D01*
X0153388Y0040964D02*
X0135370Y0040964D01*
X0134808Y0040366D02*
X0153987Y0040366D01*
X0154586Y0039767D02*
X0134808Y0039767D01*
X0134808Y0039169D02*
X0155184Y0039169D01*
X0155783Y0038570D02*
X0134808Y0038570D01*
X0134808Y0037972D02*
X0156381Y0037972D01*
X0156980Y0037373D02*
X0134808Y0037373D01*
X0134808Y0036775D02*
X0157578Y0036775D01*
X0158177Y0036176D02*
X0134998Y0036176D01*
X0135246Y0035578D02*
X0158487Y0035578D01*
X0158239Y0034979D02*
X0135494Y0034979D01*
X0135667Y0034381D02*
X0158067Y0034381D01*
X0158067Y0033782D02*
X0135667Y0033782D01*
X0135667Y0033184D02*
X0158067Y0033184D01*
X0158095Y0032585D02*
X0135639Y0032585D01*
X0135391Y0031987D02*
X0158343Y0031987D01*
X0158590Y0031388D02*
X0135143Y0031388D01*
X0134837Y0030790D02*
X0158896Y0030790D01*
X0159495Y0030191D02*
X0134238Y0030191D01*
X0133640Y0029593D02*
X0160093Y0029593D01*
X0161461Y0028994D02*
X0132272Y0028994D01*
X0129461Y0028994D02*
X0119011Y0028994D01*
X0120456Y0029593D02*
X0128093Y0029593D01*
X0127495Y0030191D02*
X0121097Y0030191D01*
X0121696Y0030790D02*
X0126896Y0030790D01*
X0126590Y0031388D02*
X0122035Y0031388D01*
X0122283Y0031987D02*
X0126343Y0031987D01*
X0126095Y0032585D02*
X0122530Y0032585D01*
X0122567Y0033184D02*
X0126067Y0033184D01*
X0126067Y0033782D02*
X0122567Y0033782D01*
X0122567Y0034381D02*
X0126067Y0034381D01*
X0126239Y0034979D02*
X0122386Y0034979D01*
X0137456Y0051139D02*
X0185267Y0051139D01*
X0185267Y0050541D02*
X0148055Y0050541D01*
X0148653Y0049942D02*
X0185267Y0049942D01*
X0185267Y0049344D02*
X0149252Y0049344D01*
X0149850Y0048745D02*
X0185267Y0048745D01*
X0185267Y0048147D02*
X0150449Y0048147D01*
X0151048Y0047548D02*
X0185267Y0047548D01*
X0185267Y0046950D02*
X0151646Y0046950D01*
X0152245Y0046351D02*
X0185267Y0046351D01*
X0185267Y0045753D02*
X0152843Y0045753D01*
X0153442Y0045154D02*
X0185267Y0045154D01*
X0185267Y0044556D02*
X0154040Y0044556D01*
X0154639Y0043957D02*
X0185267Y0043957D01*
X0185267Y0043359D02*
X0155237Y0043359D01*
X0159229Y0057124D02*
X0137496Y0057124D01*
X0137786Y0056526D02*
X0185267Y0056526D01*
X0185267Y0057124D02*
X0178505Y0057124D01*
X0179103Y0057723D02*
X0185267Y0057723D01*
X0185267Y0058321D02*
X0179367Y0058321D01*
X0179367Y0058920D02*
X0185267Y0058920D01*
X0185267Y0059518D02*
X0179367Y0059518D01*
X0179367Y0060117D02*
X0185267Y0060117D01*
X0185267Y0060715D02*
X0179367Y0060715D01*
X0179367Y0061314D02*
X0185267Y0061314D01*
X0185267Y0061912D02*
X0179367Y0061912D01*
X0179367Y0062511D02*
X0185267Y0062511D01*
X0185267Y0063109D02*
X0179367Y0063109D01*
X0179367Y0063708D02*
X0185267Y0063708D01*
X0185267Y0064306D02*
X0179367Y0064306D01*
X0179367Y0064905D02*
X0185267Y0064905D01*
X0185267Y0065503D02*
X0179367Y0065503D01*
X0179367Y0066102D02*
X0185267Y0066102D01*
X0185267Y0066700D02*
X0179367Y0066700D01*
X0179367Y0067299D02*
X0185267Y0067299D01*
X0185267Y0067898D02*
X0179367Y0067898D01*
X0179367Y0068496D02*
X0185267Y0068496D01*
X0185267Y0069095D02*
X0179367Y0069095D01*
X0179367Y0069693D02*
X0185267Y0069693D01*
X0185267Y0070292D02*
X0179367Y0070292D01*
X0179367Y0070890D02*
X0185267Y0070890D01*
X0185267Y0071489D02*
X0179367Y0071489D01*
X0179367Y0072087D02*
X0185267Y0072087D01*
X0185267Y0072686D02*
X0179367Y0072686D01*
X0179312Y0073284D02*
X0185267Y0073284D01*
X0185267Y0073883D02*
X0178713Y0073883D01*
X0178115Y0074481D02*
X0185267Y0074481D01*
X0185267Y0075080D02*
X0177516Y0075080D01*
X0176917Y0075678D02*
X0185267Y0075678D01*
X0185267Y0076277D02*
X0176319Y0076277D01*
X0175720Y0076875D02*
X0185267Y0076875D01*
X0185267Y0077474D02*
X0175122Y0077474D01*
X0174523Y0078072D02*
X0185267Y0078072D01*
X0185267Y0078671D02*
X0173925Y0078671D01*
X0173326Y0079269D02*
X0185267Y0079269D01*
X0185267Y0079868D02*
X0172728Y0079868D01*
X0172129Y0080466D02*
X0185267Y0080466D01*
X0185267Y0090042D02*
X0171367Y0090042D01*
X0171367Y0089444D02*
X0172596Y0089444D01*
X0171998Y0088845D02*
X0171367Y0088845D01*
X0171367Y0088247D02*
X0171979Y0088247D01*
X0171979Y0087648D02*
X0171367Y0087648D01*
X0171367Y0087050D02*
X0171979Y0087050D01*
X0171979Y0086451D02*
X0171367Y0086451D01*
X0171367Y0085853D02*
X0171979Y0085853D01*
X0171979Y0085254D02*
X0171367Y0085254D01*
X0171367Y0084656D02*
X0171979Y0084656D01*
X0171979Y0084057D02*
X0171367Y0084057D01*
X0171367Y0083459D02*
X0171979Y0083459D01*
X0171979Y0082860D02*
X0171367Y0082860D01*
X0171367Y0082262D02*
X0171979Y0082262D01*
X0171979Y0081663D02*
X0171367Y0081663D01*
X0171531Y0081065D02*
X0172531Y0081065D01*
X0166867Y0088608D02*
X0114867Y0088608D01*
X0107867Y0095608D01*
X0099867Y0095608D01*
X0097867Y0097608D01*
X0094439Y0097608D01*
X0094439Y0097638D01*
X0094261Y0097816D01*
X0094282Y0097837D01*
X0094282Y0100608D01*
X0137867Y0100608D01*
X0139867Y0098608D01*
X0167867Y0098608D01*
X0169867Y0096608D01*
X0169867Y0091608D01*
X0166867Y0088608D01*
X0167104Y0088845D02*
X0114629Y0088845D01*
X0114030Y0089444D02*
X0167703Y0089444D01*
X0168301Y0090042D02*
X0113432Y0090042D01*
X0112833Y0090641D02*
X0168900Y0090641D01*
X0169498Y0091239D02*
X0112235Y0091239D01*
X0111636Y0091838D02*
X0169867Y0091838D01*
X0169867Y0092436D02*
X0111038Y0092436D01*
X0110439Y0093035D02*
X0169867Y0093035D01*
X0169867Y0093633D02*
X0109841Y0093633D01*
X0109242Y0094232D02*
X0169867Y0094232D01*
X0169867Y0094831D02*
X0108644Y0094831D01*
X0108045Y0095429D02*
X0169867Y0095429D01*
X0169867Y0096028D02*
X0099447Y0096028D01*
X0098848Y0096626D02*
X0169848Y0096626D01*
X0169250Y0097225D02*
X0098250Y0097225D01*
X0097467Y0096028D02*
X0094439Y0096028D01*
X0094439Y0095429D02*
X0098065Y0095429D01*
X0098664Y0094831D02*
X0094439Y0094831D01*
X0094439Y0094232D02*
X0099262Y0094232D01*
X0094288Y0093633D02*
X0107861Y0093633D01*
X0108459Y0093035D02*
X0094288Y0093035D01*
X0094288Y0092436D02*
X0109058Y0092436D01*
X0109656Y0091838D02*
X0094288Y0091838D01*
X0094288Y0091239D02*
X0110255Y0091239D01*
X0110853Y0090641D02*
X0094288Y0090641D01*
X0094288Y0090042D02*
X0111452Y0090042D01*
X0112051Y0089444D02*
X0094288Y0089444D01*
X0094288Y0088845D02*
X0112649Y0088845D01*
X0113248Y0088247D02*
X0094288Y0088247D01*
X0094268Y0097823D02*
X0168651Y0097823D01*
X0168053Y0098422D02*
X0094282Y0098422D01*
X0094282Y0099020D02*
X0139454Y0099020D01*
X0138856Y0099619D02*
X0094282Y0099619D01*
X0094282Y0100217D02*
X0138257Y0100217D01*
X0139040Y0101414D02*
X0185267Y0101414D01*
X0185267Y0100816D02*
X0139639Y0100816D01*
X0140237Y0100217D02*
X0185267Y0100217D01*
X0185267Y0099619D02*
X0168836Y0099619D01*
X0169267Y0099188D02*
X0169267Y0099188D01*
X0169434Y0099020D02*
X0185267Y0099020D01*
X0185267Y0098422D02*
X0170033Y0098422D01*
X0170631Y0097823D02*
X0185267Y0097823D01*
X0185267Y0097225D02*
X0171230Y0097225D01*
X0171267Y0096626D02*
X0185267Y0096626D01*
X0185267Y0096028D02*
X0171267Y0096028D01*
X0171267Y0095429D02*
X0185267Y0095429D01*
X0185267Y0094831D02*
X0171267Y0094831D01*
X0171364Y0094232D02*
X0185267Y0094232D01*
X0185267Y0093633D02*
X0171369Y0093633D01*
X0171367Y0093035D02*
X0185267Y0093035D01*
X0185267Y0092436D02*
X0171367Y0092436D01*
X0171367Y0091838D02*
X0185267Y0091838D01*
X0185267Y0091239D02*
X0171367Y0091239D01*
X0171367Y0090641D02*
X0185267Y0090641D01*
X0185267Y0102013D02*
X0131252Y0102013D01*
X0131850Y0102611D02*
X0185267Y0102611D01*
X0185267Y0103210D02*
X0132449Y0103210D01*
X0133047Y0103808D02*
X0185267Y0103808D01*
X0185267Y0104407D02*
X0133646Y0104407D01*
X0134244Y0105005D02*
X0185267Y0105005D01*
X0185267Y0105604D02*
X0134843Y0105604D01*
X0135441Y0106202D02*
X0185267Y0106202D01*
X0185267Y0106801D02*
X0136040Y0106801D01*
X0136638Y0107399D02*
X0185267Y0107399D01*
X0185267Y0117608D02*
X0144867Y0117608D01*
X0129867Y0102608D01*
X0094282Y0102608D01*
X0094282Y0104909D01*
X0097448Y0104909D01*
X0098415Y0105876D01*
X0098415Y0106156D01*
X0098867Y0106608D01*
X0098867Y0107608D01*
X0099867Y0108608D01*
X0115867Y0108608D01*
X0116867Y0109608D01*
X0116867Y0120608D01*
X0109867Y0120608D01*
X0109867Y0131608D01*
X0110867Y0132608D01*
X0162867Y0132608D01*
X0166867Y0128608D01*
X0185267Y0128608D01*
X0185267Y0117608D01*
X0185267Y0118172D02*
X0116867Y0118172D01*
X0116867Y0117574D02*
X0144833Y0117574D01*
X0144234Y0116975D02*
X0116867Y0116975D01*
X0116867Y0116377D02*
X0143636Y0116377D01*
X0143037Y0115778D02*
X0116867Y0115778D01*
X0116867Y0115180D02*
X0142439Y0115180D01*
X0141840Y0114581D02*
X0116867Y0114581D01*
X0116867Y0113983D02*
X0141242Y0113983D01*
X0140643Y0113384D02*
X0116867Y0113384D01*
X0116867Y0112786D02*
X0140045Y0112786D01*
X0139446Y0112187D02*
X0116867Y0112187D01*
X0116867Y0111589D02*
X0138848Y0111589D01*
X0138249Y0110990D02*
X0116867Y0110990D01*
X0116867Y0110392D02*
X0137651Y0110392D01*
X0137052Y0109793D02*
X0116867Y0109793D01*
X0116454Y0109195D02*
X0136454Y0109195D01*
X0135855Y0108596D02*
X0099855Y0108596D01*
X0099257Y0107998D02*
X0135257Y0107998D01*
X0134658Y0107399D02*
X0098867Y0107399D01*
X0098867Y0106801D02*
X0134060Y0106801D01*
X0133461Y0106202D02*
X0098461Y0106202D01*
X0098143Y0105604D02*
X0132863Y0105604D01*
X0132264Y0105005D02*
X0097544Y0105005D01*
X0097287Y0107008D02*
X0094067Y0107008D01*
X0094067Y0109205D01*
X0094439Y0109577D01*
X0094439Y0113189D01*
X0093867Y0113762D01*
X0093867Y0116608D01*
X0096867Y0119608D01*
X0108887Y0119608D01*
X0109287Y0119208D01*
X0114867Y0119208D01*
X0114867Y0110008D01*
X0099287Y0110008D01*
X0098887Y0109608D01*
X0098867Y0109608D01*
X0098867Y0109588D01*
X0098287Y0109008D01*
X0097467Y0108188D01*
X0097467Y0107188D01*
X0097287Y0107008D01*
X0094067Y0107008D01*
X0094067Y0108208D01*
X0094447Y0108208D01*
X0095267Y0109028D01*
X0095267Y0114028D01*
X0099447Y0118208D01*
X0106447Y0118208D01*
X0107267Y0119028D01*
X0108447Y0120208D01*
X0108467Y0120228D01*
X0108467Y0120028D01*
X0109287Y0119208D01*
X0115467Y0119208D01*
X0115467Y0110188D01*
X0115287Y0110008D01*
X0099287Y0110008D01*
X0098287Y0109008D01*
X0097467Y0108188D01*
X0097467Y0107188D01*
X0097287Y0107008D01*
X0097467Y0107399D02*
X0094067Y0107399D01*
X0097467Y0107399D01*
X0097467Y0107998D02*
X0094067Y0107998D01*
X0097467Y0107998D01*
X0097875Y0108596D02*
X0094067Y0108596D01*
X0094067Y0109195D02*
X0098474Y0109195D01*
X0095267Y0109195D01*
X0095267Y0109793D02*
X0099072Y0109793D01*
X0094439Y0109793D01*
X0094439Y0110392D02*
X0114867Y0110392D01*
X0114867Y0110990D02*
X0094439Y0110990D01*
X0094439Y0111589D02*
X0114867Y0111589D01*
X0114867Y0112187D02*
X0094439Y0112187D01*
X0094439Y0112786D02*
X0114867Y0112786D01*
X0114867Y0113384D02*
X0094244Y0113384D01*
X0093867Y0113983D02*
X0114867Y0113983D01*
X0114867Y0114581D02*
X0093867Y0114581D01*
X0093867Y0115180D02*
X0114867Y0115180D01*
X0114867Y0115778D02*
X0093867Y0115778D01*
X0093867Y0116377D02*
X0114867Y0116377D01*
X0114867Y0116975D02*
X0094234Y0116975D01*
X0094833Y0117574D02*
X0114867Y0117574D01*
X0114867Y0118172D02*
X0095431Y0118172D01*
X0096030Y0118771D02*
X0114867Y0118771D01*
X0115467Y0118771D02*
X0107010Y0118771D01*
X0107267Y0119028D02*
X0107267Y0119028D01*
X0107608Y0119369D02*
X0109125Y0119369D01*
X0096628Y0119369D01*
X0095846Y0120566D02*
X0092947Y0120566D01*
X0093367Y0120986D02*
X0093367Y0121571D01*
X0094094Y0121571D01*
X0094738Y0122215D01*
X0094738Y0125882D01*
X0094094Y0126527D01*
X0089867Y0126527D01*
X0089867Y0130608D01*
X0091867Y0132608D01*
X0106867Y0132608D01*
X0107867Y0131608D01*
X0107867Y0121608D01*
X0107267Y0121008D01*
X0096287Y0121008D01*
X0093287Y0118008D01*
X0092467Y0117188D01*
X0092467Y0110023D01*
X0090502Y0110023D01*
X0090502Y0113189D01*
X0090351Y0113340D01*
X0090351Y0117971D01*
X0092488Y0120108D01*
X0093367Y0120986D01*
X0093367Y0121165D02*
X0107424Y0121165D01*
X0107867Y0121764D02*
X0094287Y0121764D01*
X0094738Y0122362D02*
X0107867Y0122362D01*
X0107867Y0122961D02*
X0094738Y0122961D01*
X0094738Y0123559D02*
X0107867Y0123559D01*
X0107867Y0124158D02*
X0094738Y0124158D01*
X0094738Y0124756D02*
X0107867Y0124756D01*
X0107867Y0125355D02*
X0094738Y0125355D01*
X0094667Y0125953D02*
X0107867Y0125953D01*
X0107867Y0126552D02*
X0089867Y0126552D01*
X0089867Y0127150D02*
X0107867Y0127150D01*
X0107867Y0127749D02*
X0089867Y0127749D01*
X0089867Y0128347D02*
X0107867Y0128347D01*
X0107867Y0128946D02*
X0089867Y0128946D01*
X0089867Y0129544D02*
X0107867Y0129544D01*
X0107867Y0130143D02*
X0089867Y0130143D01*
X0090000Y0130741D02*
X0107867Y0130741D01*
X0107867Y0131340D02*
X0090599Y0131340D01*
X0091197Y0131938D02*
X0107536Y0131938D01*
X0106938Y0132537D02*
X0091796Y0132537D01*
X0091013Y0133734D02*
X0084207Y0133734D01*
X0084173Y0133817D02*
X0083076Y0134914D01*
X0079173Y0138817D01*
X0078076Y0139914D01*
X0076642Y0140508D01*
X0035091Y0140508D01*
X0033657Y0139914D01*
X0024251Y0130508D01*
X0017755Y0130508D01*
X0017586Y0130677D01*
X0015821Y0131408D01*
X0013912Y0131408D01*
X0012148Y0130677D01*
X0010797Y0129327D01*
X0010467Y0128528D01*
X0010467Y0142608D01*
X0185267Y0142608D01*
X0185267Y0130008D01*
X0167447Y0130008D01*
X0164267Y0133188D01*
X0163447Y0134008D01*
X0110287Y0134008D01*
X0109287Y0133008D01*
X0108867Y0132588D01*
X0108267Y0133188D01*
X0107447Y0134008D01*
X0091287Y0134008D01*
X0089287Y0132008D01*
X0088467Y0131188D01*
X0088467Y0126527D01*
X0085267Y0126527D01*
X0085267Y0129188D01*
X0084767Y0129688D01*
X0084767Y0132383D01*
X0084173Y0133817D01*
X0083657Y0134332D02*
X0185267Y0134332D01*
X0185267Y0133734D02*
X0163720Y0133734D01*
X0164319Y0133135D02*
X0185267Y0133135D01*
X0185267Y0132537D02*
X0164917Y0132537D01*
X0165516Y0131938D02*
X0185267Y0131938D01*
X0185267Y0131340D02*
X0166115Y0131340D01*
X0166713Y0130741D02*
X0185267Y0130741D01*
X0185267Y0130143D02*
X0167312Y0130143D01*
X0166529Y0128946D02*
X0109867Y0128946D01*
X0109867Y0129544D02*
X0165930Y0129544D01*
X0165332Y0130143D02*
X0109867Y0130143D01*
X0109867Y0130741D02*
X0164733Y0130741D01*
X0164135Y0131340D02*
X0109867Y0131340D01*
X0110197Y0131938D02*
X0163536Y0131938D01*
X0162938Y0132537D02*
X0110796Y0132537D01*
X0110013Y0133734D02*
X0107720Y0133734D01*
X0108319Y0133135D02*
X0109414Y0133135D01*
X0109867Y0128347D02*
X0185267Y0128347D01*
X0185267Y0127749D02*
X0109867Y0127749D01*
X0109867Y0127150D02*
X0185267Y0127150D01*
X0185267Y0126552D02*
X0109867Y0126552D01*
X0109867Y0125953D02*
X0185267Y0125953D01*
X0185267Y0125355D02*
X0109867Y0125355D01*
X0109867Y0124756D02*
X0185267Y0124756D01*
X0185267Y0124158D02*
X0109867Y0124158D01*
X0109867Y0123559D02*
X0185267Y0123559D01*
X0185267Y0122961D02*
X0109867Y0122961D01*
X0109867Y0122362D02*
X0185267Y0122362D01*
X0185267Y0121764D02*
X0109867Y0121764D01*
X0109867Y0121165D02*
X0185267Y0121165D01*
X0185267Y0120566D02*
X0116867Y0120566D01*
X0116867Y0119968D02*
X0185267Y0119968D01*
X0185267Y0119369D02*
X0116867Y0119369D01*
X0116867Y0118771D02*
X0185267Y0118771D01*
X0172159Y0115778D02*
X0145017Y0115778D01*
X0144419Y0115180D02*
X0171979Y0115180D01*
X0171979Y0114581D02*
X0143820Y0114581D01*
X0143222Y0113983D02*
X0171979Y0113983D01*
X0171979Y0113384D02*
X0142623Y0113384D01*
X0142025Y0112786D02*
X0171979Y0112786D01*
X0171979Y0112187D02*
X0141426Y0112187D01*
X0140828Y0111589D02*
X0171979Y0111589D01*
X0171979Y0110990D02*
X0140229Y0110990D01*
X0139631Y0110392D02*
X0171979Y0110392D01*
X0171979Y0109793D02*
X0139032Y0109793D01*
X0138434Y0109195D02*
X0171979Y0109195D01*
X0171979Y0108596D02*
X0137835Y0108596D01*
X0137237Y0107998D02*
X0172370Y0107998D01*
X0185267Y0134931D02*
X0083059Y0134931D01*
X0082460Y0135529D02*
X0185267Y0135529D01*
X0185267Y0136128D02*
X0081862Y0136128D01*
X0081263Y0136726D02*
X0185267Y0136726D01*
X0185267Y0137325D02*
X0080665Y0137325D01*
X0080066Y0137923D02*
X0185267Y0137923D01*
X0185267Y0138522D02*
X0079468Y0138522D01*
X0078869Y0139120D02*
X0185267Y0139120D01*
X0185267Y0139719D02*
X0078271Y0139719D01*
X0077102Y0140317D02*
X0185267Y0140317D01*
X0185267Y0140916D02*
X0010467Y0140916D01*
X0010467Y0141514D02*
X0185267Y0141514D01*
X0185267Y0142113D02*
X0010467Y0142113D01*
X0010467Y0140317D02*
X0034632Y0140317D01*
X0033462Y0139719D02*
X0010467Y0139719D01*
X0010467Y0139120D02*
X0032864Y0139120D01*
X0032265Y0138522D02*
X0010467Y0138522D01*
X0010467Y0137923D02*
X0031667Y0137923D01*
X0031068Y0137325D02*
X0010467Y0137325D01*
X0010467Y0136726D02*
X0030470Y0136726D01*
X0029871Y0136128D02*
X0010467Y0136128D01*
X0010467Y0135529D02*
X0029273Y0135529D01*
X0028674Y0134931D02*
X0010467Y0134931D01*
X0010467Y0134332D02*
X0028076Y0134332D01*
X0027477Y0133734D02*
X0010467Y0133734D01*
X0010467Y0133135D02*
X0026879Y0133135D01*
X0026280Y0132537D02*
X0010467Y0132537D01*
X0010467Y0131938D02*
X0025682Y0131938D01*
X0025083Y0131340D02*
X0015985Y0131340D01*
X0017430Y0130741D02*
X0024485Y0130741D01*
X0030129Y0125355D02*
X0076467Y0125355D01*
X0076467Y0125953D02*
X0030728Y0125953D01*
X0031326Y0126552D02*
X0076467Y0126552D01*
X0076467Y0127150D02*
X0031925Y0127150D01*
X0032523Y0127749D02*
X0076467Y0127749D01*
X0076467Y0128347D02*
X0033122Y0128347D01*
X0033720Y0128946D02*
X0076467Y0128946D01*
X0076467Y0129188D02*
X0076467Y0117028D01*
X0076487Y0117008D01*
X0039287Y0117008D01*
X0038867Y0116588D01*
X0038447Y0117008D01*
X0028287Y0117008D01*
X0027467Y0116188D01*
X0027467Y0112876D01*
X0027106Y0113236D01*
X0025827Y0113766D01*
X0024442Y0113766D01*
X0023162Y0113236D01*
X0022183Y0112257D01*
X0021653Y0110977D01*
X0021653Y0110007D01*
X0021062Y0110597D01*
X0012671Y0110597D01*
X0012027Y0109953D01*
X0012027Y0103136D01*
X0012575Y0102588D01*
X0012066Y0102079D01*
X0012066Y0095262D01*
X0012710Y0094618D01*
X0021102Y0094618D01*
X0021653Y0095169D01*
X0021653Y0094238D01*
X0022183Y0092959D01*
X0023162Y0091979D01*
X0024442Y0091449D01*
X0025827Y0091449D01*
X0027106Y0091979D01*
X0028085Y0092959D01*
X0028615Y0094238D01*
X0028615Y0095623D01*
X0028085Y0096902D01*
X0027106Y0097882D01*
X0026431Y0098161D01*
X0030511Y0098161D01*
X0031156Y0098806D01*
X0031156Y0101292D01*
X0031119Y0101328D01*
X0031156Y0101365D01*
X0031156Y0103851D01*
X0031119Y0103887D01*
X0031156Y0103924D01*
X0031156Y0104208D01*
X0038447Y0104208D01*
X0038467Y0104228D01*
X0038467Y0081188D01*
X0031287Y0074008D01*
X0010467Y0074008D01*
X0010467Y0124687D01*
X0010797Y0123889D01*
X0012148Y0122538D01*
X0013912Y0121808D01*
X0015821Y0121808D01*
X0017586Y0122538D01*
X0017755Y0122708D01*
X0026642Y0122708D01*
X0028076Y0123301D01*
X0029173Y0124398D01*
X0037482Y0132708D01*
X0074251Y0132708D01*
X0076967Y0129992D01*
X0076967Y0129688D01*
X0076467Y0129188D01*
X0076823Y0129544D02*
X0034319Y0129544D01*
X0034917Y0130143D02*
X0076816Y0130143D01*
X0076218Y0130741D02*
X0035516Y0130741D01*
X0036114Y0131340D02*
X0075619Y0131340D01*
X0075021Y0131938D02*
X0036713Y0131938D01*
X0037311Y0132537D02*
X0074422Y0132537D01*
X0077867Y0128608D02*
X0083867Y0128608D01*
X0083867Y0121608D01*
X0084214Y0121260D01*
X0084167Y0121145D01*
X0084167Y0120071D01*
X0084578Y0119078D01*
X0085282Y0118374D01*
X0085282Y0113240D01*
X0085231Y0113189D01*
X0085231Y0110023D01*
X0084597Y0110023D01*
X0084597Y0113189D01*
X0083867Y0113919D01*
X0083867Y0115608D01*
X0082867Y0116608D01*
X0078867Y0116608D01*
X0077919Y0117555D01*
X0077919Y0121363D01*
X0077867Y0121415D01*
X0077867Y0128608D01*
X0077867Y0128347D02*
X0083867Y0128347D01*
X0083867Y0127749D02*
X0077867Y0127749D01*
X0077867Y0127150D02*
X0083867Y0127150D01*
X0083867Y0126552D02*
X0077867Y0126552D01*
X0077867Y0125953D02*
X0083867Y0125953D01*
X0083867Y0125355D02*
X0077867Y0125355D01*
X0077867Y0124756D02*
X0083867Y0124756D01*
X0083867Y0124158D02*
X0077867Y0124158D01*
X0077867Y0123559D02*
X0083867Y0123559D01*
X0083867Y0122961D02*
X0077867Y0122961D01*
X0077867Y0122362D02*
X0083867Y0122362D01*
X0083867Y0121764D02*
X0077867Y0121764D01*
X0077919Y0121165D02*
X0084175Y0121165D01*
X0084167Y0120566D02*
X0077919Y0120566D01*
X0077919Y0119968D02*
X0084209Y0119968D01*
X0084457Y0119369D02*
X0077919Y0119369D01*
X0077919Y0118771D02*
X0084885Y0118771D01*
X0085282Y0118172D02*
X0077919Y0118172D01*
X0077919Y0117574D02*
X0085282Y0117574D01*
X0085282Y0116975D02*
X0078499Y0116975D01*
X0077919Y0115575D02*
X0078287Y0115208D01*
X0082267Y0115208D01*
X0082467Y0115008D01*
X0082467Y0110023D01*
X0082096Y0110023D01*
X0081452Y0109378D01*
X0081452Y0108212D01*
X0078285Y0108212D01*
X0078134Y0108060D01*
X0064198Y0108060D01*
X0063745Y0107608D01*
X0059867Y0107608D01*
X0050867Y0098608D01*
X0050867Y0061608D01*
X0046867Y0057608D01*
X0010467Y0057608D01*
X0010467Y0072608D01*
X0031867Y0072608D01*
X0039867Y0080608D01*
X0039867Y0115608D01*
X0069814Y0115608D01*
X0069814Y0115333D01*
X0070458Y0114689D01*
X0077275Y0114689D01*
X0077919Y0115333D01*
X0077919Y0115575D01*
X0077766Y0115180D02*
X0082294Y0115180D01*
X0082467Y0114581D02*
X0039867Y0114581D01*
X0039867Y0113983D02*
X0082467Y0113983D01*
X0082467Y0113384D02*
X0039867Y0113384D01*
X0039867Y0112786D02*
X0082467Y0112786D01*
X0082467Y0112187D02*
X0039867Y0112187D01*
X0039867Y0111589D02*
X0082467Y0111589D01*
X0082467Y0110990D02*
X0039867Y0110990D01*
X0039867Y0110392D02*
X0082467Y0110392D01*
X0081867Y0109793D02*
X0039867Y0109793D01*
X0039867Y0109195D02*
X0081452Y0109195D01*
X0081452Y0108596D02*
X0039867Y0108596D01*
X0039867Y0107998D02*
X0064135Y0107998D01*
X0062340Y0106202D02*
X0060441Y0106202D01*
X0059843Y0105604D02*
X0061741Y0105604D01*
X0061143Y0105005D02*
X0059244Y0105005D01*
X0058646Y0104407D02*
X0060544Y0104407D01*
X0059946Y0103808D02*
X0058047Y0103808D01*
X0057449Y0103210D02*
X0059347Y0103210D01*
X0058749Y0102611D02*
X0056850Y0102611D01*
X0056252Y0102013D02*
X0058150Y0102013D01*
X0057552Y0101414D02*
X0055653Y0101414D01*
X0055055Y0100816D02*
X0056953Y0100816D01*
X0056355Y0100217D02*
X0054456Y0100217D01*
X0053857Y0099619D02*
X0055756Y0099619D01*
X0055158Y0099020D02*
X0053259Y0099020D01*
X0052660Y0098422D02*
X0054559Y0098422D01*
X0053961Y0097823D02*
X0052267Y0097823D01*
X0052267Y0097225D02*
X0053367Y0097225D01*
X0053367Y0096626D02*
X0052267Y0096626D01*
X0052267Y0096028D02*
X0053367Y0096028D01*
X0053367Y0095429D02*
X0052267Y0095429D01*
X0052267Y0094831D02*
X0053367Y0094831D01*
X0053367Y0094232D02*
X0052267Y0094232D01*
X0052267Y0093633D02*
X0053367Y0093633D01*
X0053367Y0093035D02*
X0052267Y0093035D01*
X0052267Y0092436D02*
X0053367Y0092436D01*
X0053367Y0091838D02*
X0052267Y0091838D01*
X0052267Y0091239D02*
X0053367Y0091239D01*
X0053367Y0090641D02*
X0052267Y0090641D01*
X0052267Y0090042D02*
X0053367Y0090042D01*
X0053367Y0089444D02*
X0052267Y0089444D01*
X0052267Y0088845D02*
X0053367Y0088845D01*
X0053367Y0088247D02*
X0052267Y0088247D01*
X0052267Y0087648D02*
X0053367Y0087648D01*
X0053367Y0087050D02*
X0052267Y0087050D01*
X0052267Y0086451D02*
X0053367Y0086451D01*
X0053367Y0085853D02*
X0052267Y0085853D01*
X0052267Y0085254D02*
X0053367Y0085254D01*
X0053367Y0084656D02*
X0052267Y0084656D01*
X0052267Y0084057D02*
X0053367Y0084057D01*
X0053367Y0083459D02*
X0052267Y0083459D01*
X0052267Y0082860D02*
X0053367Y0082860D01*
X0053367Y0082262D02*
X0052267Y0082262D01*
X0052267Y0081663D02*
X0053367Y0081663D01*
X0053367Y0081065D02*
X0052267Y0081065D01*
X0052267Y0080466D02*
X0053367Y0080466D01*
X0053367Y0079868D02*
X0052267Y0079868D01*
X0052267Y0079269D02*
X0053367Y0079269D01*
X0053367Y0078671D02*
X0052267Y0078671D01*
X0052267Y0078072D02*
X0053367Y0078072D01*
X0053367Y0077474D02*
X0052267Y0077474D01*
X0052267Y0076875D02*
X0053367Y0076875D01*
X0053367Y0076277D02*
X0052267Y0076277D01*
X0052267Y0075678D02*
X0053367Y0075678D01*
X0053367Y0075080D02*
X0052267Y0075080D01*
X0052267Y0074481D02*
X0053367Y0074481D01*
X0053367Y0073883D02*
X0052267Y0073883D01*
X0052267Y0073284D02*
X0053367Y0073284D01*
X0053367Y0072686D02*
X0052267Y0072686D01*
X0052267Y0072087D02*
X0053367Y0072087D01*
X0053367Y0071489D02*
X0052267Y0071489D01*
X0052267Y0070890D02*
X0053367Y0070890D01*
X0053367Y0070292D02*
X0052267Y0070292D01*
X0052267Y0069693D02*
X0053367Y0069693D01*
X0053367Y0069095D02*
X0052267Y0069095D01*
X0052267Y0068496D02*
X0053367Y0068496D01*
X0053367Y0067898D02*
X0052267Y0067898D01*
X0052267Y0067299D02*
X0053367Y0067299D01*
X0053367Y0066700D02*
X0052267Y0066700D01*
X0052267Y0066102D02*
X0053367Y0066102D01*
X0053367Y0065503D02*
X0052267Y0065503D01*
X0052267Y0064905D02*
X0053367Y0064905D01*
X0053367Y0064306D02*
X0052267Y0064306D01*
X0052267Y0063708D02*
X0053367Y0063708D01*
X0053367Y0063109D02*
X0052267Y0063109D01*
X0052267Y0062511D02*
X0053367Y0062511D01*
X0053367Y0061912D02*
X0052267Y0061912D01*
X0052267Y0061314D02*
X0053367Y0061314D01*
X0053367Y0060715D02*
X0051954Y0060715D01*
X0051356Y0060117D02*
X0053367Y0060117D01*
X0053367Y0059518D02*
X0050757Y0059518D01*
X0050159Y0058920D02*
X0053367Y0058920D01*
X0053367Y0058321D02*
X0049560Y0058321D01*
X0048962Y0057723D02*
X0053367Y0057723D01*
X0053367Y0057124D02*
X0048363Y0057124D01*
X0047765Y0056526D02*
X0052966Y0056526D01*
X0052491Y0055927D02*
X0010467Y0055927D01*
X0010467Y0055329D02*
X0052243Y0055329D01*
X0052167Y0054730D02*
X0010467Y0054730D01*
X0010467Y0054132D02*
X0052167Y0054132D01*
X0052389Y0053533D02*
X0010467Y0053533D01*
X0010467Y0052935D02*
X0052721Y0052935D01*
X0053320Y0052336D02*
X0010467Y0052336D01*
X0010467Y0057723D02*
X0046982Y0057723D01*
X0047580Y0058321D02*
X0010467Y0058321D01*
X0010467Y0058920D02*
X0048179Y0058920D01*
X0048777Y0059518D02*
X0010467Y0059518D01*
X0010467Y0060117D02*
X0049376Y0060117D01*
X0049974Y0060715D02*
X0010467Y0060715D01*
X0010467Y0061314D02*
X0050573Y0061314D01*
X0050867Y0061912D02*
X0010467Y0061912D01*
X0010467Y0062511D02*
X0050867Y0062511D01*
X0050867Y0063109D02*
X0010467Y0063109D01*
X0010467Y0063708D02*
X0050867Y0063708D01*
X0050867Y0064306D02*
X0010467Y0064306D01*
X0010467Y0064905D02*
X0050867Y0064905D01*
X0050867Y0065503D02*
X0010467Y0065503D01*
X0010467Y0066102D02*
X0050867Y0066102D01*
X0050867Y0066700D02*
X0010467Y0066700D01*
X0010467Y0067299D02*
X0050867Y0067299D01*
X0050867Y0067898D02*
X0010467Y0067898D01*
X0010467Y0068496D02*
X0050867Y0068496D01*
X0050867Y0069095D02*
X0010467Y0069095D01*
X0010467Y0069693D02*
X0050867Y0069693D01*
X0050867Y0070292D02*
X0010467Y0070292D01*
X0010467Y0070890D02*
X0050867Y0070890D01*
X0050867Y0071489D02*
X0010467Y0071489D01*
X0010467Y0072087D02*
X0050867Y0072087D01*
X0050867Y0072686D02*
X0031945Y0072686D01*
X0032543Y0073284D02*
X0050867Y0073284D01*
X0050867Y0073883D02*
X0033142Y0073883D01*
X0033740Y0074481D02*
X0050867Y0074481D01*
X0050867Y0075080D02*
X0034339Y0075080D01*
X0034937Y0075678D02*
X0050867Y0075678D01*
X0050867Y0076277D02*
X0035536Y0076277D01*
X0036134Y0076875D02*
X0050867Y0076875D01*
X0050867Y0077474D02*
X0036733Y0077474D01*
X0037331Y0078072D02*
X0050867Y0078072D01*
X0050867Y0078671D02*
X0037930Y0078671D01*
X0038528Y0079269D02*
X0050867Y0079269D01*
X0050867Y0079868D02*
X0039127Y0079868D01*
X0039725Y0080466D02*
X0050867Y0080466D01*
X0050867Y0081065D02*
X0039867Y0081065D01*
X0039867Y0081663D02*
X0050867Y0081663D01*
X0050867Y0082262D02*
X0039867Y0082262D01*
X0039867Y0082860D02*
X0050867Y0082860D01*
X0050867Y0083459D02*
X0039867Y0083459D01*
X0039867Y0084057D02*
X0050867Y0084057D01*
X0050867Y0084656D02*
X0039867Y0084656D01*
X0039867Y0085254D02*
X0050867Y0085254D01*
X0050867Y0085853D02*
X0039867Y0085853D01*
X0039867Y0086451D02*
X0050867Y0086451D01*
X0050867Y0087050D02*
X0039867Y0087050D01*
X0039867Y0087648D02*
X0050867Y0087648D01*
X0050867Y0088247D02*
X0039867Y0088247D01*
X0039867Y0088845D02*
X0050867Y0088845D01*
X0050867Y0089444D02*
X0039867Y0089444D01*
X0039867Y0090042D02*
X0050867Y0090042D01*
X0050867Y0090641D02*
X0039867Y0090641D01*
X0039867Y0091239D02*
X0050867Y0091239D01*
X0050867Y0091838D02*
X0039867Y0091838D01*
X0039867Y0092436D02*
X0050867Y0092436D01*
X0050867Y0093035D02*
X0039867Y0093035D01*
X0039867Y0093633D02*
X0050867Y0093633D01*
X0050867Y0094232D02*
X0039867Y0094232D01*
X0039867Y0094831D02*
X0050867Y0094831D01*
X0050867Y0095429D02*
X0039867Y0095429D01*
X0039867Y0096028D02*
X0050867Y0096028D01*
X0050867Y0096626D02*
X0039867Y0096626D01*
X0039867Y0097225D02*
X0050867Y0097225D01*
X0050867Y0097823D02*
X0039867Y0097823D01*
X0039867Y0098422D02*
X0050867Y0098422D01*
X0051279Y0099020D02*
X0039867Y0099020D01*
X0039867Y0099619D02*
X0051878Y0099619D01*
X0052476Y0100217D02*
X0039867Y0100217D01*
X0039867Y0100816D02*
X0053075Y0100816D01*
X0053673Y0101414D02*
X0039867Y0101414D01*
X0039867Y0102013D02*
X0054272Y0102013D01*
X0054870Y0102611D02*
X0039867Y0102611D01*
X0039867Y0103210D02*
X0055469Y0103210D01*
X0056067Y0103808D02*
X0039867Y0103808D01*
X0039867Y0104407D02*
X0056666Y0104407D01*
X0057264Y0105005D02*
X0039867Y0105005D01*
X0039867Y0105604D02*
X0057863Y0105604D01*
X0058461Y0106202D02*
X0039867Y0106202D01*
X0039867Y0106801D02*
X0059060Y0106801D01*
X0059658Y0107399D02*
X0039867Y0107399D01*
X0037867Y0107399D02*
X0028867Y0107399D01*
X0028867Y0107054D02*
X0028867Y0115608D01*
X0037867Y0115608D01*
X0037867Y0105608D01*
X0031156Y0105608D01*
X0031156Y0106410D01*
X0030511Y0107054D01*
X0028867Y0107054D01*
X0028867Y0107998D02*
X0037867Y0107998D01*
X0037867Y0108596D02*
X0028867Y0108596D01*
X0028867Y0109195D02*
X0037867Y0109195D01*
X0037867Y0109793D02*
X0028867Y0109793D01*
X0028867Y0110392D02*
X0037867Y0110392D01*
X0037867Y0110990D02*
X0028867Y0110990D01*
X0028867Y0111589D02*
X0037867Y0111589D01*
X0037867Y0112187D02*
X0028867Y0112187D01*
X0028867Y0112786D02*
X0037867Y0112786D01*
X0037867Y0113384D02*
X0028867Y0113384D01*
X0028867Y0113983D02*
X0037867Y0113983D01*
X0037867Y0114581D02*
X0028867Y0114581D01*
X0028867Y0115180D02*
X0037867Y0115180D01*
X0038479Y0116975D02*
X0039255Y0116975D01*
X0039867Y0115180D02*
X0069967Y0115180D01*
X0076467Y0117574D02*
X0010467Y0117574D01*
X0010467Y0118172D02*
X0076467Y0118172D01*
X0076467Y0118771D02*
X0010467Y0118771D01*
X0010467Y0119369D02*
X0076467Y0119369D01*
X0076467Y0119968D02*
X0010467Y0119968D01*
X0010467Y0120566D02*
X0076467Y0120566D01*
X0076467Y0121165D02*
X0010467Y0121165D01*
X0010467Y0121764D02*
X0076467Y0121764D01*
X0076467Y0122362D02*
X0017160Y0122362D01*
X0012574Y0122362D02*
X0010467Y0122362D01*
X0010467Y0122961D02*
X0011726Y0122961D01*
X0011127Y0123559D02*
X0010467Y0123559D01*
X0010467Y0124158D02*
X0010686Y0124158D01*
X0010640Y0128946D02*
X0010467Y0128946D01*
X0010467Y0129544D02*
X0011015Y0129544D01*
X0010467Y0130143D02*
X0011613Y0130143D01*
X0012303Y0130741D02*
X0010467Y0130741D01*
X0010467Y0131340D02*
X0013748Y0131340D01*
X0010467Y0116975D02*
X0028255Y0116975D01*
X0027656Y0116377D02*
X0010467Y0116377D01*
X0010467Y0115778D02*
X0027467Y0115778D01*
X0027467Y0115180D02*
X0010467Y0115180D01*
X0010467Y0114581D02*
X0027467Y0114581D01*
X0027467Y0113983D02*
X0010467Y0113983D01*
X0010467Y0113384D02*
X0023521Y0113384D01*
X0022712Y0112786D02*
X0010467Y0112786D01*
X0010467Y0112187D02*
X0022155Y0112187D01*
X0021907Y0111589D02*
X0010467Y0111589D01*
X0010467Y0110990D02*
X0021659Y0110990D01*
X0021653Y0110392D02*
X0021268Y0110392D01*
X0026748Y0113384D02*
X0027467Y0113384D01*
X0030765Y0106801D02*
X0037867Y0106801D01*
X0037867Y0106202D02*
X0031156Y0106202D01*
X0031156Y0103808D02*
X0038467Y0103808D01*
X0038467Y0103210D02*
X0031156Y0103210D01*
X0031156Y0102611D02*
X0038467Y0102611D01*
X0038467Y0102013D02*
X0031156Y0102013D01*
X0031156Y0101414D02*
X0038467Y0101414D01*
X0038467Y0100816D02*
X0031156Y0100816D01*
X0031156Y0100217D02*
X0038467Y0100217D01*
X0038467Y0099619D02*
X0031156Y0099619D01*
X0031156Y0099020D02*
X0038467Y0099020D01*
X0038467Y0098422D02*
X0030772Y0098422D01*
X0028200Y0096626D02*
X0038467Y0096626D01*
X0038467Y0096028D02*
X0028448Y0096028D01*
X0028615Y0095429D02*
X0038467Y0095429D01*
X0038467Y0094831D02*
X0028615Y0094831D01*
X0028613Y0094232D02*
X0038467Y0094232D01*
X0038467Y0093633D02*
X0028365Y0093633D01*
X0028117Y0093035D02*
X0038467Y0093035D01*
X0038467Y0092436D02*
X0027563Y0092436D01*
X0026765Y0091838D02*
X0038467Y0091838D01*
X0038467Y0091239D02*
X0010467Y0091239D01*
X0010467Y0090641D02*
X0038467Y0090641D01*
X0038467Y0090042D02*
X0010467Y0090042D01*
X0010467Y0089444D02*
X0038467Y0089444D01*
X0038467Y0088845D02*
X0010467Y0088845D01*
X0010467Y0088247D02*
X0038467Y0088247D01*
X0038467Y0087648D02*
X0010467Y0087648D01*
X0010467Y0087050D02*
X0038467Y0087050D01*
X0038467Y0086451D02*
X0010467Y0086451D01*
X0010467Y0085853D02*
X0038467Y0085853D01*
X0038467Y0085254D02*
X0010467Y0085254D01*
X0010467Y0084656D02*
X0038467Y0084656D01*
X0038467Y0084057D02*
X0010467Y0084057D01*
X0010467Y0083459D02*
X0038467Y0083459D01*
X0038467Y0082860D02*
X0010467Y0082860D01*
X0010467Y0082262D02*
X0038467Y0082262D01*
X0038467Y0081663D02*
X0010467Y0081663D01*
X0010467Y0081065D02*
X0038344Y0081065D01*
X0037745Y0080466D02*
X0010467Y0080466D01*
X0010467Y0079868D02*
X0037147Y0079868D01*
X0036548Y0079269D02*
X0010467Y0079269D01*
X0010467Y0078671D02*
X0035950Y0078671D01*
X0035351Y0078072D02*
X0010467Y0078072D01*
X0010467Y0077474D02*
X0034753Y0077474D01*
X0034154Y0076875D02*
X0010467Y0076875D01*
X0010467Y0076277D02*
X0033556Y0076277D01*
X0032957Y0075678D02*
X0010467Y0075678D01*
X0010467Y0075080D02*
X0032359Y0075080D01*
X0031760Y0074481D02*
X0010467Y0074481D01*
X0010467Y0091838D02*
X0023504Y0091838D01*
X0022705Y0092436D02*
X0010467Y0092436D01*
X0010467Y0093035D02*
X0022152Y0093035D01*
X0021904Y0093633D02*
X0010467Y0093633D01*
X0010467Y0094232D02*
X0021656Y0094232D01*
X0021653Y0094831D02*
X0021314Y0094831D01*
X0027165Y0097823D02*
X0038467Y0097823D01*
X0038467Y0097225D02*
X0027763Y0097225D01*
X0012498Y0094831D02*
X0010467Y0094831D01*
X0010467Y0095429D02*
X0012066Y0095429D01*
X0012066Y0096028D02*
X0010467Y0096028D01*
X0010467Y0096626D02*
X0012066Y0096626D01*
X0012066Y0097225D02*
X0010467Y0097225D01*
X0010467Y0097823D02*
X0012066Y0097823D01*
X0012066Y0098422D02*
X0010467Y0098422D01*
X0010467Y0099020D02*
X0012066Y0099020D01*
X0012066Y0099619D02*
X0010467Y0099619D01*
X0010467Y0100217D02*
X0012066Y0100217D01*
X0012066Y0100816D02*
X0010467Y0100816D01*
X0010467Y0101414D02*
X0012066Y0101414D01*
X0012066Y0102013D02*
X0010467Y0102013D01*
X0010467Y0102611D02*
X0012552Y0102611D01*
X0012027Y0103210D02*
X0010467Y0103210D01*
X0010467Y0103808D02*
X0012027Y0103808D01*
X0012027Y0104407D02*
X0010467Y0104407D01*
X0010467Y0105005D02*
X0012027Y0105005D01*
X0012027Y0105604D02*
X0010467Y0105604D01*
X0010467Y0106202D02*
X0012027Y0106202D01*
X0012027Y0106801D02*
X0010467Y0106801D01*
X0010467Y0107399D02*
X0012027Y0107399D01*
X0012027Y0107998D02*
X0010467Y0107998D01*
X0010467Y0108596D02*
X0012027Y0108596D01*
X0012027Y0109195D02*
X0010467Y0109195D01*
X0010467Y0109793D02*
X0012027Y0109793D01*
X0012465Y0110392D02*
X0010467Y0110392D01*
X0027253Y0122961D02*
X0076467Y0122961D01*
X0076467Y0123559D02*
X0028333Y0123559D01*
X0028932Y0124158D02*
X0076467Y0124158D01*
X0076467Y0124756D02*
X0029530Y0124756D01*
X0056408Y0096028D02*
X0056995Y0096028D01*
X0056995Y0095429D02*
X0056367Y0095429D01*
X0056367Y0094831D02*
X0056995Y0094831D01*
X0057096Y0094232D02*
X0056367Y0094232D01*
X0056367Y0093633D02*
X0074367Y0093633D01*
X0074367Y0093035D02*
X0070586Y0093035D01*
X0070738Y0092882D02*
X0070094Y0093527D01*
X0065639Y0093527D01*
X0064995Y0092882D01*
X0064995Y0089215D01*
X0065639Y0088571D01*
X0066367Y0088571D01*
X0066367Y0088204D01*
X0065049Y0088204D01*
X0064404Y0087559D01*
X0064404Y0081924D01*
X0065049Y0081279D01*
X0070684Y0081279D01*
X0071329Y0081924D01*
X0071329Y0087559D01*
X0070684Y0088204D01*
X0069367Y0088204D01*
X0069367Y0088571D01*
X0070094Y0088571D01*
X0070738Y0089215D01*
X0070738Y0092882D01*
X0070738Y0092436D02*
X0074367Y0092436D01*
X0074367Y0091838D02*
X0070738Y0091838D01*
X0070738Y0091239D02*
X0074367Y0091239D01*
X0074367Y0090641D02*
X0070738Y0090641D01*
X0070738Y0090042D02*
X0074367Y0090042D01*
X0074367Y0089444D02*
X0070738Y0089444D01*
X0070369Y0088845D02*
X0074367Y0088845D01*
X0074367Y0088247D02*
X0069367Y0088247D01*
X0071240Y0087648D02*
X0074367Y0087648D01*
X0074367Y0087050D02*
X0071329Y0087050D01*
X0071329Y0086451D02*
X0074367Y0086451D01*
X0074367Y0085853D02*
X0071329Y0085853D01*
X0071329Y0085254D02*
X0074367Y0085254D01*
X0074367Y0084656D02*
X0071329Y0084656D01*
X0071329Y0084057D02*
X0074367Y0084057D01*
X0074367Y0083459D02*
X0071329Y0083459D01*
X0071329Y0082860D02*
X0074367Y0082860D01*
X0074367Y0082262D02*
X0071329Y0082262D01*
X0071068Y0081663D02*
X0074367Y0081663D01*
X0074367Y0081065D02*
X0056367Y0081065D01*
X0056367Y0081663D02*
X0056665Y0081663D01*
X0056404Y0081924D02*
X0057049Y0081279D01*
X0062684Y0081279D01*
X0063329Y0081924D01*
X0063329Y0087559D01*
X0062684Y0088204D01*
X0061367Y0088204D01*
X0061367Y0088571D01*
X0062094Y0088571D01*
X0062738Y0089215D01*
X0062738Y0092882D01*
X0062094Y0093527D01*
X0057639Y0093527D01*
X0056995Y0092882D01*
X0056995Y0089215D01*
X0057639Y0088571D01*
X0058367Y0088571D01*
X0058367Y0088204D01*
X0057049Y0088204D01*
X0056404Y0087559D01*
X0056404Y0081924D01*
X0056404Y0082262D02*
X0056367Y0082262D01*
X0056367Y0082860D02*
X0056404Y0082860D01*
X0056404Y0083459D02*
X0056367Y0083459D01*
X0056367Y0084057D02*
X0056404Y0084057D01*
X0056404Y0084656D02*
X0056367Y0084656D01*
X0056367Y0085254D02*
X0056404Y0085254D01*
X0056404Y0085853D02*
X0056367Y0085853D01*
X0056367Y0086451D02*
X0056404Y0086451D01*
X0056404Y0087050D02*
X0056367Y0087050D01*
X0056367Y0087648D02*
X0056493Y0087648D01*
X0056367Y0088247D02*
X0058367Y0088247D01*
X0057365Y0088845D02*
X0056367Y0088845D01*
X0056367Y0089444D02*
X0056995Y0089444D01*
X0056995Y0090042D02*
X0056367Y0090042D01*
X0056367Y0090641D02*
X0056995Y0090641D01*
X0056995Y0091239D02*
X0056367Y0091239D01*
X0056367Y0091838D02*
X0056995Y0091838D01*
X0056995Y0092436D02*
X0056367Y0092436D01*
X0056367Y0093035D02*
X0057148Y0093035D01*
X0062586Y0093035D02*
X0065148Y0093035D01*
X0064995Y0092436D02*
X0062738Y0092436D01*
X0062738Y0091838D02*
X0064995Y0091838D01*
X0064995Y0091239D02*
X0062738Y0091239D01*
X0062738Y0090641D02*
X0064995Y0090641D01*
X0064995Y0090042D02*
X0062738Y0090042D01*
X0062738Y0089444D02*
X0064995Y0089444D01*
X0065365Y0088845D02*
X0062369Y0088845D01*
X0061367Y0088247D02*
X0066367Y0088247D01*
X0064493Y0087648D02*
X0063240Y0087648D01*
X0063329Y0087050D02*
X0064404Y0087050D01*
X0064404Y0086451D02*
X0063329Y0086451D01*
X0063329Y0085853D02*
X0064404Y0085853D01*
X0064404Y0085254D02*
X0063329Y0085254D01*
X0063329Y0084656D02*
X0064404Y0084656D01*
X0064404Y0084057D02*
X0063329Y0084057D01*
X0063329Y0083459D02*
X0064404Y0083459D01*
X0064404Y0082860D02*
X0063329Y0082860D01*
X0063329Y0082262D02*
X0064404Y0082262D01*
X0064665Y0081663D02*
X0063068Y0081663D01*
X0062753Y0079868D02*
X0064981Y0079868D01*
X0064404Y0079269D02*
X0063329Y0079269D01*
X0063329Y0078671D02*
X0064404Y0078671D01*
X0064404Y0074481D02*
X0063329Y0074481D01*
X0063329Y0073883D02*
X0064404Y0073883D01*
X0064776Y0073284D02*
X0062957Y0073284D01*
X0070629Y0063109D02*
X0073247Y0063109D01*
X0072649Y0062511D02*
X0070738Y0062511D01*
X0070738Y0061912D02*
X0072367Y0061912D01*
X0072367Y0061314D02*
X0070738Y0061314D01*
X0070738Y0060715D02*
X0072367Y0060715D01*
X0072367Y0060117D02*
X0070738Y0060117D01*
X0070738Y0059518D02*
X0072367Y0059518D01*
X0072367Y0058920D02*
X0070325Y0058920D01*
X0070299Y0058321D02*
X0072367Y0058321D01*
X0071860Y0057723D02*
X0070738Y0057723D01*
X0070738Y0057124D02*
X0071262Y0057124D01*
X0073111Y0054730D02*
X0076367Y0054730D01*
X0076367Y0054132D02*
X0072512Y0054132D01*
X0073709Y0055329D02*
X0076367Y0055329D01*
X0076367Y0055927D02*
X0074308Y0055927D01*
X0074906Y0056526D02*
X0076367Y0056526D01*
X0076367Y0057124D02*
X0075367Y0057124D01*
X0075367Y0057723D02*
X0076367Y0057723D01*
X0076367Y0058321D02*
X0075367Y0058321D01*
X0075367Y0058920D02*
X0076367Y0058920D01*
X0076367Y0059518D02*
X0075367Y0059518D01*
X0075367Y0060117D02*
X0076367Y0060117D01*
X0076367Y0060715D02*
X0075367Y0060715D01*
X0075694Y0061314D02*
X0076367Y0061314D01*
X0076367Y0061912D02*
X0076293Y0061912D01*
X0076367Y0053533D02*
X0069367Y0053533D01*
X0069367Y0052935D02*
X0076367Y0052935D01*
X0076367Y0052336D02*
X0069367Y0052336D01*
X0069367Y0051738D02*
X0076367Y0051738D01*
X0076367Y0051139D02*
X0069367Y0051139D01*
X0069367Y0050541D02*
X0076367Y0050541D01*
X0076367Y0049942D02*
X0069367Y0049942D01*
X0069367Y0049344D02*
X0076367Y0049344D01*
X0076367Y0048745D02*
X0069367Y0048745D01*
X0069452Y0048147D02*
X0076282Y0048147D01*
X0075019Y0047548D02*
X0070714Y0047548D01*
X0071313Y0046950D02*
X0074420Y0046950D01*
X0073822Y0046351D02*
X0071911Y0046351D01*
X0072174Y0045753D02*
X0073560Y0045753D01*
X0073312Y0045154D02*
X0072422Y0045154D01*
X0072667Y0044556D02*
X0073067Y0044556D01*
X0073067Y0043957D02*
X0072667Y0043957D01*
X0072667Y0043359D02*
X0073067Y0043359D01*
X0073067Y0042760D02*
X0072667Y0042760D01*
X0072463Y0042162D02*
X0073270Y0042162D01*
X0073518Y0041563D02*
X0072215Y0041563D01*
X0071967Y0040964D02*
X0073766Y0040964D01*
X0074320Y0040366D02*
X0071413Y0040366D01*
X0070815Y0039767D02*
X0074919Y0039767D01*
X0076040Y0039169D02*
X0069694Y0039169D01*
X0069567Y0038570D02*
X0076167Y0038570D01*
X0076121Y0037972D02*
X0069612Y0037972D01*
X0070748Y0037373D02*
X0074986Y0037373D01*
X0074387Y0036775D02*
X0071346Y0036775D01*
X0071890Y0036176D02*
X0073843Y0036176D01*
X0073596Y0035578D02*
X0072138Y0035578D01*
X0072386Y0034979D02*
X0073348Y0034979D01*
X0073167Y0034381D02*
X0072567Y0034381D01*
X0072567Y0033782D02*
X0073167Y0033782D01*
X0073167Y0033184D02*
X0072567Y0033184D01*
X0072530Y0032585D02*
X0073203Y0032585D01*
X0073451Y0031987D02*
X0072283Y0031987D01*
X0072035Y0031388D02*
X0073699Y0031388D01*
X0074038Y0030790D02*
X0071696Y0030790D01*
X0071097Y0030191D02*
X0074636Y0030191D01*
X0075278Y0029593D02*
X0070456Y0029593D01*
X0069011Y0028994D02*
X0076723Y0028994D01*
X0066723Y0028994D02*
X0049011Y0028994D01*
X0050456Y0029593D02*
X0065278Y0029593D01*
X0064636Y0030191D02*
X0051097Y0030191D01*
X0051696Y0030790D02*
X0064038Y0030790D01*
X0063699Y0031388D02*
X0052035Y0031388D01*
X0052283Y0031987D02*
X0063451Y0031987D01*
X0063203Y0032585D02*
X0052530Y0032585D01*
X0052567Y0033184D02*
X0063167Y0033184D01*
X0063167Y0033782D02*
X0052567Y0033782D01*
X0052567Y0034381D02*
X0063167Y0034381D01*
X0063348Y0034979D02*
X0052386Y0034979D01*
X0052138Y0035578D02*
X0063596Y0035578D01*
X0063843Y0036176D02*
X0051890Y0036176D01*
X0051346Y0036775D02*
X0064387Y0036775D01*
X0064986Y0037373D02*
X0050748Y0037373D01*
X0049612Y0037972D02*
X0066121Y0037972D01*
X0066167Y0038570D02*
X0049567Y0038570D01*
X0049694Y0039169D02*
X0066040Y0039169D01*
X0064919Y0039767D02*
X0050815Y0039767D01*
X0051413Y0040366D02*
X0064320Y0040366D01*
X0063766Y0040964D02*
X0051967Y0040964D01*
X0052215Y0041563D02*
X0063518Y0041563D01*
X0063270Y0042162D02*
X0052463Y0042162D01*
X0052667Y0042760D02*
X0063067Y0042760D01*
X0063067Y0043359D02*
X0052667Y0043359D01*
X0052667Y0043957D02*
X0063067Y0043957D01*
X0063067Y0044556D02*
X0052667Y0044556D01*
X0052422Y0045154D02*
X0063312Y0045154D01*
X0063560Y0045753D02*
X0052174Y0045753D01*
X0051911Y0046351D02*
X0063822Y0046351D01*
X0064420Y0046950D02*
X0051313Y0046950D01*
X0050714Y0047548D02*
X0065019Y0047548D01*
X0063981Y0048147D02*
X0066282Y0048147D01*
X0066367Y0048745D02*
X0064823Y0048745D01*
X0065266Y0049344D02*
X0066367Y0049344D01*
X0066367Y0049942D02*
X0065513Y0049942D01*
X0065567Y0050541D02*
X0066367Y0050541D01*
X0066367Y0051139D02*
X0065567Y0051139D01*
X0065321Y0051738D02*
X0066367Y0051738D01*
X0066367Y0052336D02*
X0064956Y0052336D01*
X0064467Y0052935D02*
X0066367Y0052935D01*
X0066367Y0053533D02*
X0064467Y0053533D01*
X0064467Y0054132D02*
X0065078Y0054132D01*
X0064995Y0054730D02*
X0064467Y0054730D01*
X0064467Y0055329D02*
X0064995Y0055329D01*
X0064995Y0055927D02*
X0064467Y0055927D01*
X0064467Y0056526D02*
X0064995Y0056526D01*
X0064995Y0057124D02*
X0064467Y0057124D01*
X0064467Y0057723D02*
X0064995Y0057723D01*
X0065434Y0058321D02*
X0064467Y0058321D01*
X0064467Y0058920D02*
X0065408Y0058920D01*
X0084367Y0058321D02*
X0085434Y0058321D01*
X0084995Y0057723D02*
X0084873Y0057723D01*
X0074367Y0094232D02*
X0070637Y0094232D01*
X0070738Y0094831D02*
X0074367Y0094831D01*
X0074367Y0095429D02*
X0070738Y0095429D01*
X0070738Y0096028D02*
X0074367Y0096028D01*
X0074367Y0096626D02*
X0070738Y0096626D01*
X0071046Y0097225D02*
X0074367Y0097225D01*
X0074367Y0097823D02*
X0071644Y0097823D01*
X0072243Y0098422D02*
X0074367Y0098422D01*
X0074367Y0099020D02*
X0072841Y0099020D01*
X0073440Y0099619D02*
X0074756Y0099619D01*
X0075355Y0100217D02*
X0074038Y0100217D01*
X0074637Y0100816D02*
X0075953Y0100816D01*
X0072190Y0102611D02*
X0068432Y0102611D01*
X0067834Y0102013D02*
X0071591Y0102013D01*
X0070993Y0101414D02*
X0067235Y0101414D01*
X0066637Y0100816D02*
X0070394Y0100816D01*
X0069796Y0100217D02*
X0066038Y0100217D01*
X0065440Y0099619D02*
X0069197Y0099619D01*
X0068599Y0099020D02*
X0064841Y0099020D01*
X0065416Y0098422D02*
X0064243Y0098422D01*
X0063644Y0097823D02*
X0064995Y0097823D01*
X0064995Y0097225D02*
X0063046Y0097225D01*
X0062738Y0096626D02*
X0064995Y0096626D01*
X0064995Y0096028D02*
X0062738Y0096028D01*
X0062738Y0095429D02*
X0064995Y0095429D01*
X0064995Y0094831D02*
X0062738Y0094831D01*
X0062637Y0094232D02*
X0065096Y0094232D01*
X0082867Y0098608D02*
X0092467Y0098608D01*
X0092467Y0101188D01*
X0092867Y0101588D01*
X0092867Y0101628D01*
X0092467Y0102028D01*
X0092467Y0106188D01*
X0092867Y0106588D01*
X0092867Y0108208D01*
X0089287Y0108208D01*
X0088887Y0108608D01*
X0086847Y0108608D01*
X0086447Y0108208D01*
X0084447Y0108208D01*
X0082867Y0106628D01*
X0082867Y0098608D01*
X0082867Y0099020D02*
X0092467Y0099020D01*
X0092467Y0099619D02*
X0082867Y0099619D01*
X0082867Y0100217D02*
X0092467Y0100217D01*
X0092467Y0100816D02*
X0082867Y0100816D01*
X0082867Y0101414D02*
X0092693Y0101414D01*
X0092482Y0102013D02*
X0082867Y0102013D01*
X0082867Y0102611D02*
X0092467Y0102611D01*
X0092467Y0103210D02*
X0082867Y0103210D01*
X0082867Y0103808D02*
X0092467Y0103808D01*
X0092467Y0104407D02*
X0082867Y0104407D01*
X0082867Y0105005D02*
X0092467Y0105005D01*
X0092467Y0105604D02*
X0082867Y0105604D01*
X0082867Y0106202D02*
X0092481Y0106202D01*
X0092867Y0106801D02*
X0083040Y0106801D01*
X0083638Y0107399D02*
X0092867Y0107399D01*
X0092867Y0107998D02*
X0084237Y0107998D01*
X0084597Y0110392D02*
X0085231Y0110392D01*
X0085231Y0110990D02*
X0084597Y0110990D01*
X0084597Y0111589D02*
X0085231Y0111589D01*
X0085231Y0112187D02*
X0084597Y0112187D01*
X0084597Y0112786D02*
X0085231Y0112786D01*
X0085282Y0113384D02*
X0084401Y0113384D01*
X0083867Y0113983D02*
X0085282Y0113983D01*
X0085282Y0114581D02*
X0083867Y0114581D01*
X0083867Y0115180D02*
X0085282Y0115180D01*
X0085282Y0115778D02*
X0083696Y0115778D01*
X0083097Y0116377D02*
X0085282Y0116377D01*
X0090351Y0116377D02*
X0092467Y0116377D01*
X0092467Y0116975D02*
X0090351Y0116975D01*
X0090351Y0117574D02*
X0092853Y0117574D01*
X0093452Y0118172D02*
X0090553Y0118172D01*
X0091151Y0118771D02*
X0094050Y0118771D01*
X0094649Y0119369D02*
X0091750Y0119369D01*
X0092348Y0119968D02*
X0095247Y0119968D01*
X0098214Y0116975D02*
X0115467Y0116975D01*
X0115467Y0116377D02*
X0097616Y0116377D01*
X0097017Y0115778D02*
X0115467Y0115778D01*
X0115467Y0115180D02*
X0096419Y0115180D01*
X0095820Y0114581D02*
X0115467Y0114581D01*
X0115467Y0113983D02*
X0095267Y0113983D01*
X0095267Y0113384D02*
X0115467Y0113384D01*
X0115467Y0112786D02*
X0095267Y0112786D01*
X0095267Y0112187D02*
X0115467Y0112187D01*
X0115467Y0111589D02*
X0095267Y0111589D01*
X0095267Y0110990D02*
X0115467Y0110990D01*
X0115467Y0110392D02*
X0095267Y0110392D01*
X0094835Y0108596D02*
X0097875Y0108596D01*
X0094282Y0104407D02*
X0131666Y0104407D01*
X0131067Y0103808D02*
X0094282Y0103808D01*
X0094282Y0103210D02*
X0130469Y0103210D01*
X0129870Y0102611D02*
X0094282Y0102611D01*
X0088898Y0108596D02*
X0086835Y0108596D01*
X0090502Y0110392D02*
X0092467Y0110392D01*
X0092467Y0110990D02*
X0090502Y0110990D01*
X0090502Y0111589D02*
X0092467Y0111589D01*
X0092467Y0112187D02*
X0090502Y0112187D01*
X0090502Y0112786D02*
X0092467Y0112786D01*
X0092467Y0113384D02*
X0090351Y0113384D01*
X0090351Y0113983D02*
X0092467Y0113983D01*
X0092467Y0114581D02*
X0090351Y0114581D01*
X0090351Y0115180D02*
X0092467Y0115180D01*
X0092467Y0115778D02*
X0090351Y0115778D01*
X0092488Y0120108D02*
X0092488Y0120108D01*
X0088467Y0126552D02*
X0085267Y0126552D01*
X0085267Y0127150D02*
X0088467Y0127150D01*
X0088467Y0127749D02*
X0085267Y0127749D01*
X0085267Y0128347D02*
X0088467Y0128347D01*
X0088467Y0128946D02*
X0085267Y0128946D01*
X0084910Y0129544D02*
X0088467Y0129544D01*
X0088467Y0130143D02*
X0084767Y0130143D01*
X0084767Y0130741D02*
X0088467Y0130741D01*
X0088619Y0131340D02*
X0084767Y0131340D01*
X0084767Y0131938D02*
X0089217Y0131938D01*
X0089816Y0132537D02*
X0084703Y0132537D01*
X0084455Y0133135D02*
X0090414Y0133135D01*
X0099411Y0118172D02*
X0115467Y0118172D01*
X0115467Y0117574D02*
X0098813Y0117574D01*
X0108207Y0119968D02*
X0108526Y0119968D01*
X0108447Y0120208D02*
X0108447Y0120208D01*
X0137716Y0064905D02*
X0138018Y0064905D01*
X0137948Y0064306D02*
X0137786Y0064306D01*
X0137786Y0063708D02*
X0137948Y0063708D01*
X0137948Y0063109D02*
X0137786Y0063109D01*
X0137786Y0062511D02*
X0137948Y0062511D01*
X0137948Y0061912D02*
X0137786Y0061912D01*
X0137786Y0061314D02*
X0137948Y0061314D01*
X0137948Y0060715D02*
X0137786Y0060715D01*
X0137522Y0060117D02*
X0138211Y0060117D01*
X0136808Y0059518D02*
X0156835Y0059518D01*
X0157433Y0058920D02*
X0136808Y0058920D01*
X0136808Y0058321D02*
X0158032Y0058321D01*
X0158630Y0057723D02*
X0136808Y0057723D01*
X0137786Y0055927D02*
X0185267Y0055927D01*
X0185267Y0055329D02*
X0137786Y0055329D01*
X0137786Y0054730D02*
X0185267Y0054730D01*
X0185267Y0054132D02*
X0137786Y0054132D01*
X0137786Y0053533D02*
X0185267Y0053533D01*
X0185267Y0052935D02*
X0137786Y0052935D01*
X0137741Y0052336D02*
X0185267Y0052336D01*
X0185267Y0051738D02*
X0137143Y0051738D01*
X0177867Y0023608D02*
X0178109Y0023611D01*
X0178350Y0023620D01*
X0178591Y0023634D01*
X0178832Y0023655D01*
X0179072Y0023681D01*
X0179312Y0023713D01*
X0179551Y0023751D01*
X0179788Y0023794D01*
X0180025Y0023844D01*
X0180260Y0023899D01*
X0180494Y0023959D01*
X0180726Y0024026D01*
X0180957Y0024097D01*
X0181186Y0024175D01*
X0181413Y0024258D01*
X0181638Y0024346D01*
X0181861Y0024440D01*
X0182081Y0024539D01*
X0182299Y0024644D01*
X0182514Y0024753D01*
X0182727Y0024868D01*
X0182937Y0024988D01*
X0183143Y0025113D01*
X0183347Y0025243D01*
X0183548Y0025378D01*
X0183745Y0025518D01*
X0183939Y0025662D01*
X0184129Y0025811D01*
X0184315Y0025965D01*
X0184498Y0026123D01*
X0184677Y0026285D01*
X0184852Y0026452D01*
X0185023Y0026623D01*
X0185190Y0026798D01*
X0185352Y0026977D01*
X0185510Y0027160D01*
X0185664Y0027346D01*
X0185813Y0027536D01*
X0185957Y0027730D01*
X0186097Y0027927D01*
X0186232Y0028128D01*
X0186362Y0028332D01*
X0186487Y0028538D01*
X0186607Y0028748D01*
X0186722Y0028961D01*
X0186831Y0029176D01*
X0186936Y0029394D01*
X0187035Y0029614D01*
X0187129Y0029837D01*
X0187217Y0030062D01*
X0187300Y0030289D01*
X0187378Y0030518D01*
X0187449Y0030749D01*
X0187516Y0030981D01*
X0187576Y0031215D01*
X0187631Y0031450D01*
X0187681Y0031687D01*
X0187724Y0031924D01*
X0187762Y0032163D01*
X0187794Y0032403D01*
X0187820Y0032643D01*
X0187841Y0032884D01*
X0187855Y0033125D01*
X0187864Y0033366D01*
X0187867Y0033608D01*
D11*
X0171467Y0033608D02*
X0171469Y0033768D01*
X0171475Y0033927D01*
X0171485Y0034086D01*
X0171499Y0034245D01*
X0171517Y0034404D01*
X0171538Y0034562D01*
X0171564Y0034719D01*
X0171594Y0034876D01*
X0171627Y0035032D01*
X0171665Y0035187D01*
X0171706Y0035341D01*
X0171751Y0035494D01*
X0171800Y0035646D01*
X0171853Y0035797D01*
X0171909Y0035946D01*
X0171970Y0036094D01*
X0172033Y0036240D01*
X0172101Y0036385D01*
X0172172Y0036528D01*
X0172246Y0036669D01*
X0172324Y0036808D01*
X0172406Y0036945D01*
X0172491Y0037080D01*
X0172579Y0037213D01*
X0172671Y0037344D01*
X0172765Y0037472D01*
X0172863Y0037598D01*
X0172964Y0037722D01*
X0173068Y0037843D01*
X0173175Y0037961D01*
X0173285Y0038077D01*
X0173398Y0038190D01*
X0173514Y0038300D01*
X0173632Y0038407D01*
X0173753Y0038511D01*
X0173877Y0038612D01*
X0174003Y0038710D01*
X0174131Y0038804D01*
X0174262Y0038896D01*
X0174395Y0038984D01*
X0174530Y0039069D01*
X0174667Y0039151D01*
X0174806Y0039229D01*
X0174947Y0039303D01*
X0175090Y0039374D01*
X0175235Y0039442D01*
X0175381Y0039505D01*
X0175529Y0039566D01*
X0175678Y0039622D01*
X0175829Y0039675D01*
X0175981Y0039724D01*
X0176134Y0039769D01*
X0176288Y0039810D01*
X0176443Y0039848D01*
X0176599Y0039881D01*
X0176756Y0039911D01*
X0176913Y0039937D01*
X0177071Y0039958D01*
X0177230Y0039976D01*
X0177389Y0039990D01*
X0177548Y0040000D01*
X0177707Y0040006D01*
X0177867Y0040008D01*
X0178027Y0040006D01*
X0178186Y0040000D01*
X0178345Y0039990D01*
X0178504Y0039976D01*
X0178663Y0039958D01*
X0178821Y0039937D01*
X0178978Y0039911D01*
X0179135Y0039881D01*
X0179291Y0039848D01*
X0179446Y0039810D01*
X0179600Y0039769D01*
X0179753Y0039724D01*
X0179905Y0039675D01*
X0180056Y0039622D01*
X0180205Y0039566D01*
X0180353Y0039505D01*
X0180499Y0039442D01*
X0180644Y0039374D01*
X0180787Y0039303D01*
X0180928Y0039229D01*
X0181067Y0039151D01*
X0181204Y0039069D01*
X0181339Y0038984D01*
X0181472Y0038896D01*
X0181603Y0038804D01*
X0181731Y0038710D01*
X0181857Y0038612D01*
X0181981Y0038511D01*
X0182102Y0038407D01*
X0182220Y0038300D01*
X0182336Y0038190D01*
X0182449Y0038077D01*
X0182559Y0037961D01*
X0182666Y0037843D01*
X0182770Y0037722D01*
X0182871Y0037598D01*
X0182969Y0037472D01*
X0183063Y0037344D01*
X0183155Y0037213D01*
X0183243Y0037080D01*
X0183328Y0036945D01*
X0183410Y0036808D01*
X0183488Y0036669D01*
X0183562Y0036528D01*
X0183633Y0036385D01*
X0183701Y0036240D01*
X0183764Y0036094D01*
X0183825Y0035946D01*
X0183881Y0035797D01*
X0183934Y0035646D01*
X0183983Y0035494D01*
X0184028Y0035341D01*
X0184069Y0035187D01*
X0184107Y0035032D01*
X0184140Y0034876D01*
X0184170Y0034719D01*
X0184196Y0034562D01*
X0184217Y0034404D01*
X0184235Y0034245D01*
X0184249Y0034086D01*
X0184259Y0033927D01*
X0184265Y0033768D01*
X0184267Y0033608D01*
X0184265Y0033448D01*
X0184259Y0033289D01*
X0184249Y0033130D01*
X0184235Y0032971D01*
X0184217Y0032812D01*
X0184196Y0032654D01*
X0184170Y0032497D01*
X0184140Y0032340D01*
X0184107Y0032184D01*
X0184069Y0032029D01*
X0184028Y0031875D01*
X0183983Y0031722D01*
X0183934Y0031570D01*
X0183881Y0031419D01*
X0183825Y0031270D01*
X0183764Y0031122D01*
X0183701Y0030976D01*
X0183633Y0030831D01*
X0183562Y0030688D01*
X0183488Y0030547D01*
X0183410Y0030408D01*
X0183328Y0030271D01*
X0183243Y0030136D01*
X0183155Y0030003D01*
X0183063Y0029872D01*
X0182969Y0029744D01*
X0182871Y0029618D01*
X0182770Y0029494D01*
X0182666Y0029373D01*
X0182559Y0029255D01*
X0182449Y0029139D01*
X0182336Y0029026D01*
X0182220Y0028916D01*
X0182102Y0028809D01*
X0181981Y0028705D01*
X0181857Y0028604D01*
X0181731Y0028506D01*
X0181603Y0028412D01*
X0181472Y0028320D01*
X0181339Y0028232D01*
X0181204Y0028147D01*
X0181067Y0028065D01*
X0180928Y0027987D01*
X0180787Y0027913D01*
X0180644Y0027842D01*
X0180499Y0027774D01*
X0180353Y0027711D01*
X0180205Y0027650D01*
X0180056Y0027594D01*
X0179905Y0027541D01*
X0179753Y0027492D01*
X0179600Y0027447D01*
X0179446Y0027406D01*
X0179291Y0027368D01*
X0179135Y0027335D01*
X0178978Y0027305D01*
X0178821Y0027279D01*
X0178663Y0027258D01*
X0178504Y0027240D01*
X0178345Y0027226D01*
X0178186Y0027216D01*
X0178027Y0027210D01*
X0177867Y0027208D01*
X0177707Y0027210D01*
X0177548Y0027216D01*
X0177389Y0027226D01*
X0177230Y0027240D01*
X0177071Y0027258D01*
X0176913Y0027279D01*
X0176756Y0027305D01*
X0176599Y0027335D01*
X0176443Y0027368D01*
X0176288Y0027406D01*
X0176134Y0027447D01*
X0175981Y0027492D01*
X0175829Y0027541D01*
X0175678Y0027594D01*
X0175529Y0027650D01*
X0175381Y0027711D01*
X0175235Y0027774D01*
X0175090Y0027842D01*
X0174947Y0027913D01*
X0174806Y0027987D01*
X0174667Y0028065D01*
X0174530Y0028147D01*
X0174395Y0028232D01*
X0174262Y0028320D01*
X0174131Y0028412D01*
X0174003Y0028506D01*
X0173877Y0028604D01*
X0173753Y0028705D01*
X0173632Y0028809D01*
X0173514Y0028916D01*
X0173398Y0029026D01*
X0173285Y0029139D01*
X0173175Y0029255D01*
X0173068Y0029373D01*
X0172964Y0029494D01*
X0172863Y0029618D01*
X0172765Y0029744D01*
X0172671Y0029872D01*
X0172579Y0030003D01*
X0172491Y0030136D01*
X0172406Y0030271D01*
X0172324Y0030408D01*
X0172246Y0030547D01*
X0172172Y0030688D01*
X0172101Y0030831D01*
X0172033Y0030976D01*
X0171970Y0031122D01*
X0171909Y0031270D01*
X0171853Y0031419D01*
X0171800Y0031570D01*
X0171751Y0031722D01*
X0171706Y0031875D01*
X0171665Y0032029D01*
X0171627Y0032184D01*
X0171594Y0032340D01*
X0171564Y0032497D01*
X0171538Y0032654D01*
X0171517Y0032812D01*
X0171499Y0032971D01*
X0171485Y0033130D01*
X0171475Y0033289D01*
X0171469Y0033448D01*
X0171467Y0033608D01*
X0023953Y0094930D02*
X0023955Y0094999D01*
X0023961Y0095067D01*
X0023971Y0095135D01*
X0023985Y0095202D01*
X0024003Y0095269D01*
X0024024Y0095334D01*
X0024050Y0095398D01*
X0024079Y0095460D01*
X0024111Y0095520D01*
X0024147Y0095579D01*
X0024187Y0095635D01*
X0024229Y0095689D01*
X0024275Y0095740D01*
X0024324Y0095789D01*
X0024375Y0095835D01*
X0024429Y0095877D01*
X0024485Y0095917D01*
X0024543Y0095953D01*
X0024604Y0095985D01*
X0024666Y0096014D01*
X0024730Y0096040D01*
X0024795Y0096061D01*
X0024862Y0096079D01*
X0024929Y0096093D01*
X0024997Y0096103D01*
X0025065Y0096109D01*
X0025134Y0096111D01*
X0025203Y0096109D01*
X0025271Y0096103D01*
X0025339Y0096093D01*
X0025406Y0096079D01*
X0025473Y0096061D01*
X0025538Y0096040D01*
X0025602Y0096014D01*
X0025664Y0095985D01*
X0025724Y0095953D01*
X0025783Y0095917D01*
X0025839Y0095877D01*
X0025893Y0095835D01*
X0025944Y0095789D01*
X0025993Y0095740D01*
X0026039Y0095689D01*
X0026081Y0095635D01*
X0026121Y0095579D01*
X0026157Y0095520D01*
X0026189Y0095460D01*
X0026218Y0095398D01*
X0026244Y0095334D01*
X0026265Y0095269D01*
X0026283Y0095202D01*
X0026297Y0095135D01*
X0026307Y0095067D01*
X0026313Y0094999D01*
X0026315Y0094930D01*
X0026313Y0094861D01*
X0026307Y0094793D01*
X0026297Y0094725D01*
X0026283Y0094658D01*
X0026265Y0094591D01*
X0026244Y0094526D01*
X0026218Y0094462D01*
X0026189Y0094400D01*
X0026157Y0094339D01*
X0026121Y0094281D01*
X0026081Y0094225D01*
X0026039Y0094171D01*
X0025993Y0094120D01*
X0025944Y0094071D01*
X0025893Y0094025D01*
X0025839Y0093983D01*
X0025783Y0093943D01*
X0025725Y0093907D01*
X0025664Y0093875D01*
X0025602Y0093846D01*
X0025538Y0093820D01*
X0025473Y0093799D01*
X0025406Y0093781D01*
X0025339Y0093767D01*
X0025271Y0093757D01*
X0025203Y0093751D01*
X0025134Y0093749D01*
X0025065Y0093751D01*
X0024997Y0093757D01*
X0024929Y0093767D01*
X0024862Y0093781D01*
X0024795Y0093799D01*
X0024730Y0093820D01*
X0024666Y0093846D01*
X0024604Y0093875D01*
X0024543Y0093907D01*
X0024485Y0093943D01*
X0024429Y0093983D01*
X0024375Y0094025D01*
X0024324Y0094071D01*
X0024275Y0094120D01*
X0024229Y0094171D01*
X0024187Y0094225D01*
X0024147Y0094281D01*
X0024111Y0094339D01*
X0024079Y0094400D01*
X0024050Y0094462D01*
X0024024Y0094526D01*
X0024003Y0094591D01*
X0023985Y0094658D01*
X0023971Y0094725D01*
X0023961Y0094793D01*
X0023955Y0094861D01*
X0023953Y0094930D01*
X0023953Y0110285D02*
X0023955Y0110354D01*
X0023961Y0110422D01*
X0023971Y0110490D01*
X0023985Y0110557D01*
X0024003Y0110624D01*
X0024024Y0110689D01*
X0024050Y0110753D01*
X0024079Y0110815D01*
X0024111Y0110875D01*
X0024147Y0110934D01*
X0024187Y0110990D01*
X0024229Y0111044D01*
X0024275Y0111095D01*
X0024324Y0111144D01*
X0024375Y0111190D01*
X0024429Y0111232D01*
X0024485Y0111272D01*
X0024543Y0111308D01*
X0024604Y0111340D01*
X0024666Y0111369D01*
X0024730Y0111395D01*
X0024795Y0111416D01*
X0024862Y0111434D01*
X0024929Y0111448D01*
X0024997Y0111458D01*
X0025065Y0111464D01*
X0025134Y0111466D01*
X0025203Y0111464D01*
X0025271Y0111458D01*
X0025339Y0111448D01*
X0025406Y0111434D01*
X0025473Y0111416D01*
X0025538Y0111395D01*
X0025602Y0111369D01*
X0025664Y0111340D01*
X0025724Y0111308D01*
X0025783Y0111272D01*
X0025839Y0111232D01*
X0025893Y0111190D01*
X0025944Y0111144D01*
X0025993Y0111095D01*
X0026039Y0111044D01*
X0026081Y0110990D01*
X0026121Y0110934D01*
X0026157Y0110875D01*
X0026189Y0110815D01*
X0026218Y0110753D01*
X0026244Y0110689D01*
X0026265Y0110624D01*
X0026283Y0110557D01*
X0026297Y0110490D01*
X0026307Y0110422D01*
X0026313Y0110354D01*
X0026315Y0110285D01*
X0026313Y0110216D01*
X0026307Y0110148D01*
X0026297Y0110080D01*
X0026283Y0110013D01*
X0026265Y0109946D01*
X0026244Y0109881D01*
X0026218Y0109817D01*
X0026189Y0109755D01*
X0026157Y0109694D01*
X0026121Y0109636D01*
X0026081Y0109580D01*
X0026039Y0109526D01*
X0025993Y0109475D01*
X0025944Y0109426D01*
X0025893Y0109380D01*
X0025839Y0109338D01*
X0025783Y0109298D01*
X0025725Y0109262D01*
X0025664Y0109230D01*
X0025602Y0109201D01*
X0025538Y0109175D01*
X0025473Y0109154D01*
X0025406Y0109136D01*
X0025339Y0109122D01*
X0025271Y0109112D01*
X0025203Y0109106D01*
X0025134Y0109104D01*
X0025065Y0109106D01*
X0024997Y0109112D01*
X0024929Y0109122D01*
X0024862Y0109136D01*
X0024795Y0109154D01*
X0024730Y0109175D01*
X0024666Y0109201D01*
X0024604Y0109230D01*
X0024543Y0109262D01*
X0024485Y0109298D01*
X0024429Y0109338D01*
X0024375Y0109380D01*
X0024324Y0109426D01*
X0024275Y0109475D01*
X0024229Y0109526D01*
X0024187Y0109580D01*
X0024147Y0109636D01*
X0024111Y0109694D01*
X0024079Y0109755D01*
X0024050Y0109817D01*
X0024024Y0109881D01*
X0024003Y0109946D01*
X0023985Y0110013D01*
X0023971Y0110080D01*
X0023961Y0110148D01*
X0023955Y0110216D01*
X0023953Y0110285D01*
X0011467Y0033608D02*
X0011469Y0033768D01*
X0011475Y0033927D01*
X0011485Y0034086D01*
X0011499Y0034245D01*
X0011517Y0034404D01*
X0011538Y0034562D01*
X0011564Y0034719D01*
X0011594Y0034876D01*
X0011627Y0035032D01*
X0011665Y0035187D01*
X0011706Y0035341D01*
X0011751Y0035494D01*
X0011800Y0035646D01*
X0011853Y0035797D01*
X0011909Y0035946D01*
X0011970Y0036094D01*
X0012033Y0036240D01*
X0012101Y0036385D01*
X0012172Y0036528D01*
X0012246Y0036669D01*
X0012324Y0036808D01*
X0012406Y0036945D01*
X0012491Y0037080D01*
X0012579Y0037213D01*
X0012671Y0037344D01*
X0012765Y0037472D01*
X0012863Y0037598D01*
X0012964Y0037722D01*
X0013068Y0037843D01*
X0013175Y0037961D01*
X0013285Y0038077D01*
X0013398Y0038190D01*
X0013514Y0038300D01*
X0013632Y0038407D01*
X0013753Y0038511D01*
X0013877Y0038612D01*
X0014003Y0038710D01*
X0014131Y0038804D01*
X0014262Y0038896D01*
X0014395Y0038984D01*
X0014530Y0039069D01*
X0014667Y0039151D01*
X0014806Y0039229D01*
X0014947Y0039303D01*
X0015090Y0039374D01*
X0015235Y0039442D01*
X0015381Y0039505D01*
X0015529Y0039566D01*
X0015678Y0039622D01*
X0015829Y0039675D01*
X0015981Y0039724D01*
X0016134Y0039769D01*
X0016288Y0039810D01*
X0016443Y0039848D01*
X0016599Y0039881D01*
X0016756Y0039911D01*
X0016913Y0039937D01*
X0017071Y0039958D01*
X0017230Y0039976D01*
X0017389Y0039990D01*
X0017548Y0040000D01*
X0017707Y0040006D01*
X0017867Y0040008D01*
X0018027Y0040006D01*
X0018186Y0040000D01*
X0018345Y0039990D01*
X0018504Y0039976D01*
X0018663Y0039958D01*
X0018821Y0039937D01*
X0018978Y0039911D01*
X0019135Y0039881D01*
X0019291Y0039848D01*
X0019446Y0039810D01*
X0019600Y0039769D01*
X0019753Y0039724D01*
X0019905Y0039675D01*
X0020056Y0039622D01*
X0020205Y0039566D01*
X0020353Y0039505D01*
X0020499Y0039442D01*
X0020644Y0039374D01*
X0020787Y0039303D01*
X0020928Y0039229D01*
X0021067Y0039151D01*
X0021204Y0039069D01*
X0021339Y0038984D01*
X0021472Y0038896D01*
X0021603Y0038804D01*
X0021731Y0038710D01*
X0021857Y0038612D01*
X0021981Y0038511D01*
X0022102Y0038407D01*
X0022220Y0038300D01*
X0022336Y0038190D01*
X0022449Y0038077D01*
X0022559Y0037961D01*
X0022666Y0037843D01*
X0022770Y0037722D01*
X0022871Y0037598D01*
X0022969Y0037472D01*
X0023063Y0037344D01*
X0023155Y0037213D01*
X0023243Y0037080D01*
X0023328Y0036945D01*
X0023410Y0036808D01*
X0023488Y0036669D01*
X0023562Y0036528D01*
X0023633Y0036385D01*
X0023701Y0036240D01*
X0023764Y0036094D01*
X0023825Y0035946D01*
X0023881Y0035797D01*
X0023934Y0035646D01*
X0023983Y0035494D01*
X0024028Y0035341D01*
X0024069Y0035187D01*
X0024107Y0035032D01*
X0024140Y0034876D01*
X0024170Y0034719D01*
X0024196Y0034562D01*
X0024217Y0034404D01*
X0024235Y0034245D01*
X0024249Y0034086D01*
X0024259Y0033927D01*
X0024265Y0033768D01*
X0024267Y0033608D01*
X0024265Y0033448D01*
X0024259Y0033289D01*
X0024249Y0033130D01*
X0024235Y0032971D01*
X0024217Y0032812D01*
X0024196Y0032654D01*
X0024170Y0032497D01*
X0024140Y0032340D01*
X0024107Y0032184D01*
X0024069Y0032029D01*
X0024028Y0031875D01*
X0023983Y0031722D01*
X0023934Y0031570D01*
X0023881Y0031419D01*
X0023825Y0031270D01*
X0023764Y0031122D01*
X0023701Y0030976D01*
X0023633Y0030831D01*
X0023562Y0030688D01*
X0023488Y0030547D01*
X0023410Y0030408D01*
X0023328Y0030271D01*
X0023243Y0030136D01*
X0023155Y0030003D01*
X0023063Y0029872D01*
X0022969Y0029744D01*
X0022871Y0029618D01*
X0022770Y0029494D01*
X0022666Y0029373D01*
X0022559Y0029255D01*
X0022449Y0029139D01*
X0022336Y0029026D01*
X0022220Y0028916D01*
X0022102Y0028809D01*
X0021981Y0028705D01*
X0021857Y0028604D01*
X0021731Y0028506D01*
X0021603Y0028412D01*
X0021472Y0028320D01*
X0021339Y0028232D01*
X0021204Y0028147D01*
X0021067Y0028065D01*
X0020928Y0027987D01*
X0020787Y0027913D01*
X0020644Y0027842D01*
X0020499Y0027774D01*
X0020353Y0027711D01*
X0020205Y0027650D01*
X0020056Y0027594D01*
X0019905Y0027541D01*
X0019753Y0027492D01*
X0019600Y0027447D01*
X0019446Y0027406D01*
X0019291Y0027368D01*
X0019135Y0027335D01*
X0018978Y0027305D01*
X0018821Y0027279D01*
X0018663Y0027258D01*
X0018504Y0027240D01*
X0018345Y0027226D01*
X0018186Y0027216D01*
X0018027Y0027210D01*
X0017867Y0027208D01*
X0017707Y0027210D01*
X0017548Y0027216D01*
X0017389Y0027226D01*
X0017230Y0027240D01*
X0017071Y0027258D01*
X0016913Y0027279D01*
X0016756Y0027305D01*
X0016599Y0027335D01*
X0016443Y0027368D01*
X0016288Y0027406D01*
X0016134Y0027447D01*
X0015981Y0027492D01*
X0015829Y0027541D01*
X0015678Y0027594D01*
X0015529Y0027650D01*
X0015381Y0027711D01*
X0015235Y0027774D01*
X0015090Y0027842D01*
X0014947Y0027913D01*
X0014806Y0027987D01*
X0014667Y0028065D01*
X0014530Y0028147D01*
X0014395Y0028232D01*
X0014262Y0028320D01*
X0014131Y0028412D01*
X0014003Y0028506D01*
X0013877Y0028604D01*
X0013753Y0028705D01*
X0013632Y0028809D01*
X0013514Y0028916D01*
X0013398Y0029026D01*
X0013285Y0029139D01*
X0013175Y0029255D01*
X0013068Y0029373D01*
X0012964Y0029494D01*
X0012863Y0029618D01*
X0012765Y0029744D01*
X0012671Y0029872D01*
X0012579Y0030003D01*
X0012491Y0030136D01*
X0012406Y0030271D01*
X0012324Y0030408D01*
X0012246Y0030547D01*
X0012172Y0030688D01*
X0012101Y0030831D01*
X0012033Y0030976D01*
X0011970Y0031122D01*
X0011909Y0031270D01*
X0011853Y0031419D01*
X0011800Y0031570D01*
X0011751Y0031722D01*
X0011706Y0031875D01*
X0011665Y0032029D01*
X0011627Y0032184D01*
X0011594Y0032340D01*
X0011564Y0032497D01*
X0011538Y0032654D01*
X0011517Y0032812D01*
X0011499Y0032971D01*
X0011485Y0033130D01*
X0011475Y0033289D01*
X0011469Y0033448D01*
X0011467Y0033608D01*
X0011467Y0193608D02*
X0011469Y0193768D01*
X0011475Y0193927D01*
X0011485Y0194086D01*
X0011499Y0194245D01*
X0011517Y0194404D01*
X0011538Y0194562D01*
X0011564Y0194719D01*
X0011594Y0194876D01*
X0011627Y0195032D01*
X0011665Y0195187D01*
X0011706Y0195341D01*
X0011751Y0195494D01*
X0011800Y0195646D01*
X0011853Y0195797D01*
X0011909Y0195946D01*
X0011970Y0196094D01*
X0012033Y0196240D01*
X0012101Y0196385D01*
X0012172Y0196528D01*
X0012246Y0196669D01*
X0012324Y0196808D01*
X0012406Y0196945D01*
X0012491Y0197080D01*
X0012579Y0197213D01*
X0012671Y0197344D01*
X0012765Y0197472D01*
X0012863Y0197598D01*
X0012964Y0197722D01*
X0013068Y0197843D01*
X0013175Y0197961D01*
X0013285Y0198077D01*
X0013398Y0198190D01*
X0013514Y0198300D01*
X0013632Y0198407D01*
X0013753Y0198511D01*
X0013877Y0198612D01*
X0014003Y0198710D01*
X0014131Y0198804D01*
X0014262Y0198896D01*
X0014395Y0198984D01*
X0014530Y0199069D01*
X0014667Y0199151D01*
X0014806Y0199229D01*
X0014947Y0199303D01*
X0015090Y0199374D01*
X0015235Y0199442D01*
X0015381Y0199505D01*
X0015529Y0199566D01*
X0015678Y0199622D01*
X0015829Y0199675D01*
X0015981Y0199724D01*
X0016134Y0199769D01*
X0016288Y0199810D01*
X0016443Y0199848D01*
X0016599Y0199881D01*
X0016756Y0199911D01*
X0016913Y0199937D01*
X0017071Y0199958D01*
X0017230Y0199976D01*
X0017389Y0199990D01*
X0017548Y0200000D01*
X0017707Y0200006D01*
X0017867Y0200008D01*
X0018027Y0200006D01*
X0018186Y0200000D01*
X0018345Y0199990D01*
X0018504Y0199976D01*
X0018663Y0199958D01*
X0018821Y0199937D01*
X0018978Y0199911D01*
X0019135Y0199881D01*
X0019291Y0199848D01*
X0019446Y0199810D01*
X0019600Y0199769D01*
X0019753Y0199724D01*
X0019905Y0199675D01*
X0020056Y0199622D01*
X0020205Y0199566D01*
X0020353Y0199505D01*
X0020499Y0199442D01*
X0020644Y0199374D01*
X0020787Y0199303D01*
X0020928Y0199229D01*
X0021067Y0199151D01*
X0021204Y0199069D01*
X0021339Y0198984D01*
X0021472Y0198896D01*
X0021603Y0198804D01*
X0021731Y0198710D01*
X0021857Y0198612D01*
X0021981Y0198511D01*
X0022102Y0198407D01*
X0022220Y0198300D01*
X0022336Y0198190D01*
X0022449Y0198077D01*
X0022559Y0197961D01*
X0022666Y0197843D01*
X0022770Y0197722D01*
X0022871Y0197598D01*
X0022969Y0197472D01*
X0023063Y0197344D01*
X0023155Y0197213D01*
X0023243Y0197080D01*
X0023328Y0196945D01*
X0023410Y0196808D01*
X0023488Y0196669D01*
X0023562Y0196528D01*
X0023633Y0196385D01*
X0023701Y0196240D01*
X0023764Y0196094D01*
X0023825Y0195946D01*
X0023881Y0195797D01*
X0023934Y0195646D01*
X0023983Y0195494D01*
X0024028Y0195341D01*
X0024069Y0195187D01*
X0024107Y0195032D01*
X0024140Y0194876D01*
X0024170Y0194719D01*
X0024196Y0194562D01*
X0024217Y0194404D01*
X0024235Y0194245D01*
X0024249Y0194086D01*
X0024259Y0193927D01*
X0024265Y0193768D01*
X0024267Y0193608D01*
X0024265Y0193448D01*
X0024259Y0193289D01*
X0024249Y0193130D01*
X0024235Y0192971D01*
X0024217Y0192812D01*
X0024196Y0192654D01*
X0024170Y0192497D01*
X0024140Y0192340D01*
X0024107Y0192184D01*
X0024069Y0192029D01*
X0024028Y0191875D01*
X0023983Y0191722D01*
X0023934Y0191570D01*
X0023881Y0191419D01*
X0023825Y0191270D01*
X0023764Y0191122D01*
X0023701Y0190976D01*
X0023633Y0190831D01*
X0023562Y0190688D01*
X0023488Y0190547D01*
X0023410Y0190408D01*
X0023328Y0190271D01*
X0023243Y0190136D01*
X0023155Y0190003D01*
X0023063Y0189872D01*
X0022969Y0189744D01*
X0022871Y0189618D01*
X0022770Y0189494D01*
X0022666Y0189373D01*
X0022559Y0189255D01*
X0022449Y0189139D01*
X0022336Y0189026D01*
X0022220Y0188916D01*
X0022102Y0188809D01*
X0021981Y0188705D01*
X0021857Y0188604D01*
X0021731Y0188506D01*
X0021603Y0188412D01*
X0021472Y0188320D01*
X0021339Y0188232D01*
X0021204Y0188147D01*
X0021067Y0188065D01*
X0020928Y0187987D01*
X0020787Y0187913D01*
X0020644Y0187842D01*
X0020499Y0187774D01*
X0020353Y0187711D01*
X0020205Y0187650D01*
X0020056Y0187594D01*
X0019905Y0187541D01*
X0019753Y0187492D01*
X0019600Y0187447D01*
X0019446Y0187406D01*
X0019291Y0187368D01*
X0019135Y0187335D01*
X0018978Y0187305D01*
X0018821Y0187279D01*
X0018663Y0187258D01*
X0018504Y0187240D01*
X0018345Y0187226D01*
X0018186Y0187216D01*
X0018027Y0187210D01*
X0017867Y0187208D01*
X0017707Y0187210D01*
X0017548Y0187216D01*
X0017389Y0187226D01*
X0017230Y0187240D01*
X0017071Y0187258D01*
X0016913Y0187279D01*
X0016756Y0187305D01*
X0016599Y0187335D01*
X0016443Y0187368D01*
X0016288Y0187406D01*
X0016134Y0187447D01*
X0015981Y0187492D01*
X0015829Y0187541D01*
X0015678Y0187594D01*
X0015529Y0187650D01*
X0015381Y0187711D01*
X0015235Y0187774D01*
X0015090Y0187842D01*
X0014947Y0187913D01*
X0014806Y0187987D01*
X0014667Y0188065D01*
X0014530Y0188147D01*
X0014395Y0188232D01*
X0014262Y0188320D01*
X0014131Y0188412D01*
X0014003Y0188506D01*
X0013877Y0188604D01*
X0013753Y0188705D01*
X0013632Y0188809D01*
X0013514Y0188916D01*
X0013398Y0189026D01*
X0013285Y0189139D01*
X0013175Y0189255D01*
X0013068Y0189373D01*
X0012964Y0189494D01*
X0012863Y0189618D01*
X0012765Y0189744D01*
X0012671Y0189872D01*
X0012579Y0190003D01*
X0012491Y0190136D01*
X0012406Y0190271D01*
X0012324Y0190408D01*
X0012246Y0190547D01*
X0012172Y0190688D01*
X0012101Y0190831D01*
X0012033Y0190976D01*
X0011970Y0191122D01*
X0011909Y0191270D01*
X0011853Y0191419D01*
X0011800Y0191570D01*
X0011751Y0191722D01*
X0011706Y0191875D01*
X0011665Y0192029D01*
X0011627Y0192184D01*
X0011594Y0192340D01*
X0011564Y0192497D01*
X0011538Y0192654D01*
X0011517Y0192812D01*
X0011499Y0192971D01*
X0011485Y0193130D01*
X0011475Y0193289D01*
X0011469Y0193448D01*
X0011467Y0193608D01*
X0171467Y0193608D02*
X0171469Y0193768D01*
X0171475Y0193927D01*
X0171485Y0194086D01*
X0171499Y0194245D01*
X0171517Y0194404D01*
X0171538Y0194562D01*
X0171564Y0194719D01*
X0171594Y0194876D01*
X0171627Y0195032D01*
X0171665Y0195187D01*
X0171706Y0195341D01*
X0171751Y0195494D01*
X0171800Y0195646D01*
X0171853Y0195797D01*
X0171909Y0195946D01*
X0171970Y0196094D01*
X0172033Y0196240D01*
X0172101Y0196385D01*
X0172172Y0196528D01*
X0172246Y0196669D01*
X0172324Y0196808D01*
X0172406Y0196945D01*
X0172491Y0197080D01*
X0172579Y0197213D01*
X0172671Y0197344D01*
X0172765Y0197472D01*
X0172863Y0197598D01*
X0172964Y0197722D01*
X0173068Y0197843D01*
X0173175Y0197961D01*
X0173285Y0198077D01*
X0173398Y0198190D01*
X0173514Y0198300D01*
X0173632Y0198407D01*
X0173753Y0198511D01*
X0173877Y0198612D01*
X0174003Y0198710D01*
X0174131Y0198804D01*
X0174262Y0198896D01*
X0174395Y0198984D01*
X0174530Y0199069D01*
X0174667Y0199151D01*
X0174806Y0199229D01*
X0174947Y0199303D01*
X0175090Y0199374D01*
X0175235Y0199442D01*
X0175381Y0199505D01*
X0175529Y0199566D01*
X0175678Y0199622D01*
X0175829Y0199675D01*
X0175981Y0199724D01*
X0176134Y0199769D01*
X0176288Y0199810D01*
X0176443Y0199848D01*
X0176599Y0199881D01*
X0176756Y0199911D01*
X0176913Y0199937D01*
X0177071Y0199958D01*
X0177230Y0199976D01*
X0177389Y0199990D01*
X0177548Y0200000D01*
X0177707Y0200006D01*
X0177867Y0200008D01*
X0178027Y0200006D01*
X0178186Y0200000D01*
X0178345Y0199990D01*
X0178504Y0199976D01*
X0178663Y0199958D01*
X0178821Y0199937D01*
X0178978Y0199911D01*
X0179135Y0199881D01*
X0179291Y0199848D01*
X0179446Y0199810D01*
X0179600Y0199769D01*
X0179753Y0199724D01*
X0179905Y0199675D01*
X0180056Y0199622D01*
X0180205Y0199566D01*
X0180353Y0199505D01*
X0180499Y0199442D01*
X0180644Y0199374D01*
X0180787Y0199303D01*
X0180928Y0199229D01*
X0181067Y0199151D01*
X0181204Y0199069D01*
X0181339Y0198984D01*
X0181472Y0198896D01*
X0181603Y0198804D01*
X0181731Y0198710D01*
X0181857Y0198612D01*
X0181981Y0198511D01*
X0182102Y0198407D01*
X0182220Y0198300D01*
X0182336Y0198190D01*
X0182449Y0198077D01*
X0182559Y0197961D01*
X0182666Y0197843D01*
X0182770Y0197722D01*
X0182871Y0197598D01*
X0182969Y0197472D01*
X0183063Y0197344D01*
X0183155Y0197213D01*
X0183243Y0197080D01*
X0183328Y0196945D01*
X0183410Y0196808D01*
X0183488Y0196669D01*
X0183562Y0196528D01*
X0183633Y0196385D01*
X0183701Y0196240D01*
X0183764Y0196094D01*
X0183825Y0195946D01*
X0183881Y0195797D01*
X0183934Y0195646D01*
X0183983Y0195494D01*
X0184028Y0195341D01*
X0184069Y0195187D01*
X0184107Y0195032D01*
X0184140Y0194876D01*
X0184170Y0194719D01*
X0184196Y0194562D01*
X0184217Y0194404D01*
X0184235Y0194245D01*
X0184249Y0194086D01*
X0184259Y0193927D01*
X0184265Y0193768D01*
X0184267Y0193608D01*
X0184265Y0193448D01*
X0184259Y0193289D01*
X0184249Y0193130D01*
X0184235Y0192971D01*
X0184217Y0192812D01*
X0184196Y0192654D01*
X0184170Y0192497D01*
X0184140Y0192340D01*
X0184107Y0192184D01*
X0184069Y0192029D01*
X0184028Y0191875D01*
X0183983Y0191722D01*
X0183934Y0191570D01*
X0183881Y0191419D01*
X0183825Y0191270D01*
X0183764Y0191122D01*
X0183701Y0190976D01*
X0183633Y0190831D01*
X0183562Y0190688D01*
X0183488Y0190547D01*
X0183410Y0190408D01*
X0183328Y0190271D01*
X0183243Y0190136D01*
X0183155Y0190003D01*
X0183063Y0189872D01*
X0182969Y0189744D01*
X0182871Y0189618D01*
X0182770Y0189494D01*
X0182666Y0189373D01*
X0182559Y0189255D01*
X0182449Y0189139D01*
X0182336Y0189026D01*
X0182220Y0188916D01*
X0182102Y0188809D01*
X0181981Y0188705D01*
X0181857Y0188604D01*
X0181731Y0188506D01*
X0181603Y0188412D01*
X0181472Y0188320D01*
X0181339Y0188232D01*
X0181204Y0188147D01*
X0181067Y0188065D01*
X0180928Y0187987D01*
X0180787Y0187913D01*
X0180644Y0187842D01*
X0180499Y0187774D01*
X0180353Y0187711D01*
X0180205Y0187650D01*
X0180056Y0187594D01*
X0179905Y0187541D01*
X0179753Y0187492D01*
X0179600Y0187447D01*
X0179446Y0187406D01*
X0179291Y0187368D01*
X0179135Y0187335D01*
X0178978Y0187305D01*
X0178821Y0187279D01*
X0178663Y0187258D01*
X0178504Y0187240D01*
X0178345Y0187226D01*
X0178186Y0187216D01*
X0178027Y0187210D01*
X0177867Y0187208D01*
X0177707Y0187210D01*
X0177548Y0187216D01*
X0177389Y0187226D01*
X0177230Y0187240D01*
X0177071Y0187258D01*
X0176913Y0187279D01*
X0176756Y0187305D01*
X0176599Y0187335D01*
X0176443Y0187368D01*
X0176288Y0187406D01*
X0176134Y0187447D01*
X0175981Y0187492D01*
X0175829Y0187541D01*
X0175678Y0187594D01*
X0175529Y0187650D01*
X0175381Y0187711D01*
X0175235Y0187774D01*
X0175090Y0187842D01*
X0174947Y0187913D01*
X0174806Y0187987D01*
X0174667Y0188065D01*
X0174530Y0188147D01*
X0174395Y0188232D01*
X0174262Y0188320D01*
X0174131Y0188412D01*
X0174003Y0188506D01*
X0173877Y0188604D01*
X0173753Y0188705D01*
X0173632Y0188809D01*
X0173514Y0188916D01*
X0173398Y0189026D01*
X0173285Y0189139D01*
X0173175Y0189255D01*
X0173068Y0189373D01*
X0172964Y0189494D01*
X0172863Y0189618D01*
X0172765Y0189744D01*
X0172671Y0189872D01*
X0172579Y0190003D01*
X0172491Y0190136D01*
X0172406Y0190271D01*
X0172324Y0190408D01*
X0172246Y0190547D01*
X0172172Y0190688D01*
X0172101Y0190831D01*
X0172033Y0190976D01*
X0171970Y0191122D01*
X0171909Y0191270D01*
X0171853Y0191419D01*
X0171800Y0191570D01*
X0171751Y0191722D01*
X0171706Y0191875D01*
X0171665Y0192029D01*
X0171627Y0192184D01*
X0171594Y0192340D01*
X0171564Y0192497D01*
X0171538Y0192654D01*
X0171517Y0192812D01*
X0171499Y0192971D01*
X0171485Y0193130D01*
X0171475Y0193289D01*
X0171469Y0193448D01*
X0171467Y0193608D01*
D12*
X0110867Y0112348D03*
X0110867Y0104868D03*
X0102867Y0104868D03*
X0102867Y0112348D03*
X0102867Y0098348D03*
X0102867Y0090868D03*
X0073867Y0110868D03*
X0073867Y0118348D03*
D13*
X0086867Y0124049D03*
X0091867Y0124049D03*
X0091867Y0129167D03*
X0086867Y0129167D03*
X0067867Y0096167D03*
X0067867Y0091049D03*
X0059867Y0091049D03*
X0059867Y0096167D03*
X0067867Y0061167D03*
X0067867Y0056049D03*
X0087867Y0056049D03*
X0087867Y0061167D03*
X0097867Y0061167D03*
X0097867Y0056049D03*
X0107867Y0056049D03*
X0107867Y0061167D03*
X0117867Y0061167D03*
X0117867Y0056049D03*
D14*
X0080607Y0125608D03*
X0073127Y0125608D03*
D15*
X0159300Y0102545D03*
X0159300Y0094671D03*
D16*
X0179772Y0085222D03*
X0179772Y0111993D03*
D17*
X0180867Y0123608D03*
X0180867Y0133608D03*
X0144867Y0103608D03*
X0144867Y0093608D03*
X0144867Y0077608D03*
X0134867Y0077608D03*
X0117867Y0043608D03*
X0107867Y0043608D03*
X0097867Y0043608D03*
X0087867Y0043608D03*
X0077867Y0043608D03*
X0067867Y0043608D03*
X0057867Y0043608D03*
X0047867Y0043608D03*
X0041867Y0052608D03*
X0041867Y0062608D03*
X0014867Y0126608D03*
X0014867Y0136608D03*
X0130867Y0033608D03*
X0140867Y0033608D03*
X0152867Y0033608D03*
X0162867Y0033608D03*
D18*
X0172867Y0065608D03*
X0022867Y0051608D03*
D19*
X0022867Y0065387D03*
X0172867Y0051828D03*
D20*
X0027398Y0097490D03*
X0027398Y0100049D03*
X0027398Y0102608D03*
X0027398Y0105167D03*
X0027398Y0107726D03*
D21*
X0016867Y0106545D03*
X0016906Y0098671D03*
D22*
X0019032Y0091682D02*
X0014701Y0091682D01*
X0014701Y0113533D02*
X0019032Y0113533D01*
D23*
X0059867Y0084742D03*
X0067867Y0084742D03*
X0067867Y0076474D03*
X0059867Y0076474D03*
D24*
X0133308Y0043608D03*
X0138426Y0043608D03*
X0140426Y0054608D03*
X0135308Y0054608D03*
X0135308Y0062608D03*
X0140426Y0062608D03*
D25*
X0125249Y0074556D03*
X0125249Y0080659D03*
X0110485Y0080659D03*
X0110485Y0074556D03*
D26*
X0092788Y0094710D02*
X0092788Y0096954D01*
X0090819Y0096954D02*
X0090819Y0094710D01*
X0088851Y0094710D02*
X0088851Y0096954D01*
X0086882Y0096954D02*
X0086882Y0094710D01*
X0084914Y0094710D02*
X0084914Y0096954D01*
X0082945Y0096954D02*
X0082945Y0094710D01*
X0081213Y0098686D02*
X0078969Y0098686D01*
X0078969Y0100655D02*
X0081213Y0100655D01*
X0081213Y0102623D02*
X0078969Y0102623D01*
X0078969Y0104592D02*
X0081213Y0104592D01*
X0081213Y0106560D02*
X0078969Y0106560D01*
X0078969Y0108529D02*
X0081213Y0108529D01*
X0082945Y0110261D02*
X0082945Y0112505D01*
X0084914Y0112505D02*
X0084914Y0110261D01*
X0086882Y0110261D02*
X0086882Y0112505D01*
X0088851Y0112505D02*
X0088851Y0110261D01*
X0090819Y0110261D02*
X0090819Y0112505D01*
X0092788Y0112505D02*
X0092788Y0110261D01*
X0094520Y0108529D02*
X0096764Y0108529D01*
X0096764Y0106560D02*
X0094520Y0106560D01*
X0094520Y0104592D02*
X0096764Y0104592D01*
X0096764Y0102623D02*
X0094520Y0102623D01*
X0094520Y0100655D02*
X0096764Y0100655D01*
X0096764Y0098686D02*
X0094520Y0098686D01*
D27*
X0087867Y0103608D03*
D28*
X0087867Y0103608D03*
X0091410Y0103608D03*
X0091410Y0107151D03*
X0087867Y0107151D03*
X0084323Y0107151D03*
X0084323Y0103608D03*
X0084323Y0100064D03*
X0087867Y0100064D03*
X0091410Y0100064D03*
D29*
X0044867Y0109608D03*
D30*
X0035617Y0109608D03*
D31*
X0101371Y0125608D03*
X0114363Y0125608D03*
D32*
X0067867Y0076474D02*
X0067867Y0069608D01*
X0067867Y0076474D02*
X0059867Y0076474D01*
D33*
X0067867Y0069608D03*
X0073867Y0072608D03*
X0078867Y0072608D03*
X0089867Y0066608D03*
X0094867Y0076608D03*
X0102867Y0073608D03*
X0104867Y0085608D03*
X0100867Y0085608D03*
X0096867Y0086608D03*
X0096867Y0090608D03*
X0108867Y0090608D03*
X0108867Y0086608D03*
X0117867Y0073608D03*
X0112867Y0056608D03*
X0102867Y0050608D03*
X0142867Y0043608D03*
X0144867Y0054608D03*
X0162867Y0053608D03*
X0182867Y0053608D03*
X0182867Y0063608D03*
X0162867Y0108608D03*
X0157867Y0108608D03*
X0152867Y0108608D03*
X0152867Y0138608D03*
X0162867Y0138608D03*
X0142867Y0138608D03*
X0132867Y0138608D03*
X0122867Y0138608D03*
X0112867Y0138608D03*
X0102867Y0138608D03*
X0092867Y0138608D03*
X0086867Y0132608D03*
X0082867Y0138608D03*
X0072867Y0130608D03*
X0068867Y0130608D03*
X0068867Y0126608D03*
X0068867Y0122608D03*
X0068867Y0118608D03*
X0057867Y0123608D03*
X0047867Y0123608D03*
X0037867Y0123608D03*
X0027867Y0140608D03*
X0022867Y0140608D03*
X0032867Y0101608D03*
X0036867Y0101608D03*
X0036867Y0097608D03*
X0036867Y0093608D03*
X0036867Y0089608D03*
X0032867Y0089608D03*
X0032867Y0093608D03*
X0032867Y0097608D03*
X0030867Y0076608D03*
X0021867Y0076608D03*
X0012867Y0076608D03*
X0012867Y0053608D03*
X0012867Y0048608D03*
X0032867Y0048608D03*
X0032867Y0053608D03*
X0054867Y0054608D03*
X0062867Y0050608D03*
X0096867Y0111608D03*
X0096867Y0115608D03*
X0100867Y0116608D03*
X0104867Y0116608D03*
X0108867Y0116608D03*
X0112867Y0116608D03*
X0086867Y0120608D03*
D34*
X0082867Y0148608D03*
X0082867Y0158608D03*
X0082867Y0168608D03*
X0082867Y0178608D03*
X0082867Y0188608D03*
X0082867Y0198608D03*
X0072867Y0198608D03*
X0072867Y0188608D03*
X0072867Y0178608D03*
X0072867Y0168608D03*
X0072867Y0158608D03*
X0072867Y0148608D03*
X0062867Y0148608D03*
X0062867Y0158608D03*
X0062867Y0168608D03*
X0062867Y0178608D03*
X0062867Y0188608D03*
X0062867Y0198608D03*
X0052867Y0198608D03*
X0052867Y0188608D03*
X0052867Y0178608D03*
X0052867Y0168608D03*
X0052867Y0158608D03*
X0052867Y0148608D03*
X0042867Y0148608D03*
X0042867Y0158608D03*
X0042867Y0168608D03*
X0042867Y0178608D03*
X0042867Y0188608D03*
X0042867Y0198608D03*
X0032867Y0198608D03*
X0032867Y0188608D03*
X0032867Y0178608D03*
X0032867Y0168608D03*
X0032867Y0158608D03*
X0032867Y0148608D03*
X0022867Y0148608D03*
X0022867Y0158608D03*
X0022867Y0168608D03*
X0022867Y0178608D03*
X0012867Y0178608D03*
X0012867Y0168608D03*
X0012867Y0158608D03*
X0012867Y0148608D03*
X0092867Y0148608D03*
X0102867Y0148608D03*
X0112867Y0148608D03*
X0122867Y0148608D03*
X0132867Y0148608D03*
X0142867Y0148608D03*
X0152867Y0148608D03*
X0162867Y0148608D03*
X0172867Y0148608D03*
X0182867Y0148608D03*
X0182867Y0158608D03*
X0182867Y0168608D03*
X0182867Y0178608D03*
X0172867Y0178608D03*
X0172867Y0168608D03*
X0172867Y0158608D03*
X0162867Y0158608D03*
X0162867Y0168608D03*
X0162867Y0178608D03*
X0162867Y0188608D03*
X0162867Y0198608D03*
X0152867Y0198608D03*
X0152867Y0188608D03*
X0152867Y0178608D03*
X0152867Y0168608D03*
X0152867Y0158608D03*
X0142867Y0158608D03*
X0142867Y0168608D03*
X0142867Y0178608D03*
X0142867Y0188608D03*
X0142867Y0198608D03*
X0132867Y0198608D03*
X0132867Y0188608D03*
X0132867Y0178608D03*
X0132867Y0168608D03*
X0132867Y0158608D03*
X0122867Y0158608D03*
X0122867Y0168608D03*
X0122867Y0178608D03*
X0122867Y0188608D03*
X0122867Y0198608D03*
X0112867Y0198608D03*
X0112867Y0188608D03*
X0112867Y0178608D03*
X0112867Y0168608D03*
X0112867Y0158608D03*
X0102867Y0158608D03*
X0102867Y0168608D03*
X0102867Y0178608D03*
X0102867Y0188608D03*
X0102867Y0198608D03*
X0092867Y0198608D03*
X0092867Y0188608D03*
X0092867Y0178608D03*
X0092867Y0168608D03*
X0092867Y0158608D03*
X0169867Y0133608D03*
X0169867Y0123608D03*
X0117867Y0033608D03*
X0107867Y0033608D03*
X0097867Y0033608D03*
X0087867Y0033608D03*
X0077867Y0033608D03*
X0067867Y0033608D03*
X0057867Y0033608D03*
X0047867Y0033608D03*
D35*
X0144867Y0093608D02*
X0145930Y0094671D01*
X0159300Y0094671D01*
X0159300Y0102545D02*
X0145930Y0102545D01*
X0144867Y0103608D01*
D36*
X0146867Y0094608D02*
X0169867Y0093608D01*
X0169867Y0080608D01*
X0177867Y0072608D01*
X0177867Y0058608D01*
X0159867Y0058608D01*
X0157867Y0060608D01*
X0157867Y0078608D01*
X0153867Y0082608D01*
X0146867Y0088608D01*
X0146867Y0094608D01*
X0146867Y0093877D02*
X0163680Y0093877D01*
X0169867Y0093078D02*
X0146867Y0093078D01*
X0146867Y0092280D02*
X0169867Y0092280D01*
X0169867Y0091481D02*
X0146867Y0091481D01*
X0146867Y0090683D02*
X0169867Y0090683D01*
X0169867Y0089884D02*
X0146867Y0089884D01*
X0146867Y0089086D02*
X0169867Y0089086D01*
X0169867Y0088287D02*
X0147241Y0088287D01*
X0148172Y0087489D02*
X0169867Y0087489D01*
X0169867Y0086690D02*
X0149104Y0086690D01*
X0150035Y0085892D02*
X0169867Y0085892D01*
X0169867Y0085093D02*
X0150967Y0085093D01*
X0151899Y0084295D02*
X0169867Y0084295D01*
X0169867Y0083496D02*
X0152830Y0083496D01*
X0153762Y0082698D02*
X0169867Y0082698D01*
X0169867Y0081899D02*
X0154575Y0081899D01*
X0155374Y0081100D02*
X0169867Y0081100D01*
X0170172Y0080302D02*
X0156172Y0080302D01*
X0156971Y0079503D02*
X0170971Y0079503D01*
X0171769Y0078705D02*
X0157769Y0078705D01*
X0157867Y0077906D02*
X0172568Y0077906D01*
X0173366Y0077108D02*
X0157867Y0077108D01*
X0157867Y0076309D02*
X0174165Y0076309D01*
X0174963Y0075511D02*
X0157867Y0075511D01*
X0157867Y0074712D02*
X0175762Y0074712D01*
X0176560Y0073914D02*
X0157867Y0073914D01*
X0157867Y0073115D02*
X0177359Y0073115D01*
X0177867Y0072317D02*
X0157867Y0072317D01*
X0157867Y0071518D02*
X0177867Y0071518D01*
X0177867Y0070720D02*
X0157867Y0070720D01*
X0157867Y0069921D02*
X0177867Y0069921D01*
X0177867Y0069123D02*
X0157867Y0069123D01*
X0157867Y0068324D02*
X0177867Y0068324D01*
X0177867Y0067526D02*
X0157867Y0067526D01*
X0157867Y0066727D02*
X0177867Y0066727D01*
X0177867Y0065929D02*
X0157867Y0065929D01*
X0157867Y0065130D02*
X0177867Y0065130D01*
X0177867Y0064332D02*
X0157867Y0064332D01*
X0157867Y0063533D02*
X0177867Y0063533D01*
X0177867Y0062735D02*
X0157867Y0062735D01*
X0157867Y0061936D02*
X0177867Y0061936D01*
X0177867Y0061138D02*
X0157867Y0061138D01*
X0158135Y0060339D02*
X0177867Y0060339D01*
X0177867Y0059541D02*
X0158934Y0059541D01*
X0159732Y0058742D02*
X0177867Y0058742D01*
X0162867Y0033608D02*
X0146867Y0049608D01*
X0136867Y0049608D01*
X0135308Y0051167D01*
X0135308Y0054608D01*
X0135308Y0062608D01*
X0130308Y0067608D01*
X0096867Y0067608D01*
X0090819Y0073655D01*
X0090819Y0095832D01*
X0088851Y0095832D02*
X0088851Y0072623D01*
X0095867Y0065608D01*
X0122867Y0065608D01*
X0125867Y0062608D01*
X0125867Y0038608D01*
X0130867Y0033608D01*
X0133308Y0036049D01*
X0133308Y0043608D01*
X0117867Y0043608D02*
X0117867Y0056049D01*
X0112867Y0056608D02*
X0112308Y0056049D01*
X0107867Y0056049D01*
X0107867Y0043608D01*
X0097867Y0043608D02*
X0097867Y0056049D01*
X0094426Y0056049D01*
X0092867Y0057608D01*
X0092867Y0063608D01*
X0089867Y0066608D01*
X0086882Y0068623D02*
X0082867Y0064608D01*
X0082867Y0057608D01*
X0084867Y0055608D01*
X0087426Y0055608D01*
X0087867Y0056049D01*
X0087867Y0043608D01*
X0077867Y0043608D02*
X0077867Y0062608D01*
X0084914Y0069655D01*
X0084914Y0095832D01*
X0086882Y0095832D02*
X0086882Y0068623D01*
X0082945Y0070686D02*
X0073867Y0061608D01*
X0073867Y0057608D01*
X0071867Y0055608D01*
X0068308Y0055608D01*
X0067867Y0056049D01*
X0067867Y0043608D01*
X0054867Y0054608D02*
X0054867Y0096608D01*
X0064819Y0106560D01*
X0080091Y0106560D01*
X0080091Y0104592D02*
X0068292Y0104592D01*
X0059867Y0096167D01*
X0059867Y0091049D02*
X0059867Y0084742D01*
X0067867Y0084742D02*
X0067867Y0091049D01*
X0067867Y0096167D02*
X0074323Y0102623D01*
X0080091Y0102623D01*
X0080091Y0100655D02*
X0077914Y0100655D01*
X0075867Y0098608D01*
X0075867Y0074608D01*
X0073867Y0072608D01*
X0078867Y0072608D02*
X0080091Y0073832D01*
X0080091Y0098686D01*
X0082945Y0095832D02*
X0082945Y0070686D01*
X0094867Y0076608D02*
X0101867Y0069608D01*
X0136867Y0069608D01*
X0140426Y0066049D01*
X0140426Y0062608D01*
X0134867Y0077608D02*
X0131815Y0080659D01*
X0125249Y0080659D01*
X0110485Y0080659D01*
X0110434Y0080608D01*
X0094867Y0080608D01*
X0092788Y0082686D01*
X0092788Y0095832D01*
X0088851Y0111383D02*
X0088851Y0118592D01*
X0091867Y0121608D01*
X0091867Y0124049D01*
X0086867Y0124049D02*
X0086867Y0120608D01*
D37*
X0087867Y0043608D02*
X0087867Y0033608D01*
X0097867Y0033608D02*
X0097867Y0043608D01*
X0107867Y0043608D02*
X0107867Y0033608D01*
X0117867Y0033608D02*
X0117867Y0043608D01*
X0077867Y0043608D02*
X0077867Y0033608D01*
X0067867Y0033608D02*
X0067867Y0043608D01*
X0057867Y0043608D02*
X0057867Y0033608D01*
X0047867Y0033608D02*
X0047867Y0043608D01*
D38*
X0025867Y0126608D02*
X0014867Y0126608D01*
X0025867Y0126608D02*
X0035867Y0136608D01*
X0075867Y0136608D01*
X0080867Y0131608D01*
X0080867Y0125868D01*
X0080607Y0125608D01*
D39*
X0086867Y0124049D02*
X0086882Y0124033D01*
X0086882Y0111383D01*
X0097867Y0061167D02*
X0100308Y0061167D01*
X0102867Y0058608D01*
X0105426Y0061167D01*
X0107867Y0061167D01*
X0117867Y0061167D01*
X0102867Y0058608D02*
X0102867Y0050608D01*
X0067867Y0061167D02*
X0064426Y0061167D01*
X0062867Y0059608D01*
X0062867Y0050608D01*
M02*
