G75*
%MOIN*%
%OFA0B0*%
%FSLAX25Y25*%
%IPPOS*%
%LPD*%
%AMOC8*
5,1,8,0,0,1.08239X$1,22.5*
%
%ADD10C,0.13600*%
%ADD11C,0.03162*%
%ADD12C,0.05131*%
%ADD13R,0.08800X0.08800*%
%ADD14C,0.08800*%
%ADD15C,0.08200*%
%ADD16R,0.08200X0.08200*%
%ADD17C,0.08000*%
D10*
X0017894Y0011300D03*
X0122894Y0011300D03*
X0122894Y0236300D03*
X0017894Y0236300D03*
D11*
X0024161Y0080977D03*
X0024161Y0065623D03*
D12*
X0018059Y0062375D02*
X0013728Y0062375D01*
X0013728Y0084225D02*
X0018059Y0084225D01*
D13*
X0022894Y0031300D03*
X0023894Y0142300D03*
D14*
X0023894Y0156080D03*
X0022894Y0045080D03*
D15*
X0043894Y0043300D03*
X0043894Y0033300D03*
X0054894Y0023300D03*
X0064894Y0023300D03*
X0079894Y0023300D03*
X0089894Y0023300D03*
X0109894Y0036300D03*
X0109894Y0046300D03*
X0109894Y0056300D03*
X0109894Y0066300D03*
X0109894Y0076300D03*
X0109894Y0086300D03*
X0109894Y0096300D03*
X0109894Y0116800D03*
X0109894Y0126800D03*
X0119894Y0126800D03*
X0119894Y0116800D03*
X0119894Y0141300D03*
X0119894Y0151300D03*
X0084894Y0149300D03*
X0074894Y0149300D03*
X0051894Y0116300D03*
X0051894Y0106300D03*
D16*
X0109894Y0026300D03*
D17*
X0120394Y0026300D03*
X0120394Y0036300D03*
X0120394Y0046300D03*
X0120394Y0056300D03*
X0120394Y0066300D03*
X0120394Y0076300D03*
X0120394Y0086300D03*
X0120394Y0096300D03*
X0125394Y0173800D03*
X0125394Y0183800D03*
X0125394Y0193800D03*
X0125394Y0203800D03*
X0125394Y0213800D03*
X0125394Y0223800D03*
X0115394Y0223800D03*
X0115394Y0213800D03*
X0115394Y0203800D03*
X0115394Y0193800D03*
X0115394Y0183800D03*
X0115394Y0173800D03*
X0105394Y0173800D03*
X0105394Y0183800D03*
X0105394Y0193800D03*
X0105394Y0203800D03*
X0105394Y0213800D03*
X0105394Y0223800D03*
X0105394Y0233800D03*
X0095394Y0233800D03*
X0095394Y0223800D03*
X0095394Y0213800D03*
X0095394Y0203800D03*
X0095394Y0193800D03*
X0095394Y0183800D03*
X0095394Y0173800D03*
X0085394Y0173800D03*
X0085394Y0183800D03*
X0085394Y0193800D03*
X0085394Y0203800D03*
X0085394Y0213800D03*
X0085394Y0223800D03*
X0085394Y0233800D03*
X0075394Y0233800D03*
X0075394Y0223800D03*
X0075394Y0213800D03*
X0075394Y0203800D03*
X0075394Y0193800D03*
X0075394Y0183800D03*
X0075394Y0173800D03*
X0065394Y0173800D03*
X0065394Y0183800D03*
X0065394Y0193800D03*
X0065394Y0203800D03*
X0065394Y0213800D03*
X0065394Y0223800D03*
X0065394Y0233800D03*
X0055394Y0233800D03*
X0055394Y0223800D03*
X0055394Y0213800D03*
X0055394Y0203800D03*
X0055394Y0193800D03*
X0055394Y0183800D03*
X0055394Y0173800D03*
X0045394Y0173800D03*
X0045394Y0183800D03*
X0045394Y0193800D03*
X0045394Y0203800D03*
X0045394Y0213800D03*
X0045394Y0223800D03*
X0045394Y0233800D03*
X0035394Y0233800D03*
X0035394Y0223800D03*
X0035394Y0213800D03*
X0035394Y0203800D03*
X0035394Y0193800D03*
X0035394Y0183800D03*
X0035394Y0173800D03*
X0025394Y0173800D03*
X0025394Y0183800D03*
X0025394Y0193800D03*
X0025394Y0203800D03*
X0025394Y0213800D03*
X0025394Y0223800D03*
X0015394Y0223800D03*
X0015394Y0213800D03*
X0015394Y0203800D03*
X0015394Y0193800D03*
X0015394Y0183800D03*
X0015394Y0173800D03*
M02*
