%
M48
M72
T01C0.01600
T02C0.01969
T03C0.02362
T04C0.04000
T05C0.04724
T06C0.12800
%
T01
X19894Y55800
X23894Y55800
X23894Y59800
X27894Y59800
X27894Y55800
X31894Y55800
X31894Y59800
X31894Y63800
X31894Y67800
X31894Y71800
X32894Y102800
X36894Y102800
X40894Y102800
X44894Y102800
X28894Y102800
X54394Y63800
X54394Y60300
X66894Y54300
X75394Y59800
X75894Y65300
X79394Y65300
X82894Y65300
X93394Y76800
X76394Y100800
X72894Y100800
X72894Y97300
X72894Y93800
X72894Y90300
X72894Y86800
X72894Y83300
X69394Y100800
X78394Y112800
X74394Y116800
X66394Y119800
X63394Y123300
X66394Y126800
X75394Y129300
X78894Y129300
X87894Y126800
X87894Y123300
X87894Y119800
X87894Y116300
X91894Y131800
X95394Y131800
X93394Y138800
X93394Y142300
X69394Y34300
X65894Y13300
X62894Y9800
X78894Y13300
X81894Y17300
X100894Y12300
T02
X15894Y62375
X15894Y84225
T03
X24161Y80977
X24161Y65623
T04
X43894Y43300
X43894Y33300
X54894Y23300
X64894Y23300
X79894Y23300
X89894Y23300
X109894Y26300
X109894Y36300
X109894Y46300
X109894Y56300
X109894Y66300
X109894Y76300
X109894Y86300
X109894Y96300
X120394Y96300
X120394Y86300
X120394Y76300
X120394Y66300
X120394Y56300
X120394Y46300
X120394Y36300
X120394Y26300
X119894Y116800
X119894Y126800
X119894Y141300
X119894Y151300
X115394Y173800
X115394Y183800
X115394Y193800
X115394Y203800
X115394Y213800
X115394Y223800
X125394Y223800
X125394Y213800
X125394Y203800
X125394Y193800
X125394Y183800
X125394Y173800
X105394Y173800
X105394Y183800
X105394Y193800
X105394Y203800
X105394Y213800
X105394Y223800
X105394Y233800
X95394Y233800
X95394Y223800
X95394Y213800
X95394Y203800
X95394Y193800
X95394Y183800
X95394Y173800
X85394Y173800
X85394Y183800
X85394Y193800
X85394Y203800
X85394Y213800
X85394Y223800
X85394Y233800
X75394Y233800
X75394Y223800
X75394Y213800
X75394Y203800
X75394Y193800
X75394Y183800
X75394Y173800
X65394Y173800
X65394Y183800
X65394Y193800
X65394Y203800
X65394Y213800
X65394Y223800
X65394Y233800
X55394Y233800
X55394Y223800
X55394Y213800
X55394Y203800
X55394Y193800
X55394Y183800
X55394Y173800
X45394Y173800
X45394Y183800
X45394Y193800
X45394Y203800
X45394Y213800
X45394Y223800
X45394Y233800
X35394Y233800
X35394Y223800
X35394Y213800
X35394Y203800
X35394Y193800
X35394Y183800
X35394Y173800
X25394Y173800
X25394Y183800
X25394Y193800
X25394Y203800
X25394Y213800
X25394Y223800
X15394Y223800
X15394Y213800
X15394Y203800
X15394Y193800
X15394Y183800
X15394Y173800
X51894Y116300
X51894Y106300
X74894Y149300
X84894Y149300
X109894Y126800
X109894Y116800
T05
X23894Y142300
X23894Y156080
X22894Y45080
X22894Y31300
T06
X17894Y11300
X122894Y11300
X122894Y236300
X17894Y236300
M30
