G75*
%MOIN*%
%OFA0B0*%
%FSLAX25Y25*%
%IPPOS*%
%LPD*%
%AMOC8*
5,1,8,0,0,1.08239X$1,22.5*
%
%ADD10C,0.13600*%
%ADD11R,0.03005X0.01784*%
%ADD12R,0.07808X0.10052*%
%ADD13R,0.06115X0.02375*%
%ADD14R,0.08280X0.06706*%
%ADD15C,0.03162*%
%ADD16C,0.05131*%
%ADD17R,0.18910X0.04737*%
%ADD18R,0.14186X0.07099*%
%ADD19R,0.08800X0.08800*%
%ADD20C,0.08800*%
%ADD21C,0.08200*%
%ADD22R,0.11300X0.10800*%
%ADD23R,0.03800X0.05800*%
%ADD24R,0.05918X0.06706*%
%ADD25R,0.06706X0.05918*%
%ADD26R,0.03556X0.04343*%
%ADD27R,0.08200X0.08200*%
%ADD28R,0.05524X0.05524*%
%ADD29R,0.04343X0.03556*%
%ADD30R,0.02965X0.05524*%
%ADD31C,0.08000*%
D10*
X0017894Y0011300D03*
X0122894Y0011300D03*
X0122894Y0236300D03*
X0017894Y0236300D03*
D11*
X0067087Y0080024D03*
X0067087Y0078450D03*
X0067087Y0076875D03*
X0067087Y0075300D03*
X0067087Y0073725D03*
X0067087Y0072150D03*
X0067087Y0070576D03*
X0078701Y0070576D03*
X0078701Y0072150D03*
X0078701Y0073725D03*
X0078701Y0075300D03*
X0078701Y0076875D03*
X0078701Y0078450D03*
X0078701Y0080024D03*
D12*
X0072894Y0075300D03*
D13*
X0026425Y0075859D03*
X0026425Y0073300D03*
X0026425Y0070741D03*
X0026425Y0068182D03*
X0026425Y0078418D03*
D14*
X0015894Y0077237D03*
X0015933Y0069363D03*
D15*
X0024161Y0065623D03*
X0024161Y0080977D03*
D16*
X0018059Y0084225D02*
X0013728Y0084225D01*
X0013728Y0062375D02*
X0018059Y0062375D01*
D17*
X0036461Y0107363D03*
X0036461Y0115237D03*
D18*
X0015988Y0124686D03*
X0015988Y0097914D03*
D19*
X0023894Y0142300D03*
X0022894Y0031300D03*
D20*
X0022894Y0045080D03*
X0023894Y0156080D03*
D21*
X0051894Y0116300D03*
X0051894Y0106300D03*
X0074894Y0149300D03*
X0084894Y0149300D03*
X0109894Y0126800D03*
X0109894Y0116800D03*
X0119894Y0116800D03*
X0119894Y0126800D03*
X0119894Y0141300D03*
X0119894Y0151300D03*
X0109894Y0096300D03*
X0109894Y0086300D03*
X0109894Y0076300D03*
X0109894Y0066300D03*
X0109894Y0056300D03*
X0109894Y0046300D03*
X0109894Y0036300D03*
X0089894Y0023300D03*
X0079894Y0023300D03*
X0064894Y0023300D03*
X0054894Y0023300D03*
X0043894Y0033300D03*
X0043894Y0043300D03*
D22*
X0040894Y0083300D03*
D23*
X0031644Y0083300D03*
D24*
X0061154Y0088300D03*
X0061154Y0096300D03*
X0068634Y0096300D03*
X0068634Y0088300D03*
X0077154Y0088300D03*
X0077154Y0096300D03*
X0084634Y0096300D03*
X0084634Y0088300D03*
D25*
X0052894Y0088540D03*
X0052894Y0081060D03*
D26*
X0066835Y0065300D03*
X0066835Y0059800D03*
X0071953Y0059800D03*
X0071953Y0065300D03*
X0074453Y0039800D03*
X0069335Y0039800D03*
X0062453Y0013300D03*
X0057335Y0013300D03*
X0082335Y0013300D03*
X0087453Y0013300D03*
X0083453Y0116800D03*
X0078335Y0116800D03*
X0071453Y0123300D03*
X0066335Y0123300D03*
X0077335Y0141300D03*
X0082453Y0141300D03*
X0088335Y0135300D03*
X0093453Y0135300D03*
D27*
X0109894Y0026300D03*
D28*
X0076028Y0047300D03*
X0067760Y0047300D03*
D29*
X0054394Y0067241D03*
X0054394Y0072359D03*
D30*
X0076154Y0124182D03*
X0076154Y0134418D03*
X0079894Y0134418D03*
X0083634Y0134418D03*
X0083634Y0124182D03*
D31*
X0085394Y0173800D03*
X0085394Y0183800D03*
X0085394Y0193800D03*
X0085394Y0203800D03*
X0085394Y0213800D03*
X0085394Y0223800D03*
X0085394Y0233800D03*
X0095394Y0233800D03*
X0095394Y0223800D03*
X0095394Y0213800D03*
X0095394Y0203800D03*
X0095394Y0193800D03*
X0095394Y0183800D03*
X0095394Y0173800D03*
X0105394Y0173800D03*
X0105394Y0183800D03*
X0105394Y0193800D03*
X0105394Y0203800D03*
X0105394Y0213800D03*
X0105394Y0223800D03*
X0105394Y0233800D03*
X0115394Y0223800D03*
X0115394Y0213800D03*
X0115394Y0203800D03*
X0115394Y0193800D03*
X0115394Y0183800D03*
X0115394Y0173800D03*
X0125394Y0173800D03*
X0125394Y0183800D03*
X0125394Y0193800D03*
X0125394Y0203800D03*
X0125394Y0213800D03*
X0125394Y0223800D03*
X0075394Y0223800D03*
X0075394Y0213800D03*
X0075394Y0203800D03*
X0075394Y0193800D03*
X0075394Y0183800D03*
X0075394Y0173800D03*
X0065394Y0173800D03*
X0065394Y0183800D03*
X0065394Y0193800D03*
X0065394Y0203800D03*
X0065394Y0213800D03*
X0065394Y0223800D03*
X0065394Y0233800D03*
X0075394Y0233800D03*
X0055394Y0233800D03*
X0055394Y0223800D03*
X0055394Y0213800D03*
X0055394Y0203800D03*
X0055394Y0193800D03*
X0055394Y0183800D03*
X0055394Y0173800D03*
X0045394Y0173800D03*
X0045394Y0183800D03*
X0045394Y0193800D03*
X0045394Y0203800D03*
X0045394Y0213800D03*
X0045394Y0223800D03*
X0045394Y0233800D03*
X0035394Y0233800D03*
X0035394Y0223800D03*
X0035394Y0213800D03*
X0035394Y0203800D03*
X0035394Y0193800D03*
X0035394Y0183800D03*
X0035394Y0173800D03*
X0025394Y0173800D03*
X0025394Y0183800D03*
X0025394Y0193800D03*
X0025394Y0203800D03*
X0025394Y0213800D03*
X0025394Y0223800D03*
X0015394Y0223800D03*
X0015394Y0213800D03*
X0015394Y0203800D03*
X0015394Y0193800D03*
X0015394Y0183800D03*
X0015394Y0173800D03*
X0120394Y0096300D03*
X0120394Y0086300D03*
X0120394Y0076300D03*
X0120394Y0066300D03*
X0120394Y0056300D03*
X0120394Y0046300D03*
X0120394Y0036300D03*
X0120394Y0026300D03*
M02*
