G75*
%MOIN*%
%OFA0B0*%
%FSLAX25Y25*%
%IPPOS*%
%LPD*%
%AMOC8*
5,1,8,0,0,1.08239X$1,22.5*
%
%ADD10C,0.04331*%
%ADD11R,0.08000X0.08000*%
%ADD12C,0.08000*%
%ADD13C,0.07400*%
%ADD14R,0.07400X0.07400*%
%ADD15C,0.03200*%
%ADD16C,0.00600*%
%ADD17C,0.07200*%
%ADD18C,0.00800*%
%ADD19C,0.01600*%
%ADD20C,0.01200*%
%ADD21C,0.03200*%
D10*
X0013728Y0062375D02*
X0018059Y0062375D01*
X0018059Y0084225D02*
X0013728Y0084225D01*
D11*
X0022894Y0031300D03*
X0023894Y0142300D03*
D12*
X0023894Y0156080D03*
X0022894Y0045080D03*
D13*
X0043894Y0043300D03*
X0043894Y0033300D03*
X0054894Y0023300D03*
X0064894Y0023300D03*
X0079894Y0023300D03*
X0089894Y0023300D03*
X0109894Y0036300D03*
X0109894Y0046300D03*
X0109894Y0056300D03*
X0109894Y0066300D03*
X0109894Y0076300D03*
X0109894Y0086300D03*
X0109894Y0096300D03*
X0109894Y0116800D03*
X0109894Y0126800D03*
X0119894Y0126800D03*
X0119894Y0116800D03*
X0119894Y0141300D03*
X0119894Y0151300D03*
X0084894Y0149300D03*
X0074894Y0149300D03*
X0051894Y0116300D03*
X0051894Y0106300D03*
D14*
X0109894Y0026300D03*
D15*
X0100894Y0012300D03*
X0081894Y0017300D03*
X0078894Y0013300D03*
X0069394Y0034300D03*
X0066894Y0054300D03*
X0075394Y0059800D03*
X0075894Y0065300D03*
X0079394Y0065300D03*
X0082894Y0065300D03*
X0093394Y0076800D03*
X0076394Y0100800D03*
X0072894Y0100800D03*
X0072894Y0097300D03*
X0072894Y0093800D03*
X0072894Y0090300D03*
X0072894Y0086800D03*
X0072894Y0083300D03*
X0069394Y0100800D03*
X0078394Y0112800D03*
X0074394Y0116800D03*
X0066394Y0119800D03*
X0063394Y0123300D03*
X0066394Y0126800D03*
X0075394Y0129300D03*
X0078894Y0129300D03*
X0087894Y0126800D03*
X0087894Y0123300D03*
X0087894Y0119800D03*
X0087894Y0116300D03*
X0091894Y0131800D03*
X0095394Y0131800D03*
X0093394Y0138800D03*
X0093394Y0142300D03*
X0054394Y0063800D03*
X0054394Y0060300D03*
X0031894Y0059800D03*
X0031894Y0063800D03*
X0031894Y0067800D03*
X0031894Y0071800D03*
X0027894Y0059800D03*
X0027894Y0055800D03*
X0031894Y0055800D03*
X0023894Y0055800D03*
X0023894Y0059800D03*
X0019894Y0055800D03*
X0028894Y0102800D03*
X0032894Y0102800D03*
X0036894Y0102800D03*
X0040894Y0102800D03*
X0044894Y0102800D03*
X0065894Y0013300D03*
X0062894Y0009800D03*
D16*
X0010194Y0015445D02*
X0010194Y0166300D01*
X0130594Y0166300D01*
X0130594Y0147700D01*
X0107314Y0147700D01*
X0096494Y0136880D01*
X0096494Y0130200D01*
X0084814Y0130200D01*
X0083994Y0129380D01*
X0083994Y0113720D01*
X0084814Y0112900D01*
X0097974Y0112900D01*
X0102474Y0117400D01*
X0103294Y0118220D01*
X0103294Y0128720D01*
X0109474Y0134900D01*
X0125694Y0134900D01*
X0125694Y0099418D01*
X0125334Y0099059D01*
X0124281Y0099059D01*
X0123056Y0100284D01*
X0121329Y0101000D01*
X0119459Y0101000D01*
X0117731Y0100284D01*
X0116506Y0099059D01*
X0113923Y0099059D01*
X0112613Y0100369D01*
X0110848Y0101100D01*
X0108939Y0101100D01*
X0107175Y0100369D01*
X0105824Y0099019D01*
X0105427Y0098059D01*
X0099190Y0098059D01*
X0098194Y0097063D01*
X0084194Y0083063D01*
X0084194Y0065004D01*
X0080690Y0061500D01*
X0077512Y0061500D01*
X0076923Y0062089D01*
X0075931Y0062500D01*
X0074857Y0062500D01*
X0073864Y0062089D01*
X0073105Y0061329D01*
X0072694Y0060337D01*
X0072694Y0059263D01*
X0073105Y0058271D01*
X0073864Y0057511D01*
X0074857Y0057100D01*
X0075931Y0057100D01*
X0076923Y0057511D01*
X0077512Y0058100D01*
X0082098Y0058100D01*
X0086598Y0062600D01*
X0087594Y0063596D01*
X0087594Y0081655D01*
X0100598Y0094659D01*
X0105378Y0094659D01*
X0105824Y0093581D01*
X0107175Y0092231D01*
X0108939Y0091500D01*
X0110848Y0091500D01*
X0112613Y0092231D01*
X0113963Y0093581D01*
X0113995Y0093659D01*
X0116400Y0093659D01*
X0116409Y0093638D01*
X0117731Y0092316D01*
X0119459Y0091600D01*
X0121329Y0091600D01*
X0123056Y0092316D01*
X0124378Y0093638D01*
X0124387Y0093659D01*
X0126990Y0093659D01*
X0127982Y0094070D01*
X0129923Y0096011D01*
X0130594Y0096682D01*
X0130594Y0015445D01*
X0130269Y0016228D01*
X0127822Y0018675D01*
X0124624Y0020000D01*
X0121163Y0020000D01*
X0117966Y0018675D01*
X0115518Y0016228D01*
X0114194Y0013031D01*
X0114194Y0009569D01*
X0115518Y0006372D01*
X0117966Y0003924D01*
X0118749Y0003600D01*
X0022038Y0003600D01*
X0022822Y0003924D01*
X0025269Y0006372D01*
X0026594Y0009569D01*
X0026594Y0013031D01*
X0025269Y0016228D01*
X0022822Y0018675D01*
X0019624Y0020000D01*
X0016163Y0020000D01*
X0012966Y0018675D01*
X0010518Y0016228D01*
X0010194Y0015445D01*
X0010194Y0015664D02*
X0010285Y0015664D01*
X0010194Y0016263D02*
X0010553Y0016263D01*
X0010194Y0016861D02*
X0011151Y0016861D01*
X0011750Y0017460D02*
X0010194Y0017460D01*
X0010194Y0018058D02*
X0012348Y0018058D01*
X0012947Y0018657D02*
X0010194Y0018657D01*
X0010194Y0019255D02*
X0014365Y0019255D01*
X0015810Y0019854D02*
X0010194Y0019854D01*
X0010194Y0020452D02*
X0050953Y0020452D01*
X0050824Y0020581D02*
X0052175Y0019231D01*
X0053939Y0018500D01*
X0055848Y0018500D01*
X0057613Y0019231D01*
X0058963Y0020581D01*
X0059694Y0022345D01*
X0059694Y0024255D01*
X0058963Y0026019D01*
X0057613Y0027369D01*
X0055848Y0028100D01*
X0053939Y0028100D01*
X0052175Y0027369D01*
X0050824Y0026019D01*
X0050094Y0024255D01*
X0050094Y0022345D01*
X0050824Y0020581D01*
X0050630Y0021051D02*
X0010194Y0021051D01*
X0010194Y0021649D02*
X0050382Y0021649D01*
X0050134Y0022248D02*
X0010194Y0022248D01*
X0010194Y0022846D02*
X0050094Y0022846D01*
X0050094Y0023445D02*
X0010194Y0023445D01*
X0010194Y0024043D02*
X0050094Y0024043D01*
X0050254Y0024642D02*
X0010194Y0024642D01*
X0010194Y0025240D02*
X0050502Y0025240D01*
X0050750Y0025839D02*
X0010194Y0025839D01*
X0010194Y0026437D02*
X0051243Y0026437D01*
X0051841Y0027036D02*
X0010194Y0027036D01*
X0010194Y0027634D02*
X0052815Y0027634D01*
X0056972Y0027634D02*
X0071894Y0027634D01*
X0071894Y0027036D02*
X0057946Y0027036D01*
X0058544Y0026437D02*
X0071894Y0026437D01*
X0071894Y0025839D02*
X0059037Y0025839D01*
X0059285Y0025240D02*
X0071894Y0025240D01*
X0071894Y0024642D02*
X0059533Y0024642D01*
X0059694Y0024043D02*
X0071894Y0024043D01*
X0071894Y0023445D02*
X0059694Y0023445D01*
X0059694Y0022846D02*
X0071894Y0022846D01*
X0071894Y0022248D02*
X0059653Y0022248D01*
X0059405Y0021649D02*
X0071894Y0021649D01*
X0071894Y0021051D02*
X0059158Y0021051D01*
X0058834Y0020452D02*
X0071894Y0020452D01*
X0071894Y0019854D02*
X0058236Y0019854D01*
X0057637Y0019255D02*
X0071894Y0019255D01*
X0071894Y0018657D02*
X0056227Y0018657D01*
X0053560Y0018657D02*
X0022841Y0018657D01*
X0023439Y0018058D02*
X0071894Y0018058D01*
X0071894Y0017460D02*
X0024038Y0017460D01*
X0024636Y0016861D02*
X0071894Y0016861D01*
X0071894Y0016263D02*
X0025235Y0016263D01*
X0025503Y0015664D02*
X0071894Y0015664D01*
X0071894Y0015066D02*
X0025751Y0015066D01*
X0025999Y0014467D02*
X0071894Y0014467D01*
X0071894Y0013869D02*
X0026247Y0013869D01*
X0026494Y0013270D02*
X0071894Y0013270D01*
X0071894Y0012672D02*
X0026594Y0012672D01*
X0026594Y0012073D02*
X0071894Y0012073D01*
X0071894Y0011475D02*
X0026594Y0011475D01*
X0026594Y0010876D02*
X0071894Y0010876D01*
X0071894Y0010278D02*
X0026594Y0010278D01*
X0026594Y0009679D02*
X0072393Y0009679D01*
X0072772Y0009300D02*
X0075272Y0006800D01*
X0090515Y0006800D01*
X0091394Y0007679D01*
X0097894Y0014179D01*
X0097894Y0061679D01*
X0101015Y0064800D01*
X0105320Y0064800D01*
X0105824Y0063581D01*
X0107175Y0062231D01*
X0108939Y0061500D01*
X0110848Y0061500D01*
X0112613Y0062231D01*
X0113963Y0063581D01*
X0114694Y0065345D01*
X0114694Y0067255D01*
X0113963Y0069019D01*
X0112613Y0070369D01*
X0110848Y0071100D01*
X0108939Y0071100D01*
X0107175Y0070369D01*
X0105824Y0069019D01*
X0105320Y0067800D01*
X0099772Y0067800D01*
X0094894Y0062921D01*
X0094894Y0015421D01*
X0089272Y0009800D01*
X0076515Y0009800D01*
X0074894Y0011421D01*
X0074894Y0030921D01*
X0072081Y0033734D01*
X0072094Y0033763D01*
X0072094Y0034837D01*
X0071683Y0035829D01*
X0070923Y0036589D01*
X0069931Y0037000D01*
X0068857Y0037000D01*
X0067864Y0036589D01*
X0067105Y0035829D01*
X0066694Y0034837D01*
X0066694Y0033763D01*
X0067105Y0032771D01*
X0067864Y0032011D01*
X0068857Y0031600D01*
X0069931Y0031600D01*
X0069960Y0031612D01*
X0071894Y0029679D01*
X0071894Y0010179D01*
X0072772Y0009300D01*
X0072992Y0009081D02*
X0026391Y0009081D01*
X0026143Y0008482D02*
X0073590Y0008482D01*
X0074189Y0007884D02*
X0025895Y0007884D01*
X0025647Y0007285D02*
X0074787Y0007285D01*
X0076037Y0010278D02*
X0089750Y0010278D01*
X0090349Y0010876D02*
X0075439Y0010876D01*
X0074894Y0011475D02*
X0090947Y0011475D01*
X0091546Y0012073D02*
X0074894Y0012073D01*
X0074894Y0012672D02*
X0092144Y0012672D01*
X0092743Y0013270D02*
X0074894Y0013270D01*
X0074894Y0013869D02*
X0093341Y0013869D01*
X0093940Y0014467D02*
X0074894Y0014467D01*
X0074894Y0015066D02*
X0094538Y0015066D01*
X0094894Y0015664D02*
X0074894Y0015664D01*
X0074894Y0016263D02*
X0094894Y0016263D01*
X0094894Y0016861D02*
X0074894Y0016861D01*
X0074894Y0017460D02*
X0094894Y0017460D01*
X0094894Y0018058D02*
X0074894Y0018058D01*
X0074894Y0018657D02*
X0088560Y0018657D01*
X0088939Y0018500D02*
X0090848Y0018500D01*
X0092613Y0019231D01*
X0093963Y0020581D01*
X0094694Y0022345D01*
X0094694Y0024255D01*
X0094189Y0025474D01*
X0094894Y0026179D01*
X0094894Y0074499D01*
X0094923Y0074511D01*
X0095683Y0075271D01*
X0096094Y0076263D01*
X0096094Y0077337D01*
X0095683Y0078329D01*
X0094923Y0079089D01*
X0094414Y0079300D01*
X0102272Y0079300D01*
X0105094Y0076479D01*
X0105094Y0075345D01*
X0105824Y0073581D01*
X0107175Y0072231D01*
X0108939Y0071500D01*
X0110848Y0071500D01*
X0112613Y0072231D01*
X0113963Y0073581D01*
X0114694Y0075345D01*
X0114694Y0077255D01*
X0113963Y0079019D01*
X0112613Y0080369D01*
X0110848Y0081100D01*
X0108939Y0081100D01*
X0107175Y0080369D01*
X0106310Y0079505D01*
X0104394Y0081421D01*
X0103515Y0082300D01*
X0090772Y0082300D01*
X0088772Y0080300D01*
X0087894Y0079421D01*
X0087894Y0059421D01*
X0084272Y0055800D01*
X0069195Y0055800D01*
X0069183Y0055829D01*
X0068423Y0056589D01*
X0067431Y0057000D01*
X0066357Y0057000D01*
X0065364Y0056589D01*
X0064605Y0055829D01*
X0064194Y0054837D01*
X0064194Y0053763D01*
X0064605Y0052771D01*
X0065364Y0052011D01*
X0066357Y0051600D01*
X0067431Y0051600D01*
X0068423Y0052011D01*
X0069183Y0052771D01*
X0069195Y0052800D01*
X0085515Y0052800D01*
X0086394Y0053679D01*
X0090894Y0058179D01*
X0090894Y0075780D01*
X0091105Y0075271D01*
X0091864Y0074511D01*
X0091894Y0074499D01*
X0091894Y0027667D01*
X0090848Y0028100D01*
X0088939Y0028100D01*
X0087175Y0027369D01*
X0085824Y0026019D01*
X0085094Y0024255D01*
X0085094Y0022345D01*
X0085824Y0020581D01*
X0087175Y0019231D01*
X0088939Y0018500D01*
X0087150Y0019255D02*
X0074894Y0019255D01*
X0074894Y0019854D02*
X0086552Y0019854D01*
X0085953Y0020452D02*
X0074894Y0020452D01*
X0074894Y0021051D02*
X0085630Y0021051D01*
X0085382Y0021649D02*
X0074894Y0021649D01*
X0074894Y0022248D02*
X0085134Y0022248D01*
X0085094Y0022846D02*
X0074894Y0022846D01*
X0074894Y0023445D02*
X0085094Y0023445D01*
X0085094Y0024043D02*
X0074894Y0024043D01*
X0074894Y0024642D02*
X0085254Y0024642D01*
X0085502Y0025240D02*
X0074894Y0025240D01*
X0074894Y0025839D02*
X0085750Y0025839D01*
X0086243Y0026437D02*
X0074894Y0026437D01*
X0074894Y0027036D02*
X0086841Y0027036D01*
X0087815Y0027634D02*
X0074894Y0027634D01*
X0074894Y0028233D02*
X0091894Y0028233D01*
X0091894Y0028832D02*
X0074894Y0028832D01*
X0074894Y0029430D02*
X0091894Y0029430D01*
X0091894Y0030029D02*
X0074894Y0030029D01*
X0074894Y0030627D02*
X0091894Y0030627D01*
X0091894Y0031226D02*
X0074589Y0031226D01*
X0073991Y0031824D02*
X0091894Y0031824D01*
X0091894Y0032423D02*
X0073392Y0032423D01*
X0072794Y0033021D02*
X0091894Y0033021D01*
X0091894Y0033620D02*
X0072195Y0033620D01*
X0072094Y0034218D02*
X0091894Y0034218D01*
X0091894Y0034817D02*
X0072094Y0034817D01*
X0071854Y0035415D02*
X0091894Y0035415D01*
X0091894Y0036014D02*
X0071498Y0036014D01*
X0070867Y0036612D02*
X0091894Y0036612D01*
X0091894Y0037211D02*
X0010194Y0037211D01*
X0010194Y0037809D02*
X0091894Y0037809D01*
X0091894Y0038408D02*
X0010194Y0038408D01*
X0010194Y0039006D02*
X0041717Y0039006D01*
X0041175Y0039231D02*
X0042939Y0038500D01*
X0044848Y0038500D01*
X0046613Y0039231D01*
X0047963Y0040581D01*
X0048694Y0042345D01*
X0048694Y0044255D01*
X0047963Y0046019D01*
X0046613Y0047369D01*
X0044848Y0048100D01*
X0042939Y0048100D01*
X0041175Y0047369D01*
X0039824Y0046019D01*
X0039094Y0044255D01*
X0039094Y0042345D01*
X0039824Y0040581D01*
X0041175Y0039231D01*
X0040801Y0039605D02*
X0010194Y0039605D01*
X0010194Y0040203D02*
X0021339Y0040203D01*
X0021879Y0039980D02*
X0020005Y0040756D01*
X0018570Y0042191D01*
X0017794Y0044065D01*
X0017794Y0046094D01*
X0018570Y0047968D01*
X0020005Y0049403D01*
X0021879Y0050180D01*
X0023908Y0050180D01*
X0025783Y0049403D01*
X0027217Y0047968D01*
X0027994Y0046094D01*
X0027994Y0044065D01*
X0027217Y0042191D01*
X0025783Y0040756D01*
X0023908Y0039980D01*
X0021879Y0039980D01*
X0019959Y0040802D02*
X0010194Y0040802D01*
X0010194Y0041400D02*
X0019360Y0041400D01*
X0018762Y0041999D02*
X0010194Y0041999D01*
X0010194Y0042597D02*
X0018402Y0042597D01*
X0018154Y0043196D02*
X0010194Y0043196D01*
X0010194Y0043794D02*
X0017906Y0043794D01*
X0017794Y0044393D02*
X0010194Y0044393D01*
X0010194Y0044991D02*
X0017794Y0044991D01*
X0017794Y0045590D02*
X0010194Y0045590D01*
X0010194Y0046188D02*
X0017833Y0046188D01*
X0018081Y0046787D02*
X0010194Y0046787D01*
X0010194Y0047385D02*
X0018329Y0047385D01*
X0018586Y0047984D02*
X0010194Y0047984D01*
X0010194Y0048582D02*
X0019184Y0048582D01*
X0019783Y0049181D02*
X0010194Y0049181D01*
X0010194Y0049779D02*
X0020913Y0049779D01*
X0024874Y0049779D02*
X0091894Y0049779D01*
X0091894Y0049181D02*
X0026005Y0049181D01*
X0026603Y0048582D02*
X0091894Y0048582D01*
X0091894Y0047984D02*
X0045129Y0047984D01*
X0046574Y0047385D02*
X0091894Y0047385D01*
X0091894Y0046787D02*
X0047195Y0046787D01*
X0047794Y0046188D02*
X0091894Y0046188D01*
X0091894Y0045590D02*
X0048141Y0045590D01*
X0048389Y0044991D02*
X0091894Y0044991D01*
X0091894Y0044393D02*
X0048637Y0044393D01*
X0048694Y0043794D02*
X0091894Y0043794D01*
X0091894Y0043196D02*
X0048694Y0043196D01*
X0048694Y0042597D02*
X0091894Y0042597D01*
X0091894Y0041999D02*
X0048550Y0041999D01*
X0048302Y0041400D02*
X0091894Y0041400D01*
X0091894Y0040802D02*
X0048054Y0040802D01*
X0047585Y0040203D02*
X0091894Y0040203D01*
X0091894Y0039605D02*
X0046987Y0039605D01*
X0046071Y0039006D02*
X0091894Y0039006D01*
X0094894Y0039006D02*
X0094894Y0039006D01*
X0094894Y0038408D02*
X0094894Y0038408D01*
X0094894Y0037809D02*
X0094894Y0037809D01*
X0094894Y0037211D02*
X0094894Y0037211D01*
X0094894Y0036612D02*
X0094894Y0036612D01*
X0094894Y0036014D02*
X0094894Y0036014D01*
X0094894Y0035415D02*
X0094894Y0035415D01*
X0094894Y0034817D02*
X0094894Y0034817D01*
X0094894Y0034218D02*
X0094894Y0034218D01*
X0094894Y0033620D02*
X0094894Y0033620D01*
X0094894Y0033021D02*
X0094894Y0033021D01*
X0094894Y0032423D02*
X0094894Y0032423D01*
X0094894Y0031824D02*
X0094894Y0031824D01*
X0094894Y0031226D02*
X0094894Y0031226D01*
X0094894Y0030627D02*
X0094894Y0030627D01*
X0094894Y0030029D02*
X0094894Y0030029D01*
X0094894Y0029430D02*
X0094894Y0029430D01*
X0094894Y0028832D02*
X0094894Y0028832D01*
X0094894Y0028233D02*
X0094894Y0028233D01*
X0094894Y0027634D02*
X0094894Y0027634D01*
X0094894Y0027036D02*
X0094894Y0027036D01*
X0094894Y0026437D02*
X0094894Y0026437D01*
X0094894Y0025839D02*
X0094554Y0025839D01*
X0094285Y0025240D02*
X0094894Y0025240D01*
X0094894Y0024642D02*
X0094533Y0024642D01*
X0094694Y0024043D02*
X0094894Y0024043D01*
X0094894Y0023445D02*
X0094694Y0023445D01*
X0094694Y0022846D02*
X0094894Y0022846D01*
X0094894Y0022248D02*
X0094653Y0022248D01*
X0094894Y0021649D02*
X0094405Y0021649D01*
X0094158Y0021051D02*
X0094894Y0021051D01*
X0094894Y0020452D02*
X0093834Y0020452D01*
X0093236Y0019854D02*
X0094894Y0019854D01*
X0094894Y0019255D02*
X0092637Y0019255D01*
X0091227Y0018657D02*
X0094894Y0018657D01*
X0097894Y0018657D02*
X0098994Y0018657D01*
X0098994Y0019255D02*
X0097894Y0019255D01*
X0097894Y0019854D02*
X0098994Y0019854D01*
X0098994Y0020452D02*
X0097894Y0020452D01*
X0097894Y0021051D02*
X0098994Y0021051D01*
X0098994Y0021649D02*
X0097894Y0021649D01*
X0097894Y0022248D02*
X0098994Y0022248D01*
X0098994Y0022846D02*
X0097894Y0022846D01*
X0097894Y0023445D02*
X0098994Y0023445D01*
X0098994Y0024043D02*
X0097894Y0024043D01*
X0097894Y0024642D02*
X0098994Y0024642D01*
X0098994Y0025240D02*
X0097894Y0025240D01*
X0097894Y0025839D02*
X0098994Y0025839D01*
X0098994Y0026437D02*
X0097894Y0026437D01*
X0097894Y0027036D02*
X0098994Y0027036D01*
X0098994Y0027634D02*
X0097894Y0027634D01*
X0097894Y0028233D02*
X0098994Y0028233D01*
X0098994Y0028832D02*
X0097894Y0028832D01*
X0097894Y0029430D02*
X0098994Y0029430D01*
X0098994Y0030029D02*
X0097894Y0030029D01*
X0097894Y0030627D02*
X0098994Y0030627D01*
X0098994Y0031226D02*
X0097894Y0031226D01*
X0097894Y0031824D02*
X0098994Y0031824D01*
X0098994Y0032087D02*
X0098994Y0014218D01*
X0098605Y0013829D01*
X0098194Y0012837D01*
X0098194Y0011763D01*
X0098605Y0010771D01*
X0099364Y0010011D01*
X0100357Y0009600D01*
X0101431Y0009600D01*
X0102423Y0010011D01*
X0103183Y0010771D01*
X0103594Y0011763D01*
X0103594Y0012837D01*
X0103183Y0013829D01*
X0102794Y0014218D01*
X0102794Y0030513D01*
X0105843Y0033562D01*
X0107175Y0032231D01*
X0108939Y0031500D01*
X0110848Y0031500D01*
X0112613Y0032231D01*
X0113963Y0033581D01*
X0114694Y0035345D01*
X0114694Y0037255D01*
X0113963Y0039019D01*
X0112613Y0040369D01*
X0110848Y0041100D01*
X0108939Y0041100D01*
X0107175Y0040369D01*
X0105824Y0039019D01*
X0105485Y0038200D01*
X0105107Y0038200D01*
X0100107Y0033200D01*
X0098994Y0032087D01*
X0099329Y0032423D02*
X0097894Y0032423D01*
X0097894Y0033021D02*
X0099928Y0033021D01*
X0100526Y0033620D02*
X0097894Y0033620D01*
X0097894Y0034218D02*
X0101125Y0034218D01*
X0101723Y0034817D02*
X0097894Y0034817D01*
X0097894Y0035415D02*
X0102322Y0035415D01*
X0102920Y0036014D02*
X0097894Y0036014D01*
X0097894Y0036612D02*
X0103519Y0036612D01*
X0104117Y0037211D02*
X0097894Y0037211D01*
X0097894Y0037809D02*
X0104716Y0037809D01*
X0105571Y0038408D02*
X0097894Y0038408D01*
X0097894Y0039006D02*
X0105819Y0039006D01*
X0106410Y0039605D02*
X0097894Y0039605D01*
X0097894Y0040203D02*
X0107009Y0040203D01*
X0108219Y0040802D02*
X0097894Y0040802D01*
X0097894Y0041400D02*
X0130594Y0041400D01*
X0130594Y0040802D02*
X0121807Y0040802D01*
X0121329Y0041000D02*
X0119459Y0041000D01*
X0117731Y0040284D01*
X0116409Y0038962D01*
X0115694Y0037235D01*
X0115694Y0035365D01*
X0116409Y0033638D01*
X0117731Y0032316D01*
X0119459Y0031600D01*
X0121329Y0031600D01*
X0123056Y0032316D01*
X0124378Y0033638D01*
X0125094Y0035365D01*
X0125094Y0037235D01*
X0124378Y0038962D01*
X0123056Y0040284D01*
X0121329Y0041000D01*
X0121329Y0041600D02*
X0123056Y0042316D01*
X0124378Y0043638D01*
X0125094Y0045365D01*
X0125094Y0047235D01*
X0124378Y0048962D01*
X0123056Y0050284D01*
X0121329Y0051000D01*
X0119459Y0051000D01*
X0117731Y0050284D01*
X0116409Y0048962D01*
X0115694Y0047235D01*
X0115694Y0045365D01*
X0116409Y0043638D01*
X0117731Y0042316D01*
X0119459Y0041600D01*
X0121329Y0041600D01*
X0122291Y0041999D02*
X0130594Y0041999D01*
X0130594Y0042597D02*
X0123338Y0042597D01*
X0123936Y0043196D02*
X0130594Y0043196D01*
X0130594Y0043794D02*
X0124443Y0043794D01*
X0124691Y0044393D02*
X0130594Y0044393D01*
X0130594Y0044991D02*
X0124939Y0044991D01*
X0125094Y0045590D02*
X0130594Y0045590D01*
X0130594Y0046188D02*
X0125094Y0046188D01*
X0125094Y0046787D02*
X0130594Y0046787D01*
X0130594Y0047385D02*
X0125031Y0047385D01*
X0124783Y0047984D02*
X0130594Y0047984D01*
X0130594Y0048582D02*
X0124536Y0048582D01*
X0124160Y0049181D02*
X0130594Y0049181D01*
X0130594Y0049779D02*
X0123561Y0049779D01*
X0122830Y0050378D02*
X0130594Y0050378D01*
X0130594Y0050976D02*
X0121385Y0050976D01*
X0121329Y0051600D02*
X0123056Y0052316D01*
X0124378Y0053638D01*
X0125094Y0055365D01*
X0125094Y0057235D01*
X0124378Y0058962D01*
X0123056Y0060284D01*
X0121329Y0061000D01*
X0119459Y0061000D01*
X0117731Y0060284D01*
X0116409Y0058962D01*
X0115694Y0057235D01*
X0115694Y0055365D01*
X0116409Y0053638D01*
X0117731Y0052316D01*
X0119459Y0051600D01*
X0121329Y0051600D01*
X0122713Y0052173D02*
X0130594Y0052173D01*
X0130594Y0051575D02*
X0111029Y0051575D01*
X0110848Y0051500D02*
X0112613Y0052231D01*
X0113963Y0053581D01*
X0114694Y0055345D01*
X0114694Y0057255D01*
X0113963Y0059019D01*
X0112613Y0060369D01*
X0110848Y0061100D01*
X0108939Y0061100D01*
X0107175Y0060369D01*
X0105824Y0059019D01*
X0105094Y0057255D01*
X0105094Y0055345D01*
X0105824Y0053581D01*
X0107175Y0052231D01*
X0108939Y0051500D01*
X0110848Y0051500D01*
X0110848Y0051100D02*
X0108939Y0051100D01*
X0107175Y0050369D01*
X0105824Y0049019D01*
X0105094Y0047255D01*
X0105094Y0045345D01*
X0105824Y0043581D01*
X0107175Y0042231D01*
X0108939Y0041500D01*
X0110848Y0041500D01*
X0112613Y0042231D01*
X0113963Y0043581D01*
X0114694Y0045345D01*
X0114694Y0047255D01*
X0113963Y0049019D01*
X0112613Y0050369D01*
X0110848Y0051100D01*
X0111147Y0050976D02*
X0119402Y0050976D01*
X0117957Y0050378D02*
X0112592Y0050378D01*
X0113202Y0049779D02*
X0117226Y0049779D01*
X0116628Y0049181D02*
X0113801Y0049181D01*
X0114144Y0048582D02*
X0116252Y0048582D01*
X0116004Y0047984D02*
X0114392Y0047984D01*
X0114640Y0047385D02*
X0115756Y0047385D01*
X0115694Y0046787D02*
X0114694Y0046787D01*
X0114694Y0046188D02*
X0115694Y0046188D01*
X0115694Y0045590D02*
X0114694Y0045590D01*
X0114547Y0044991D02*
X0115849Y0044991D01*
X0116096Y0044393D02*
X0114299Y0044393D01*
X0114051Y0043794D02*
X0116344Y0043794D01*
X0116851Y0043196D02*
X0113578Y0043196D01*
X0112979Y0042597D02*
X0117450Y0042597D01*
X0118496Y0041999D02*
X0112053Y0041999D01*
X0111568Y0040802D02*
X0118980Y0040802D01*
X0117650Y0040203D02*
X0112779Y0040203D01*
X0113377Y0039605D02*
X0117052Y0039605D01*
X0116453Y0039006D02*
X0113968Y0039006D01*
X0114216Y0038408D02*
X0116180Y0038408D01*
X0115932Y0037809D02*
X0114464Y0037809D01*
X0114694Y0037211D02*
X0115694Y0037211D01*
X0115694Y0036612D02*
X0114694Y0036612D01*
X0114694Y0036014D02*
X0115694Y0036014D01*
X0115694Y0035415D02*
X0114694Y0035415D01*
X0114475Y0034817D02*
X0115921Y0034817D01*
X0116169Y0034218D02*
X0114227Y0034218D01*
X0113979Y0033620D02*
X0116427Y0033620D01*
X0117026Y0033021D02*
X0113403Y0033021D01*
X0112805Y0032423D02*
X0117624Y0032423D01*
X0118918Y0031824D02*
X0111631Y0031824D01*
X0114049Y0031100D02*
X0105738Y0031100D01*
X0105094Y0030456D01*
X0105094Y0022144D01*
X0105738Y0021500D01*
X0114049Y0021500D01*
X0114694Y0022144D01*
X0114694Y0030456D01*
X0114049Y0031100D01*
X0114522Y0030627D02*
X0118558Y0030627D01*
X0117731Y0030284D02*
X0116409Y0028962D01*
X0115694Y0027235D01*
X0115694Y0025365D01*
X0116409Y0023638D01*
X0117731Y0022316D01*
X0119459Y0021600D01*
X0121329Y0021600D01*
X0123056Y0022316D01*
X0124378Y0023638D01*
X0125094Y0025365D01*
X0125094Y0027235D01*
X0124378Y0028962D01*
X0123056Y0030284D01*
X0121329Y0031000D01*
X0119459Y0031000D01*
X0117731Y0030284D01*
X0117475Y0030029D02*
X0114694Y0030029D01*
X0114694Y0029430D02*
X0116877Y0029430D01*
X0116355Y0028832D02*
X0114694Y0028832D01*
X0114694Y0028233D02*
X0116107Y0028233D01*
X0115859Y0027634D02*
X0114694Y0027634D01*
X0114694Y0027036D02*
X0115694Y0027036D01*
X0115694Y0026437D02*
X0114694Y0026437D01*
X0114694Y0025839D02*
X0115694Y0025839D01*
X0115745Y0025240D02*
X0114694Y0025240D01*
X0114694Y0024642D02*
X0115993Y0024642D01*
X0116241Y0024043D02*
X0114694Y0024043D01*
X0114694Y0023445D02*
X0116602Y0023445D01*
X0117200Y0022846D02*
X0114694Y0022846D01*
X0114694Y0022248D02*
X0117895Y0022248D01*
X0119340Y0021649D02*
X0114199Y0021649D01*
X0117348Y0018058D02*
X0102794Y0018058D01*
X0102794Y0017460D02*
X0116750Y0017460D01*
X0116151Y0016861D02*
X0102794Y0016861D01*
X0102794Y0016263D02*
X0115553Y0016263D01*
X0115285Y0015664D02*
X0102794Y0015664D01*
X0102794Y0015066D02*
X0115037Y0015066D01*
X0114789Y0014467D02*
X0102794Y0014467D01*
X0103143Y0013869D02*
X0114541Y0013869D01*
X0114293Y0013270D02*
X0103414Y0013270D01*
X0103594Y0012672D02*
X0114194Y0012672D01*
X0114194Y0012073D02*
X0103594Y0012073D01*
X0103474Y0011475D02*
X0114194Y0011475D01*
X0114194Y0010876D02*
X0103226Y0010876D01*
X0102690Y0010278D02*
X0114194Y0010278D01*
X0114194Y0009679D02*
X0101622Y0009679D01*
X0100166Y0009679D02*
X0093394Y0009679D01*
X0092796Y0009081D02*
X0114396Y0009081D01*
X0114644Y0008482D02*
X0092197Y0008482D01*
X0091599Y0007884D02*
X0114892Y0007884D01*
X0115140Y0007285D02*
X0091000Y0007285D01*
X0091394Y0007679D02*
X0091394Y0007679D01*
X0093993Y0010278D02*
X0099098Y0010278D01*
X0098561Y0010876D02*
X0094591Y0010876D01*
X0095190Y0011475D02*
X0098313Y0011475D01*
X0098194Y0012073D02*
X0095788Y0012073D01*
X0096387Y0012672D02*
X0098194Y0012672D01*
X0098373Y0013270D02*
X0096985Y0013270D01*
X0097584Y0013869D02*
X0098644Y0013869D01*
X0098994Y0014467D02*
X0097894Y0014467D01*
X0097894Y0015066D02*
X0098994Y0015066D01*
X0098994Y0015664D02*
X0097894Y0015664D01*
X0097894Y0016263D02*
X0098994Y0016263D01*
X0098994Y0016861D02*
X0097894Y0016861D01*
X0097894Y0017460D02*
X0098994Y0017460D01*
X0098994Y0018058D02*
X0097894Y0018058D01*
X0102794Y0018657D02*
X0117947Y0018657D01*
X0119365Y0019255D02*
X0102794Y0019255D01*
X0102794Y0019854D02*
X0120810Y0019854D01*
X0121448Y0021649D02*
X0130594Y0021649D01*
X0130594Y0021051D02*
X0102794Y0021051D01*
X0102794Y0021649D02*
X0105589Y0021649D01*
X0105094Y0022248D02*
X0102794Y0022248D01*
X0102794Y0022846D02*
X0105094Y0022846D01*
X0105094Y0023445D02*
X0102794Y0023445D01*
X0102794Y0024043D02*
X0105094Y0024043D01*
X0105094Y0024642D02*
X0102794Y0024642D01*
X0102794Y0025240D02*
X0105094Y0025240D01*
X0105094Y0025839D02*
X0102794Y0025839D01*
X0102794Y0026437D02*
X0105094Y0026437D01*
X0105094Y0027036D02*
X0102794Y0027036D01*
X0102794Y0027634D02*
X0105094Y0027634D01*
X0105094Y0028233D02*
X0102794Y0028233D01*
X0102794Y0028832D02*
X0105094Y0028832D01*
X0105094Y0029430D02*
X0102794Y0029430D01*
X0102794Y0030029D02*
X0105094Y0030029D01*
X0105265Y0030627D02*
X0102908Y0030627D01*
X0103506Y0031226D02*
X0130594Y0031226D01*
X0130594Y0031824D02*
X0121870Y0031824D01*
X0122229Y0030627D02*
X0130594Y0030627D01*
X0130594Y0030029D02*
X0123312Y0030029D01*
X0123910Y0029430D02*
X0130594Y0029430D01*
X0130594Y0028832D02*
X0124432Y0028832D01*
X0124680Y0028233D02*
X0130594Y0028233D01*
X0130594Y0027634D02*
X0124928Y0027634D01*
X0125094Y0027036D02*
X0130594Y0027036D01*
X0130594Y0026437D02*
X0125094Y0026437D01*
X0125094Y0025839D02*
X0130594Y0025839D01*
X0130594Y0025240D02*
X0125042Y0025240D01*
X0124794Y0024642D02*
X0130594Y0024642D01*
X0130594Y0024043D02*
X0124546Y0024043D01*
X0124185Y0023445D02*
X0130594Y0023445D01*
X0130594Y0022846D02*
X0123587Y0022846D01*
X0122893Y0022248D02*
X0130594Y0022248D01*
X0130594Y0020452D02*
X0102794Y0020452D01*
X0104105Y0031824D02*
X0108157Y0031824D01*
X0106983Y0032423D02*
X0104703Y0032423D01*
X0105302Y0033021D02*
X0106384Y0033021D01*
X0107735Y0041999D02*
X0097894Y0041999D01*
X0097894Y0042597D02*
X0106808Y0042597D01*
X0106210Y0043196D02*
X0097894Y0043196D01*
X0097894Y0043794D02*
X0105736Y0043794D01*
X0105488Y0044393D02*
X0097894Y0044393D01*
X0097894Y0044991D02*
X0105240Y0044991D01*
X0105094Y0045590D02*
X0097894Y0045590D01*
X0097894Y0046188D02*
X0105094Y0046188D01*
X0105094Y0046787D02*
X0097894Y0046787D01*
X0097894Y0047385D02*
X0105148Y0047385D01*
X0105396Y0047984D02*
X0097894Y0047984D01*
X0097894Y0048582D02*
X0105644Y0048582D01*
X0105986Y0049181D02*
X0097894Y0049181D01*
X0097894Y0049779D02*
X0106585Y0049779D01*
X0107196Y0050378D02*
X0097894Y0050378D01*
X0097894Y0050976D02*
X0108641Y0050976D01*
X0108758Y0051575D02*
X0097894Y0051575D01*
X0097894Y0052173D02*
X0107313Y0052173D01*
X0106634Y0052772D02*
X0097894Y0052772D01*
X0097894Y0053370D02*
X0106035Y0053370D01*
X0105664Y0053969D02*
X0097894Y0053969D01*
X0097894Y0054568D02*
X0105416Y0054568D01*
X0105168Y0055166D02*
X0097894Y0055166D01*
X0097894Y0055765D02*
X0105094Y0055765D01*
X0105094Y0056363D02*
X0097894Y0056363D01*
X0097894Y0056962D02*
X0105094Y0056962D01*
X0105220Y0057560D02*
X0097894Y0057560D01*
X0097894Y0058159D02*
X0105468Y0058159D01*
X0105716Y0058757D02*
X0097894Y0058757D01*
X0097894Y0059356D02*
X0106161Y0059356D01*
X0106760Y0059954D02*
X0097894Y0059954D01*
X0097894Y0060553D02*
X0107617Y0060553D01*
X0108336Y0061750D02*
X0097965Y0061750D01*
X0097894Y0061151D02*
X0130594Y0061151D01*
X0130594Y0060553D02*
X0122409Y0060553D01*
X0123386Y0059954D02*
X0130594Y0059954D01*
X0130594Y0059356D02*
X0123985Y0059356D01*
X0124463Y0058757D02*
X0130594Y0058757D01*
X0130594Y0058159D02*
X0124711Y0058159D01*
X0124959Y0057560D02*
X0130594Y0057560D01*
X0130594Y0056962D02*
X0125094Y0056962D01*
X0125094Y0056363D02*
X0130594Y0056363D01*
X0130594Y0055765D02*
X0125094Y0055765D01*
X0125011Y0055166D02*
X0130594Y0055166D01*
X0130594Y0054568D02*
X0124763Y0054568D01*
X0124515Y0053969D02*
X0130594Y0053969D01*
X0130594Y0053370D02*
X0124111Y0053370D01*
X0123512Y0052772D02*
X0130594Y0052772D01*
X0130594Y0061750D02*
X0121690Y0061750D01*
X0121329Y0061600D02*
X0123056Y0062316D01*
X0124378Y0063638D01*
X0125094Y0065365D01*
X0125094Y0067235D01*
X0124378Y0068962D01*
X0123056Y0070284D01*
X0121329Y0071000D01*
X0119459Y0071000D01*
X0117731Y0070284D01*
X0116409Y0068962D01*
X0115694Y0067235D01*
X0115694Y0065365D01*
X0116409Y0063638D01*
X0117731Y0062316D01*
X0119459Y0061600D01*
X0121329Y0061600D01*
X0123089Y0062348D02*
X0130594Y0062348D01*
X0130594Y0062947D02*
X0123687Y0062947D01*
X0124286Y0063545D02*
X0130594Y0063545D01*
X0130594Y0064144D02*
X0124588Y0064144D01*
X0124836Y0064742D02*
X0130594Y0064742D01*
X0130594Y0065341D02*
X0125084Y0065341D01*
X0125094Y0065939D02*
X0130594Y0065939D01*
X0130594Y0066538D02*
X0125094Y0066538D01*
X0125094Y0067136D02*
X0130594Y0067136D01*
X0130594Y0067735D02*
X0124887Y0067735D01*
X0124639Y0068333D02*
X0130594Y0068333D01*
X0130594Y0068932D02*
X0124391Y0068932D01*
X0123810Y0069530D02*
X0130594Y0069530D01*
X0130594Y0070129D02*
X0123212Y0070129D01*
X0121987Y0070727D02*
X0130594Y0070727D01*
X0130594Y0071326D02*
X0094894Y0071326D01*
X0094894Y0071924D02*
X0107914Y0071924D01*
X0106883Y0072523D02*
X0094894Y0072523D01*
X0094894Y0073121D02*
X0106284Y0073121D01*
X0105767Y0073720D02*
X0094894Y0073720D01*
X0094894Y0074318D02*
X0105519Y0074318D01*
X0105271Y0074917D02*
X0095329Y0074917D01*
X0095784Y0075515D02*
X0105094Y0075515D01*
X0105094Y0076114D02*
X0096032Y0076114D01*
X0096094Y0076712D02*
X0104860Y0076712D01*
X0104261Y0077311D02*
X0096094Y0077311D01*
X0095857Y0077909D02*
X0103663Y0077909D01*
X0103064Y0078508D02*
X0095504Y0078508D01*
X0094881Y0079106D02*
X0102466Y0079106D01*
X0104314Y0081501D02*
X0130594Y0081501D01*
X0130594Y0082099D02*
X0103716Y0082099D01*
X0104913Y0080902D02*
X0108461Y0080902D01*
X0107109Y0080303D02*
X0105512Y0080303D01*
X0106110Y0079705D02*
X0106510Y0079705D01*
X0111326Y0080902D02*
X0119222Y0080902D01*
X0119459Y0081000D02*
X0117731Y0080284D01*
X0116409Y0078962D01*
X0115694Y0077235D01*
X0115694Y0075365D01*
X0116409Y0073638D01*
X0117731Y0072316D01*
X0119459Y0071600D01*
X0121329Y0071600D01*
X0123056Y0072316D01*
X0124378Y0073638D01*
X0125094Y0075365D01*
X0125094Y0077235D01*
X0124378Y0078962D01*
X0123056Y0080284D01*
X0121329Y0081000D01*
X0119459Y0081000D01*
X0121565Y0080902D02*
X0130594Y0080902D01*
X0130594Y0080303D02*
X0123010Y0080303D01*
X0123636Y0079705D02*
X0130594Y0079705D01*
X0130594Y0079106D02*
X0124234Y0079106D01*
X0124566Y0078508D02*
X0130594Y0078508D01*
X0130594Y0077909D02*
X0124814Y0077909D01*
X0125062Y0077311D02*
X0130594Y0077311D01*
X0130594Y0076712D02*
X0125094Y0076712D01*
X0125094Y0076114D02*
X0130594Y0076114D01*
X0130594Y0075515D02*
X0125094Y0075515D01*
X0124908Y0074917D02*
X0130594Y0074917D01*
X0130594Y0074318D02*
X0124660Y0074318D01*
X0124412Y0073720D02*
X0130594Y0073720D01*
X0130594Y0073121D02*
X0123862Y0073121D01*
X0123263Y0072523D02*
X0130594Y0072523D01*
X0130594Y0071924D02*
X0122112Y0071924D01*
X0118676Y0071924D02*
X0111873Y0071924D01*
X0112905Y0072523D02*
X0117524Y0072523D01*
X0116926Y0073121D02*
X0113503Y0073121D01*
X0114020Y0073720D02*
X0116375Y0073720D01*
X0116127Y0074318D02*
X0114268Y0074318D01*
X0114516Y0074917D02*
X0115879Y0074917D01*
X0115694Y0075515D02*
X0114694Y0075515D01*
X0114694Y0076114D02*
X0115694Y0076114D01*
X0115694Y0076712D02*
X0114694Y0076712D01*
X0114670Y0077311D02*
X0115725Y0077311D01*
X0115973Y0077909D02*
X0114423Y0077909D01*
X0114175Y0078508D02*
X0116221Y0078508D01*
X0116553Y0079106D02*
X0113875Y0079106D01*
X0113277Y0079705D02*
X0117152Y0079705D01*
X0117777Y0080303D02*
X0112678Y0080303D01*
X0111748Y0070727D02*
X0118801Y0070727D01*
X0117576Y0070129D02*
X0112853Y0070129D01*
X0113452Y0069530D02*
X0116977Y0069530D01*
X0116397Y0068932D02*
X0113999Y0068932D01*
X0114247Y0068333D02*
X0116149Y0068333D01*
X0115901Y0067735D02*
X0114495Y0067735D01*
X0114694Y0067136D02*
X0115694Y0067136D01*
X0115694Y0066538D02*
X0114694Y0066538D01*
X0114694Y0065939D02*
X0115694Y0065939D01*
X0115704Y0065341D02*
X0114692Y0065341D01*
X0114444Y0064742D02*
X0115952Y0064742D01*
X0116200Y0064144D02*
X0114196Y0064144D01*
X0113927Y0063545D02*
X0116502Y0063545D01*
X0117100Y0062947D02*
X0113329Y0062947D01*
X0112730Y0062348D02*
X0117699Y0062348D01*
X0119098Y0061750D02*
X0111451Y0061750D01*
X0112170Y0060553D02*
X0118379Y0060553D01*
X0117401Y0059954D02*
X0113028Y0059954D01*
X0113626Y0059356D02*
X0116802Y0059356D01*
X0116324Y0058757D02*
X0114071Y0058757D01*
X0114319Y0058159D02*
X0116076Y0058159D01*
X0115828Y0057560D02*
X0114567Y0057560D01*
X0114694Y0056962D02*
X0115694Y0056962D01*
X0115694Y0056363D02*
X0114694Y0056363D01*
X0114694Y0055765D02*
X0115694Y0055765D01*
X0115776Y0055166D02*
X0114619Y0055166D01*
X0114372Y0054568D02*
X0116024Y0054568D01*
X0116272Y0053969D02*
X0114124Y0053969D01*
X0113752Y0053370D02*
X0116676Y0053370D01*
X0117275Y0052772D02*
X0113154Y0052772D01*
X0112474Y0052173D02*
X0118074Y0052173D01*
X0123137Y0040203D02*
X0130594Y0040203D01*
X0130594Y0039605D02*
X0123736Y0039605D01*
X0124334Y0039006D02*
X0130594Y0039006D01*
X0130594Y0038408D02*
X0124608Y0038408D01*
X0124856Y0037809D02*
X0130594Y0037809D01*
X0130594Y0037211D02*
X0125094Y0037211D01*
X0125094Y0036612D02*
X0130594Y0036612D01*
X0130594Y0036014D02*
X0125094Y0036014D01*
X0125094Y0035415D02*
X0130594Y0035415D01*
X0130594Y0034817D02*
X0124866Y0034817D01*
X0124619Y0034218D02*
X0130594Y0034218D01*
X0130594Y0033620D02*
X0124360Y0033620D01*
X0123762Y0033021D02*
X0130594Y0033021D01*
X0130594Y0032423D02*
X0123163Y0032423D01*
X0124977Y0019854D02*
X0130594Y0019854D01*
X0130594Y0019255D02*
X0126422Y0019255D01*
X0127841Y0018657D02*
X0130594Y0018657D01*
X0130594Y0018058D02*
X0128439Y0018058D01*
X0129038Y0017460D02*
X0130594Y0017460D01*
X0130594Y0016861D02*
X0129636Y0016861D01*
X0130235Y0016263D02*
X0130594Y0016263D01*
X0130594Y0015664D02*
X0130503Y0015664D01*
X0118522Y0003694D02*
X0022265Y0003694D01*
X0023190Y0004293D02*
X0117597Y0004293D01*
X0116999Y0004891D02*
X0023788Y0004891D01*
X0024387Y0005490D02*
X0116400Y0005490D01*
X0115802Y0006088D02*
X0024985Y0006088D01*
X0025400Y0006687D02*
X0115388Y0006687D01*
X0094894Y0039605D02*
X0094894Y0039605D01*
X0094894Y0040203D02*
X0094894Y0040203D01*
X0094894Y0040802D02*
X0094894Y0040802D01*
X0094894Y0041400D02*
X0094894Y0041400D01*
X0094894Y0041999D02*
X0094894Y0041999D01*
X0094894Y0042597D02*
X0094894Y0042597D01*
X0094894Y0043196D02*
X0094894Y0043196D01*
X0094894Y0043794D02*
X0094894Y0043794D01*
X0094894Y0044393D02*
X0094894Y0044393D01*
X0094894Y0044991D02*
X0094894Y0044991D01*
X0094894Y0045590D02*
X0094894Y0045590D01*
X0094894Y0046188D02*
X0094894Y0046188D01*
X0094894Y0046787D02*
X0094894Y0046787D01*
X0094894Y0047385D02*
X0094894Y0047385D01*
X0094894Y0047984D02*
X0094894Y0047984D01*
X0094894Y0048582D02*
X0094894Y0048582D01*
X0094894Y0049181D02*
X0094894Y0049181D01*
X0094894Y0049779D02*
X0094894Y0049779D01*
X0094894Y0050378D02*
X0094894Y0050378D01*
X0094894Y0050976D02*
X0094894Y0050976D01*
X0094894Y0051575D02*
X0094894Y0051575D01*
X0094894Y0052173D02*
X0094894Y0052173D01*
X0094894Y0052772D02*
X0094894Y0052772D01*
X0094894Y0053370D02*
X0094894Y0053370D01*
X0094894Y0053969D02*
X0094894Y0053969D01*
X0094894Y0054568D02*
X0094894Y0054568D01*
X0094894Y0055166D02*
X0094894Y0055166D01*
X0094894Y0055765D02*
X0094894Y0055765D01*
X0094894Y0056363D02*
X0094894Y0056363D01*
X0094894Y0056962D02*
X0094894Y0056962D01*
X0094894Y0057560D02*
X0094894Y0057560D01*
X0094894Y0058159D02*
X0094894Y0058159D01*
X0094894Y0058757D02*
X0094894Y0058757D01*
X0094894Y0059356D02*
X0094894Y0059356D01*
X0094894Y0059954D02*
X0094894Y0059954D01*
X0094894Y0060553D02*
X0094894Y0060553D01*
X0094894Y0061151D02*
X0094894Y0061151D01*
X0094894Y0061750D02*
X0094894Y0061750D01*
X0094894Y0062348D02*
X0094894Y0062348D01*
X0094894Y0062947D02*
X0094919Y0062947D01*
X0094894Y0063545D02*
X0095518Y0063545D01*
X0096116Y0064144D02*
X0094894Y0064144D01*
X0094894Y0064742D02*
X0096715Y0064742D01*
X0097313Y0065341D02*
X0094894Y0065341D01*
X0094894Y0065939D02*
X0097912Y0065939D01*
X0098510Y0066538D02*
X0094894Y0066538D01*
X0094894Y0067136D02*
X0099109Y0067136D01*
X0099707Y0067735D02*
X0094894Y0067735D01*
X0094894Y0068333D02*
X0105540Y0068333D01*
X0105788Y0068932D02*
X0094894Y0068932D01*
X0094894Y0069530D02*
X0106336Y0069530D01*
X0106934Y0070129D02*
X0094894Y0070129D01*
X0094894Y0070727D02*
X0108039Y0070727D01*
X0105343Y0064742D02*
X0100957Y0064742D01*
X0100359Y0064144D02*
X0105591Y0064144D01*
X0105860Y0063545D02*
X0099760Y0063545D01*
X0099162Y0062947D02*
X0106459Y0062947D01*
X0107057Y0062348D02*
X0098563Y0062348D01*
X0091894Y0062348D02*
X0090894Y0062348D01*
X0090894Y0061750D02*
X0091894Y0061750D01*
X0091894Y0061151D02*
X0090894Y0061151D01*
X0090894Y0060553D02*
X0091894Y0060553D01*
X0091894Y0059954D02*
X0090894Y0059954D01*
X0090894Y0059356D02*
X0091894Y0059356D01*
X0091894Y0058757D02*
X0090894Y0058757D01*
X0090874Y0058159D02*
X0091894Y0058159D01*
X0091894Y0057560D02*
X0090275Y0057560D01*
X0089677Y0056962D02*
X0091894Y0056962D01*
X0091894Y0056363D02*
X0089078Y0056363D01*
X0088480Y0055765D02*
X0091894Y0055765D01*
X0091894Y0055166D02*
X0087881Y0055166D01*
X0087283Y0054568D02*
X0091894Y0054568D01*
X0091894Y0053969D02*
X0086684Y0053969D01*
X0086086Y0053370D02*
X0091894Y0053370D01*
X0091894Y0052772D02*
X0069183Y0052772D01*
X0068586Y0052173D02*
X0091894Y0052173D01*
X0091894Y0051575D02*
X0010194Y0051575D01*
X0010194Y0052173D02*
X0065202Y0052173D01*
X0064604Y0052772D02*
X0010194Y0052772D01*
X0010194Y0053370D02*
X0064356Y0053370D01*
X0064194Y0053969D02*
X0010194Y0053969D01*
X0010194Y0054568D02*
X0064194Y0054568D01*
X0064330Y0055166D02*
X0010194Y0055166D01*
X0010194Y0055765D02*
X0064578Y0055765D01*
X0065138Y0056363D02*
X0010194Y0056363D01*
X0010194Y0056962D02*
X0066264Y0056962D01*
X0067524Y0056962D02*
X0085434Y0056962D01*
X0086032Y0057560D02*
X0076972Y0057560D01*
X0077262Y0061750D02*
X0080939Y0061750D01*
X0081538Y0062348D02*
X0076297Y0062348D01*
X0074490Y0062348D02*
X0025352Y0062348D01*
X0024854Y0062142D02*
X0026133Y0062672D01*
X0027113Y0063651D01*
X0027643Y0064930D01*
X0027643Y0066315D01*
X0027113Y0067595D01*
X0026133Y0068574D01*
X0024854Y0069104D01*
X0023469Y0069104D01*
X0022190Y0068574D01*
X0021210Y0067595D01*
X0020680Y0066315D01*
X0020680Y0064930D01*
X0021210Y0063651D01*
X0022190Y0062672D01*
X0023469Y0062142D01*
X0024854Y0062142D01*
X0026408Y0062947D02*
X0082136Y0062947D01*
X0082735Y0063545D02*
X0027007Y0063545D01*
X0027317Y0064144D02*
X0083333Y0064144D01*
X0083932Y0064742D02*
X0027565Y0064742D01*
X0027643Y0065341D02*
X0084194Y0065341D01*
X0084194Y0065939D02*
X0027643Y0065939D01*
X0027550Y0066538D02*
X0084194Y0066538D01*
X0084194Y0067136D02*
X0027302Y0067136D01*
X0026972Y0067735D02*
X0084194Y0067735D01*
X0084194Y0068333D02*
X0026374Y0068333D01*
X0025269Y0068932D02*
X0084194Y0068932D01*
X0084194Y0069530D02*
X0010194Y0069530D01*
X0010194Y0068932D02*
X0023053Y0068932D01*
X0021949Y0068333D02*
X0010194Y0068333D01*
X0010194Y0067735D02*
X0021350Y0067735D01*
X0021020Y0067136D02*
X0010194Y0067136D01*
X0010194Y0066538D02*
X0020772Y0066538D01*
X0020680Y0065939D02*
X0010194Y0065939D01*
X0010194Y0065341D02*
X0020680Y0065341D01*
X0020758Y0064742D02*
X0010194Y0064742D01*
X0010194Y0064144D02*
X0021006Y0064144D01*
X0021316Y0063545D02*
X0010194Y0063545D01*
X0010194Y0062947D02*
X0021915Y0062947D01*
X0022971Y0062348D02*
X0010194Y0062348D01*
X0010194Y0061750D02*
X0073525Y0061750D01*
X0073031Y0061151D02*
X0010194Y0061151D01*
X0010194Y0060553D02*
X0072783Y0060553D01*
X0072694Y0059954D02*
X0010194Y0059954D01*
X0010194Y0059356D02*
X0072694Y0059356D01*
X0072903Y0058757D02*
X0010194Y0058757D01*
X0010194Y0058159D02*
X0073217Y0058159D01*
X0073815Y0057560D02*
X0010194Y0057560D01*
X0010194Y0050976D02*
X0091894Y0050976D01*
X0091894Y0050378D02*
X0010194Y0050378D01*
X0010194Y0036612D02*
X0067920Y0036612D01*
X0067289Y0036014D02*
X0010194Y0036014D01*
X0010194Y0035415D02*
X0066933Y0035415D01*
X0066694Y0034817D02*
X0010194Y0034817D01*
X0010194Y0034218D02*
X0066694Y0034218D01*
X0066753Y0033620D02*
X0010194Y0033620D01*
X0010194Y0033021D02*
X0067001Y0033021D01*
X0067453Y0032423D02*
X0010194Y0032423D01*
X0010194Y0031824D02*
X0068316Y0031824D01*
X0070347Y0031226D02*
X0010194Y0031226D01*
X0010194Y0030627D02*
X0070945Y0030627D01*
X0071544Y0030029D02*
X0010194Y0030029D01*
X0010194Y0029430D02*
X0071894Y0029430D01*
X0071894Y0028832D02*
X0010194Y0028832D01*
X0010194Y0028233D02*
X0071894Y0028233D01*
X0068649Y0056363D02*
X0084835Y0056363D01*
X0086631Y0058159D02*
X0082156Y0058159D01*
X0082755Y0058757D02*
X0087229Y0058757D01*
X0087828Y0059356D02*
X0083353Y0059356D01*
X0083952Y0059954D02*
X0087894Y0059954D01*
X0087894Y0060553D02*
X0084550Y0060553D01*
X0085149Y0061151D02*
X0087894Y0061151D01*
X0087894Y0061750D02*
X0085748Y0061750D01*
X0086346Y0062348D02*
X0087894Y0062348D01*
X0087894Y0062947D02*
X0086945Y0062947D01*
X0087543Y0063545D02*
X0087894Y0063545D01*
X0087894Y0064144D02*
X0087594Y0064144D01*
X0087594Y0064742D02*
X0087894Y0064742D01*
X0087894Y0065341D02*
X0087594Y0065341D01*
X0087594Y0065939D02*
X0087894Y0065939D01*
X0087894Y0066538D02*
X0087594Y0066538D01*
X0087594Y0067136D02*
X0087894Y0067136D01*
X0087894Y0067735D02*
X0087594Y0067735D01*
X0087594Y0068333D02*
X0087894Y0068333D01*
X0087894Y0068932D02*
X0087594Y0068932D01*
X0087594Y0069530D02*
X0087894Y0069530D01*
X0087894Y0070129D02*
X0087594Y0070129D01*
X0087594Y0070727D02*
X0087894Y0070727D01*
X0087894Y0071326D02*
X0087594Y0071326D01*
X0087594Y0071924D02*
X0087894Y0071924D01*
X0087894Y0072523D02*
X0087594Y0072523D01*
X0087594Y0073121D02*
X0087894Y0073121D01*
X0087894Y0073720D02*
X0087594Y0073720D01*
X0087594Y0074318D02*
X0087894Y0074318D01*
X0087894Y0074917D02*
X0087594Y0074917D01*
X0087594Y0075515D02*
X0087894Y0075515D01*
X0087894Y0076114D02*
X0087594Y0076114D01*
X0087594Y0076712D02*
X0087894Y0076712D01*
X0087894Y0077311D02*
X0087594Y0077311D01*
X0087594Y0077909D02*
X0087894Y0077909D01*
X0087894Y0078508D02*
X0087594Y0078508D01*
X0087594Y0079106D02*
X0087894Y0079106D01*
X0088177Y0079705D02*
X0087594Y0079705D01*
X0087594Y0080303D02*
X0088776Y0080303D01*
X0089374Y0080902D02*
X0087594Y0080902D01*
X0087594Y0081501D02*
X0089973Y0081501D01*
X0090571Y0082099D02*
X0088038Y0082099D01*
X0088636Y0082698D02*
X0130594Y0082698D01*
X0130594Y0083296D02*
X0089235Y0083296D01*
X0089833Y0083895D02*
X0130594Y0083895D01*
X0130594Y0084493D02*
X0090432Y0084493D01*
X0091030Y0085092D02*
X0130594Y0085092D01*
X0130594Y0085690D02*
X0091629Y0085690D01*
X0092227Y0086289D02*
X0130594Y0086289D01*
X0130594Y0086887D02*
X0092826Y0086887D01*
X0093424Y0087486D02*
X0130594Y0087486D01*
X0130594Y0088084D02*
X0094023Y0088084D01*
X0094621Y0088683D02*
X0130594Y0088683D01*
X0130594Y0089281D02*
X0095220Y0089281D01*
X0095818Y0089880D02*
X0130594Y0089880D01*
X0130594Y0090478D02*
X0096417Y0090478D01*
X0097016Y0091077D02*
X0130594Y0091077D01*
X0130594Y0091675D02*
X0121510Y0091675D01*
X0122955Y0092274D02*
X0130594Y0092274D01*
X0130594Y0092872D02*
X0123613Y0092872D01*
X0124211Y0093471D02*
X0130594Y0093471D01*
X0130594Y0094069D02*
X0127980Y0094069D01*
X0128580Y0094668D02*
X0130594Y0094668D01*
X0130594Y0095266D02*
X0129178Y0095266D01*
X0129777Y0095865D02*
X0130594Y0095865D01*
X0130594Y0096463D02*
X0130375Y0096463D01*
X0125694Y0099456D02*
X0123885Y0099456D01*
X0123286Y0100054D02*
X0125694Y0100054D01*
X0125694Y0100653D02*
X0122167Y0100653D01*
X0125694Y0101251D02*
X0010194Y0101251D01*
X0010194Y0100653D02*
X0107860Y0100653D01*
X0106860Y0100054D02*
X0010194Y0100054D01*
X0010194Y0099456D02*
X0106261Y0099456D01*
X0105758Y0098857D02*
X0010194Y0098857D01*
X0010194Y0098259D02*
X0105510Y0098259D01*
X0105622Y0094069D02*
X0100008Y0094069D01*
X0099410Y0093471D02*
X0105935Y0093471D01*
X0106533Y0092872D02*
X0098811Y0092872D01*
X0098213Y0092274D02*
X0107132Y0092274D01*
X0108516Y0091675D02*
X0097614Y0091675D01*
X0096397Y0095266D02*
X0010194Y0095266D01*
X0010194Y0094668D02*
X0095798Y0094668D01*
X0095200Y0094069D02*
X0010194Y0094069D01*
X0010194Y0093471D02*
X0094601Y0093471D01*
X0094003Y0092872D02*
X0010194Y0092872D01*
X0010194Y0092274D02*
X0093404Y0092274D01*
X0092806Y0091675D02*
X0010194Y0091675D01*
X0010194Y0091077D02*
X0092207Y0091077D01*
X0091609Y0090478D02*
X0010194Y0090478D01*
X0010194Y0089880D02*
X0091010Y0089880D01*
X0090412Y0089281D02*
X0010194Y0089281D01*
X0010194Y0088683D02*
X0089813Y0088683D01*
X0089215Y0088084D02*
X0010194Y0088084D01*
X0010194Y0087486D02*
X0088616Y0087486D01*
X0088018Y0086887D02*
X0010194Y0086887D01*
X0010194Y0086289D02*
X0087419Y0086289D01*
X0086821Y0085690D02*
X0010194Y0085690D01*
X0010194Y0085092D02*
X0086222Y0085092D01*
X0085624Y0084493D02*
X0010194Y0084493D01*
X0010194Y0083895D02*
X0022156Y0083895D01*
X0022190Y0083928D02*
X0021210Y0082949D01*
X0020680Y0081670D01*
X0020680Y0080285D01*
X0021210Y0079005D01*
X0022190Y0078026D01*
X0023469Y0077496D01*
X0024854Y0077496D01*
X0026133Y0078026D01*
X0027113Y0079005D01*
X0027643Y0080285D01*
X0027643Y0081670D01*
X0027113Y0082949D01*
X0026133Y0083928D01*
X0024854Y0084458D01*
X0023469Y0084458D01*
X0022190Y0083928D01*
X0021557Y0083296D02*
X0010194Y0083296D01*
X0010194Y0082698D02*
X0021106Y0082698D01*
X0020858Y0082099D02*
X0010194Y0082099D01*
X0010194Y0081501D02*
X0020680Y0081501D01*
X0020680Y0080902D02*
X0010194Y0080902D01*
X0010194Y0080303D02*
X0020680Y0080303D01*
X0020920Y0079705D02*
X0010194Y0079705D01*
X0010194Y0079106D02*
X0021168Y0079106D01*
X0021708Y0078508D02*
X0010194Y0078508D01*
X0010194Y0077909D02*
X0022471Y0077909D01*
X0025852Y0077909D02*
X0084194Y0077909D01*
X0084194Y0077311D02*
X0010194Y0077311D01*
X0010194Y0076712D02*
X0084194Y0076712D01*
X0084194Y0076114D02*
X0010194Y0076114D01*
X0010194Y0075515D02*
X0084194Y0075515D01*
X0084194Y0074917D02*
X0010194Y0074917D01*
X0010194Y0074318D02*
X0084194Y0074318D01*
X0084194Y0073720D02*
X0010194Y0073720D01*
X0010194Y0073121D02*
X0084194Y0073121D01*
X0084194Y0072523D02*
X0010194Y0072523D01*
X0010194Y0071924D02*
X0084194Y0071924D01*
X0084194Y0071326D02*
X0010194Y0071326D01*
X0010194Y0070727D02*
X0084194Y0070727D01*
X0084194Y0070129D02*
X0010194Y0070129D01*
X0010194Y0095865D02*
X0096995Y0095865D01*
X0097594Y0096463D02*
X0010194Y0096463D01*
X0010194Y0097062D02*
X0098192Y0097062D01*
X0098791Y0097660D02*
X0010194Y0097660D01*
X0010194Y0101850D02*
X0125694Y0101850D01*
X0125694Y0102448D02*
X0010194Y0102448D01*
X0010194Y0103047D02*
X0125694Y0103047D01*
X0125694Y0103645D02*
X0010194Y0103645D01*
X0010194Y0104244D02*
X0125694Y0104244D01*
X0125694Y0104842D02*
X0010194Y0104842D01*
X0010194Y0105441D02*
X0125694Y0105441D01*
X0125694Y0106039D02*
X0010194Y0106039D01*
X0010194Y0106638D02*
X0125694Y0106638D01*
X0125694Y0107237D02*
X0010194Y0107237D01*
X0010194Y0107835D02*
X0125694Y0107835D01*
X0125694Y0108434D02*
X0010194Y0108434D01*
X0010194Y0109032D02*
X0125694Y0109032D01*
X0125694Y0109631D02*
X0010194Y0109631D01*
X0010194Y0110229D02*
X0125694Y0110229D01*
X0125694Y0110828D02*
X0010194Y0110828D01*
X0010194Y0111426D02*
X0125694Y0111426D01*
X0125694Y0112025D02*
X0120908Y0112025D01*
X0120848Y0112000D02*
X0122613Y0112731D01*
X0123963Y0114081D01*
X0124694Y0115845D01*
X0124694Y0117755D01*
X0123963Y0119519D01*
X0122613Y0120869D01*
X0120848Y0121600D01*
X0118939Y0121600D01*
X0117175Y0120869D01*
X0115824Y0119519D01*
X0115094Y0117755D01*
X0115094Y0115845D01*
X0115824Y0114081D01*
X0117175Y0112731D01*
X0118939Y0112000D01*
X0120848Y0112000D01*
X0122353Y0112623D02*
X0125694Y0112623D01*
X0125694Y0113222D02*
X0123104Y0113222D01*
X0123702Y0113820D02*
X0125694Y0113820D01*
X0125694Y0114419D02*
X0124103Y0114419D01*
X0124351Y0115017D02*
X0125694Y0115017D01*
X0125694Y0115616D02*
X0124599Y0115616D01*
X0124694Y0116214D02*
X0125694Y0116214D01*
X0125694Y0116813D02*
X0124694Y0116813D01*
X0124694Y0117411D02*
X0125694Y0117411D01*
X0125694Y0118010D02*
X0124588Y0118010D01*
X0124340Y0118608D02*
X0125694Y0118608D01*
X0125694Y0119207D02*
X0124092Y0119207D01*
X0123677Y0119805D02*
X0125694Y0119805D01*
X0125694Y0120404D02*
X0123078Y0120404D01*
X0122292Y0121002D02*
X0125694Y0121002D01*
X0125694Y0121601D02*
X0103294Y0121601D01*
X0103294Y0122199D02*
X0125694Y0122199D01*
X0125694Y0122798D02*
X0103294Y0122798D01*
X0103294Y0123396D02*
X0125694Y0123396D01*
X0125694Y0123995D02*
X0103294Y0123995D01*
X0103294Y0124593D02*
X0125694Y0124593D01*
X0125694Y0125192D02*
X0103294Y0125192D01*
X0103294Y0125790D02*
X0125694Y0125790D01*
X0125694Y0126389D02*
X0103294Y0126389D01*
X0103294Y0126987D02*
X0125694Y0126987D01*
X0125694Y0127586D02*
X0103294Y0127586D01*
X0103294Y0128184D02*
X0125694Y0128184D01*
X0125694Y0128783D02*
X0103357Y0128783D01*
X0103955Y0129381D02*
X0125694Y0129381D01*
X0125694Y0129980D02*
X0104554Y0129980D01*
X0105152Y0130578D02*
X0125694Y0130578D01*
X0125694Y0131177D02*
X0105751Y0131177D01*
X0106349Y0131775D02*
X0125694Y0131775D01*
X0125694Y0132374D02*
X0106948Y0132374D01*
X0107546Y0132972D02*
X0125694Y0132972D01*
X0125694Y0133571D02*
X0108145Y0133571D01*
X0108743Y0134170D02*
X0125694Y0134170D01*
X0125694Y0134768D02*
X0109342Y0134768D01*
X0108559Y0135965D02*
X0097894Y0135965D01*
X0097894Y0136300D02*
X0097894Y0132820D01*
X0098094Y0132337D01*
X0098094Y0131263D01*
X0097894Y0130780D01*
X0097894Y0128800D01*
X0085394Y0128800D01*
X0085394Y0114300D01*
X0097394Y0114300D01*
X0101894Y0118800D01*
X0101894Y0129300D01*
X0108894Y0136300D01*
X0130594Y0136300D01*
X0130594Y0146300D01*
X0107894Y0146300D01*
X0097894Y0136300D01*
X0098157Y0136564D02*
X0130594Y0136564D01*
X0130594Y0137162D02*
X0098756Y0137162D01*
X0099354Y0137761D02*
X0130594Y0137761D01*
X0130594Y0138359D02*
X0099953Y0138359D01*
X0100551Y0138958D02*
X0130594Y0138958D01*
X0130594Y0139556D02*
X0101150Y0139556D01*
X0101748Y0140155D02*
X0130594Y0140155D01*
X0130594Y0140753D02*
X0102347Y0140753D01*
X0102945Y0141352D02*
X0130594Y0141352D01*
X0130594Y0141950D02*
X0103544Y0141950D01*
X0104142Y0142549D02*
X0130594Y0142549D01*
X0130594Y0143147D02*
X0104741Y0143147D01*
X0105339Y0143746D02*
X0130594Y0143746D01*
X0130594Y0144344D02*
X0105938Y0144344D01*
X0106536Y0144943D02*
X0130594Y0144943D01*
X0130594Y0145541D02*
X0107135Y0145541D01*
X0107733Y0146140D02*
X0130594Y0146140D01*
X0130594Y0147935D02*
X0089524Y0147935D01*
X0089694Y0148345D02*
X0088963Y0146581D01*
X0087613Y0145231D01*
X0085848Y0144500D01*
X0083939Y0144500D01*
X0082175Y0145231D01*
X0080824Y0146581D01*
X0080094Y0148345D01*
X0080094Y0150255D01*
X0080824Y0152019D01*
X0082175Y0153369D01*
X0083939Y0154100D01*
X0085848Y0154100D01*
X0087613Y0153369D01*
X0088963Y0152019D01*
X0089694Y0150255D01*
X0089694Y0148345D01*
X0089694Y0148534D02*
X0130594Y0148534D01*
X0130594Y0149132D02*
X0089694Y0149132D01*
X0089694Y0149731D02*
X0130594Y0149731D01*
X0130594Y0150329D02*
X0089663Y0150329D01*
X0089415Y0150928D02*
X0130594Y0150928D01*
X0130594Y0151526D02*
X0089167Y0151526D01*
X0088857Y0152125D02*
X0130594Y0152125D01*
X0130594Y0152723D02*
X0088259Y0152723D01*
X0087660Y0153322D02*
X0130594Y0153322D01*
X0130594Y0153920D02*
X0086282Y0153920D01*
X0083505Y0153920D02*
X0076282Y0153920D01*
X0075848Y0154100D02*
X0073939Y0154100D01*
X0072175Y0153369D01*
X0070824Y0152019D01*
X0070094Y0150255D01*
X0070094Y0148345D01*
X0070824Y0146581D01*
X0072175Y0145231D01*
X0073939Y0144500D01*
X0075848Y0144500D01*
X0077613Y0145231D01*
X0078963Y0146581D01*
X0079694Y0148345D01*
X0079694Y0150255D01*
X0078963Y0152019D01*
X0077613Y0153369D01*
X0075848Y0154100D01*
X0077660Y0153322D02*
X0082127Y0153322D01*
X0081529Y0152723D02*
X0078259Y0152723D01*
X0078857Y0152125D02*
X0080930Y0152125D01*
X0080620Y0151526D02*
X0079167Y0151526D01*
X0079415Y0150928D02*
X0080373Y0150928D01*
X0080125Y0150329D02*
X0079663Y0150329D01*
X0079694Y0149731D02*
X0080094Y0149731D01*
X0080094Y0149132D02*
X0079694Y0149132D01*
X0079694Y0148534D02*
X0080094Y0148534D01*
X0080263Y0147935D02*
X0079524Y0147935D01*
X0079276Y0147337D02*
X0080511Y0147337D01*
X0080759Y0146738D02*
X0079028Y0146738D01*
X0078522Y0146140D02*
X0081266Y0146140D01*
X0081864Y0145541D02*
X0077923Y0145541D01*
X0076917Y0144943D02*
X0082870Y0144943D01*
X0086917Y0144943D02*
X0104557Y0144943D01*
X0105155Y0145541D02*
X0087923Y0145541D01*
X0088522Y0146140D02*
X0105754Y0146140D01*
X0106352Y0146738D02*
X0089028Y0146738D01*
X0089276Y0147337D02*
X0106951Y0147337D01*
X0103958Y0144344D02*
X0028994Y0144344D01*
X0028994Y0143746D02*
X0103359Y0143746D01*
X0102761Y0143147D02*
X0028994Y0143147D01*
X0028994Y0142549D02*
X0102162Y0142549D01*
X0101564Y0141950D02*
X0028994Y0141950D01*
X0028994Y0141352D02*
X0100965Y0141352D01*
X0100367Y0140753D02*
X0028994Y0140753D01*
X0028994Y0140155D02*
X0099768Y0140155D01*
X0099170Y0139556D02*
X0028994Y0139556D01*
X0028994Y0138958D02*
X0098571Y0138958D01*
X0097973Y0138359D02*
X0028994Y0138359D01*
X0028994Y0137844D02*
X0028994Y0146756D01*
X0028349Y0147400D01*
X0019438Y0147400D01*
X0018794Y0146756D01*
X0018794Y0137844D01*
X0019438Y0137200D01*
X0028349Y0137200D01*
X0028994Y0137844D01*
X0028910Y0137761D02*
X0097374Y0137761D01*
X0096776Y0137162D02*
X0010194Y0137162D01*
X0010194Y0136564D02*
X0096494Y0136564D01*
X0096494Y0135965D02*
X0010194Y0135965D01*
X0010194Y0135367D02*
X0096494Y0135367D01*
X0096494Y0134768D02*
X0010194Y0134768D01*
X0010194Y0134170D02*
X0096494Y0134170D01*
X0096494Y0133571D02*
X0010194Y0133571D01*
X0010194Y0132972D02*
X0096494Y0132972D01*
X0096494Y0132374D02*
X0010194Y0132374D01*
X0010194Y0131775D02*
X0096494Y0131775D01*
X0096494Y0131177D02*
X0010194Y0131177D01*
X0010194Y0130578D02*
X0096494Y0130578D01*
X0097894Y0130578D02*
X0103172Y0130578D01*
X0102574Y0129980D02*
X0097894Y0129980D01*
X0097894Y0129381D02*
X0101975Y0129381D01*
X0101894Y0128783D02*
X0085394Y0128783D01*
X0085394Y0128184D02*
X0101894Y0128184D01*
X0101894Y0127586D02*
X0085394Y0127586D01*
X0085394Y0126987D02*
X0101894Y0126987D01*
X0101894Y0126389D02*
X0085394Y0126389D01*
X0085394Y0125790D02*
X0101894Y0125790D01*
X0101894Y0125192D02*
X0085394Y0125192D01*
X0085394Y0124593D02*
X0101894Y0124593D01*
X0101894Y0123995D02*
X0085394Y0123995D01*
X0085394Y0123396D02*
X0101894Y0123396D01*
X0101894Y0122798D02*
X0085394Y0122798D01*
X0085394Y0122199D02*
X0101894Y0122199D01*
X0101894Y0121601D02*
X0085394Y0121601D01*
X0085394Y0121002D02*
X0101894Y0121002D01*
X0101894Y0120404D02*
X0085394Y0120404D01*
X0085394Y0119805D02*
X0101894Y0119805D01*
X0101894Y0119207D02*
X0085394Y0119207D01*
X0085394Y0118608D02*
X0101702Y0118608D01*
X0101103Y0118010D02*
X0085394Y0118010D01*
X0085394Y0117411D02*
X0100505Y0117411D01*
X0099906Y0116813D02*
X0085394Y0116813D01*
X0085394Y0116214D02*
X0099308Y0116214D01*
X0098709Y0115616D02*
X0085394Y0115616D01*
X0085394Y0115017D02*
X0098111Y0115017D01*
X0097512Y0114419D02*
X0085394Y0114419D01*
X0083994Y0114419D02*
X0056310Y0114419D01*
X0056558Y0115017D02*
X0083994Y0115017D01*
X0083994Y0115616D02*
X0056694Y0115616D01*
X0056694Y0115345D02*
X0055963Y0113581D01*
X0054613Y0112231D01*
X0052848Y0111500D01*
X0050939Y0111500D01*
X0049175Y0112231D01*
X0047824Y0113581D01*
X0047094Y0115345D01*
X0047094Y0117255D01*
X0047824Y0119019D01*
X0049175Y0120369D01*
X0050939Y0121100D01*
X0052848Y0121100D01*
X0054613Y0120369D01*
X0055963Y0119019D01*
X0056694Y0117255D01*
X0056694Y0115345D01*
X0056694Y0116214D02*
X0083994Y0116214D01*
X0083994Y0116813D02*
X0056694Y0116813D01*
X0056629Y0117411D02*
X0083994Y0117411D01*
X0083994Y0118010D02*
X0056381Y0118010D01*
X0056133Y0118608D02*
X0083994Y0118608D01*
X0083994Y0119207D02*
X0055775Y0119207D01*
X0055177Y0119805D02*
X0083994Y0119805D01*
X0083994Y0120404D02*
X0054529Y0120404D01*
X0053084Y0121002D02*
X0083994Y0121002D01*
X0083994Y0121601D02*
X0010194Y0121601D01*
X0010194Y0122199D02*
X0083994Y0122199D01*
X0083994Y0122798D02*
X0010194Y0122798D01*
X0010194Y0123396D02*
X0083994Y0123396D01*
X0083994Y0123995D02*
X0010194Y0123995D01*
X0010194Y0124593D02*
X0083994Y0124593D01*
X0083994Y0125192D02*
X0010194Y0125192D01*
X0010194Y0125790D02*
X0083994Y0125790D01*
X0083994Y0126389D02*
X0010194Y0126389D01*
X0010194Y0126987D02*
X0083994Y0126987D01*
X0083994Y0127586D02*
X0010194Y0127586D01*
X0010194Y0128184D02*
X0083994Y0128184D01*
X0083994Y0128783D02*
X0010194Y0128783D01*
X0010194Y0129381D02*
X0083995Y0129381D01*
X0084594Y0129980D02*
X0010194Y0129980D01*
X0010194Y0137761D02*
X0018877Y0137761D01*
X0018794Y0138359D02*
X0010194Y0138359D01*
X0010194Y0138958D02*
X0018794Y0138958D01*
X0018794Y0139556D02*
X0010194Y0139556D01*
X0010194Y0140155D02*
X0018794Y0140155D01*
X0018794Y0140753D02*
X0010194Y0140753D01*
X0010194Y0141352D02*
X0018794Y0141352D01*
X0018794Y0141950D02*
X0010194Y0141950D01*
X0010194Y0142549D02*
X0018794Y0142549D01*
X0018794Y0143147D02*
X0010194Y0143147D01*
X0010194Y0143746D02*
X0018794Y0143746D01*
X0018794Y0144344D02*
X0010194Y0144344D01*
X0010194Y0144943D02*
X0018794Y0144943D01*
X0018794Y0145541D02*
X0010194Y0145541D01*
X0010194Y0146140D02*
X0018794Y0146140D01*
X0018794Y0146738D02*
X0010194Y0146738D01*
X0010194Y0147337D02*
X0019375Y0147337D01*
X0028413Y0147337D02*
X0070511Y0147337D01*
X0070263Y0147935D02*
X0010194Y0147935D01*
X0010194Y0148534D02*
X0070094Y0148534D01*
X0070094Y0149132D02*
X0010194Y0149132D01*
X0010194Y0149731D02*
X0070094Y0149731D01*
X0070125Y0150329D02*
X0010194Y0150329D01*
X0010194Y0150928D02*
X0070373Y0150928D01*
X0070620Y0151526D02*
X0010194Y0151526D01*
X0010194Y0152125D02*
X0070930Y0152125D01*
X0071529Y0152723D02*
X0010194Y0152723D01*
X0010194Y0153322D02*
X0072127Y0153322D01*
X0073505Y0153920D02*
X0010194Y0153920D01*
X0010194Y0154519D02*
X0130594Y0154519D01*
X0130594Y0155117D02*
X0010194Y0155117D01*
X0010194Y0155716D02*
X0130594Y0155716D01*
X0130594Y0156314D02*
X0010194Y0156314D01*
X0010194Y0156913D02*
X0130594Y0156913D01*
X0130594Y0157511D02*
X0010194Y0157511D01*
X0010194Y0158110D02*
X0130594Y0158110D01*
X0130594Y0158708D02*
X0010194Y0158708D01*
X0010194Y0159307D02*
X0130594Y0159307D01*
X0130594Y0159905D02*
X0010194Y0159905D01*
X0010194Y0160504D02*
X0130594Y0160504D01*
X0130594Y0161103D02*
X0010194Y0161103D01*
X0010194Y0161701D02*
X0130594Y0161701D01*
X0130594Y0162300D02*
X0010194Y0162300D01*
X0010194Y0162898D02*
X0130594Y0162898D01*
X0130594Y0163497D02*
X0010194Y0163497D01*
X0010194Y0164095D02*
X0130594Y0164095D01*
X0130594Y0164694D02*
X0010194Y0164694D01*
X0010194Y0165292D02*
X0130594Y0165292D01*
X0130594Y0165891D02*
X0010194Y0165891D01*
X0028994Y0146738D02*
X0070759Y0146738D01*
X0071266Y0146140D02*
X0028994Y0146140D01*
X0028994Y0145541D02*
X0071864Y0145541D01*
X0072870Y0144943D02*
X0028994Y0144943D01*
X0047159Y0117411D02*
X0010194Y0117411D01*
X0010194Y0116813D02*
X0047094Y0116813D01*
X0047094Y0116214D02*
X0010194Y0116214D01*
X0010194Y0115616D02*
X0047094Y0115616D01*
X0047230Y0115017D02*
X0010194Y0115017D01*
X0010194Y0114419D02*
X0047477Y0114419D01*
X0047725Y0113820D02*
X0010194Y0113820D01*
X0010194Y0113222D02*
X0048184Y0113222D01*
X0048782Y0112623D02*
X0010194Y0112623D01*
X0010194Y0112025D02*
X0049672Y0112025D01*
X0047406Y0118010D02*
X0010194Y0118010D01*
X0010194Y0118608D02*
X0047654Y0118608D01*
X0048012Y0119207D02*
X0010194Y0119207D01*
X0010194Y0119805D02*
X0048611Y0119805D01*
X0049258Y0120404D02*
X0010194Y0120404D01*
X0010194Y0121002D02*
X0050703Y0121002D01*
X0055005Y0112623D02*
X0107435Y0112623D01*
X0107175Y0112731D02*
X0108939Y0112000D01*
X0110848Y0112000D01*
X0112613Y0112731D01*
X0113963Y0114081D01*
X0114694Y0115845D01*
X0114694Y0117755D01*
X0113963Y0119519D01*
X0112613Y0120869D01*
X0110848Y0121600D01*
X0108939Y0121600D01*
X0107175Y0120869D01*
X0105824Y0119519D01*
X0105094Y0117755D01*
X0105094Y0115845D01*
X0105824Y0114081D01*
X0107175Y0112731D01*
X0106684Y0113222D02*
X0098295Y0113222D01*
X0098894Y0113820D02*
X0106085Y0113820D01*
X0105685Y0114419D02*
X0099492Y0114419D01*
X0100091Y0115017D02*
X0105437Y0115017D01*
X0105189Y0115616D02*
X0100689Y0115616D01*
X0101288Y0116214D02*
X0105094Y0116214D01*
X0105094Y0116813D02*
X0101886Y0116813D01*
X0102485Y0117411D02*
X0105094Y0117411D01*
X0105199Y0118010D02*
X0103083Y0118010D01*
X0103294Y0118608D02*
X0105447Y0118608D01*
X0105695Y0119207D02*
X0103294Y0119207D01*
X0103294Y0119805D02*
X0106111Y0119805D01*
X0106709Y0120404D02*
X0103294Y0120404D01*
X0103294Y0121002D02*
X0107496Y0121002D01*
X0112292Y0121002D02*
X0117496Y0121002D01*
X0116709Y0120404D02*
X0113078Y0120404D01*
X0113677Y0119805D02*
X0116111Y0119805D01*
X0115695Y0119207D02*
X0114092Y0119207D01*
X0114340Y0118608D02*
X0115447Y0118608D01*
X0115199Y0118010D02*
X0114588Y0118010D01*
X0114694Y0117411D02*
X0115094Y0117411D01*
X0115094Y0116813D02*
X0114694Y0116813D01*
X0114694Y0116214D02*
X0115094Y0116214D01*
X0115189Y0115616D02*
X0114599Y0115616D01*
X0114351Y0115017D02*
X0115437Y0115017D01*
X0115685Y0114419D02*
X0114103Y0114419D01*
X0113702Y0113820D02*
X0116085Y0113820D01*
X0116684Y0113222D02*
X0113104Y0113222D01*
X0112353Y0112623D02*
X0117435Y0112623D01*
X0118880Y0112025D02*
X0110908Y0112025D01*
X0108880Y0112025D02*
X0054115Y0112025D01*
X0055604Y0113222D02*
X0084492Y0113222D01*
X0083994Y0113820D02*
X0056062Y0113820D01*
X0085025Y0083895D02*
X0026167Y0083895D01*
X0026766Y0083296D02*
X0084427Y0083296D01*
X0084194Y0082698D02*
X0027217Y0082698D01*
X0027465Y0082099D02*
X0084194Y0082099D01*
X0084194Y0081501D02*
X0027643Y0081501D01*
X0027643Y0080902D02*
X0084194Y0080902D01*
X0084194Y0080303D02*
X0027643Y0080303D01*
X0027402Y0079705D02*
X0084194Y0079705D01*
X0084194Y0079106D02*
X0027154Y0079106D01*
X0026615Y0078508D02*
X0084194Y0078508D01*
X0090894Y0075515D02*
X0091003Y0075515D01*
X0090894Y0074917D02*
X0091458Y0074917D01*
X0091894Y0074318D02*
X0090894Y0074318D01*
X0090894Y0073720D02*
X0091894Y0073720D01*
X0091894Y0073121D02*
X0090894Y0073121D01*
X0090894Y0072523D02*
X0091894Y0072523D01*
X0091894Y0071924D02*
X0090894Y0071924D01*
X0090894Y0071326D02*
X0091894Y0071326D01*
X0091894Y0070727D02*
X0090894Y0070727D01*
X0090894Y0070129D02*
X0091894Y0070129D01*
X0091894Y0069530D02*
X0090894Y0069530D01*
X0090894Y0068932D02*
X0091894Y0068932D01*
X0091894Y0068333D02*
X0090894Y0068333D01*
X0090894Y0067735D02*
X0091894Y0067735D01*
X0091894Y0067136D02*
X0090894Y0067136D01*
X0090894Y0066538D02*
X0091894Y0066538D01*
X0091894Y0065939D02*
X0090894Y0065939D01*
X0090894Y0065341D02*
X0091894Y0065341D01*
X0091894Y0064742D02*
X0090894Y0064742D01*
X0090894Y0064144D02*
X0091894Y0064144D01*
X0091894Y0063545D02*
X0090894Y0063545D01*
X0090894Y0062947D02*
X0091894Y0062947D01*
X0111271Y0091675D02*
X0119277Y0091675D01*
X0117832Y0092274D02*
X0112656Y0092274D01*
X0113254Y0092872D02*
X0117175Y0092872D01*
X0116576Y0093471D02*
X0113853Y0093471D01*
X0113526Y0099456D02*
X0116903Y0099456D01*
X0117501Y0100054D02*
X0112928Y0100054D01*
X0111928Y0100653D02*
X0118621Y0100653D01*
X0103771Y0131177D02*
X0098058Y0131177D01*
X0098094Y0131775D02*
X0104369Y0131775D01*
X0104968Y0132374D02*
X0098078Y0132374D01*
X0097894Y0132972D02*
X0105566Y0132972D01*
X0106165Y0133571D02*
X0097894Y0133571D01*
X0097894Y0134170D02*
X0106763Y0134170D01*
X0107362Y0134768D02*
X0097894Y0134768D01*
X0097894Y0135367D02*
X0107960Y0135367D01*
X0051552Y0019854D02*
X0019977Y0019854D01*
X0021422Y0019255D02*
X0052150Y0019255D01*
X0040202Y0040203D02*
X0024448Y0040203D01*
X0025828Y0040802D02*
X0039733Y0040802D01*
X0039485Y0041400D02*
X0026427Y0041400D01*
X0027025Y0041999D02*
X0039237Y0041999D01*
X0039094Y0042597D02*
X0027386Y0042597D01*
X0027634Y0043196D02*
X0039094Y0043196D01*
X0039094Y0043794D02*
X0027882Y0043794D01*
X0027994Y0044393D02*
X0039151Y0044393D01*
X0039399Y0044991D02*
X0027994Y0044991D01*
X0027994Y0045590D02*
X0039647Y0045590D01*
X0039994Y0046188D02*
X0027955Y0046188D01*
X0027707Y0046787D02*
X0040592Y0046787D01*
X0041214Y0047385D02*
X0027459Y0047385D01*
X0027202Y0047984D02*
X0042659Y0047984D01*
D17*
X0045394Y0173800D03*
X0045394Y0183800D03*
X0045394Y0193800D03*
X0045394Y0203800D03*
X0045394Y0213800D03*
X0045394Y0223800D03*
X0045394Y0233800D03*
X0055394Y0233800D03*
X0055394Y0223800D03*
X0055394Y0213800D03*
X0055394Y0203800D03*
X0055394Y0193800D03*
X0055394Y0183800D03*
X0055394Y0173800D03*
X0065394Y0173800D03*
X0065394Y0183800D03*
X0065394Y0193800D03*
X0065394Y0203800D03*
X0065394Y0213800D03*
X0065394Y0223800D03*
X0065394Y0233800D03*
X0075394Y0233800D03*
X0075394Y0223800D03*
X0075394Y0213800D03*
X0075394Y0203800D03*
X0075394Y0193800D03*
X0075394Y0183800D03*
X0075394Y0173800D03*
X0085394Y0173800D03*
X0085394Y0183800D03*
X0085394Y0193800D03*
X0085394Y0203800D03*
X0085394Y0213800D03*
X0085394Y0223800D03*
X0085394Y0233800D03*
X0095394Y0233800D03*
X0095394Y0223800D03*
X0095394Y0213800D03*
X0095394Y0203800D03*
X0095394Y0193800D03*
X0095394Y0183800D03*
X0095394Y0173800D03*
X0105394Y0173800D03*
X0105394Y0183800D03*
X0105394Y0193800D03*
X0105394Y0203800D03*
X0105394Y0213800D03*
X0105394Y0223800D03*
X0105394Y0233800D03*
X0115394Y0223800D03*
X0115394Y0213800D03*
X0115394Y0203800D03*
X0115394Y0193800D03*
X0115394Y0183800D03*
X0115394Y0173800D03*
X0125394Y0173800D03*
X0125394Y0183800D03*
X0125394Y0193800D03*
X0125394Y0203800D03*
X0125394Y0213800D03*
X0125394Y0223800D03*
X0120394Y0096300D03*
X0120394Y0086300D03*
X0120394Y0076300D03*
X0120394Y0066300D03*
X0120394Y0056300D03*
X0120394Y0046300D03*
X0120394Y0036300D03*
X0120394Y0026300D03*
X0035394Y0173800D03*
X0035394Y0183800D03*
X0035394Y0193800D03*
X0035394Y0203800D03*
X0035394Y0213800D03*
X0035394Y0223800D03*
X0035394Y0233800D03*
X0025394Y0223800D03*
X0025394Y0213800D03*
X0025394Y0203800D03*
X0025394Y0193800D03*
X0025394Y0183800D03*
X0025394Y0173800D03*
X0015394Y0173800D03*
X0015394Y0183800D03*
X0015394Y0193800D03*
X0015394Y0203800D03*
X0015394Y0213800D03*
X0015394Y0223800D03*
D18*
X0091394Y0080800D02*
X0089394Y0078800D01*
X0089394Y0058800D01*
X0084894Y0054300D01*
X0066894Y0054300D01*
X0069394Y0034300D02*
X0073394Y0030300D01*
X0073394Y0010800D01*
X0075894Y0008300D01*
X0089894Y0008300D01*
X0096394Y0014800D01*
X0096394Y0062300D01*
X0100394Y0066300D01*
X0109894Y0066300D01*
X0109894Y0076300D02*
X0107394Y0076300D01*
X0102894Y0080800D01*
X0091394Y0080800D01*
X0093394Y0076800D02*
X0093394Y0026800D01*
X0089894Y0023300D01*
D19*
X0100894Y0031300D02*
X0100894Y0012300D01*
X0100894Y0031300D02*
X0105894Y0036300D01*
X0109894Y0036300D01*
D20*
X0085894Y0064300D02*
X0085894Y0082359D01*
X0099894Y0096359D01*
X0109835Y0096359D01*
X0109894Y0096300D01*
X0085894Y0064300D02*
X0081394Y0059800D01*
X0075394Y0059800D01*
D21*
X0109835Y0096359D02*
X0126453Y0096359D01*
X0128394Y0098300D01*
X0128394Y0140800D01*
X0127894Y0141300D01*
M02*
