G75*
%MOIN*%
%OFA0B0*%
%FSLAX25Y25*%
%IPPOS*%
%LPD*%
%AMOC8*
5,1,8,0,0,1.08239X$1,22.5*
%
%ADD10R,0.02205X0.00984*%
%ADD11R,0.07008X0.09252*%
%ADD12R,0.05315X0.01575*%
%ADD13R,0.07480X0.05906*%
%ADD14R,0.18110X0.03937*%
%ADD15R,0.13386X0.06299*%
%ADD16R,0.10500X0.10000*%
%ADD17R,0.03000X0.05000*%
%ADD18R,0.05118X0.05906*%
%ADD19R,0.05906X0.05118*%
%ADD20R,0.02756X0.03543*%
%ADD21R,0.04724X0.04724*%
%ADD22R,0.03543X0.02756*%
%ADD23R,0.02165X0.04724*%
D10*
X0067087Y0070576D03*
X0067087Y0072150D03*
X0067087Y0073725D03*
X0067087Y0075300D03*
X0067087Y0076875D03*
X0067087Y0078450D03*
X0067087Y0080024D03*
X0078701Y0080024D03*
X0078701Y0078450D03*
X0078701Y0076875D03*
X0078701Y0075300D03*
X0078701Y0073725D03*
X0078701Y0072150D03*
X0078701Y0070576D03*
D11*
X0072894Y0075300D03*
D12*
X0026425Y0068182D03*
X0026425Y0070741D03*
X0026425Y0073300D03*
X0026425Y0075859D03*
X0026425Y0078418D03*
D13*
X0015894Y0077237D03*
X0015933Y0069363D03*
D14*
X0036461Y0107363D03*
X0036461Y0115237D03*
D15*
X0015988Y0124686D03*
X0015988Y0097914D03*
D16*
X0040894Y0083300D03*
D17*
X0031644Y0083300D03*
D18*
X0061154Y0088300D03*
X0061154Y0096300D03*
X0068634Y0096300D03*
X0068634Y0088300D03*
X0077154Y0088300D03*
X0077154Y0096300D03*
X0084634Y0096300D03*
X0084634Y0088300D03*
D19*
X0052894Y0088540D03*
X0052894Y0081060D03*
D20*
X0066835Y0065300D03*
X0066835Y0059800D03*
X0071953Y0059800D03*
X0071953Y0065300D03*
X0074453Y0039800D03*
X0069335Y0039800D03*
X0062453Y0013300D03*
X0057335Y0013300D03*
X0082335Y0013300D03*
X0087453Y0013300D03*
X0083453Y0116800D03*
X0078335Y0116800D03*
X0071453Y0123300D03*
X0066335Y0123300D03*
X0077335Y0141300D03*
X0082453Y0141300D03*
X0088335Y0135300D03*
X0093453Y0135300D03*
D21*
X0076028Y0047300D03*
X0067760Y0047300D03*
D22*
X0054394Y0067241D03*
X0054394Y0072359D03*
D23*
X0076154Y0124182D03*
X0076154Y0134418D03*
X0079894Y0134418D03*
X0083634Y0134418D03*
X0083634Y0124182D03*
M02*
